G04 #@! TF.GenerationSoftware,KiCad,Pcbnew,9.0.2-9.0.2-0~ubuntu24.04.1*
G04 #@! TF.CreationDate,2025-06-19T00:16:48+02:00*
G04 #@! TF.ProjectId,DRV8701_2Motors,44525638-3730-4315-9f32-4d6f746f7273,rev?*
G04 #@! TF.SameCoordinates,Original*
G04 #@! TF.FileFunction,Paste,Top*
G04 #@! TF.FilePolarity,Positive*
%FSLAX46Y46*%
G04 Gerber Fmt 4.6, Leading zero omitted, Abs format (unit mm)*
G04 Created by KiCad (PCBNEW 9.0.2-9.0.2-0~ubuntu24.04.1) date 2025-06-19 00:16:48*
%MOMM*%
%LPD*%
G01*
G04 APERTURE LIST*
G04 Aperture macros list*
%AMRoundRect*
0 Rectangle with rounded corners*
0 $1 Rounding radius*
0 $2 $3 $4 $5 $6 $7 $8 $9 X,Y pos of 4 corners*
0 Add a 4 corners polygon primitive as box body*
4,1,4,$2,$3,$4,$5,$6,$7,$8,$9,$2,$3,0*
0 Add four circle primitives for the rounded corners*
1,1,$1+$1,$2,$3*
1,1,$1+$1,$4,$5*
1,1,$1+$1,$6,$7*
1,1,$1+$1,$8,$9*
0 Add four rect primitives between the rounded corners*
20,1,$1+$1,$2,$3,$4,$5,0*
20,1,$1+$1,$4,$5,$6,$7,0*
20,1,$1+$1,$6,$7,$8,$9,0*
20,1,$1+$1,$8,$9,$2,$3,0*%
G04 Aperture macros list end*
%ADD10C,0.010000*%
%ADD11RoundRect,0.210000X0.490000X-0.590000X0.490000X0.590000X-0.490000X0.590000X-0.490000X-0.590000X0*%
%ADD12RoundRect,0.225000X-0.250000X0.225000X-0.250000X-0.225000X0.250000X-0.225000X0.250000X0.225000X0*%
%ADD13RoundRect,0.237500X-0.237500X0.287500X-0.237500X-0.287500X0.237500X-0.287500X0.237500X0.287500X0*%
%ADD14R,0.400000X0.600000*%
%ADD15R,0.400000X0.880000*%
%ADD16R,0.400000X0.820000*%
%ADD17R,0.400000X0.840000*%
%ADD18R,0.400000X0.830000*%
%ADD19R,4.210000X3.500000*%
%ADD20RoundRect,0.079500X0.100500X-0.079500X0.100500X0.079500X-0.100500X0.079500X-0.100500X-0.079500X0*%
%ADD21RoundRect,0.140000X0.140000X0.170000X-0.140000X0.170000X-0.140000X-0.170000X0.140000X-0.170000X0*%
%ADD22R,0.600000X0.400000*%
%ADD23R,0.880000X0.400000*%
%ADD24R,0.820000X0.400000*%
%ADD25R,0.840000X0.400000*%
%ADD26R,0.830000X0.400000*%
%ADD27R,3.500000X4.210000*%
%ADD28RoundRect,0.135000X0.185000X-0.135000X0.185000X0.135000X-0.185000X0.135000X-0.185000X-0.135000X0*%
%ADD29R,0.740000X2.400000*%
%ADD30RoundRect,0.250000X0.250000X0.475000X-0.250000X0.475000X-0.250000X-0.475000X0.250000X-0.475000X0*%
%ADD31RoundRect,0.140000X-0.140000X-0.170000X0.140000X-0.170000X0.140000X0.170000X-0.140000X0.170000X0*%
%ADD32RoundRect,0.140000X0.170000X-0.140000X0.170000X0.140000X-0.170000X0.140000X-0.170000X-0.140000X0*%
%ADD33RoundRect,0.135000X0.135000X0.185000X-0.135000X0.185000X-0.135000X-0.185000X0.135000X-0.185000X0*%
%ADD34RoundRect,0.090000X0.660000X0.360000X-0.660000X0.360000X-0.660000X-0.360000X0.660000X-0.360000X0*%
%ADD35RoundRect,0.140000X-0.170000X0.140000X-0.170000X-0.140000X0.170000X-0.140000X0.170000X0.140000X0*%
%ADD36RoundRect,0.051250X-0.733750X-0.153750X0.733750X-0.153750X0.733750X0.153750X-0.733750X0.153750X0*%
%ADD37RoundRect,0.135000X-0.185000X0.135000X-0.185000X-0.135000X0.185000X-0.135000X0.185000X0.135000X0*%
%ADD38RoundRect,0.079500X-0.100500X0.079500X-0.100500X-0.079500X0.100500X-0.079500X0.100500X0.079500X0*%
%ADD39RoundRect,0.218750X-0.256250X0.218750X-0.256250X-0.218750X0.256250X-0.218750X0.256250X0.218750X0*%
%ADD40RoundRect,0.032500X0.372500X0.097500X-0.372500X0.097500X-0.372500X-0.097500X0.372500X-0.097500X0*%
%ADD41RoundRect,0.032500X0.097500X0.372500X-0.097500X0.372500X-0.097500X-0.372500X0.097500X-0.372500X0*%
%ADD42RoundRect,0.250000X-0.250000X-0.475000X0.250000X-0.475000X0.250000X0.475000X-0.250000X0.475000X0*%
%ADD43RoundRect,0.075000X-0.700000X-0.075000X0.700000X-0.075000X0.700000X0.075000X-0.700000X0.075000X0*%
%ADD44RoundRect,0.075000X-0.075000X-0.700000X0.075000X-0.700000X0.075000X0.700000X-0.075000X0.700000X0*%
%ADD45RoundRect,0.032500X0.097500X-0.372500X0.097500X0.372500X-0.097500X0.372500X-0.097500X-0.372500X0*%
%ADD46RoundRect,0.032500X0.372500X-0.097500X0.372500X0.097500X-0.372500X0.097500X-0.372500X-0.097500X0*%
%ADD47RoundRect,0.150000X-0.150000X0.825000X-0.150000X-0.825000X0.150000X-0.825000X0.150000X0.825000X0*%
%ADD48R,2.000000X1.400000*%
%ADD49RoundRect,0.237500X-0.237500X0.250000X-0.237500X-0.250000X0.237500X-0.250000X0.237500X0.250000X0*%
%ADD50R,0.600000X0.900000*%
%ADD51RoundRect,0.150000X0.150000X-0.825000X0.150000X0.825000X-0.150000X0.825000X-0.150000X-0.825000X0*%
G04 APERTURE END LIST*
D10*
X162740000Y-108700000D02*
X161510000Y-108700000D01*
X161510000Y-107470000D01*
X162740000Y-107470000D01*
X162740000Y-108700000D01*
G36*
X162740000Y-108700000D02*
G01*
X161510000Y-108700000D01*
X161510000Y-107470000D01*
X162740000Y-107470000D01*
X162740000Y-108700000D01*
G37*
X162740000Y-110130000D02*
X161510000Y-110130000D01*
X161510000Y-108900000D01*
X162740000Y-108900000D01*
X162740000Y-110130000D01*
G36*
X162740000Y-110130000D02*
G01*
X161510000Y-110130000D01*
X161510000Y-108900000D01*
X162740000Y-108900000D01*
X162740000Y-110130000D01*
G37*
X164170000Y-108700000D02*
X162940000Y-108700000D01*
X162940000Y-107470000D01*
X164170000Y-107470000D01*
X164170000Y-108700000D01*
G36*
X164170000Y-108700000D02*
G01*
X162940000Y-108700000D01*
X162940000Y-107470000D01*
X164170000Y-107470000D01*
X164170000Y-108700000D01*
G37*
X164170000Y-110130000D02*
X162940000Y-110130000D01*
X162940000Y-108900000D01*
X164170000Y-108900000D01*
X164170000Y-110130000D01*
G36*
X164170000Y-110130000D02*
G01*
X162940000Y-110130000D01*
X162940000Y-108900000D01*
X164170000Y-108900000D01*
X164170000Y-110130000D01*
G37*
X125540000Y-104570000D02*
X124310000Y-104570000D01*
X124310000Y-103340000D01*
X125540000Y-103340000D01*
X125540000Y-104570000D01*
G36*
X125540000Y-104570000D02*
G01*
X124310000Y-104570000D01*
X124310000Y-103340000D01*
X125540000Y-103340000D01*
X125540000Y-104570000D01*
G37*
X125540000Y-106000000D02*
X124310000Y-106000000D01*
X124310000Y-104770000D01*
X125540000Y-104770000D01*
X125540000Y-106000000D01*
G36*
X125540000Y-106000000D02*
G01*
X124310000Y-106000000D01*
X124310000Y-104770000D01*
X125540000Y-104770000D01*
X125540000Y-106000000D01*
G37*
X126970000Y-104570000D02*
X125740000Y-104570000D01*
X125740000Y-103340000D01*
X126970000Y-103340000D01*
X126970000Y-104570000D01*
G36*
X126970000Y-104570000D02*
G01*
X125740000Y-104570000D01*
X125740000Y-103340000D01*
X126970000Y-103340000D01*
X126970000Y-104570000D01*
G37*
X126970000Y-106000000D02*
X125740000Y-106000000D01*
X125740000Y-104770000D01*
X126970000Y-104770000D01*
X126970000Y-106000000D01*
G36*
X126970000Y-106000000D02*
G01*
X125740000Y-106000000D01*
X125740000Y-104770000D01*
X126970000Y-104770000D01*
X126970000Y-106000000D01*
G37*
D11*
X127470000Y-84730000D03*
X127470000Y-78930000D03*
X130040000Y-78930000D03*
X130010000Y-84730000D03*
D12*
X132670000Y-83165000D03*
X132670000Y-84715000D03*
X132660000Y-79485000D03*
X132660000Y-81035000D03*
D13*
X161970000Y-68125000D03*
X161970000Y-69875000D03*
D14*
X108940000Y-111970000D03*
X110210000Y-111970000D03*
X111480000Y-111970000D03*
X112750000Y-111970000D03*
D15*
X112750000Y-107010000D03*
D16*
X111480000Y-106980000D03*
D17*
X110210000Y-106990000D03*
D18*
X108940000Y-106985000D03*
D19*
X110845000Y-109120000D03*
D20*
X179680000Y-83435000D03*
X179680000Y-82745000D03*
D21*
X147400000Y-94370000D03*
X146440000Y-94370000D03*
D22*
X115200000Y-107425000D03*
X115200000Y-108695000D03*
X115200000Y-109965000D03*
X115200000Y-111235000D03*
D23*
X120160000Y-111235000D03*
D24*
X120190000Y-109965000D03*
D25*
X120180000Y-108695000D03*
D26*
X120185000Y-107425000D03*
D27*
X118050000Y-109330000D03*
D21*
X124860000Y-108910000D03*
X123900000Y-108910000D03*
D28*
X139405000Y-76850000D03*
X139405000Y-75830000D03*
D29*
X186570000Y-80940000D03*
X186570000Y-84840000D03*
X185300000Y-80940000D03*
X185300000Y-84840000D03*
X184030000Y-80940000D03*
X184030000Y-84840000D03*
X182760000Y-80940000D03*
X182760000Y-84840000D03*
X181490000Y-80940000D03*
X181490000Y-84840000D03*
D30*
X124850000Y-110570000D03*
X122950000Y-110570000D03*
D31*
X165310000Y-111930000D03*
X166270000Y-111930000D03*
D32*
X166135000Y-108655000D03*
X166135000Y-107695000D03*
D28*
X171710000Y-74330000D03*
X171710000Y-73310000D03*
D29*
X101440000Y-84840000D03*
X101440000Y-80940000D03*
X102710000Y-84840000D03*
X102710000Y-80940000D03*
X103980000Y-84840000D03*
X103980000Y-80940000D03*
X105250000Y-84840000D03*
X105250000Y-80940000D03*
X106520000Y-84840000D03*
X106520000Y-80940000D03*
D33*
X138280000Y-98230000D03*
X137260000Y-98230000D03*
X119105000Y-69135000D03*
X118085000Y-69135000D03*
D34*
X160550000Y-91040000D03*
X160550000Y-87740000D03*
X155650000Y-87740000D03*
X155650000Y-91040000D03*
D33*
X119130000Y-71185000D03*
X118110000Y-71185000D03*
D31*
X148520000Y-92620000D03*
X149480000Y-92620000D03*
D35*
X130820000Y-90440000D03*
X130820000Y-91400000D03*
D36*
X140440000Y-95710000D03*
X140440000Y-96360000D03*
X140440000Y-97010000D03*
X140440000Y-97660000D03*
X140440000Y-98310000D03*
X140440000Y-98960000D03*
X140440000Y-99610000D03*
X146180000Y-99610000D03*
X146180000Y-98960000D03*
X146180000Y-98310000D03*
X146180000Y-97660000D03*
X146180000Y-97010000D03*
X146180000Y-96360000D03*
X146180000Y-95710000D03*
D14*
X112785000Y-100580000D03*
X111515000Y-100580000D03*
X110245000Y-100580000D03*
X108975000Y-100580000D03*
D15*
X108975000Y-105540000D03*
D16*
X110245000Y-105570000D03*
D17*
X111515000Y-105560000D03*
D18*
X112785000Y-105565000D03*
D19*
X110880000Y-103430000D03*
D37*
X161970000Y-71820000D03*
X161970000Y-72840000D03*
D21*
X136490000Y-81740000D03*
X135530000Y-81740000D03*
D22*
X175010000Y-111585000D03*
X175010000Y-110315000D03*
X175010000Y-109045000D03*
X175010000Y-107775000D03*
D23*
X170050000Y-107775000D03*
D24*
X170020000Y-109045000D03*
D25*
X170030000Y-110315000D03*
D26*
X170025000Y-111585000D03*
D27*
X172160000Y-109680000D03*
D38*
X108160000Y-77875000D03*
X108160000Y-78565000D03*
D39*
X132875000Y-89507500D03*
X132875000Y-91082500D03*
D14*
X176575000Y-112920000D03*
X177845000Y-112920000D03*
X179115000Y-112920000D03*
X180385000Y-112920000D03*
D15*
X180385000Y-107960000D03*
D16*
X179115000Y-107930000D03*
D17*
X177845000Y-107940000D03*
D18*
X176575000Y-107935000D03*
D19*
X178480000Y-110070000D03*
D20*
X108330000Y-76355000D03*
X108330000Y-75665000D03*
D32*
X166280000Y-110920000D03*
X166280000Y-109960000D03*
D40*
X164795000Y-110050000D03*
X164795000Y-109550000D03*
X164795000Y-109050000D03*
X164795000Y-108550000D03*
X164795000Y-108050000D03*
X164795000Y-107550000D03*
D41*
X164090000Y-106845000D03*
X163590000Y-106845000D03*
X163090000Y-106845000D03*
X162590000Y-106845000D03*
X162090000Y-106845000D03*
X161590000Y-106845000D03*
D40*
X160885000Y-107550000D03*
X160885000Y-108050000D03*
X160885000Y-108550000D03*
X160885000Y-109050000D03*
X160885000Y-109550000D03*
X160885000Y-110050000D03*
D41*
X161590000Y-110755000D03*
X162090000Y-110755000D03*
X162590000Y-110755000D03*
X163090000Y-110755000D03*
X163590000Y-110755000D03*
X164090000Y-110755000D03*
D33*
X150200000Y-96950000D03*
X149180000Y-96950000D03*
D32*
X134375000Y-89375000D03*
X134375000Y-88415000D03*
D21*
X147640000Y-107690000D03*
X146680000Y-107690000D03*
D28*
X144485000Y-76850000D03*
X144485000Y-75830000D03*
D31*
X123795000Y-107906283D03*
X124755000Y-107906283D03*
D38*
X109310000Y-82755000D03*
X109310000Y-83445000D03*
D31*
X128940000Y-104330000D03*
X129900000Y-104330000D03*
D42*
X165300000Y-113560000D03*
X167200000Y-113560000D03*
D43*
X138015000Y-82840000D03*
X138015000Y-83340000D03*
X138015000Y-83840000D03*
X138015000Y-84340000D03*
X138015000Y-84840000D03*
X138015000Y-85340000D03*
X138015000Y-85840000D03*
X138015000Y-86340000D03*
X138015000Y-86840000D03*
X138015000Y-87340000D03*
X138015000Y-87840000D03*
X138015000Y-88340000D03*
X138015000Y-88840000D03*
X138015000Y-89340000D03*
X138015000Y-89840000D03*
X138015000Y-90340000D03*
D44*
X139940000Y-92265000D03*
X140440000Y-92265000D03*
X140940000Y-92265000D03*
X141440000Y-92265000D03*
X141940000Y-92265000D03*
X142440000Y-92265000D03*
X142940000Y-92265000D03*
X143440000Y-92265000D03*
X143940000Y-92265000D03*
X144440000Y-92265000D03*
X144940000Y-92265000D03*
X145440000Y-92265000D03*
X145940000Y-92265000D03*
X146440000Y-92265000D03*
X146940000Y-92265000D03*
X147440000Y-92265000D03*
D43*
X149365000Y-90340000D03*
X149365000Y-89840000D03*
X149365000Y-89340000D03*
X149365000Y-88840000D03*
X149365000Y-88340000D03*
X149365000Y-87840000D03*
X149365000Y-87340000D03*
X149365000Y-86840000D03*
X149365000Y-86340000D03*
X149365000Y-85840000D03*
X149365000Y-85340000D03*
X149365000Y-84840000D03*
X149365000Y-84340000D03*
X149365000Y-83840000D03*
X149365000Y-83340000D03*
X149365000Y-82840000D03*
D44*
X147440000Y-80915000D03*
X146940000Y-80915000D03*
X146440000Y-80915000D03*
X145940000Y-80915000D03*
X145440000Y-80915000D03*
X144940000Y-80915000D03*
X144440000Y-80915000D03*
X143940000Y-80915000D03*
X143440000Y-80915000D03*
X142940000Y-80915000D03*
X142440000Y-80915000D03*
X141940000Y-80915000D03*
X141440000Y-80915000D03*
X140940000Y-80915000D03*
X140440000Y-80915000D03*
X139940000Y-80915000D03*
D33*
X150250000Y-98980000D03*
X149230000Y-98980000D03*
D45*
X124390000Y-106625000D03*
X124890000Y-106625000D03*
X125390000Y-106625000D03*
X125890000Y-106625000D03*
X126390000Y-106625000D03*
X126890000Y-106625000D03*
D46*
X127595000Y-105920000D03*
X127595000Y-105420000D03*
X127595000Y-104920000D03*
X127595000Y-104420000D03*
X127595000Y-103920000D03*
X127595000Y-103420000D03*
D45*
X126890000Y-102715000D03*
X126390000Y-102715000D03*
X125890000Y-102715000D03*
X125390000Y-102715000D03*
X124890000Y-102715000D03*
X124390000Y-102715000D03*
D46*
X123685000Y-103420000D03*
X123685000Y-103920000D03*
X123685000Y-104420000D03*
X123685000Y-104920000D03*
X123685000Y-105420000D03*
X123685000Y-105920000D03*
D31*
X149670000Y-80720000D03*
X150630000Y-80720000D03*
D32*
X145150000Y-103800000D03*
X145150000Y-102840000D03*
D47*
X119880000Y-80285000D03*
X118610000Y-80285000D03*
X117340000Y-80285000D03*
X116070000Y-80285000D03*
X114800000Y-80285000D03*
X113530000Y-80285000D03*
X112260000Y-80285000D03*
X110990000Y-80285000D03*
X110990000Y-85235000D03*
X112260000Y-85235000D03*
X113530000Y-85235000D03*
X114800000Y-85235000D03*
X116070000Y-85235000D03*
X117340000Y-85235000D03*
X118610000Y-85235000D03*
X119880000Y-85235000D03*
D48*
X128990000Y-94610000D03*
X122990000Y-94610000D03*
X128990000Y-90610000D03*
X122990000Y-90610000D03*
D32*
X135775000Y-89375000D03*
X135775000Y-88415000D03*
D28*
X173690000Y-75190000D03*
X173690000Y-74170000D03*
D31*
X128930000Y-105570000D03*
X129890000Y-105570000D03*
D22*
X115210000Y-101640000D03*
X115210000Y-102910000D03*
X115210000Y-104180000D03*
X115210000Y-105450000D03*
D23*
X120170000Y-105450000D03*
D24*
X120200000Y-104180000D03*
D25*
X120190000Y-102910000D03*
D26*
X120195000Y-101640000D03*
D27*
X118060000Y-103545000D03*
D49*
X153040000Y-89367500D03*
X153040000Y-91192500D03*
D21*
X140000000Y-102470000D03*
X139040000Y-102470000D03*
D31*
X159070000Y-92950000D03*
X160030000Y-92950000D03*
D50*
X141430000Y-104510000D03*
X142380000Y-104510000D03*
X143330000Y-104510000D03*
X143330000Y-101710000D03*
X141430000Y-101710000D03*
D32*
X164920000Y-80000000D03*
X164920000Y-79040000D03*
D28*
X141945000Y-76850000D03*
X141945000Y-75830000D03*
D22*
X175010000Y-105860000D03*
X175010000Y-104590000D03*
X175010000Y-103320000D03*
X175010000Y-102050000D03*
D23*
X170050000Y-102050000D03*
D24*
X170020000Y-103320000D03*
D25*
X170030000Y-104590000D03*
D26*
X170025000Y-105860000D03*
D27*
X172160000Y-103955000D03*
D28*
X147025000Y-76850000D03*
X147025000Y-75830000D03*
D33*
X138110000Y-95860000D03*
X137090000Y-95860000D03*
D31*
X149670000Y-81850000D03*
X150630000Y-81850000D03*
D32*
X142430000Y-106930000D03*
X142430000Y-105970000D03*
D14*
X180550000Y-100320000D03*
X179280000Y-100320000D03*
X178010000Y-100320000D03*
X176740000Y-100320000D03*
D15*
X176740000Y-105280000D03*
D16*
X178010000Y-105310000D03*
D17*
X179280000Y-105300000D03*
D18*
X180550000Y-105305000D03*
D19*
X178645000Y-103170000D03*
D32*
X164010000Y-105600000D03*
X164010000Y-104640000D03*
D31*
X120120000Y-87290000D03*
X121080000Y-87290000D03*
D32*
X162260000Y-105620000D03*
X162260000Y-104660000D03*
D38*
X170070000Y-88255000D03*
X170070000Y-88945000D03*
D32*
X138700000Y-80680000D03*
X138700000Y-79720000D03*
D51*
X166295000Y-85795000D03*
X167565000Y-85795000D03*
X168835000Y-85795000D03*
X170105000Y-85795000D03*
X171375000Y-85795000D03*
X172645000Y-85795000D03*
X173915000Y-85795000D03*
X175185000Y-85795000D03*
X175185000Y-80845000D03*
X173915000Y-80845000D03*
X172645000Y-80845000D03*
X171375000Y-80845000D03*
X170105000Y-80845000D03*
X168835000Y-80845000D03*
X167565000Y-80845000D03*
X166295000Y-80845000D03*
D31*
X125745000Y-107915000D03*
X126705000Y-107915000D03*
D29*
X131850000Y-70100000D03*
X131850000Y-74000000D03*
X130580000Y-70100000D03*
X130580000Y-74000000D03*
X129310000Y-70100000D03*
X129310000Y-74000000D03*
X128040000Y-70100000D03*
X128040000Y-74000000D03*
X126770000Y-70100000D03*
X126770000Y-74000000D03*
X125500000Y-70100000D03*
X125500000Y-74000000D03*
X124230000Y-70100000D03*
X124230000Y-74000000D03*
D21*
X141405000Y-94425000D03*
X140445000Y-94425000D03*
D20*
X170820000Y-78725000D03*
X170820000Y-78035000D03*
M02*
