G04 #@! TF.GenerationSoftware,KiCad,Pcbnew,9.0.2-9.0.2-0~ubuntu24.04.1*
G04 #@! TF.CreationDate,2025-06-28T12:31:45+02:00*
G04 #@! TF.ProjectId,DRV8701_2Motors,44525638-3730-4315-9f32-4d6f746f7273,rev?*
G04 #@! TF.SameCoordinates,Original*
G04 #@! TF.FileFunction,Paste,Top*
G04 #@! TF.FilePolarity,Positive*
%FSLAX46Y46*%
G04 Gerber Fmt 4.6, Leading zero omitted, Abs format (unit mm)*
G04 Created by KiCad (PCBNEW 9.0.2-9.0.2-0~ubuntu24.04.1) date 2025-06-28 12:31:45*
%MOMM*%
%LPD*%
G01*
G04 APERTURE LIST*
G04 Aperture macros list*
%AMRoundRect*
0 Rectangle with rounded corners*
0 $1 Rounding radius*
0 $2 $3 $4 $5 $6 $7 $8 $9 X,Y pos of 4 corners*
0 Add a 4 corners polygon primitive as box body*
4,1,4,$2,$3,$4,$5,$6,$7,$8,$9,$2,$3,0*
0 Add four circle primitives for the rounded corners*
1,1,$1+$1,$2,$3*
1,1,$1+$1,$4,$5*
1,1,$1+$1,$6,$7*
1,1,$1+$1,$8,$9*
0 Add four rect primitives between the rounded corners*
20,1,$1+$1,$2,$3,$4,$5,0*
20,1,$1+$1,$4,$5,$6,$7,0*
20,1,$1+$1,$6,$7,$8,$9,0*
20,1,$1+$1,$8,$9,$2,$3,0*%
G04 Aperture macros list end*
%ADD10C,0.010000*%
%ADD11RoundRect,0.140000X0.140000X0.170000X-0.140000X0.170000X-0.140000X-0.170000X0.140000X-0.170000X0*%
%ADD12RoundRect,0.250000X0.475000X-0.250000X0.475000X0.250000X-0.475000X0.250000X-0.475000X-0.250000X0*%
%ADD13RoundRect,0.032500X-0.097500X0.372500X-0.097500X-0.372500X0.097500X-0.372500X0.097500X0.372500X0*%
%ADD14RoundRect,0.032500X-0.372500X0.097500X-0.372500X-0.097500X0.372500X-0.097500X0.372500X0.097500X0*%
%ADD15RoundRect,0.140000X-0.170000X0.140000X-0.170000X-0.140000X0.170000X-0.140000X0.170000X0.140000X0*%
%ADD16RoundRect,0.140000X0.170000X-0.140000X0.170000X0.140000X-0.170000X0.140000X-0.170000X-0.140000X0*%
%ADD17R,3.500000X4.210000*%
%ADD18R,0.830000X0.400000*%
%ADD19R,0.840000X0.400000*%
%ADD20R,0.820000X0.400000*%
%ADD21R,0.880000X0.400000*%
%ADD22R,0.600000X0.400000*%
%ADD23RoundRect,0.237500X-0.237500X0.287500X-0.237500X-0.287500X0.237500X-0.287500X0.237500X0.287500X0*%
%ADD24R,0.400000X0.600000*%
%ADD25R,0.400000X0.880000*%
%ADD26R,0.400000X0.820000*%
%ADD27R,0.400000X0.840000*%
%ADD28R,0.400000X0.830000*%
%ADD29R,4.210000X3.500000*%
%ADD30RoundRect,0.079500X-0.079500X-0.100500X0.079500X-0.100500X0.079500X0.100500X-0.079500X0.100500X0*%
%ADD31RoundRect,0.210000X0.590000X0.490000X-0.590000X0.490000X-0.590000X-0.490000X0.590000X-0.490000X0*%
%ADD32RoundRect,0.135000X-0.185000X0.135000X-0.185000X-0.135000X0.185000X-0.135000X0.185000X0.135000X0*%
%ADD33R,0.740000X2.400000*%
%ADD34RoundRect,0.090000X-0.660000X-0.360000X0.660000X-0.360000X0.660000X0.360000X-0.660000X0.360000X0*%
%ADD35RoundRect,0.051250X0.733750X0.153750X-0.733750X0.153750X-0.733750X-0.153750X0.733750X-0.153750X0*%
%ADD36RoundRect,0.200000X-0.275000X0.200000X-0.275000X-0.200000X0.275000X-0.200000X0.275000X0.200000X0*%
%ADD37RoundRect,0.218750X-0.218750X-0.256250X0.218750X-0.256250X0.218750X0.256250X-0.218750X0.256250X0*%
%ADD38RoundRect,0.079500X0.079500X0.100500X-0.079500X0.100500X-0.079500X-0.100500X0.079500X-0.100500X0*%
%ADD39RoundRect,0.135000X0.185000X-0.135000X0.185000X0.135000X-0.185000X0.135000X-0.185000X-0.135000X0*%
%ADD40RoundRect,0.225000X-0.225000X-0.250000X0.225000X-0.250000X0.225000X0.250000X-0.225000X0.250000X0*%
%ADD41RoundRect,0.075000X0.700000X0.075000X-0.700000X0.075000X-0.700000X-0.075000X0.700000X-0.075000X0*%
%ADD42RoundRect,0.075000X0.075000X0.700000X-0.075000X0.700000X-0.075000X-0.700000X0.075000X-0.700000X0*%
%ADD43RoundRect,0.140000X-0.140000X-0.170000X0.140000X-0.170000X0.140000X0.170000X-0.140000X0.170000X0*%
%ADD44RoundRect,0.150000X0.150000X-0.825000X0.150000X0.825000X-0.150000X0.825000X-0.150000X-0.825000X0*%
%ADD45R,1.350000X0.600000*%
%ADD46R,0.600000X0.900000*%
%ADD47RoundRect,0.150000X-0.150000X0.825000X-0.150000X-0.825000X0.150000X-0.825000X0.150000X0.825000X0*%
%ADD48R,2.400000X0.740000*%
G04 APERTURE END LIST*
D10*
X113555000Y-65200000D02*
X112325000Y-65200000D01*
X112325000Y-63970000D01*
X113555000Y-63970000D01*
X113555000Y-65200000D01*
G36*
X113555000Y-65200000D02*
G01*
X112325000Y-65200000D01*
X112325000Y-63970000D01*
X113555000Y-63970000D01*
X113555000Y-65200000D01*
G37*
X112125000Y-65200000D02*
X110895000Y-65200000D01*
X110895000Y-63970000D01*
X112125000Y-63970000D01*
X112125000Y-65200000D01*
G36*
X112125000Y-65200000D02*
G01*
X110895000Y-65200000D01*
X110895000Y-63970000D01*
X112125000Y-63970000D01*
X112125000Y-65200000D01*
G37*
X113555000Y-66630000D02*
X112325000Y-66630000D01*
X112325000Y-65400000D01*
X113555000Y-65400000D01*
X113555000Y-66630000D01*
G36*
X113555000Y-66630000D02*
G01*
X112325000Y-66630000D01*
X112325000Y-65400000D01*
X113555000Y-65400000D01*
X113555000Y-66630000D01*
G37*
X112125000Y-66630000D02*
X110895000Y-66630000D01*
X110895000Y-65400000D01*
X112125000Y-65400000D01*
X112125000Y-66630000D01*
G36*
X112125000Y-66630000D02*
G01*
X110895000Y-66630000D01*
X110895000Y-65400000D01*
X112125000Y-65400000D01*
X112125000Y-66630000D01*
G37*
X157720000Y-65310000D02*
X156490000Y-65310000D01*
X156490000Y-64080000D01*
X157720000Y-64080000D01*
X157720000Y-65310000D01*
G36*
X157720000Y-65310000D02*
G01*
X156490000Y-65310000D01*
X156490000Y-64080000D01*
X157720000Y-64080000D01*
X157720000Y-65310000D01*
G37*
X156290000Y-65310000D02*
X155060000Y-65310000D01*
X155060000Y-64080000D01*
X156290000Y-64080000D01*
X156290000Y-65310000D01*
G36*
X156290000Y-65310000D02*
G01*
X155060000Y-65310000D01*
X155060000Y-64080000D01*
X156290000Y-64080000D01*
X156290000Y-65310000D01*
G37*
X157720000Y-66740000D02*
X156490000Y-66740000D01*
X156490000Y-65510000D01*
X157720000Y-65510000D01*
X157720000Y-66740000D01*
G36*
X157720000Y-66740000D02*
G01*
X156490000Y-66740000D01*
X156490000Y-65510000D01*
X157720000Y-65510000D01*
X157720000Y-66740000D01*
G37*
X156290000Y-66740000D02*
X155060000Y-66740000D01*
X155060000Y-65510000D01*
X156290000Y-65510000D01*
X156290000Y-66740000D01*
G36*
X156290000Y-66740000D02*
G01*
X155060000Y-66740000D01*
X155060000Y-65510000D01*
X156290000Y-65510000D01*
X156290000Y-66740000D01*
G37*
D11*
X115815000Y-66650000D03*
X116775000Y-66650000D03*
X116775000Y-65450000D03*
X115815000Y-65450000D03*
D12*
X109900000Y-61350000D03*
X109900000Y-59450000D03*
D13*
X113475000Y-63345000D03*
X112975000Y-63345000D03*
X112475000Y-63345000D03*
X111975000Y-63345000D03*
X111475000Y-63345000D03*
X110975000Y-63345000D03*
D14*
X110270000Y-64050000D03*
X110270000Y-64550000D03*
X110270000Y-65050000D03*
X110270000Y-65550000D03*
X110270000Y-66050000D03*
X110270000Y-66550000D03*
D13*
X110975000Y-67255000D03*
X111475000Y-67255000D03*
X111975000Y-67255000D03*
X112475000Y-67255000D03*
X112975000Y-67255000D03*
X113475000Y-67255000D03*
D14*
X114180000Y-66550000D03*
X114180000Y-66050000D03*
X114180000Y-65550000D03*
X114180000Y-65050000D03*
X114180000Y-64550000D03*
X114180000Y-64050000D03*
D15*
X112800000Y-60320000D03*
X112800000Y-61280000D03*
D11*
X116775000Y-64250000D03*
X115815000Y-64250000D03*
D16*
X111600000Y-61280000D03*
X111600000Y-60320000D03*
D17*
X162700000Y-57700000D03*
D18*
X160565000Y-59605000D03*
D19*
X160570000Y-58335000D03*
D20*
X160560000Y-57065000D03*
D21*
X160590000Y-55795000D03*
D22*
X165550000Y-55795000D03*
X165550000Y-57065000D03*
X165550000Y-58335000D03*
X165550000Y-59605000D03*
X102050000Y-62695000D03*
X102050000Y-63965000D03*
X102050000Y-65235000D03*
X102050000Y-66505000D03*
D21*
X107010000Y-66505000D03*
D20*
X107040000Y-65235000D03*
D19*
X107030000Y-63965000D03*
D18*
X107035000Y-62695000D03*
D17*
X104900000Y-64600000D03*
D23*
X85290000Y-70735000D03*
X85290000Y-72485000D03*
D24*
X172405000Y-55050000D03*
X171135000Y-55050000D03*
X169865000Y-55050000D03*
X168595000Y-55050000D03*
D25*
X168595000Y-60010000D03*
D26*
X169865000Y-60040000D03*
D27*
X171135000Y-60030000D03*
D28*
X172405000Y-60035000D03*
D29*
X170500000Y-57900000D03*
D30*
X109095000Y-79060000D03*
X109785000Y-79060000D03*
D31*
X151440000Y-83830000D03*
X145640000Y-83830000D03*
X145640000Y-81260000D03*
X151440000Y-81290000D03*
D16*
X131990000Y-69070000D03*
X131990000Y-68110000D03*
X157590000Y-61490000D03*
X157590000Y-60530000D03*
D32*
X137790000Y-83410000D03*
X137790000Y-84430000D03*
D33*
X106180000Y-86610000D03*
X106180000Y-82710000D03*
X107450000Y-86610000D03*
X107450000Y-82710000D03*
X108720000Y-86610000D03*
X108720000Y-82710000D03*
X109990000Y-86610000D03*
X109990000Y-82710000D03*
X111260000Y-86610000D03*
X111260000Y-82710000D03*
D12*
X155890000Y-61560000D03*
X155890000Y-59660000D03*
D32*
X132990000Y-83410000D03*
X132990000Y-84430000D03*
D33*
X156465000Y-86635000D03*
X156465000Y-82735000D03*
X157735000Y-86635000D03*
X157735000Y-82735000D03*
X159005000Y-86635000D03*
X159005000Y-82735000D03*
X160275000Y-86635000D03*
X160275000Y-82735000D03*
X161545000Y-86635000D03*
X161545000Y-82735000D03*
D32*
X145490000Y-67200000D03*
X145490000Y-68220000D03*
X138990000Y-83410000D03*
X138990000Y-84430000D03*
D34*
X122670000Y-75060000D03*
X122670000Y-78360000D03*
X127570000Y-78360000D03*
X127570000Y-75060000D03*
D32*
X140190000Y-83410000D03*
X140190000Y-84430000D03*
D16*
X130890000Y-69080000D03*
X130890000Y-68120000D03*
X152500000Y-76480000D03*
X152500000Y-75520000D03*
D35*
X139630000Y-66970000D03*
X139630000Y-66320000D03*
X139630000Y-65670000D03*
X139630000Y-65020000D03*
X139630000Y-64370000D03*
X139630000Y-63720000D03*
X139630000Y-63070000D03*
X133890000Y-63070000D03*
X133890000Y-63720000D03*
X133890000Y-64370000D03*
X133890000Y-65020000D03*
X133890000Y-65670000D03*
X133890000Y-66320000D03*
X133890000Y-66970000D03*
D24*
X168595000Y-67250000D03*
X169865000Y-67250000D03*
X171135000Y-67250000D03*
X172405000Y-67250000D03*
D25*
X172405000Y-62290000D03*
D26*
X171135000Y-62260000D03*
D27*
X169865000Y-62270000D03*
D28*
X168595000Y-62265000D03*
D29*
X170500000Y-64400000D03*
D36*
X85290000Y-74385000D03*
X85290000Y-76035000D03*
D15*
X142590000Y-83440000D03*
X142590000Y-84400000D03*
D22*
X102050000Y-55895000D03*
X102050000Y-57165000D03*
X102050000Y-58435000D03*
X102050000Y-59705000D03*
D21*
X107010000Y-59705000D03*
D20*
X107040000Y-58435000D03*
D19*
X107030000Y-57165000D03*
D18*
X107035000Y-55895000D03*
D17*
X104900000Y-57800000D03*
D30*
X161690000Y-79835000D03*
X162380000Y-79835000D03*
D37*
X145152500Y-69850000D03*
X146727500Y-69850000D03*
D24*
X99005000Y-55050000D03*
X97735000Y-55050000D03*
X96465000Y-55050000D03*
X95195000Y-55050000D03*
D25*
X95195000Y-60010000D03*
D26*
X96465000Y-60040000D03*
D27*
X97735000Y-60030000D03*
D28*
X99005000Y-60035000D03*
D29*
X97100000Y-57900000D03*
D38*
X157280000Y-79835000D03*
X156590000Y-79835000D03*
D39*
X131990000Y-67130000D03*
X131990000Y-66110000D03*
D15*
X146590000Y-71200000D03*
X146590000Y-72160000D03*
X130890000Y-64130000D03*
X130890000Y-65090000D03*
D32*
X135390000Y-83410000D03*
X135390000Y-84430000D03*
D15*
X158790000Y-60530000D03*
X158790000Y-61490000D03*
D30*
X165315000Y-79835000D03*
X166005000Y-79835000D03*
D40*
X146065000Y-78650000D03*
X147615000Y-78650000D03*
D11*
X152770000Y-66310000D03*
X151810000Y-66310000D03*
D32*
X144290000Y-67200000D03*
X144290000Y-68220000D03*
D41*
X142775000Y-78960000D03*
X142775000Y-78460000D03*
X142775000Y-77960000D03*
X142775000Y-77460000D03*
X142775000Y-76960000D03*
X142775000Y-76460000D03*
X142775000Y-75960000D03*
X142775000Y-75460000D03*
X142775000Y-74960000D03*
X142775000Y-74460000D03*
X142775000Y-73960000D03*
X142775000Y-73460000D03*
X142775000Y-72960000D03*
X142775000Y-72460000D03*
X142775000Y-71960000D03*
X142775000Y-71460000D03*
D42*
X140850000Y-69535000D03*
X140350000Y-69535000D03*
X139850000Y-69535000D03*
X139350000Y-69535000D03*
X138850000Y-69535000D03*
X138350000Y-69535000D03*
X137850000Y-69535000D03*
X137350000Y-69535000D03*
X136850000Y-69535000D03*
X136350000Y-69535000D03*
X135850000Y-69535000D03*
X135350000Y-69535000D03*
X134850000Y-69535000D03*
X134350000Y-69535000D03*
X133850000Y-69535000D03*
X133350000Y-69535000D03*
D41*
X131425000Y-71460000D03*
X131425000Y-71960000D03*
X131425000Y-72460000D03*
X131425000Y-72960000D03*
X131425000Y-73460000D03*
X131425000Y-73960000D03*
X131425000Y-74460000D03*
X131425000Y-74960000D03*
X131425000Y-75460000D03*
X131425000Y-75960000D03*
X131425000Y-76460000D03*
X131425000Y-76960000D03*
X131425000Y-77460000D03*
X131425000Y-77960000D03*
X131425000Y-78460000D03*
X131425000Y-78960000D03*
D42*
X133350000Y-80885000D03*
X133850000Y-80885000D03*
X134350000Y-80885000D03*
X134850000Y-80885000D03*
X135350000Y-80885000D03*
X135850000Y-80885000D03*
X136350000Y-80885000D03*
X136850000Y-80885000D03*
X137350000Y-80885000D03*
X137850000Y-80885000D03*
X138350000Y-80885000D03*
X138850000Y-80885000D03*
X139350000Y-80885000D03*
X139850000Y-80885000D03*
X140350000Y-80885000D03*
X140850000Y-80885000D03*
D39*
X130890000Y-67120000D03*
X130890000Y-66100000D03*
D13*
X157640000Y-63455000D03*
X157140000Y-63455000D03*
X156640000Y-63455000D03*
X156140000Y-63455000D03*
X155640000Y-63455000D03*
X155140000Y-63455000D03*
D14*
X154435000Y-64160000D03*
X154435000Y-64660000D03*
X154435000Y-65160000D03*
X154435000Y-65660000D03*
X154435000Y-66160000D03*
X154435000Y-66660000D03*
D13*
X155140000Y-67365000D03*
X155640000Y-67365000D03*
X156140000Y-67365000D03*
X156640000Y-67365000D03*
X157140000Y-67365000D03*
X157640000Y-67365000D03*
D14*
X158345000Y-66660000D03*
X158345000Y-66160000D03*
X158345000Y-65660000D03*
X158345000Y-65160000D03*
X158345000Y-64660000D03*
X158345000Y-64160000D03*
D43*
X129890000Y-80410000D03*
X130850000Y-80410000D03*
D40*
X149365000Y-78650000D03*
X150915000Y-78650000D03*
D15*
X115890000Y-73530000D03*
X115890000Y-74490000D03*
D44*
X155290000Y-76910000D03*
X156560000Y-76910000D03*
X157830000Y-76910000D03*
X159100000Y-76910000D03*
X160370000Y-76910000D03*
X161640000Y-76910000D03*
X162910000Y-76910000D03*
X164180000Y-76910000D03*
X164180000Y-71960000D03*
X162910000Y-71960000D03*
X161640000Y-71960000D03*
X160370000Y-71960000D03*
X159100000Y-71960000D03*
X157830000Y-71960000D03*
X156560000Y-71960000D03*
X155290000Y-71960000D03*
D45*
X167100000Y-88540000D03*
X172150000Y-88540000D03*
X172150000Y-86840000D03*
X167100000Y-86840000D03*
D15*
X145190000Y-71190000D03*
X145190000Y-72150000D03*
D32*
X131790000Y-83410000D03*
X131790000Y-84430000D03*
D11*
X152770000Y-65110000D03*
X151810000Y-65110000D03*
D22*
X165550000Y-66505000D03*
X165550000Y-65235000D03*
X165550000Y-63965000D03*
X165550000Y-62695000D03*
D21*
X160590000Y-62695000D03*
D20*
X160560000Y-63965000D03*
D19*
X160570000Y-65235000D03*
D18*
X160565000Y-66505000D03*
D17*
X162700000Y-64600000D03*
D32*
X126490000Y-72000000D03*
X126490000Y-73020000D03*
D16*
X115890000Y-78490000D03*
X115890000Y-77530000D03*
D15*
X124090000Y-72030000D03*
X124090000Y-72990000D03*
D46*
X119640000Y-74810000D03*
X118690000Y-74810000D03*
X117740000Y-74810000D03*
X117740000Y-77610000D03*
X119640000Y-77610000D03*
D16*
X115890000Y-76490000D03*
X115890000Y-75530000D03*
D30*
X111495000Y-79060000D03*
X112185000Y-79060000D03*
D32*
X136590000Y-83410000D03*
X136590000Y-84430000D03*
X134190000Y-83410000D03*
X134190000Y-84430000D03*
D39*
X143090000Y-68220000D03*
X143090000Y-67200000D03*
X147890000Y-68220000D03*
X147890000Y-67200000D03*
D43*
X129890000Y-81610000D03*
X130850000Y-81610000D03*
D15*
X125290000Y-72030000D03*
X125290000Y-72990000D03*
D24*
X95195000Y-67250000D03*
X96465000Y-67250000D03*
X97735000Y-67250000D03*
X99005000Y-67250000D03*
D25*
X99005000Y-62290000D03*
D26*
X97735000Y-62260000D03*
D27*
X96465000Y-62270000D03*
D28*
X95195000Y-62265000D03*
D29*
X97100000Y-64400000D03*
D15*
X152500000Y-73520000D03*
X152500000Y-74480000D03*
X141890000Y-67230000D03*
X141890000Y-68190000D03*
D38*
X104685000Y-79060000D03*
X103995000Y-79060000D03*
D15*
X141390000Y-83440000D03*
X141390000Y-84400000D03*
D47*
X112900000Y-71610000D03*
X111630000Y-71610000D03*
X110360000Y-71610000D03*
X109090000Y-71610000D03*
X107820000Y-71610000D03*
X106550000Y-71610000D03*
X105280000Y-71610000D03*
X104010000Y-71610000D03*
X104010000Y-76560000D03*
X105280000Y-76560000D03*
X106550000Y-76560000D03*
X107820000Y-76560000D03*
X109090000Y-76560000D03*
X110360000Y-76560000D03*
X111630000Y-76560000D03*
X112900000Y-76560000D03*
D11*
X152770000Y-67510000D03*
X151810000Y-67510000D03*
D48*
X180690000Y-78820000D03*
X176790000Y-78820000D03*
X180690000Y-77550000D03*
X176790000Y-77550000D03*
X180690000Y-76280000D03*
X176790000Y-76280000D03*
X180690000Y-75010000D03*
X176790000Y-75010000D03*
X180690000Y-73740000D03*
X176790000Y-73740000D03*
X180690000Y-72470000D03*
X176790000Y-72470000D03*
X180690000Y-71200000D03*
X176790000Y-71200000D03*
D16*
X146690000Y-68190000D03*
X146690000Y-67230000D03*
M02*
