G04 #@! TF.GenerationSoftware,KiCad,Pcbnew,9.0.4-9.0.4-0~ubuntu24.04.1*
G04 #@! TF.CreationDate,2025-09-16T16:13:20+02:00*
G04 #@! TF.ProjectId,DRV8701_2Motors,44525638-3730-4315-9f32-4d6f746f7273,rev?*
G04 #@! TF.SameCoordinates,Original*
G04 #@! TF.FileFunction,Paste,Top*
G04 #@! TF.FilePolarity,Positive*
%FSLAX46Y46*%
G04 Gerber Fmt 4.6, Leading zero omitted, Abs format (unit mm)*
G04 Created by KiCad (PCBNEW 9.0.4-9.0.4-0~ubuntu24.04.1) date 2025-09-16 16:13:20*
%MOMM*%
%LPD*%
G01*
G04 APERTURE LIST*
G04 Aperture macros list*
%AMRoundRect*
0 Rectangle with rounded corners*
0 $1 Rounding radius*
0 $2 $3 $4 $5 $6 $7 $8 $9 X,Y pos of 4 corners*
0 Add a 4 corners polygon primitive as box body*
4,1,4,$2,$3,$4,$5,$6,$7,$8,$9,$2,$3,0*
0 Add four circle primitives for the rounded corners*
1,1,$1+$1,$2,$3*
1,1,$1+$1,$4,$5*
1,1,$1+$1,$6,$7*
1,1,$1+$1,$8,$9*
0 Add four rect primitives between the rounded corners*
20,1,$1+$1,$2,$3,$4,$5,0*
20,1,$1+$1,$4,$5,$6,$7,0*
20,1,$1+$1,$6,$7,$8,$9,0*
20,1,$1+$1,$8,$9,$2,$3,0*%
G04 Aperture macros list end*
%ADD10C,0.010000*%
%ADD11R,0.420000X0.280000*%
%ADD12R,0.616000X0.280000*%
%ADD13R,0.574000X0.280000*%
%ADD14R,0.588000X0.280000*%
%ADD15R,0.581000X0.280000*%
%ADD16R,2.450000X2.947000*%
%ADD17RoundRect,0.094500X-0.129500X0.094500X-0.129500X-0.094500X0.129500X-0.094500X0.129500X0.094500X0*%
%ADD18RoundRect,0.098000X-0.098000X-0.119000X0.098000X-0.119000X0.098000X0.119000X-0.098000X0.119000X0*%
%ADD19RoundRect,0.175000X-0.332500X0.175000X-0.332500X-0.175000X0.332500X-0.175000X0.332500X0.175000X0*%
%ADD20RoundRect,0.157500X-0.175000X0.157500X-0.175000X-0.157500X0.175000X-0.157500X0.175000X0.157500X0*%
%ADD21RoundRect,0.022750X-0.260750X-0.068250X0.260750X-0.068250X0.260750X0.068250X-0.260750X0.068250X0*%
%ADD22RoundRect,0.022750X-0.068250X-0.260750X0.068250X-0.260750X0.068250X0.260750X-0.068250X0.260750X0*%
%ADD23RoundRect,0.175000X0.455000X-0.227500X0.455000X0.227500X-0.455000X0.227500X-0.455000X-0.227500X0*%
%ADD24RoundRect,0.157500X0.235113X0.012374X0.012374X0.235113X-0.235113X-0.012374X-0.012374X-0.235113X0*%
%ADD25RoundRect,0.094500X0.129500X-0.094500X0.129500X0.094500X-0.129500X0.094500X-0.129500X-0.094500X0*%
%ADD26RoundRect,0.157500X0.175000X-0.157500X0.175000X0.157500X-0.175000X0.157500X-0.175000X-0.157500X0*%
%ADD27RoundRect,0.098000X0.119000X-0.098000X0.119000X0.098000X-0.119000X0.098000X-0.119000X-0.098000X0*%
%ADD28RoundRect,0.094500X0.094500X0.129500X-0.094500X0.129500X-0.094500X-0.129500X0.094500X-0.129500X0*%
%ADD29R,0.280000X0.420000*%
%ADD30R,0.280000X0.616000*%
%ADD31R,0.280000X0.574000*%
%ADD32R,0.280000X0.588000*%
%ADD33R,0.280000X0.581000*%
%ADD34R,2.947000X2.450000*%
%ADD35RoundRect,0.098000X-0.119000X0.098000X-0.119000X-0.098000X0.119000X-0.098000X0.119000X0.098000X0*%
%ADD36R,1.680000X0.518000*%
%ADD37RoundRect,0.098000X0.098000X0.119000X-0.098000X0.119000X-0.098000X-0.119000X0.098000X-0.119000X0*%
%ADD38RoundRect,0.063000X-0.252000X0.462000X-0.252000X-0.462000X0.252000X-0.462000X0.252000X0.462000X0*%
%ADD39RoundRect,0.022750X-0.068250X0.260750X-0.068250X-0.260750X0.068250X-0.260750X0.068250X0.260750X0*%
%ADD40RoundRect,0.022750X-0.260750X0.068250X-0.260750X-0.068250X0.260750X-0.068250X0.260750X0.068250X0*%
%ADD41RoundRect,0.157500X0.157500X0.175000X-0.157500X0.175000X-0.157500X-0.175000X0.157500X-0.175000X0*%
%ADD42RoundRect,0.094500X-0.094500X-0.129500X0.094500X-0.129500X0.094500X0.129500X-0.094500X0.129500X0*%
%ADD43R,0.945000X0.420000*%
%ADD44R,0.518000X1.680000*%
%ADD45RoundRect,0.157500X-0.157500X-0.175000X0.157500X-0.175000X0.157500X0.175000X-0.157500X0.175000X0*%
%ADD46RoundRect,0.147000X-0.534573X0.049497X0.049497X-0.534573X0.534573X-0.049497X-0.049497X0.534573X0*%
%ADD47RoundRect,0.175000X-0.455000X0.227500X-0.455000X-0.227500X0.455000X-0.227500X0.455000X0.227500X0*%
%ADD48RoundRect,0.035875X-0.513625X-0.107625X0.513625X-0.107625X0.513625X0.107625X-0.513625X0.107625X0*%
%ADD49RoundRect,0.166250X0.166250X-0.201250X0.166250X0.201250X-0.166250X0.201250X-0.166250X-0.201250X0*%
%ADD50RoundRect,0.105000X0.577500X0.105000X-0.577500X0.105000X-0.577500X-0.105000X0.577500X-0.105000X0*%
%ADD51RoundRect,0.105000X-0.577500X-0.105000X0.577500X-0.105000X0.577500X0.105000X-0.577500X0.105000X0*%
%ADD52R,0.630000X0.420000*%
%ADD53RoundRect,0.052500X0.490000X0.052500X-0.490000X0.052500X-0.490000X-0.052500X0.490000X-0.052500X0*%
%ADD54RoundRect,0.052500X0.052500X0.490000X-0.052500X0.490000X-0.052500X-0.490000X0.052500X-0.490000X0*%
G04 APERTURE END LIST*
D10*
X101350000Y-78240000D02*
X100120000Y-78240000D01*
X100120000Y-77010000D01*
X101350000Y-77010000D01*
X101350000Y-78240000D01*
G36*
X101350000Y-78240000D02*
G01*
X100120000Y-78240000D01*
X100120000Y-77010000D01*
X101350000Y-77010000D01*
X101350000Y-78240000D01*
G37*
X101350000Y-79670000D02*
X100120000Y-79670000D01*
X100120000Y-78440000D01*
X101350000Y-78440000D01*
X101350000Y-79670000D01*
G36*
X101350000Y-79670000D02*
G01*
X100120000Y-79670000D01*
X100120000Y-78440000D01*
X101350000Y-78440000D01*
X101350000Y-79670000D01*
G37*
X102780000Y-78240000D02*
X101550000Y-78240000D01*
X101550000Y-77010000D01*
X102780000Y-77010000D01*
X102780000Y-78240000D01*
G36*
X102780000Y-78240000D02*
G01*
X101550000Y-78240000D01*
X101550000Y-77010000D01*
X102780000Y-77010000D01*
X102780000Y-78240000D01*
G37*
X102780000Y-79670000D02*
X101550000Y-79670000D01*
X101550000Y-78440000D01*
X102780000Y-78440000D01*
X102780000Y-79670000D01*
G36*
X102780000Y-79670000D02*
G01*
X101550000Y-79670000D01*
X101550000Y-78440000D01*
X102780000Y-78440000D01*
X102780000Y-79670000D01*
G37*
X146945000Y-80440000D02*
X145715000Y-80440000D01*
X145715000Y-79210000D01*
X146945000Y-79210000D01*
X146945000Y-80440000D01*
G36*
X146945000Y-80440000D02*
G01*
X145715000Y-80440000D01*
X145715000Y-79210000D01*
X146945000Y-79210000D01*
X146945000Y-80440000D01*
G37*
X146945000Y-81870000D02*
X145715000Y-81870000D01*
X145715000Y-80640000D01*
X146945000Y-80640000D01*
X146945000Y-81870000D01*
G36*
X146945000Y-81870000D02*
G01*
X145715000Y-81870000D01*
X145715000Y-80640000D01*
X146945000Y-80640000D01*
X146945000Y-81870000D01*
G37*
X148375000Y-80440000D02*
X147145000Y-80440000D01*
X147145000Y-79210000D01*
X148375000Y-79210000D01*
X148375000Y-80440000D01*
G36*
X148375000Y-80440000D02*
G01*
X147145000Y-80440000D01*
X147145000Y-79210000D01*
X148375000Y-79210000D01*
X148375000Y-80440000D01*
G37*
X148375000Y-81870000D02*
X147145000Y-81870000D01*
X147145000Y-80640000D01*
X148375000Y-80640000D01*
X148375000Y-81870000D01*
G36*
X148375000Y-81870000D02*
G01*
X147145000Y-81870000D01*
X147145000Y-80640000D01*
X148375000Y-80640000D01*
X148375000Y-81870000D01*
G37*
D11*
X89020000Y-76110000D03*
X89020000Y-77380000D03*
X89020000Y-78650000D03*
X89020000Y-79920000D03*
D12*
X93980000Y-79920000D03*
D13*
X94010000Y-78650000D03*
D14*
X94000000Y-77380000D03*
D15*
X94005000Y-76110000D03*
D16*
X91870000Y-78015000D03*
D17*
X86500000Y-98070000D03*
X86500000Y-99090000D03*
D18*
X134488500Y-77480000D03*
X135448500Y-77480000D03*
D19*
X146500000Y-73890000D03*
X146500000Y-75790000D03*
X96100000Y-76350000D03*
X96100000Y-78250000D03*
D20*
X96500000Y-80965000D03*
X96500000Y-82515000D03*
D18*
X157740000Y-101145000D03*
X158700000Y-101145000D03*
D17*
X131150000Y-83220000D03*
X131150000Y-84240000D03*
D21*
X99495000Y-77090000D03*
X99495000Y-77590000D03*
X99495000Y-78090000D03*
X99495000Y-78590000D03*
X99495000Y-79090000D03*
X99495000Y-79590000D03*
D22*
X100200000Y-80295000D03*
X100700000Y-80295000D03*
X101200000Y-80295000D03*
X101700000Y-80295000D03*
X102200000Y-80295000D03*
X102700000Y-80295000D03*
D21*
X103405000Y-79590000D03*
X103405000Y-79090000D03*
X103405000Y-78590000D03*
X103405000Y-78090000D03*
X103405000Y-77590000D03*
X103405000Y-77090000D03*
D22*
X102700000Y-76385000D03*
X102200000Y-76385000D03*
X101700000Y-76385000D03*
X101200000Y-76385000D03*
X100700000Y-76385000D03*
X100200000Y-76385000D03*
D23*
X96200000Y-74475000D03*
X96200000Y-71525000D03*
D17*
X126450000Y-99580000D03*
X126450000Y-100600000D03*
D24*
X141556016Y-92876016D03*
X140460000Y-91780000D03*
D25*
X154960000Y-91755000D03*
X154960000Y-90735000D03*
X86520000Y-92740000D03*
X86520000Y-91720000D03*
D26*
X98300000Y-74475000D03*
X98300000Y-72925000D03*
D11*
X157950000Y-79905000D03*
X157950000Y-78635000D03*
X157950000Y-77365000D03*
X157950000Y-76095000D03*
D12*
X152990000Y-76095000D03*
D13*
X152960000Y-77365000D03*
D14*
X152970000Y-78635000D03*
D15*
X152965000Y-79905000D03*
D16*
X155100000Y-78000000D03*
D27*
X119800000Y-99570000D03*
X119800000Y-98610000D03*
D28*
X99115000Y-81590000D03*
X98095000Y-81590000D03*
D17*
X128250000Y-99580000D03*
X128250000Y-100600000D03*
D29*
X87225000Y-74940000D03*
X85955000Y-74940000D03*
X84685000Y-74940000D03*
X83415000Y-74940000D03*
D30*
X83415000Y-79900000D03*
D31*
X84685000Y-79930000D03*
D32*
X85955000Y-79920000D03*
D33*
X87225000Y-79925000D03*
D34*
X85320000Y-77790000D03*
D17*
X164010000Y-98475000D03*
X164010000Y-99495000D03*
D35*
X129950000Y-83260000D03*
X129950000Y-84220000D03*
D36*
X171550000Y-96540000D03*
X167650000Y-96540000D03*
X171550000Y-95270000D03*
X167650000Y-95270000D03*
X171550000Y-94000000D03*
X167650000Y-94000000D03*
X171550000Y-92730000D03*
X167650000Y-92730000D03*
X171550000Y-91460000D03*
X167650000Y-91460000D03*
D37*
X91570000Y-89980000D03*
X90610000Y-89980000D03*
D38*
X117705000Y-90140000D03*
X114405000Y-90140000D03*
X114405000Y-95040000D03*
X117705000Y-95040000D03*
D24*
X139136016Y-90546016D03*
X138040000Y-89450000D03*
D28*
X125008500Y-79680000D03*
X123988500Y-79680000D03*
D39*
X148295000Y-78585000D03*
X147795000Y-78585000D03*
X147295000Y-78585000D03*
X146795000Y-78585000D03*
X146295000Y-78585000D03*
X145795000Y-78585000D03*
D40*
X145090000Y-79290000D03*
X145090000Y-79790000D03*
X145090000Y-80290000D03*
X145090000Y-80790000D03*
X145090000Y-81290000D03*
X145090000Y-81790000D03*
D39*
X145795000Y-82495000D03*
X146295000Y-82495000D03*
X146795000Y-82495000D03*
X147295000Y-82495000D03*
X147795000Y-82495000D03*
X148295000Y-82495000D03*
D40*
X149000000Y-81790000D03*
X149000000Y-81290000D03*
X149000000Y-80790000D03*
X149000000Y-80290000D03*
X149000000Y-79790000D03*
X149000000Y-79290000D03*
D41*
X144425000Y-76140000D03*
X142875000Y-76140000D03*
D26*
X111555000Y-95975000D03*
X111555000Y-94425000D03*
D17*
X112400000Y-81965000D03*
X112400000Y-82985000D03*
D42*
X90490000Y-101970000D03*
X91510000Y-101970000D03*
D17*
X142300000Y-82190000D03*
X142300000Y-83210000D03*
X130050000Y-99580000D03*
X130050000Y-100600000D03*
D11*
X157950000Y-85905000D03*
X157950000Y-84635000D03*
X157950000Y-83365000D03*
X157950000Y-82095000D03*
D12*
X152990000Y-82095000D03*
D13*
X152960000Y-83365000D03*
D14*
X152970000Y-84635000D03*
D15*
X152965000Y-85905000D03*
D16*
X155100000Y-84000000D03*
D42*
X98095000Y-82740000D03*
X99115000Y-82740000D03*
D29*
X83425000Y-87150000D03*
X84695000Y-87150000D03*
X85965000Y-87150000D03*
X87235000Y-87150000D03*
D30*
X87235000Y-82190000D03*
D31*
X85965000Y-82160000D03*
D32*
X84695000Y-82170000D03*
D33*
X83425000Y-82165000D03*
D34*
X85330000Y-84300000D03*
D17*
X143800000Y-82190000D03*
X143800000Y-83210000D03*
D28*
X125008500Y-77680000D03*
X123988500Y-77680000D03*
D43*
X115850000Y-103750000D03*
X120900000Y-103750000D03*
X120900000Y-102050000D03*
X115850000Y-102050000D03*
D44*
X138010000Y-101390000D03*
X138010000Y-97490000D03*
X139280000Y-101390000D03*
X139280000Y-97490000D03*
X140550000Y-101390000D03*
X140550000Y-97490000D03*
X141820000Y-101390000D03*
X141820000Y-97490000D03*
X143090000Y-101390000D03*
X143090000Y-97490000D03*
X144360000Y-101390000D03*
X144360000Y-97490000D03*
X145630000Y-101390000D03*
X145630000Y-97490000D03*
D45*
X103530000Y-85290000D03*
X105080000Y-85290000D03*
D17*
X131850000Y-99580000D03*
X131850000Y-100600000D03*
D46*
X141196051Y-85723949D03*
X145297270Y-89825168D03*
X143480006Y-91642432D03*
X139400000Y-87520000D03*
D28*
X135478500Y-78880000D03*
X134458500Y-78880000D03*
D29*
X164100000Y-75015000D03*
X162830000Y-75015000D03*
X161560000Y-75015000D03*
X160290000Y-75015000D03*
D30*
X160290000Y-79975000D03*
D31*
X161560000Y-80005000D03*
D32*
X162830000Y-79995000D03*
D33*
X164100000Y-80000000D03*
D34*
X162195000Y-77865000D03*
D25*
X128750000Y-84240000D03*
X128750000Y-83220000D03*
X143750000Y-78700000D03*
X143750000Y-77680000D03*
D47*
X111555000Y-89015000D03*
X111555000Y-91965000D03*
D41*
X99380000Y-84140000D03*
X97830000Y-84140000D03*
D26*
X148450000Y-75390000D03*
X148450000Y-73840000D03*
D48*
X126910000Y-77030000D03*
X126910000Y-77680000D03*
X126910000Y-78330000D03*
X126910000Y-78980000D03*
X126910000Y-79630000D03*
X126910000Y-80280000D03*
X126910000Y-80930000D03*
X132650000Y-80930000D03*
X132650000Y-80280000D03*
X132650000Y-79630000D03*
X132650000Y-78980000D03*
X132650000Y-78330000D03*
X132650000Y-77680000D03*
X132650000Y-77030000D03*
D49*
X110700000Y-83275000D03*
X110700000Y-81525000D03*
D50*
X161975000Y-99545000D03*
X161975000Y-98275000D03*
X161975000Y-97005000D03*
X161975000Y-95735000D03*
X161975000Y-94465000D03*
X161975000Y-93195000D03*
X161975000Y-91925000D03*
X161975000Y-90655000D03*
X157025000Y-90655000D03*
X157025000Y-91925000D03*
X157025000Y-93195000D03*
X157025000Y-94465000D03*
X157025000Y-95735000D03*
X157025000Y-97005000D03*
X157025000Y-98275000D03*
X157025000Y-99545000D03*
D28*
X135488500Y-80280000D03*
X134468500Y-80280000D03*
D42*
X103795000Y-81590000D03*
X104815000Y-81590000D03*
D20*
X141200000Y-76900000D03*
X141200000Y-78450000D03*
D51*
X88450000Y-91550000D03*
X88450000Y-92820000D03*
X88450000Y-94090000D03*
X88450000Y-95360000D03*
X88450000Y-96630000D03*
X88450000Y-97900000D03*
X88450000Y-99170000D03*
X88450000Y-100440000D03*
X93400000Y-100440000D03*
X93400000Y-99170000D03*
X93400000Y-97900000D03*
X93400000Y-96630000D03*
X93400000Y-95360000D03*
X93400000Y-94090000D03*
X93400000Y-92820000D03*
X93400000Y-91550000D03*
D17*
X119655000Y-93090000D03*
X119655000Y-94110000D03*
X142600000Y-77680000D03*
X142600000Y-78700000D03*
D29*
X160260000Y-87190000D03*
X161530000Y-87190000D03*
X162800000Y-87190000D03*
X164070000Y-87190000D03*
D30*
X164070000Y-82230000D03*
D31*
X162800000Y-82200000D03*
D32*
X161530000Y-82210000D03*
D33*
X160260000Y-82205000D03*
D34*
X162165000Y-84340000D03*
D28*
X160980000Y-101165000D03*
X159960000Y-101165000D03*
D20*
X118205000Y-97725000D03*
X118205000Y-99275000D03*
D17*
X141000000Y-82190000D03*
X141000000Y-83210000D03*
D11*
X89050000Y-82100000D03*
X89050000Y-83370000D03*
X89050000Y-84640000D03*
X89050000Y-85910000D03*
D12*
X94010000Y-85910000D03*
D13*
X94040000Y-84640000D03*
D14*
X94030000Y-83370000D03*
D15*
X94035000Y-82100000D03*
D16*
X91900000Y-84005000D03*
D52*
X113505000Y-97500000D03*
X113505000Y-98450000D03*
X113505000Y-99400000D03*
X116305000Y-99400000D03*
X116305000Y-97500000D03*
D27*
X119655000Y-91690000D03*
X119655000Y-90730000D03*
D36*
X81350000Y-97940000D03*
X77450000Y-97940000D03*
X81350000Y-96670000D03*
X77450000Y-96670000D03*
X81350000Y-95400000D03*
X77450000Y-95400000D03*
X81350000Y-94130000D03*
X77450000Y-94130000D03*
X81350000Y-92860000D03*
X77450000Y-92860000D03*
D20*
X139400000Y-81525000D03*
X139400000Y-83075000D03*
D23*
X150550000Y-76885000D03*
X150550000Y-73935000D03*
D53*
X134875000Y-95440000D03*
X134875000Y-94940000D03*
X134875000Y-94440000D03*
X134875000Y-93940000D03*
X134875000Y-93440000D03*
X134875000Y-92940000D03*
X134875000Y-92440000D03*
X134875000Y-91940000D03*
X134875000Y-91440000D03*
X134875000Y-90940000D03*
X134875000Y-90440000D03*
X134875000Y-89940000D03*
X134875000Y-89440000D03*
X134875000Y-88940000D03*
X134875000Y-88440000D03*
X134875000Y-87940000D03*
D54*
X132950000Y-86015000D03*
X132450000Y-86015000D03*
X131950000Y-86015000D03*
X131450000Y-86015000D03*
X130950000Y-86015000D03*
X130450000Y-86015000D03*
X129950000Y-86015000D03*
X129450000Y-86015000D03*
X128950000Y-86015000D03*
X128450000Y-86015000D03*
X127950000Y-86015000D03*
X127450000Y-86015000D03*
X126950000Y-86015000D03*
X126450000Y-86015000D03*
X125950000Y-86015000D03*
X125450000Y-86015000D03*
D53*
X123525000Y-87940000D03*
X123525000Y-88440000D03*
X123525000Y-88940000D03*
X123525000Y-89440000D03*
X123525000Y-89940000D03*
X123525000Y-90440000D03*
X123525000Y-90940000D03*
X123525000Y-91440000D03*
X123525000Y-91940000D03*
X123525000Y-92440000D03*
X123525000Y-92940000D03*
X123525000Y-93440000D03*
X123525000Y-93940000D03*
X123525000Y-94440000D03*
X123525000Y-94940000D03*
X123525000Y-95440000D03*
D54*
X125450000Y-97365000D03*
X125950000Y-97365000D03*
X126450000Y-97365000D03*
X126950000Y-97365000D03*
X127450000Y-97365000D03*
X127950000Y-97365000D03*
X128450000Y-97365000D03*
X128950000Y-97365000D03*
X129450000Y-97365000D03*
X129950000Y-97365000D03*
X130450000Y-97365000D03*
X130950000Y-97365000D03*
X131450000Y-97365000D03*
X131950000Y-97365000D03*
X132450000Y-97365000D03*
X132950000Y-97365000D03*
D20*
X111505000Y-97725000D03*
X111505000Y-99275000D03*
D42*
X103795000Y-82740000D03*
X104815000Y-82740000D03*
X103795000Y-83890000D03*
X104815000Y-83890000D03*
M02*
