G04 #@! TF.GenerationSoftware,KiCad,Pcbnew,9.0.2-9.0.2-0~ubuntu24.04.1*
G04 #@! TF.CreationDate,2025-06-19T00:16:48+02:00*
G04 #@! TF.ProjectId,DRV8701_2Motors,44525638-3730-4315-9f32-4d6f746f7273,rev?*
G04 #@! TF.SameCoordinates,Original*
G04 #@! TF.FileFunction,Copper,L4,Bot*
G04 #@! TF.FilePolarity,Positive*
%FSLAX46Y46*%
G04 Gerber Fmt 4.6, Leading zero omitted, Abs format (unit mm)*
G04 Created by KiCad (PCBNEW 9.0.2-9.0.2-0~ubuntu24.04.1) date 2025-06-19 00:16:48*
%MOMM*%
%LPD*%
G01*
G04 APERTURE LIST*
G04 Aperture macros list*
%AMRoundRect*
0 Rectangle with rounded corners*
0 $1 Rounding radius*
0 $2 $3 $4 $5 $6 $7 $8 $9 X,Y pos of 4 corners*
0 Add a 4 corners polygon primitive as box body*
4,1,4,$2,$3,$4,$5,$6,$7,$8,$9,$2,$3,0*
0 Add four circle primitives for the rounded corners*
1,1,$1+$1,$2,$3*
1,1,$1+$1,$4,$5*
1,1,$1+$1,$6,$7*
1,1,$1+$1,$8,$9*
0 Add four rect primitives between the rounded corners*
20,1,$1+$1,$2,$3,$4,$5,0*
20,1,$1+$1,$4,$5,$6,$7,0*
20,1,$1+$1,$6,$7,$8,$9,0*
20,1,$1+$1,$8,$9,$2,$3,0*%
G04 Aperture macros list end*
G04 #@! TA.AperFunction,ComponentPad*
%ADD10RoundRect,0.250000X-0.625000X0.350000X-0.625000X-0.350000X0.625000X-0.350000X0.625000X0.350000X0*%
G04 #@! TD*
G04 #@! TA.AperFunction,ComponentPad*
%ADD11O,1.750000X1.200000*%
G04 #@! TD*
G04 #@! TA.AperFunction,ComponentPad*
%ADD12R,1.700000X1.700000*%
G04 #@! TD*
G04 #@! TA.AperFunction,ComponentPad*
%ADD13C,1.700000*%
G04 #@! TD*
G04 #@! TA.AperFunction,ComponentPad*
%ADD14C,5.000000*%
G04 #@! TD*
G04 #@! TA.AperFunction,ComponentPad*
%ADD15C,1.600000*%
G04 #@! TD*
G04 #@! TA.AperFunction,ComponentPad*
%ADD16RoundRect,0.250000X0.350000X0.625000X-0.350000X0.625000X-0.350000X-0.625000X0.350000X-0.625000X0*%
G04 #@! TD*
G04 #@! TA.AperFunction,ComponentPad*
%ADD17O,1.200000X1.750000*%
G04 #@! TD*
G04 #@! TA.AperFunction,ComponentPad*
%ADD18C,2.200000*%
G04 #@! TD*
G04 #@! TA.AperFunction,ComponentPad*
%ADD19C,2.775000*%
G04 #@! TD*
G04 #@! TA.AperFunction,SMDPad,CuDef*
%ADD20C,1.500000*%
G04 #@! TD*
G04 #@! TA.AperFunction,SMDPad,CuDef*
%ADD21RoundRect,0.237500X0.237500X-0.250000X0.237500X0.250000X-0.237500X0.250000X-0.237500X-0.250000X0*%
G04 #@! TD*
G04 #@! TA.AperFunction,SMDPad,CuDef*
%ADD22RoundRect,0.237500X-0.237500X0.250000X-0.237500X-0.250000X0.237500X-0.250000X0.237500X0.250000X0*%
G04 #@! TD*
G04 #@! TA.AperFunction,SMDPad,CuDef*
%ADD23RoundRect,0.237500X0.300000X0.237500X-0.300000X0.237500X-0.300000X-0.237500X0.300000X-0.237500X0*%
G04 #@! TD*
G04 #@! TA.AperFunction,ViaPad*
%ADD24C,0.450000*%
G04 #@! TD*
G04 #@! TA.AperFunction,ViaPad*
%ADD25C,0.600000*%
G04 #@! TD*
G04 #@! TA.AperFunction,ViaPad*
%ADD26C,0.900000*%
G04 #@! TD*
G04 #@! TA.AperFunction,Conductor*
%ADD27C,0.150000*%
G04 #@! TD*
G04 #@! TA.AperFunction,Conductor*
%ADD28C,0.200000*%
G04 #@! TD*
G04 APERTURE END LIST*
D10*
X115120000Y-69170000D03*
D11*
X115120000Y-71170000D03*
X115120000Y-73170000D03*
D12*
X139390000Y-73340000D03*
D13*
X141930000Y-73340000D03*
X144470000Y-73340000D03*
X147010000Y-73340000D03*
D14*
X186000000Y-70000000D03*
D15*
X118407767Y-118142233D03*
X114872233Y-121677767D03*
D14*
X102000000Y-70000000D03*
D16*
X173700000Y-70525000D03*
D17*
X171700000Y-70525000D03*
X169700000Y-70525000D03*
D18*
X102800000Y-103810000D03*
X102800000Y-108810000D03*
D14*
X186000000Y-123000000D03*
D12*
X139390000Y-68260000D03*
D13*
X141930000Y-68260000D03*
X144470000Y-68260000D03*
X147010000Y-68260000D03*
D14*
X102000000Y-123000000D03*
D19*
X156250000Y-68250000D03*
X156250000Y-72950000D03*
X156250000Y-77650000D03*
D18*
X141545000Y-122800000D03*
X146545000Y-122800000D03*
X185600000Y-104030000D03*
X185600000Y-109030000D03*
D12*
X139390000Y-70800000D03*
D13*
X141930000Y-70800000D03*
X144470000Y-70800000D03*
X147010000Y-70800000D03*
D15*
X147540000Y-110750000D03*
X145000000Y-110750000D03*
X142460000Y-110750000D03*
D20*
X142490000Y-106740000D03*
D21*
X147400000Y-107932500D03*
X147400000Y-106107500D03*
D20*
X146350000Y-93390000D03*
D22*
X145140000Y-106107500D03*
X145140000Y-107932500D03*
D20*
X139660000Y-98860000D03*
D23*
X146962500Y-104010000D03*
X145237500Y-104010000D03*
D24*
X124740000Y-88670000D03*
X122930000Y-88670000D03*
X129450000Y-88670000D03*
X131960000Y-88690000D03*
X126630000Y-88670000D03*
X134400000Y-75750000D03*
X132770000Y-75710000D03*
X123050000Y-72110000D03*
X123100000Y-75170000D03*
X156570000Y-92910000D03*
X127000000Y-76540000D03*
X129000000Y-76540000D03*
X124630000Y-82980000D03*
X124630000Y-80980000D03*
X124630000Y-78980000D03*
X125200000Y-77110000D03*
X124630000Y-84980000D03*
X125340000Y-85974054D03*
X130950000Y-76750000D03*
X132360000Y-77930000D03*
X134450000Y-80340000D03*
X136700000Y-84050000D03*
X135570000Y-82920000D03*
X134966164Y-84738938D03*
X136760000Y-82460000D03*
X160050000Y-93780000D03*
X121520000Y-70090000D03*
X102480000Y-78670000D03*
X175600000Y-114330000D03*
D25*
X126640000Y-104680000D03*
D24*
X171220000Y-87530000D03*
X117300000Y-83540000D03*
X132000000Y-93700000D03*
X98810000Y-81540000D03*
X109400000Y-85130000D03*
X153110000Y-111200000D03*
X125030000Y-121220000D03*
X134990000Y-93720000D03*
X163140000Y-104630000D03*
X147540000Y-83300000D03*
X117110000Y-98950000D03*
X143480000Y-82410000D03*
X178980000Y-85890000D03*
D25*
X124640000Y-104680000D03*
D24*
X126220000Y-97160000D03*
X105870000Y-86990000D03*
X120030000Y-66650000D03*
X170960000Y-98810000D03*
X181650000Y-78800000D03*
X117640000Y-75860000D03*
X138910000Y-95690000D03*
X159370000Y-81690000D03*
X133730000Y-112220000D03*
X143910000Y-102830000D03*
X131030000Y-121220000D03*
X106750000Y-89550000D03*
X112820000Y-83350000D03*
X126280000Y-108870000D03*
X120710000Y-92020000D03*
X116660000Y-78530000D03*
X98810000Y-87540000D03*
X184680000Y-87770000D03*
X160270000Y-75830000D03*
X111460000Y-119900000D03*
X172060000Y-77330000D03*
X148640000Y-107440000D03*
X113010000Y-126090000D03*
X150730000Y-88640000D03*
X162300000Y-84650000D03*
X165770000Y-116680000D03*
X140430000Y-78850000D03*
X164740000Y-81690000D03*
X186200000Y-98810000D03*
X154120000Y-86260000D03*
X150250000Y-95180000D03*
X114870000Y-86530000D03*
X174810000Y-71980000D03*
X109030000Y-74750000D03*
X152770000Y-100420000D03*
X175210000Y-84270000D03*
X101550000Y-113350000D03*
X185300000Y-78780000D03*
X114800000Y-114780000D03*
X159300000Y-84670000D03*
X129310000Y-72060000D03*
X127020000Y-93620000D03*
X130200000Y-99810000D03*
X140900000Y-84510000D03*
X143860000Y-96370000D03*
X99750000Y-89550000D03*
X159380000Y-104810000D03*
X172700000Y-73830000D03*
X129220000Y-91970000D03*
D26*
X162840000Y-108800000D03*
D24*
X140790000Y-90770000D03*
X139050000Y-103720000D03*
X112900000Y-86500000D03*
X138000000Y-93720000D03*
X109490000Y-98950000D03*
X109130000Y-77170000D03*
X143850000Y-98220000D03*
X109960000Y-80300000D03*
X181890000Y-125560000D03*
X159350000Y-107300000D03*
X98810000Y-75540000D03*
X114570000Y-98950000D03*
X179000000Y-84350000D03*
X125490000Y-68290000D03*
X154340000Y-116090000D03*
X127570000Y-112230000D03*
X150360000Y-111440000D03*
X122380000Y-112160000D03*
X167970000Y-89420000D03*
X152990000Y-71160000D03*
X143060000Y-121250000D03*
X177180000Y-114380000D03*
X131960000Y-90320000D03*
X137630000Y-112200000D03*
X148220000Y-100660000D03*
X130810000Y-105600000D03*
X162620000Y-118040000D03*
X126030000Y-66650000D03*
X126230000Y-91970000D03*
D25*
X126640000Y-105680000D03*
D24*
X102720000Y-86940000D03*
X128030000Y-68290000D03*
X119360000Y-77720000D03*
X134890000Y-81790000D03*
X178210000Y-77300000D03*
X122520000Y-104380000D03*
X171400000Y-82760000D03*
X142120000Y-99620000D03*
X175400000Y-123360000D03*
X149990000Y-71160000D03*
X151930000Y-99030000D03*
X183220000Y-114330000D03*
X138030000Y-66650000D03*
X162310000Y-81680000D03*
X168420000Y-98810000D03*
X151140000Y-86260000D03*
X166260000Y-73830000D03*
X140890000Y-86960000D03*
X118500000Y-70140000D03*
X151270000Y-75830000D03*
D25*
X124640000Y-103680000D03*
D24*
X163530000Y-71040000D03*
D25*
X124640000Y-105680000D03*
D24*
X99010000Y-113350000D03*
X128020000Y-95710000D03*
X110250000Y-89550000D03*
X174990000Y-90430000D03*
X146220000Y-102850000D03*
X179680000Y-81460000D03*
X175400000Y-120820000D03*
X120770000Y-70150000D03*
X186030000Y-66650000D03*
D25*
X162840000Y-107800000D03*
D24*
X150480000Y-107540000D03*
X144340000Y-84550000D03*
X146070000Y-82420000D03*
X177990000Y-90430000D03*
X145950000Y-108910000D03*
X126250000Y-110580000D03*
X137450000Y-68320000D03*
X163270000Y-75830000D03*
X114110000Y-81860000D03*
X133640000Y-72990000D03*
X128010000Y-106920000D03*
X137440000Y-71140000D03*
X154340000Y-113550000D03*
D25*
X163840000Y-108800000D03*
D24*
X168030000Y-66650000D03*
X142010000Y-95720000D03*
X123520000Y-101910000D03*
X165160000Y-118040000D03*
X170500000Y-72000000D03*
X137990000Y-102350000D03*
X102720000Y-82860000D03*
X130790000Y-104320000D03*
X181120000Y-98810000D03*
X137540000Y-78870000D03*
D25*
X125640000Y-103680000D03*
D24*
X107010000Y-126090000D03*
X178580000Y-98810000D03*
X122190000Y-98950000D03*
X143790000Y-90770000D03*
X104410000Y-98950000D03*
X104090000Y-113350000D03*
X172980000Y-78930000D03*
X124720000Y-93620000D03*
X161740000Y-95330000D03*
X125290000Y-99990000D03*
X165920000Y-102730000D03*
X108030000Y-66650000D03*
X138410000Y-99680000D03*
X147800000Y-93570000D03*
X176340000Y-76390000D03*
X156260000Y-105540000D03*
X155060000Y-107610000D03*
X164160000Y-113720000D03*
X188740000Y-98810000D03*
X165970000Y-89420000D03*
X175400000Y-116670000D03*
X114170000Y-78520000D03*
X171990000Y-90430000D03*
X169000000Y-87500000D03*
X151950000Y-81900000D03*
X137010000Y-126090000D03*
X165300000Y-112350000D03*
X173500000Y-98810000D03*
X164770000Y-89810000D03*
X136720000Y-89760000D03*
X163950000Y-91260000D03*
X157450000Y-102740000D03*
X174345357Y-83207741D03*
X150640000Y-79280000D03*
X151350000Y-103210000D03*
X159580000Y-99040000D03*
X134050000Y-92030000D03*
X164720000Y-84620000D03*
X107790000Y-80280000D03*
X135420000Y-95870000D03*
X168190000Y-84350000D03*
X133630000Y-71140000D03*
X189080000Y-83080000D03*
X132840000Y-105020000D03*
X147530000Y-84530000D03*
X116810000Y-72050000D03*
X142030000Y-93640000D03*
X106950000Y-98950000D03*
X140620000Y-112220000D03*
X137300000Y-97160000D03*
X156210000Y-81690000D03*
X160210000Y-97720000D03*
X115030000Y-74750000D03*
X146330000Y-105330000D03*
X142390000Y-103450000D03*
X183660000Y-98810000D03*
X119010000Y-126090000D03*
X172880000Y-83210000D03*
X136700000Y-91960000D03*
X176680000Y-81460000D03*
D26*
X125640000Y-104680000D03*
D24*
X101870000Y-98950000D03*
X163330000Y-92610000D03*
X157540000Y-118040000D03*
X138150000Y-92430000D03*
X162030000Y-66650000D03*
X132030000Y-66650000D03*
X150230000Y-98110000D03*
X174030000Y-66650000D03*
X187890000Y-125560000D03*
X155000000Y-118040000D03*
X185180000Y-89390000D03*
X148110000Y-89030000D03*
X120710000Y-83610000D03*
X122560000Y-68310000D03*
X163260000Y-73830000D03*
X188300000Y-114330000D03*
X116810000Y-70150000D03*
X114800000Y-117320000D03*
X150030000Y-66650000D03*
X145750000Y-100620000D03*
X166970000Y-89420000D03*
X162300000Y-87650000D03*
X106630000Y-113350000D03*
X185760000Y-118420000D03*
X165840000Y-106060000D03*
X189080000Y-89080000D03*
X148180000Y-96330000D03*
X111710000Y-113350000D03*
X125450000Y-72050000D03*
X157270000Y-75830000D03*
X132070000Y-103460000D03*
X171370000Y-79480000D03*
X107580000Y-85110000D03*
X109170000Y-113350000D03*
X176040000Y-98810000D03*
X102030000Y-66650000D03*
X139900000Y-88490000D03*
X174770000Y-78990000D03*
X137030000Y-121220000D03*
X112030000Y-74750000D03*
X154340000Y-108850000D03*
X147530000Y-86960000D03*
X99330000Y-98950000D03*
X158280000Y-89520000D03*
X176720000Y-79790000D03*
X119650000Y-98950000D03*
D25*
X161840000Y-108800000D03*
D24*
X146790000Y-90770000D03*
X131010000Y-126090000D03*
X111010000Y-81870000D03*
X135400000Y-85260000D03*
X117480000Y-121240000D03*
X151140000Y-112220000D03*
X166270000Y-75830000D03*
X134480000Y-108330000D03*
X101010000Y-126090000D03*
X103250000Y-89550000D03*
X169060000Y-77330000D03*
X112030000Y-98950000D03*
X140920000Y-82420000D03*
X106380000Y-77180000D03*
X98840000Y-123260000D03*
D25*
X162840000Y-109800000D03*
X163840000Y-107800000D03*
D24*
X129430000Y-98250000D03*
X166200000Y-79050000D03*
X174800000Y-73810000D03*
X125010000Y-126090000D03*
X183230000Y-89240000D03*
X187160000Y-89420000D03*
D25*
X161840000Y-107800000D03*
D24*
X160080000Y-118040000D03*
X144440000Y-105120000D03*
X129320000Y-68250000D03*
D25*
X125640000Y-105680000D03*
D24*
X180990000Y-90430000D03*
X113680000Y-72010000D03*
X151160000Y-83330000D03*
X114030000Y-66650000D03*
X172710000Y-72000000D03*
X130480000Y-106900000D03*
X163110000Y-103770000D03*
X153830000Y-109960000D03*
X163720000Y-79050000D03*
X176300000Y-85780000D03*
X159220000Y-109170000D03*
X153950000Y-98200000D03*
X148590000Y-103570000D03*
X150690000Y-91210000D03*
X189080000Y-71080000D03*
X147580000Y-79450000D03*
X175400000Y-125900000D03*
X116730000Y-86580000D03*
X122140000Y-103940000D03*
X120750000Y-81400000D03*
D25*
X126640000Y-103680000D03*
D24*
X183220000Y-118420000D03*
X154270000Y-75830000D03*
X179720000Y-79790000D03*
X136050000Y-111460000D03*
X137450000Y-72990000D03*
X114810000Y-83550000D03*
X163530000Y-68040000D03*
X124850000Y-112170000D03*
X154850000Y-96940000D03*
X135250000Y-109890000D03*
X180680000Y-114330000D03*
X143010000Y-126090000D03*
X138330000Y-76380000D03*
X113750000Y-89550000D03*
X141390000Y-107940000D03*
X175400000Y-118280000D03*
D25*
X163840000Y-109800000D03*
D24*
X129890000Y-104930000D03*
X120750000Y-89550000D03*
X104820000Y-78900000D03*
X160330000Y-71010000D03*
X174630000Y-77340000D03*
X151840000Y-96940000D03*
X150060000Y-68430000D03*
X162500000Y-93800000D03*
X160330000Y-68010000D03*
X165880000Y-98810000D03*
X106040000Y-74750000D03*
D25*
X161840000Y-109800000D03*
D24*
X144030000Y-66650000D03*
X113680000Y-70150000D03*
X154140000Y-83330000D03*
X133640000Y-106590000D03*
X142020000Y-97580000D03*
X156880000Y-104190000D03*
X111610000Y-86460000D03*
X137960000Y-82230000D03*
X180680000Y-118420000D03*
X145640000Y-94950000D03*
X135930000Y-98150000D03*
X180030000Y-66650000D03*
X117250000Y-89550000D03*
X169260000Y-73830000D03*
X189080000Y-77080000D03*
X149300000Y-77640000D03*
X143790000Y-112190000D03*
X160260000Y-73830000D03*
X152490000Y-112200000D03*
X151960000Y-80670000D03*
X185760000Y-114330000D03*
X130560000Y-112250000D03*
X163910000Y-100490000D03*
X169270000Y-75830000D03*
X98810000Y-69540000D03*
X141270000Y-105990000D03*
X114250000Y-113350000D03*
X103940000Y-76330000D03*
X168890000Y-90240000D03*
X148120000Y-91190000D03*
X143850000Y-107930000D03*
X119270000Y-86530000D03*
X145820000Y-112190000D03*
X188300000Y-118420000D03*
X172270000Y-75830000D03*
X114800000Y-119860000D03*
X185310000Y-82990000D03*
X157010000Y-86260000D03*
X131000000Y-101380000D03*
X128040000Y-72050000D03*
D25*
X117110000Y-113720000D03*
X167890000Y-102050000D03*
X128210000Y-113840000D03*
X167400000Y-118710000D03*
X170360000Y-117040000D03*
X163320000Y-119790000D03*
X119710000Y-113860000D03*
X119520000Y-116670000D03*
X151280000Y-116780000D03*
X128200000Y-116800000D03*
X172540000Y-112550000D03*
X167420000Y-117050000D03*
X173500000Y-126090000D03*
X134200000Y-119510000D03*
X140190000Y-116780000D03*
X167780000Y-104580000D03*
X134210000Y-113840000D03*
X116720000Y-106300000D03*
X170340000Y-118700000D03*
X117100000Y-116680000D03*
X122200000Y-116800000D03*
X146190000Y-116780000D03*
X140210000Y-113840000D03*
X122210000Y-113840000D03*
X173500000Y-118610000D03*
X151290000Y-113840000D03*
X167510000Y-126110000D03*
X118360000Y-106320000D03*
X140200000Y-119510000D03*
X171590000Y-112550000D03*
X157320000Y-119790000D03*
X149510000Y-126110000D03*
X122200000Y-119510000D03*
X128200000Y-119510000D03*
X173520000Y-116950000D03*
X134200000Y-116800000D03*
X161510000Y-126110000D03*
X155510000Y-126110000D03*
X146200000Y-113820000D03*
D24*
X186580000Y-86890000D03*
X101390000Y-79000000D03*
X140370000Y-104570000D03*
X144960000Y-93860000D03*
X164070000Y-80000000D03*
X116610000Y-81810000D03*
X147350000Y-95000000D03*
X142350000Y-102510000D03*
X140750000Y-102510000D03*
X141410000Y-95050000D03*
X148490000Y-93420000D03*
X120800000Y-84500000D03*
X142760000Y-100540000D03*
X149660000Y-79860000D03*
X139760000Y-101510000D03*
X141760000Y-100540000D03*
X131180000Y-71760000D03*
X132940000Y-92060000D03*
X169750000Y-84060000D03*
X137730000Y-80580000D03*
X139760000Y-100540000D03*
X142350000Y-101520000D03*
X140760000Y-100540000D03*
X140750000Y-101500000D03*
X125670000Y-90610000D03*
X123690000Y-85830000D03*
X123810000Y-76630000D03*
X130560000Y-75510000D03*
X132280000Y-76750000D03*
X121470000Y-92960000D03*
X122030000Y-74170000D03*
X122280000Y-92370000D03*
X138740000Y-94810000D03*
X139650000Y-87800000D03*
X142680000Y-88320000D03*
X142600000Y-98280000D03*
X147990000Y-85840000D03*
X149190000Y-95700000D03*
X144610000Y-87846000D03*
X144415000Y-98960000D03*
X160810000Y-103420000D03*
X133490000Y-102730000D03*
X131880000Y-71970000D03*
X136560000Y-77880000D03*
X135790000Y-67860000D03*
X136730000Y-77220000D03*
X136590000Y-67810000D03*
X158670000Y-100100000D03*
X158690000Y-107990000D03*
X158050000Y-97540000D03*
X158130000Y-108550000D03*
X167400000Y-83880000D03*
X170600000Y-82220000D03*
X163610000Y-114330000D03*
D25*
X185440000Y-107360000D03*
D24*
X175700000Y-111270000D03*
D25*
X187640000Y-109560000D03*
X183240000Y-107360000D03*
X183240000Y-109560000D03*
X183240000Y-111760000D03*
X181040000Y-109560000D03*
X185440000Y-111760000D03*
X187640000Y-111760000D03*
X181040000Y-107360000D03*
X187640000Y-107360000D03*
X181040000Y-111760000D03*
X183260000Y-103750000D03*
X181060000Y-103750000D03*
X187660000Y-105950000D03*
X187660000Y-101550000D03*
X185460000Y-105950000D03*
X187660000Y-103750000D03*
X181060000Y-105950000D03*
D24*
X159980000Y-111810000D03*
D25*
X181060000Y-101550000D03*
X183260000Y-101550000D03*
D24*
X174830000Y-105430000D03*
D25*
X185460000Y-101550000D03*
X183260000Y-105950000D03*
D24*
X100880000Y-111200000D03*
X102980000Y-107000000D03*
X107180000Y-107000000D03*
X113600000Y-109130000D03*
X105080000Y-107000000D03*
X102980000Y-111200000D03*
X113600000Y-107030000D03*
X98780000Y-109100000D03*
X98780000Y-107000000D03*
X105080000Y-111200000D03*
X122750000Y-105650000D03*
X100880000Y-107000000D03*
X105080000Y-109100000D03*
X107180000Y-111200000D03*
X98780000Y-111200000D03*
X107180000Y-109100000D03*
X100880000Y-109100000D03*
X115200000Y-110100000D03*
X107240000Y-105870000D03*
X123780000Y-102730000D03*
X100940000Y-103770000D03*
X103040000Y-105870000D03*
X121800000Y-103100000D03*
X103040000Y-101670000D03*
X98840000Y-101670000D03*
X98840000Y-105870000D03*
X105140000Y-105870000D03*
X105140000Y-101670000D03*
X98840000Y-103770000D03*
X113610000Y-104070000D03*
X113610000Y-101970000D03*
X100940000Y-101670000D03*
X107240000Y-101670000D03*
X107240000Y-103770000D03*
X105140000Y-103770000D03*
X100940000Y-105870000D03*
X175030000Y-107150000D03*
X164250000Y-112980000D03*
X161340000Y-110690000D03*
X175890000Y-100880000D03*
X162990000Y-114840000D03*
X175780000Y-112540000D03*
X174080000Y-100810000D03*
X160030000Y-109670000D03*
X113900000Y-111900000D03*
X122076194Y-105015447D03*
X115600000Y-110800000D03*
X123100000Y-106400000D03*
X115570000Y-105190000D03*
X124800000Y-101200000D03*
D27*
X130560000Y-75510000D02*
X131040000Y-75510000D01*
X131040000Y-75510000D02*
X132280000Y-76750000D01*
X123690000Y-85830000D02*
X123460000Y-85600000D01*
X123460000Y-85600000D02*
X123460000Y-76980000D01*
X123460000Y-76980000D02*
X123810000Y-76630000D01*
X125650000Y-87790000D02*
X125650000Y-90590000D01*
X125650000Y-90590000D02*
X125670000Y-90610000D01*
X123690000Y-85830000D02*
X125650000Y-87790000D01*
X122280000Y-92370000D02*
X122130000Y-92220000D01*
X122130000Y-92220000D02*
X122130000Y-74270000D01*
X122130000Y-74270000D02*
X122030000Y-74170000D01*
X121520000Y-70090000D02*
X121470000Y-70140000D01*
X121470000Y-70140000D02*
X121470000Y-92960000D01*
D28*
X147540000Y-110750000D02*
X147540000Y-108072500D01*
X147540000Y-108072500D02*
X147400000Y-107932500D01*
X142460000Y-110750000D02*
X142200000Y-110490000D01*
X142200000Y-110490000D02*
X142200000Y-107030000D01*
X142200000Y-107030000D02*
X142490000Y-106740000D01*
X144940000Y-103712500D02*
X144940000Y-93880000D01*
X144940000Y-93880000D02*
X144960000Y-93860000D01*
X145140000Y-106107500D02*
X145140000Y-104107500D01*
X145237500Y-104010000D02*
X144940000Y-103712500D01*
X144960000Y-93860000D02*
X145430000Y-93390000D01*
X145140000Y-104107500D02*
X145237500Y-104010000D01*
X147400000Y-106107500D02*
X145140000Y-106107500D01*
X145430000Y-93390000D02*
X146350000Y-93390000D01*
D27*
X139660000Y-100440000D02*
X139660000Y-98860000D01*
X139760000Y-100540000D02*
X139660000Y-100440000D01*
D28*
X138740000Y-88710000D02*
X139650000Y-87800000D01*
X138740000Y-94810000D02*
X138740000Y-88710000D01*
X142600000Y-88400000D02*
X142600000Y-98280000D01*
X142680000Y-88320000D02*
X142600000Y-88400000D01*
D27*
X149190000Y-95700000D02*
X149190000Y-87040000D01*
X149190000Y-87040000D02*
X147990000Y-85840000D01*
D28*
X144434000Y-94077877D02*
X144434000Y-93642123D01*
X144440000Y-88016000D02*
X144610000Y-87846000D01*
X144440000Y-93636123D02*
X144440000Y-88016000D01*
X144415000Y-98960000D02*
X144440000Y-98935000D01*
X144440000Y-98935000D02*
X144440000Y-94083877D01*
X144434000Y-93642123D02*
X144440000Y-93636123D01*
X144440000Y-94083877D02*
X144434000Y-94077877D01*
D27*
X133490000Y-102730000D02*
X133490000Y-95270000D01*
X160810000Y-96686834D02*
X160810000Y-77670000D01*
X160816000Y-97087166D02*
X160816000Y-96692834D01*
X131880000Y-72900000D02*
X131880000Y-71970000D01*
X133480000Y-74500000D02*
X131880000Y-72900000D01*
X156250000Y-73110000D02*
X156250000Y-72950000D01*
X160810000Y-97093166D02*
X160816000Y-97087166D01*
X133480000Y-95260000D02*
X133480000Y-74500000D01*
X160810000Y-103420000D02*
X160810000Y-97093166D01*
X160816000Y-96692834D02*
X160810000Y-96686834D01*
X133490000Y-95270000D02*
X133480000Y-95260000D01*
X160810000Y-77670000D02*
X156250000Y-73110000D01*
X136230000Y-68300000D02*
X135790000Y-67860000D01*
X136230000Y-77660000D02*
X136230000Y-68300000D01*
X136450000Y-77880000D02*
X136230000Y-77660000D01*
X136560000Y-77880000D02*
X136450000Y-77880000D01*
X136700000Y-77220000D02*
X136720000Y-77200000D01*
X136730000Y-77220000D02*
X136700000Y-77220000D01*
X136720000Y-77200000D02*
X136720000Y-67940000D01*
X136720000Y-67940000D02*
X136590000Y-67810000D01*
D28*
X158690000Y-100120000D02*
X158670000Y-100100000D01*
X158690000Y-107990000D02*
X158690000Y-100120000D01*
X158060000Y-97550000D02*
X158060000Y-108480000D01*
X158060000Y-108480000D02*
X158130000Y-108550000D01*
X158050000Y-97540000D02*
X158060000Y-97550000D01*
D27*
X170270000Y-82580000D02*
X170600000Y-82250000D01*
X167400000Y-83880000D02*
X168700000Y-82580000D01*
X168700000Y-82580000D02*
X170270000Y-82580000D01*
X170600000Y-82250000D02*
X170600000Y-82220000D01*
G04 #@! TA.AperFunction,Conductor*
G36*
X115201573Y-111039529D02*
G01*
X115210083Y-111038983D01*
X115233625Y-111052061D01*
X115258707Y-111061868D01*
X115270526Y-111072274D01*
X115338737Y-111140485D01*
X115435763Y-111196503D01*
X115437403Y-111196942D01*
X115438630Y-111197690D01*
X115443270Y-111199612D01*
X115442970Y-111200335D01*
X115497064Y-111233302D01*
X115527598Y-111296147D01*
X115528077Y-111334196D01*
X115518291Y-111402929D01*
X115528096Y-118606720D01*
X115530475Y-120353902D01*
X115510882Y-120420968D01*
X115458140Y-120466795D01*
X115388995Y-120476833D01*
X115368157Y-120472002D01*
X115176646Y-120409776D01*
X115122233Y-120401157D01*
X115122233Y-121302489D01*
X115045927Y-121258434D01*
X114931477Y-121227767D01*
X114812989Y-121227767D01*
X114698539Y-121258434D01*
X114622233Y-121302489D01*
X114622233Y-120401157D01*
X114567819Y-120409776D01*
X114373203Y-120473011D01*
X114190883Y-120565907D01*
X114025338Y-120686184D01*
X114025337Y-120686184D01*
X113880650Y-120830871D01*
X113880650Y-120830872D01*
X113760373Y-120996417D01*
X113667477Y-121178737D01*
X113604242Y-121373353D01*
X113595624Y-121427767D01*
X114496955Y-121427767D01*
X114452900Y-121504073D01*
X114422233Y-121618523D01*
X114422233Y-121737011D01*
X114452900Y-121851461D01*
X114496955Y-121927767D01*
X113595624Y-121927767D01*
X113604242Y-121982180D01*
X113667477Y-122176796D01*
X113760373Y-122359116D01*
X113880650Y-122524661D01*
X113880650Y-122524662D01*
X114025337Y-122669349D01*
X114190883Y-122789626D01*
X114373201Y-122882521D01*
X114567811Y-122945755D01*
X114622233Y-122954374D01*
X114622233Y-122053044D01*
X114698539Y-122097100D01*
X114812989Y-122127767D01*
X114931477Y-122127767D01*
X115045927Y-122097100D01*
X115122233Y-122053044D01*
X115122233Y-122954373D01*
X115176654Y-122945755D01*
X115371264Y-122882521D01*
X115553582Y-122789626D01*
X115719127Y-122669349D01*
X115719128Y-122669349D01*
X115806954Y-122581524D01*
X115863815Y-122524662D01*
X115863815Y-122524661D01*
X115984092Y-122359116D01*
X116076988Y-122176796D01*
X116140223Y-121982180D01*
X116148842Y-121927767D01*
X115247511Y-121927767D01*
X115291566Y-121851461D01*
X115322233Y-121737011D01*
X115322233Y-121618523D01*
X115291566Y-121504073D01*
X115247511Y-121427767D01*
X116148842Y-121427767D01*
X116140223Y-121373353D01*
X116076988Y-121178735D01*
X116068730Y-121162528D01*
X116055833Y-121093859D01*
X116082109Y-121029118D01*
X116139215Y-120988861D01*
X116180108Y-120982235D01*
X124769600Y-121044503D01*
X124850198Y-121037008D01*
X124898546Y-121027574D01*
X124948847Y-121012415D01*
X124960396Y-121009533D01*
X124996354Y-121002381D01*
X125020537Y-121000000D01*
X125039461Y-121000000D01*
X125063648Y-121002382D01*
X125083386Y-121006307D01*
X125089209Y-121007465D01*
X125101222Y-121010485D01*
X125167694Y-121030782D01*
X125214247Y-121040218D01*
X125291861Y-121048289D01*
X130668706Y-121087268D01*
X130668706Y-121087267D01*
X130668707Y-121087268D01*
X130679250Y-121086025D01*
X130768745Y-121075482D01*
X130825125Y-121061577D01*
X130825124Y-121061575D01*
X130825218Y-121061553D01*
X130825227Y-121061551D01*
X130825301Y-121061532D01*
X130825303Y-121061532D01*
X130825698Y-121061434D01*
X130825914Y-121061380D01*
X130825915Y-121061382D01*
X130827866Y-121060902D01*
X130827883Y-121060895D01*
X130831592Y-121059981D01*
X130831612Y-121059976D01*
X130856400Y-121053861D01*
X130858579Y-121052877D01*
X130879231Y-121044322D01*
X130879246Y-121044316D01*
X130883676Y-121042481D01*
X130883686Y-121042479D01*
X130884639Y-121042083D01*
X130884638Y-121042082D01*
X130884665Y-121042072D01*
X130884667Y-121042071D01*
X130888887Y-121040322D01*
X130888888Y-121040323D01*
X130954548Y-121013125D01*
X130977799Y-121006072D01*
X130996359Y-121002380D01*
X131020539Y-121000000D01*
X131039457Y-121000000D01*
X131063643Y-121002382D01*
X131082188Y-121006070D01*
X131105451Y-121013125D01*
X131171108Y-121040322D01*
X131175507Y-121042144D01*
X131179966Y-121045737D01*
X131189530Y-121048621D01*
X131189538Y-121048623D01*
X131209571Y-121054664D01*
X131209573Y-121054665D01*
X131211111Y-121055127D01*
X131211116Y-121055130D01*
X131212089Y-121055423D01*
X131212089Y-121055422D01*
X131212139Y-121055438D01*
X131214878Y-121056263D01*
X131214878Y-121056264D01*
X131277872Y-121075258D01*
X131391993Y-121092511D01*
X136603782Y-121130293D01*
X136608938Y-121130298D01*
X136612049Y-121130281D01*
X136730997Y-121111762D01*
X136793283Y-121092260D01*
X136797668Y-121090887D01*
X136797669Y-121090886D01*
X136797674Y-121090885D01*
X136901790Y-121041073D01*
X136915633Y-121031823D01*
X136937057Y-121020370D01*
X136954549Y-121013124D01*
X136977804Y-121006070D01*
X136988921Y-121003859D01*
X136996359Y-121002381D01*
X137020541Y-121000000D01*
X137039457Y-121000000D01*
X137063643Y-121002382D01*
X137082188Y-121006070D01*
X137105459Y-121013129D01*
X137122929Y-121020366D01*
X137144363Y-121031823D01*
X137145198Y-121032381D01*
X137167565Y-121047326D01*
X137169402Y-121048546D01*
X137170403Y-121049207D01*
X137276790Y-121099062D01*
X137343685Y-121119232D01*
X137457806Y-121136485D01*
X140723473Y-121160158D01*
X140790368Y-121180328D01*
X140835739Y-121233463D01*
X140845181Y-121302691D01*
X140815696Y-121366035D01*
X140778870Y-121394639D01*
X140706415Y-121431557D01*
X140604301Y-121505747D01*
X140604300Y-121505748D01*
X141259242Y-122160690D01*
X141213426Y-122179668D01*
X141098776Y-122256274D01*
X141001274Y-122353776D01*
X140924668Y-122468426D01*
X140905690Y-122514242D01*
X140250748Y-121859300D01*
X140250747Y-121859301D01*
X140176559Y-121961413D01*
X140062219Y-122185815D01*
X139984397Y-122425330D01*
X139945000Y-122674071D01*
X139945000Y-122925928D01*
X139984397Y-123174669D01*
X140062219Y-123414184D01*
X140176557Y-123638583D01*
X140250748Y-123740697D01*
X140250748Y-123740698D01*
X140905690Y-123085756D01*
X140924668Y-123131574D01*
X141001274Y-123246224D01*
X141098776Y-123343726D01*
X141213426Y-123420332D01*
X141259242Y-123439309D01*
X140604300Y-124094250D01*
X140706416Y-124168442D01*
X140930815Y-124282780D01*
X141170330Y-124360602D01*
X141419072Y-124400000D01*
X141670928Y-124400000D01*
X141919669Y-124360602D01*
X142159184Y-124282780D01*
X142383575Y-124168446D01*
X142383581Y-124168442D01*
X142485697Y-124094250D01*
X142485698Y-124094250D01*
X141830757Y-123439309D01*
X141876574Y-123420332D01*
X141991224Y-123343726D01*
X142088726Y-123246224D01*
X142165332Y-123131574D01*
X142184309Y-123085757D01*
X142839250Y-123740698D01*
X142839250Y-123740697D01*
X142913442Y-123638581D01*
X142913446Y-123638575D01*
X143027780Y-123414184D01*
X143105602Y-123174669D01*
X143145000Y-122925928D01*
X143145000Y-122674071D01*
X143105602Y-122425330D01*
X143027780Y-122185815D01*
X142913442Y-121961416D01*
X142839250Y-121859301D01*
X142839250Y-121859300D01*
X142184309Y-122514241D01*
X142165332Y-122468426D01*
X142088726Y-122353776D01*
X141991224Y-122256274D01*
X141876574Y-122179668D01*
X141830755Y-122160689D01*
X142485698Y-121505748D01*
X142383583Y-121431557D01*
X142334869Y-121406736D01*
X142284073Y-121358761D01*
X142267278Y-121290940D01*
X142289815Y-121224805D01*
X142344531Y-121181354D01*
X142392063Y-121172254D01*
X142456347Y-121172719D01*
X142613480Y-121173859D01*
X142618634Y-121173864D01*
X142621746Y-121173847D01*
X142740695Y-121155328D01*
X142807372Y-121134451D01*
X142911491Y-121084637D01*
X142945641Y-121061817D01*
X142967058Y-121050369D01*
X142984554Y-121043122D01*
X143007804Y-121036070D01*
X143018921Y-121033859D01*
X143026359Y-121032381D01*
X143050541Y-121030000D01*
X143069457Y-121030000D01*
X143093643Y-121032382D01*
X143112188Y-121036070D01*
X143135451Y-121043125D01*
X143152927Y-121050364D01*
X143174359Y-121061820D01*
X143218218Y-121091126D01*
X143218304Y-121091183D01*
X143219983Y-121092299D01*
X143221014Y-121092980D01*
X143221022Y-121092985D01*
X143261069Y-121111761D01*
X143327532Y-121142923D01*
X143327533Y-121142923D01*
X143327539Y-121142926D01*
X143394434Y-121163096D01*
X143508555Y-121180349D01*
X143538141Y-121180563D01*
X143565430Y-121180761D01*
X143632325Y-121200931D01*
X143677696Y-121254065D01*
X143688532Y-121305079D01*
X143674822Y-126604816D01*
X143675634Y-126612533D01*
X143663068Y-126681263D01*
X143615338Y-126732289D01*
X143552314Y-126749500D01*
X102003051Y-126749500D01*
X101996968Y-126749351D01*
X101974856Y-126748264D01*
X101638567Y-126731743D01*
X101626457Y-126730550D01*
X101274532Y-126678347D01*
X101262597Y-126675973D01*
X100917481Y-126589526D01*
X100905837Y-126585994D01*
X100570858Y-126466136D01*
X100559629Y-126461485D01*
X100237999Y-126309366D01*
X100227272Y-126303631D01*
X99922118Y-126120729D01*
X99912000Y-126113969D01*
X99626230Y-125902028D01*
X99616824Y-125894308D01*
X99422650Y-125718319D01*
X99353209Y-125655381D01*
X99344618Y-125646790D01*
X99105691Y-125383175D01*
X99097971Y-125373769D01*
X98886030Y-125087999D01*
X98879270Y-125077881D01*
X98874859Y-125070522D01*
X98696363Y-124772720D01*
X98690639Y-124762012D01*
X98538511Y-124440363D01*
X98533867Y-124429151D01*
X98414000Y-124094147D01*
X98410474Y-124082520D01*
X98409122Y-124077123D01*
X98409122Y-124077122D01*
X98409121Y-124077120D01*
X98324024Y-123737393D01*
X98321652Y-123725467D01*
X98269449Y-123373542D01*
X98268256Y-123361431D01*
X98250649Y-123003032D01*
X98250500Y-122996948D01*
X98250500Y-112019500D01*
X98270185Y-111952461D01*
X98322989Y-111906706D01*
X98374500Y-111895500D01*
X113363136Y-111895500D01*
X113430175Y-111915185D01*
X113475930Y-111967989D01*
X113482909Y-111987402D01*
X113503497Y-112064236D01*
X113503498Y-112064239D01*
X113522169Y-112096579D01*
X113559515Y-112161263D01*
X113638737Y-112240485D01*
X113735763Y-112296503D01*
X113843982Y-112325500D01*
X113843984Y-112325500D01*
X113956016Y-112325500D01*
X113956018Y-112325500D01*
X114064237Y-112296503D01*
X114161263Y-112240485D01*
X114240485Y-112161263D01*
X114296503Y-112064237D01*
X114325500Y-111956018D01*
X114325500Y-111956009D01*
X114326561Y-111947958D01*
X114329429Y-111948335D01*
X114345185Y-111894679D01*
X114397989Y-111848924D01*
X114431850Y-111838981D01*
X114475389Y-111832720D01*
X114485217Y-111831308D01*
X114485217Y-111831307D01*
X114485223Y-111831307D01*
X114585360Y-111803451D01*
X114693057Y-111736391D01*
X114745861Y-111690636D01*
X114815042Y-111613064D01*
X114869389Y-111498426D01*
X114889074Y-111431387D01*
X114905500Y-111317141D01*
X114905500Y-111215884D01*
X114911861Y-111194220D01*
X114913636Y-111171707D01*
X114921516Y-111161337D01*
X114925185Y-111148845D01*
X114942248Y-111134059D01*
X114955913Y-111116080D01*
X114971865Y-111108395D01*
X114977989Y-111103090D01*
X114987012Y-111099390D01*
X114992089Y-111097537D01*
X115060255Y-111079226D01*
X115124066Y-111050766D01*
X115129614Y-111047378D01*
X115140357Y-111043461D01*
X115167233Y-111041734D01*
X115193634Y-111036425D01*
X115201573Y-111039529D01*
G37*
G04 #@! TD.AperFunction*
G04 #@! TA.AperFunction,Conductor*
G36*
X176306566Y-112634521D02*
G01*
X176399059Y-112647942D01*
X189624819Y-112664952D01*
X189624829Y-112664950D01*
X189625659Y-112664952D01*
X189692674Y-112684723D01*
X189738361Y-112737586D01*
X189749500Y-112788952D01*
X189749500Y-122996948D01*
X189749351Y-123003033D01*
X189731743Y-123361432D01*
X189730550Y-123373542D01*
X189678347Y-123725467D01*
X189675973Y-123737402D01*
X189589526Y-124082518D01*
X189585994Y-124094162D01*
X189476564Y-124400000D01*
X189466142Y-124429127D01*
X189461485Y-124440370D01*
X189309366Y-124762000D01*
X189303629Y-124772732D01*
X189120729Y-125077881D01*
X189113969Y-125087999D01*
X188902028Y-125373769D01*
X188894308Y-125383175D01*
X188655388Y-125646783D01*
X188646783Y-125655388D01*
X188383175Y-125894308D01*
X188373769Y-125902028D01*
X188087999Y-126113969D01*
X188077881Y-126120729D01*
X187772732Y-126303629D01*
X187762000Y-126309366D01*
X187440370Y-126461485D01*
X187429134Y-126466139D01*
X187305442Y-126510397D01*
X187094162Y-126585994D01*
X187082518Y-126589526D01*
X186737402Y-126675973D01*
X186725467Y-126678347D01*
X186373542Y-126730550D01*
X186361432Y-126731743D01*
X186023927Y-126748324D01*
X186003031Y-126749351D01*
X185996949Y-126749500D01*
X174816387Y-126749500D01*
X174749348Y-126729815D01*
X174703593Y-126677011D01*
X174692388Y-126625083D01*
X174692431Y-126612533D01*
X174738953Y-112769547D01*
X174758862Y-112702575D01*
X174811820Y-112656998D01*
X174863112Y-112645965D01*
X174864457Y-112645966D01*
X174864466Y-112645968D01*
X175160641Y-112646349D01*
X175243559Y-112637890D01*
X175246623Y-112637254D01*
X175316263Y-112642902D01*
X175371795Y-112685304D01*
X175378726Y-112697606D01*
X175379433Y-112697199D01*
X175439512Y-112801259D01*
X175439514Y-112801261D01*
X175439515Y-112801263D01*
X175518737Y-112880485D01*
X175615763Y-112936503D01*
X175723982Y-112965500D01*
X175723984Y-112965500D01*
X175836016Y-112965500D01*
X175836018Y-112965500D01*
X175944237Y-112936503D01*
X176041263Y-112880485D01*
X176120485Y-112801263D01*
X176176503Y-112704237D01*
X176176503Y-112704236D01*
X176180567Y-112697198D01*
X176183149Y-112698688D01*
X176218034Y-112655389D01*
X176284325Y-112633317D01*
X176306566Y-112634521D01*
G37*
G04 #@! TD.AperFunction*
G04 #@! TA.AperFunction,Conductor*
G36*
X186003032Y-66250648D02*
G01*
X186361433Y-66268256D01*
X186373541Y-66269448D01*
X186725475Y-66321653D01*
X186737389Y-66324023D01*
X187082520Y-66410473D01*
X187094147Y-66414000D01*
X187429151Y-66533867D01*
X187440363Y-66538511D01*
X187762012Y-66690639D01*
X187772720Y-66696363D01*
X188077881Y-66879270D01*
X188087996Y-66886028D01*
X188196696Y-66966645D01*
X188373769Y-67097971D01*
X188383175Y-67105691D01*
X188646790Y-67344618D01*
X188655381Y-67353209D01*
X188806112Y-67519515D01*
X188894308Y-67616824D01*
X188902028Y-67626230D01*
X189113969Y-67912000D01*
X189120729Y-67922118D01*
X189131842Y-67940659D01*
X189287574Y-68200482D01*
X189303629Y-68227267D01*
X189309364Y-68237995D01*
X189341142Y-68305185D01*
X189461485Y-68559629D01*
X189466136Y-68570858D01*
X189569443Y-68859580D01*
X189585994Y-68905837D01*
X189589526Y-68917481D01*
X189675973Y-69262597D01*
X189678347Y-69274532D01*
X189730550Y-69626457D01*
X189731743Y-69638567D01*
X189749351Y-69996966D01*
X189749500Y-70003051D01*
X189749500Y-100408552D01*
X189729815Y-100475591D01*
X189677011Y-100521346D01*
X189624993Y-100532551D01*
X176630696Y-100479405D01*
X176582919Y-100482033D01*
X176582910Y-100482033D01*
X176582909Y-100482034D01*
X176582892Y-100482036D01*
X176553894Y-100485356D01*
X176518076Y-100491090D01*
X176399363Y-100535852D01*
X176359836Y-100558362D01*
X176338649Y-100570427D01*
X176338647Y-100570428D01*
X176338646Y-100570429D01*
X176338638Y-100570433D01*
X176335537Y-100572773D01*
X176270159Y-100597420D01*
X176201834Y-100582809D01*
X176173197Y-100561449D01*
X176151265Y-100539517D01*
X176151263Y-100539515D01*
X176067390Y-100491091D01*
X176054239Y-100483498D01*
X176054238Y-100483497D01*
X176054237Y-100483497D01*
X175946018Y-100454500D01*
X175833982Y-100454500D01*
X175725763Y-100483497D01*
X175725760Y-100483498D01*
X175628740Y-100539513D01*
X175628731Y-100539519D01*
X175612864Y-100555386D01*
X175551539Y-100588868D01*
X175481848Y-100583881D01*
X175456357Y-100568437D01*
X175455341Y-100569957D01*
X175447970Y-100565026D01*
X175447969Y-100565025D01*
X175423656Y-100553377D01*
X175333560Y-100510214D01*
X175333556Y-100510212D01*
X175333553Y-100510211D01*
X175333549Y-100510209D01*
X175333547Y-100510209D01*
X175266602Y-100490254D01*
X175266590Y-100490251D01*
X175152428Y-100473359D01*
X175152422Y-100473358D01*
X174808264Y-100471951D01*
X174808263Y-100471951D01*
X174796313Y-100472608D01*
X174760462Y-100474581D01*
X174760461Y-100474581D01*
X174731446Y-100477904D01*
X174695617Y-100483641D01*
X174695610Y-100483643D01*
X174576911Y-100528406D01*
X174576902Y-100528410D01*
X174546466Y-100545744D01*
X174478469Y-100561814D01*
X174412579Y-100538572D01*
X174397421Y-100525673D01*
X174341265Y-100469517D01*
X174341263Y-100469515D01*
X174244237Y-100413497D01*
X174136018Y-100384500D01*
X174023982Y-100384500D01*
X173915763Y-100413497D01*
X173915760Y-100413498D01*
X173818740Y-100469513D01*
X173818738Y-100469514D01*
X173763374Y-100524878D01*
X173702050Y-100558362D01*
X173632358Y-100553377D01*
X173622666Y-100549286D01*
X173534736Y-100507688D01*
X173534727Y-100507685D01*
X173467695Y-100488062D01*
X173467690Y-100488061D01*
X173467686Y-100488060D01*
X173467685Y-100488060D01*
X173435074Y-100483398D01*
X173353425Y-100471726D01*
X166891356Y-100476979D01*
X166875622Y-100476992D01*
X166875619Y-100476992D01*
X166875602Y-100476993D01*
X166789254Y-100486369D01*
X166789230Y-100486373D01*
X166737636Y-100497667D01*
X166665825Y-100520556D01*
X166558246Y-100587809D01*
X166505526Y-100633656D01*
X166505525Y-100633657D01*
X166436490Y-100711344D01*
X166436486Y-100711350D01*
X166382348Y-100826071D01*
X166382343Y-100826084D01*
X166362780Y-100893145D01*
X166362779Y-100893151D01*
X166362779Y-100893152D01*
X166348997Y-100990233D01*
X166346555Y-101007431D01*
X166346554Y-101007435D01*
X166377624Y-118499778D01*
X166358058Y-118566852D01*
X166305336Y-118612701D01*
X166253459Y-118623998D01*
X153402629Y-118606885D01*
X153335616Y-118587111D01*
X153289931Y-118534246D01*
X153278795Y-118482509D01*
X153288894Y-115180482D01*
X153290107Y-114783982D01*
X162564500Y-114783982D01*
X162564500Y-114896018D01*
X162593497Y-115004237D01*
X162649515Y-115101263D01*
X162728737Y-115180485D01*
X162825763Y-115236503D01*
X162933982Y-115265500D01*
X162933984Y-115265500D01*
X163046016Y-115265500D01*
X163046018Y-115265500D01*
X163154237Y-115236503D01*
X163251263Y-115180485D01*
X163330485Y-115101263D01*
X163386503Y-115004237D01*
X163415500Y-114896018D01*
X163415500Y-114878663D01*
X163435185Y-114811624D01*
X163487989Y-114765869D01*
X163545855Y-114757198D01*
X163545855Y-114755500D01*
X163666016Y-114755500D01*
X163666018Y-114755500D01*
X163774237Y-114726503D01*
X163871263Y-114670485D01*
X163950485Y-114591263D01*
X164006503Y-114494237D01*
X164035500Y-114386018D01*
X164035500Y-114273982D01*
X164006503Y-114165763D01*
X163950485Y-114068737D01*
X163871263Y-113989515D01*
X163774237Y-113933497D01*
X163666018Y-113904500D01*
X163553982Y-113904500D01*
X163445763Y-113933497D01*
X163445760Y-113933498D01*
X163348740Y-113989513D01*
X163348734Y-113989517D01*
X163269517Y-114068734D01*
X163269513Y-114068740D01*
X163213498Y-114165760D01*
X163213497Y-114165763D01*
X163184500Y-114273982D01*
X163184500Y-114291336D01*
X163164815Y-114358375D01*
X163112011Y-114404130D01*
X163054145Y-114412805D01*
X163054145Y-114414500D01*
X162933982Y-114414500D01*
X162825763Y-114443497D01*
X162825760Y-114443498D01*
X162728740Y-114499513D01*
X162728734Y-114499517D01*
X162649517Y-114578734D01*
X162649513Y-114578740D01*
X162593498Y-114675760D01*
X162593497Y-114675763D01*
X162564500Y-114783982D01*
X153290107Y-114783982D01*
X153290133Y-114775476D01*
X153295118Y-113145278D01*
X153295117Y-113145277D01*
X153295118Y-113145268D01*
X153286105Y-113058999D01*
X153275045Y-113007427D01*
X153275042Y-113007417D01*
X153257959Y-112952989D01*
X153255662Y-112945674D01*
X153252521Y-112935665D01*
X153252520Y-112935663D01*
X153252520Y-112935662D01*
X153245293Y-112923982D01*
X163824500Y-112923982D01*
X163824500Y-113036018D01*
X163853497Y-113144237D01*
X163909515Y-113241263D01*
X163988737Y-113320485D01*
X164085763Y-113376503D01*
X164193982Y-113405500D01*
X164193984Y-113405500D01*
X164306016Y-113405500D01*
X164306018Y-113405500D01*
X164414237Y-113376503D01*
X164511263Y-113320485D01*
X164590485Y-113241263D01*
X164646503Y-113144237D01*
X164675500Y-113036018D01*
X164675500Y-112923982D01*
X164646503Y-112815763D01*
X164590485Y-112718737D01*
X164511263Y-112639515D01*
X164433575Y-112594662D01*
X164414239Y-112583498D01*
X164414238Y-112583497D01*
X164414237Y-112583497D01*
X164306018Y-112554500D01*
X164193982Y-112554500D01*
X164085763Y-112583497D01*
X164085760Y-112583498D01*
X163988740Y-112639513D01*
X163988734Y-112639517D01*
X163909517Y-112718734D01*
X163909513Y-112718740D01*
X163853498Y-112815760D01*
X163853497Y-112815763D01*
X163824500Y-112923982D01*
X153245293Y-112923982D01*
X153185769Y-112827781D01*
X153185767Y-112827780D01*
X153185767Y-112827779D01*
X153140162Y-112774846D01*
X153062784Y-112705444D01*
X153062781Y-112705442D01*
X153062778Y-112705440D01*
X152948303Y-112650775D01*
X152932091Y-112645965D01*
X152881317Y-112630900D01*
X152767118Y-112614151D01*
X152709504Y-112613988D01*
X149879150Y-112605993D01*
X149812166Y-112586119D01*
X149766561Y-112533186D01*
X149755500Y-112481993D01*
X149755500Y-111753982D01*
X159554500Y-111753982D01*
X159554500Y-111866018D01*
X159583497Y-111974237D01*
X159639515Y-112071263D01*
X159718737Y-112150485D01*
X159815763Y-112206503D01*
X159923982Y-112235500D01*
X159923984Y-112235500D01*
X160036016Y-112235500D01*
X160036018Y-112235500D01*
X160144237Y-112206503D01*
X160241263Y-112150485D01*
X160320485Y-112071263D01*
X160376503Y-111974237D01*
X160405500Y-111866018D01*
X160405500Y-111753982D01*
X160376503Y-111645763D01*
X160320485Y-111548737D01*
X160241263Y-111469515D01*
X160144237Y-111413497D01*
X160036018Y-111384500D01*
X159923982Y-111384500D01*
X159815763Y-111413497D01*
X159815760Y-111413498D01*
X159718740Y-111469513D01*
X159718734Y-111469517D01*
X159639517Y-111548734D01*
X159639513Y-111548740D01*
X159583498Y-111645760D01*
X159583497Y-111645763D01*
X159554500Y-111753982D01*
X149755500Y-111753982D01*
X149755500Y-110633982D01*
X160914500Y-110633982D01*
X160914500Y-110746018D01*
X160943497Y-110854237D01*
X160999515Y-110951263D01*
X161078737Y-111030485D01*
X161175763Y-111086503D01*
X161283982Y-111115500D01*
X161283984Y-111115500D01*
X161396016Y-111115500D01*
X161396018Y-111115500D01*
X161504237Y-111086503D01*
X161601263Y-111030485D01*
X161680485Y-110951263D01*
X161736503Y-110854237D01*
X161765500Y-110746018D01*
X161765500Y-110633982D01*
X161736503Y-110525763D01*
X161680485Y-110428737D01*
X161601263Y-110349515D01*
X161504237Y-110293497D01*
X161396018Y-110264500D01*
X161283982Y-110264500D01*
X161175763Y-110293497D01*
X161175760Y-110293498D01*
X161078740Y-110349513D01*
X161078734Y-110349517D01*
X160999517Y-110428734D01*
X160999513Y-110428740D01*
X160943498Y-110525760D01*
X160943497Y-110525763D01*
X160914500Y-110633982D01*
X149755500Y-110633982D01*
X149755500Y-110014008D01*
X149755499Y-110013991D01*
X149751077Y-109972860D01*
X149746232Y-109927801D01*
X149735026Y-109876290D01*
X149712310Y-109804640D01*
X149645250Y-109696943D01*
X149636683Y-109687056D01*
X149636683Y-109687055D01*
X149599501Y-109644145D01*
X149599497Y-109644141D01*
X149599495Y-109644139D01*
X149565680Y-109613982D01*
X159604500Y-109613982D01*
X159604500Y-109726018D01*
X159633497Y-109834237D01*
X159689515Y-109931263D01*
X159768737Y-110010485D01*
X159865763Y-110066503D01*
X159973982Y-110095500D01*
X159973984Y-110095500D01*
X160086016Y-110095500D01*
X160086018Y-110095500D01*
X160194237Y-110066503D01*
X160291263Y-110010485D01*
X160370485Y-109931263D01*
X160426503Y-109834237D01*
X160455500Y-109726018D01*
X160455500Y-109613982D01*
X160426503Y-109505763D01*
X160370485Y-109408737D01*
X160291263Y-109329515D01*
X160194237Y-109273497D01*
X160086018Y-109244500D01*
X159973982Y-109244500D01*
X159865763Y-109273497D01*
X159865760Y-109273498D01*
X159768740Y-109329513D01*
X159768734Y-109329517D01*
X159689517Y-109408734D01*
X159689513Y-109408740D01*
X159633498Y-109505760D01*
X159633497Y-109505763D01*
X159604500Y-109613982D01*
X149565680Y-109613982D01*
X149521923Y-109574958D01*
X149521921Y-109574957D01*
X149521920Y-109574956D01*
X149407287Y-109520611D01*
X149340247Y-109500926D01*
X149340239Y-109500924D01*
X149226000Y-109484500D01*
X147964500Y-109484500D01*
X147897461Y-109464815D01*
X147851706Y-109412011D01*
X147840500Y-109360500D01*
X147840500Y-108639647D01*
X147860185Y-108572608D01*
X147890862Y-108539880D01*
X147950711Y-108495711D01*
X148029116Y-108389475D01*
X148072725Y-108264849D01*
X148073999Y-108251263D01*
X148075500Y-108235260D01*
X148075500Y-107629739D01*
X148072725Y-107600150D01*
X148030151Y-107478484D01*
X148029116Y-107475525D01*
X147950711Y-107369289D01*
X147919031Y-107345908D01*
X147844476Y-107290884D01*
X147719848Y-107247274D01*
X147719849Y-107247274D01*
X147690260Y-107244500D01*
X147690256Y-107244500D01*
X147109744Y-107244500D01*
X147109740Y-107244500D01*
X147080150Y-107247274D01*
X146955523Y-107290884D01*
X146849289Y-107369288D01*
X146849288Y-107369289D01*
X146770884Y-107475523D01*
X146727274Y-107600150D01*
X146724500Y-107629739D01*
X146724500Y-108235260D01*
X146727274Y-108264849D01*
X146770884Y-108389476D01*
X146849288Y-108495710D01*
X146849289Y-108495711D01*
X146955523Y-108574115D01*
X146955524Y-108574115D01*
X146955525Y-108574116D01*
X147080151Y-108617725D01*
X147080150Y-108617725D01*
X147109740Y-108620500D01*
X147109744Y-108620500D01*
X147115500Y-108620500D01*
X147182539Y-108640185D01*
X147228294Y-108692989D01*
X147239500Y-108744500D01*
X147239500Y-109360500D01*
X147219815Y-109427539D01*
X147167011Y-109473294D01*
X147115500Y-109484500D01*
X146613991Y-109484500D01*
X146527802Y-109493767D01*
X146476293Y-109504973D01*
X146476290Y-109504974D01*
X146404640Y-109527690D01*
X146404638Y-109527691D01*
X146404637Y-109527691D01*
X146296940Y-109594751D01*
X146296940Y-109594752D01*
X146244145Y-109640498D01*
X146174956Y-109718079D01*
X146120611Y-109832712D01*
X146100926Y-109899752D01*
X146100924Y-109899758D01*
X146089525Y-109979049D01*
X146060500Y-110042604D01*
X146054468Y-110049083D01*
X145482962Y-110620589D01*
X145465925Y-110557007D01*
X145400099Y-110442993D01*
X145307007Y-110349901D01*
X145192993Y-110284075D01*
X145129408Y-110267037D01*
X145725922Y-109670524D01*
X145725921Y-109670523D01*
X145681359Y-109638147D01*
X145681350Y-109638141D01*
X145499031Y-109545244D01*
X145304417Y-109482009D01*
X145102317Y-109450000D01*
X144897683Y-109450000D01*
X144695582Y-109482009D01*
X144500968Y-109545244D01*
X144318644Y-109638143D01*
X144274077Y-109670523D01*
X144274077Y-109670524D01*
X144870591Y-110267037D01*
X144807007Y-110284075D01*
X144692993Y-110349901D01*
X144599901Y-110442993D01*
X144534075Y-110557007D01*
X144517037Y-110620590D01*
X143920524Y-110024077D01*
X143920523Y-110024077D01*
X143888143Y-110068644D01*
X143795244Y-110250968D01*
X143732010Y-110445581D01*
X143702124Y-110634269D01*
X143672194Y-110697403D01*
X143612883Y-110734334D01*
X143543020Y-110733336D01*
X143484788Y-110694726D01*
X143458034Y-110639061D01*
X143435497Y-110525763D01*
X143422051Y-110458165D01*
X143409862Y-110428737D01*
X143346635Y-110276092D01*
X143346628Y-110276079D01*
X143237139Y-110112218D01*
X143237136Y-110112214D01*
X143097785Y-109972863D01*
X143097781Y-109972860D01*
X142933920Y-109863371D01*
X142933907Y-109863364D01*
X142859016Y-109832344D01*
X142751839Y-109787950D01*
X142751829Y-109787947D01*
X142600308Y-109757807D01*
X142538397Y-109725422D01*
X142503823Y-109664706D01*
X142500500Y-109636190D01*
X142500500Y-108231654D01*
X144165001Y-108231654D01*
X144175319Y-108332652D01*
X144229546Y-108496300D01*
X144229551Y-108496311D01*
X144320052Y-108643034D01*
X144320055Y-108643038D01*
X144441961Y-108764944D01*
X144441965Y-108764947D01*
X144588688Y-108855448D01*
X144588699Y-108855453D01*
X144752347Y-108909680D01*
X144853352Y-108919999D01*
X144890000Y-108919999D01*
X145390000Y-108919999D01*
X145426640Y-108919999D01*
X145426654Y-108919998D01*
X145527652Y-108909680D01*
X145691300Y-108855453D01*
X145691311Y-108855448D01*
X145838034Y-108764947D01*
X145838038Y-108764944D01*
X145959944Y-108643038D01*
X145959947Y-108643034D01*
X146050448Y-108496311D01*
X146050453Y-108496300D01*
X146104680Y-108332652D01*
X146114999Y-108231654D01*
X146115000Y-108231641D01*
X146115000Y-108182500D01*
X145390000Y-108182500D01*
X145390000Y-108919999D01*
X144890000Y-108919999D01*
X144890000Y-108182500D01*
X144165001Y-108182500D01*
X144165001Y-108231654D01*
X142500500Y-108231654D01*
X142500500Y-107808797D01*
X142520185Y-107741758D01*
X142572989Y-107696003D01*
X142600309Y-107687180D01*
X142669577Y-107673401D01*
X142767251Y-107653973D01*
X142940231Y-107582322D01*
X143095908Y-107478302D01*
X143228302Y-107345908D01*
X143332322Y-107190231D01*
X143403973Y-107017251D01*
X143440500Y-106833616D01*
X143440500Y-106646384D01*
X143403973Y-106462749D01*
X143332322Y-106289769D01*
X143332321Y-106289768D01*
X143332318Y-106289762D01*
X143228302Y-106134092D01*
X143228299Y-106134088D01*
X143095911Y-106001700D01*
X143095907Y-106001697D01*
X142940237Y-105897681D01*
X142940228Y-105897676D01*
X142767251Y-105826027D01*
X142767243Y-105826025D01*
X142583620Y-105789500D01*
X142583616Y-105789500D01*
X142396384Y-105789500D01*
X142396379Y-105789500D01*
X142212756Y-105826025D01*
X142212748Y-105826027D01*
X142039771Y-105897676D01*
X142039762Y-105897681D01*
X141884092Y-106001697D01*
X141884088Y-106001700D01*
X141751700Y-106134088D01*
X141751697Y-106134092D01*
X141647681Y-106289762D01*
X141647676Y-106289771D01*
X141576027Y-106462748D01*
X141576025Y-106462756D01*
X141539500Y-106646379D01*
X141539500Y-106833620D01*
X141576025Y-107017243D01*
X141576027Y-107017251D01*
X141647676Y-107190228D01*
X141647681Y-107190237D01*
X141751696Y-107345906D01*
X141751697Y-107345907D01*
X141751698Y-107345908D01*
X141863182Y-107457392D01*
X141896666Y-107518713D01*
X141899500Y-107545072D01*
X141899500Y-109854943D01*
X141879815Y-109921982D01*
X141844394Y-109958043D01*
X141822216Y-109972862D01*
X141822211Y-109972867D01*
X141682863Y-110112214D01*
X141682860Y-110112218D01*
X141573371Y-110276079D01*
X141573364Y-110276092D01*
X141497950Y-110458160D01*
X141497947Y-110458170D01*
X141459500Y-110651456D01*
X141459500Y-110651459D01*
X141459500Y-110848541D01*
X141459500Y-110848543D01*
X141459499Y-110848543D01*
X141497947Y-111041829D01*
X141497950Y-111041839D01*
X141573364Y-111223907D01*
X141573371Y-111223920D01*
X141682860Y-111387781D01*
X141682863Y-111387785D01*
X141822214Y-111527136D01*
X141822218Y-111527139D01*
X141986079Y-111636628D01*
X141986092Y-111636635D01*
X142168160Y-111712049D01*
X142168165Y-111712051D01*
X142168169Y-111712051D01*
X142168170Y-111712052D01*
X142361456Y-111750500D01*
X142361459Y-111750500D01*
X142558543Y-111750500D01*
X142688582Y-111724632D01*
X142751835Y-111712051D01*
X142793164Y-111694931D01*
X142859021Y-111667654D01*
X142933907Y-111636635D01*
X142933907Y-111636634D01*
X142933914Y-111636632D01*
X143097782Y-111527139D01*
X143237139Y-111387782D01*
X143346632Y-111223914D01*
X143357805Y-111196941D01*
X143391538Y-111115500D01*
X143422051Y-111041835D01*
X143458034Y-110860937D01*
X143490419Y-110799027D01*
X143551134Y-110764453D01*
X143620904Y-110768192D01*
X143677576Y-110809059D01*
X143702124Y-110865731D01*
X143732009Y-111054417D01*
X143795244Y-111249031D01*
X143888141Y-111431350D01*
X143888147Y-111431359D01*
X143920523Y-111475921D01*
X143920524Y-111475922D01*
X144517037Y-110879409D01*
X144534075Y-110942993D01*
X144599901Y-111057007D01*
X144692993Y-111150099D01*
X144807007Y-111215925D01*
X144870590Y-111232962D01*
X144274076Y-111829474D01*
X144318650Y-111861859D01*
X144500968Y-111954755D01*
X144695582Y-112017990D01*
X144897683Y-112050000D01*
X145102317Y-112050000D01*
X145304417Y-112017990D01*
X145499031Y-111954755D01*
X145681349Y-111861859D01*
X145725921Y-111829474D01*
X145129409Y-111232962D01*
X145192993Y-111215925D01*
X145307007Y-111150099D01*
X145400099Y-111057007D01*
X145465925Y-110942993D01*
X145482962Y-110879409D01*
X146048181Y-111444628D01*
X146081666Y-111505951D01*
X146084500Y-111532309D01*
X146084500Y-112470711D01*
X146064815Y-112537750D01*
X146012011Y-112583505D01*
X145960550Y-112594711D01*
X122047292Y-112604288D01*
X121980244Y-112584630D01*
X121934468Y-112531845D01*
X121923243Y-112480819D01*
X121893715Y-105565475D01*
X121894841Y-105561578D01*
X121893930Y-105557625D01*
X121904460Y-105528292D01*
X121913113Y-105498354D01*
X121916167Y-105495683D01*
X121917539Y-105491865D01*
X121942258Y-105472880D01*
X121965721Y-105452374D01*
X121970657Y-105451070D01*
X121972952Y-105449308D01*
X121987907Y-105446514D01*
X122007345Y-105441381D01*
X122018349Y-105440457D01*
X122020176Y-105440947D01*
X122132212Y-105440947D01*
X122186792Y-105426322D01*
X122197819Y-105425397D01*
X122221638Y-105430272D01*
X122245944Y-105430851D01*
X122255254Y-105437152D01*
X122266269Y-105439407D01*
X122283669Y-105456384D01*
X122303807Y-105470013D01*
X122308233Y-105480349D01*
X122316280Y-105488200D01*
X122321740Y-105511891D01*
X122331311Y-105534241D01*
X122330264Y-105548876D01*
X122331972Y-105556285D01*
X122329178Y-105564065D01*
X122327964Y-105581052D01*
X122324500Y-105593979D01*
X122324500Y-105593982D01*
X122324500Y-105706018D01*
X122353497Y-105814237D01*
X122409515Y-105911263D01*
X122488737Y-105990485D01*
X122585763Y-106046503D01*
X122626259Y-106057353D01*
X122685919Y-106093717D01*
X122716449Y-106156564D01*
X122708155Y-106225939D01*
X122704739Y-106232765D01*
X122703497Y-106235763D01*
X122674500Y-106343982D01*
X122674500Y-106456018D01*
X122703497Y-106564237D01*
X122759515Y-106661263D01*
X122838737Y-106740485D01*
X122935763Y-106796503D01*
X123043982Y-106825500D01*
X123043984Y-106825500D01*
X123156016Y-106825500D01*
X123156018Y-106825500D01*
X123264237Y-106796503D01*
X123361263Y-106740485D01*
X123440485Y-106661263D01*
X123496503Y-106564237D01*
X123525500Y-106456018D01*
X123525500Y-106343982D01*
X123496503Y-106235763D01*
X123440485Y-106138737D01*
X123361263Y-106059515D01*
X123264239Y-106003498D01*
X123264238Y-106003497D01*
X123246208Y-105998666D01*
X123223738Y-105992645D01*
X123164079Y-105956281D01*
X123133550Y-105893433D01*
X123141845Y-105824058D01*
X123145261Y-105817232D01*
X123146497Y-105814245D01*
X123146503Y-105814237D01*
X123175500Y-105706018D01*
X123175500Y-105593982D01*
X123146503Y-105485763D01*
X123090485Y-105388737D01*
X123011263Y-105309515D01*
X122914237Y-105253497D01*
X122806018Y-105224500D01*
X122693982Y-105224500D01*
X122693977Y-105224500D01*
X122650096Y-105236258D01*
X122580246Y-105234594D01*
X122522385Y-105195431D01*
X122494882Y-105131202D01*
X122498231Y-105084388D01*
X122501694Y-105071465D01*
X122501694Y-104959429D01*
X122472697Y-104851210D01*
X122416679Y-104754184D01*
X122337457Y-104674962D01*
X122275370Y-104639116D01*
X122240432Y-104618944D01*
X122186321Y-104604445D01*
X122132212Y-104589947D01*
X122020176Y-104589947D01*
X122013021Y-104589947D01*
X121945982Y-104570262D01*
X121900227Y-104517458D01*
X121899463Y-104513982D01*
X139944500Y-104513982D01*
X139944500Y-104626018D01*
X139961352Y-104688909D01*
X139973497Y-104734236D01*
X139973498Y-104734239D01*
X139985012Y-104754181D01*
X140029515Y-104831263D01*
X140108737Y-104910485D01*
X140205763Y-104966503D01*
X140313982Y-104995500D01*
X140313984Y-104995500D01*
X140426016Y-104995500D01*
X140426018Y-104995500D01*
X140534237Y-104966503D01*
X140631263Y-104910485D01*
X140710485Y-104831263D01*
X140766503Y-104734237D01*
X140795500Y-104626018D01*
X140795500Y-104513982D01*
X140766503Y-104405763D01*
X140710485Y-104308737D01*
X140631263Y-104229515D01*
X140534237Y-104173497D01*
X140426018Y-104144500D01*
X140313982Y-104144500D01*
X140205763Y-104173497D01*
X140205760Y-104173498D01*
X140108740Y-104229513D01*
X140108734Y-104229517D01*
X140029517Y-104308734D01*
X140029513Y-104308740D01*
X139973498Y-104405760D01*
X139973497Y-104405763D01*
X139944500Y-104513982D01*
X121899463Y-104513982D01*
X121889022Y-104466476D01*
X121888439Y-104329849D01*
X121885761Y-103702663D01*
X121877838Y-103628086D01*
X121890330Y-103559344D01*
X121938004Y-103508266D01*
X121957006Y-103500278D01*
X121956730Y-103499612D01*
X121964228Y-103496505D01*
X121964237Y-103496503D01*
X122061263Y-103440485D01*
X122140485Y-103361263D01*
X122196503Y-103264237D01*
X122225500Y-103156018D01*
X122225500Y-103043982D01*
X122196503Y-102935763D01*
X122140485Y-102838737D01*
X122061263Y-102759515D01*
X121964237Y-102703497D01*
X121946869Y-102698843D01*
X121933518Y-102691430D01*
X121919277Y-102676986D01*
X121914348Y-102673982D01*
X123354500Y-102673982D01*
X123354500Y-102786018D01*
X123383497Y-102894237D01*
X123439515Y-102991263D01*
X123518737Y-103070485D01*
X123615763Y-103126503D01*
X123723982Y-103155500D01*
X123723984Y-103155500D01*
X123836016Y-103155500D01*
X123836018Y-103155500D01*
X123944237Y-103126503D01*
X124041263Y-103070485D01*
X124120485Y-102991263D01*
X124176503Y-102894237D01*
X124205500Y-102786018D01*
X124205500Y-102673982D01*
X124176503Y-102565763D01*
X124120485Y-102468737D01*
X124041263Y-102389515D01*
X123944237Y-102333497D01*
X123836018Y-102304500D01*
X123723982Y-102304500D01*
X123615763Y-102333497D01*
X123615760Y-102333498D01*
X123518740Y-102389513D01*
X123518734Y-102389517D01*
X123439517Y-102468734D01*
X123439513Y-102468740D01*
X123383498Y-102565760D01*
X123383497Y-102565763D01*
X123354500Y-102673982D01*
X121914348Y-102673982D01*
X121901958Y-102666430D01*
X121895247Y-102652614D01*
X121884463Y-102641677D01*
X121880291Y-102621826D01*
X121871430Y-102603583D01*
X121871070Y-102577941D01*
X121870095Y-102573301D01*
X121870972Y-102570997D01*
X121870901Y-102565898D01*
X121872867Y-102551793D01*
X121880610Y-102496258D01*
X121876020Y-101421075D01*
X121866806Y-101336836D01*
X121855878Y-101286463D01*
X121833957Y-101216599D01*
X121789282Y-101143982D01*
X124374500Y-101143982D01*
X124374500Y-101256018D01*
X124403497Y-101364237D01*
X124459515Y-101461263D01*
X124538737Y-101540485D01*
X124635763Y-101596503D01*
X124743982Y-101625500D01*
X124743984Y-101625500D01*
X124856016Y-101625500D01*
X124856018Y-101625500D01*
X124964237Y-101596503D01*
X125061263Y-101540485D01*
X125140485Y-101461263D01*
X125196503Y-101364237D01*
X125225500Y-101256018D01*
X125225500Y-101143982D01*
X125196503Y-101035763D01*
X125140485Y-100938737D01*
X125061263Y-100859515D01*
X124964237Y-100803497D01*
X124856018Y-100774500D01*
X124743982Y-100774500D01*
X124635763Y-100803497D01*
X124635760Y-100803498D01*
X124538740Y-100859513D01*
X124538734Y-100859517D01*
X124459517Y-100938734D01*
X124459513Y-100938740D01*
X124403498Y-101035760D01*
X124403497Y-101035763D01*
X124374500Y-101143982D01*
X121789282Y-101143982D01*
X121767479Y-101108542D01*
X121767474Y-101108536D01*
X121767473Y-101108534D01*
X121722012Y-101055495D01*
X121711664Y-101046166D01*
X121644812Y-100985895D01*
X121586013Y-100957631D01*
X121530464Y-100930929D01*
X121478939Y-100915498D01*
X121463537Y-100910885D01*
X121463534Y-100910884D01*
X121463532Y-100910884D01*
X121349384Y-100893843D01*
X116037030Y-100865179D01*
X116037014Y-100865179D01*
X115949439Y-100874267D01*
X115897104Y-100885541D01*
X115824146Y-100908646D01*
X115775841Y-100938815D01*
X115708552Y-100957631D01*
X115657038Y-100945688D01*
X115561954Y-100900611D01*
X115494914Y-100880926D01*
X115494906Y-100880924D01*
X115380667Y-100864500D01*
X98374500Y-100864500D01*
X98307461Y-100844815D01*
X98261706Y-100792011D01*
X98250500Y-100740500D01*
X98250500Y-84443982D01*
X120374500Y-84443982D01*
X120374500Y-84556018D01*
X120403497Y-84664237D01*
X120459515Y-84761263D01*
X120538737Y-84840485D01*
X120635763Y-84896503D01*
X120743982Y-84925500D01*
X120743984Y-84925500D01*
X120856016Y-84925500D01*
X120856018Y-84925500D01*
X120964237Y-84896503D01*
X121008499Y-84870947D01*
X121076399Y-84854474D01*
X121142426Y-84877326D01*
X121185617Y-84932247D01*
X121194500Y-84978334D01*
X121194500Y-92582390D01*
X121174815Y-92649429D01*
X121158181Y-92670071D01*
X121129517Y-92698734D01*
X121129513Y-92698740D01*
X121073498Y-92795760D01*
X121073497Y-92795763D01*
X121044500Y-92903982D01*
X121044500Y-93016018D01*
X121073497Y-93124237D01*
X121129515Y-93221263D01*
X121208737Y-93300485D01*
X121305763Y-93356503D01*
X121413982Y-93385500D01*
X121413984Y-93385500D01*
X121526016Y-93385500D01*
X121526018Y-93385500D01*
X121634237Y-93356503D01*
X121731263Y-93300485D01*
X121810485Y-93221263D01*
X121866503Y-93124237D01*
X121895500Y-93016018D01*
X121895500Y-92903982D01*
X121889090Y-92880059D01*
X121890753Y-92810212D01*
X121929915Y-92752349D01*
X121994144Y-92724845D01*
X122063046Y-92736431D01*
X122070862Y-92740579D01*
X122115763Y-92766503D01*
X122223982Y-92795500D01*
X122223984Y-92795500D01*
X122336016Y-92795500D01*
X122336018Y-92795500D01*
X122444237Y-92766503D01*
X122541263Y-92710485D01*
X122620485Y-92631263D01*
X122676503Y-92534237D01*
X122705500Y-92426018D01*
X122705500Y-92313982D01*
X122676503Y-92205763D01*
X122620485Y-92108737D01*
X122541263Y-92029515D01*
X122494067Y-92002266D01*
X122467499Y-91986927D01*
X122419284Y-91936359D01*
X122405500Y-91879540D01*
X122405500Y-76925200D01*
X123184500Y-76925200D01*
X123184500Y-85654800D01*
X123226443Y-85756058D01*
X123226444Y-85756059D01*
X123228181Y-85757796D01*
X123230757Y-85762515D01*
X123233228Y-85766212D01*
X123232897Y-85766433D01*
X123261666Y-85819119D01*
X123264500Y-85845477D01*
X123264500Y-85886018D01*
X123267180Y-85896018D01*
X123293497Y-85994236D01*
X123293498Y-85994239D01*
X123299272Y-86004239D01*
X123349515Y-86091263D01*
X123428737Y-86170485D01*
X123525763Y-86226503D01*
X123633982Y-86255500D01*
X123674523Y-86255500D01*
X123741562Y-86275185D01*
X123762204Y-86291819D01*
X125338181Y-87867796D01*
X125371666Y-87929119D01*
X125374500Y-87955477D01*
X125374500Y-90252390D01*
X125354815Y-90319429D01*
X125338181Y-90340071D01*
X125329517Y-90348734D01*
X125329513Y-90348740D01*
X125273498Y-90445760D01*
X125273497Y-90445763D01*
X125244500Y-90553982D01*
X125244500Y-90666018D01*
X125273497Y-90774237D01*
X125329515Y-90871263D01*
X125408737Y-90950485D01*
X125505763Y-91006503D01*
X125613982Y-91035500D01*
X125613984Y-91035500D01*
X125726016Y-91035500D01*
X125726018Y-91035500D01*
X125834237Y-91006503D01*
X125931263Y-90950485D01*
X126010485Y-90871263D01*
X126066503Y-90774237D01*
X126095500Y-90666018D01*
X126095500Y-90553982D01*
X126066503Y-90445763D01*
X126010485Y-90348737D01*
X125961819Y-90300071D01*
X125928334Y-90238748D01*
X125925500Y-90212390D01*
X125925500Y-87735201D01*
X125925500Y-87735200D01*
X125904297Y-87684012D01*
X125883558Y-87633942D01*
X124151819Y-85902203D01*
X124118334Y-85840880D01*
X124115500Y-85814522D01*
X124115500Y-85773984D01*
X124115500Y-85773982D01*
X124086503Y-85665763D01*
X124030485Y-85568737D01*
X123951263Y-85489515D01*
X123854239Y-85433498D01*
X123854238Y-85433497D01*
X123841506Y-85430085D01*
X123827405Y-85426307D01*
X123767745Y-85389942D01*
X123737217Y-85327095D01*
X123735500Y-85306533D01*
X123735500Y-77179500D01*
X123755185Y-77112461D01*
X123807989Y-77066706D01*
X123859500Y-77055500D01*
X123866016Y-77055500D01*
X123866018Y-77055500D01*
X123974237Y-77026503D01*
X124071263Y-76970485D01*
X124150485Y-76891263D01*
X124206503Y-76794237D01*
X124235500Y-76686018D01*
X124235500Y-76573982D01*
X124206503Y-76465763D01*
X124150485Y-76368737D01*
X124071263Y-76289515D01*
X123974237Y-76233497D01*
X123866018Y-76204500D01*
X123753982Y-76204500D01*
X123645763Y-76233497D01*
X123645760Y-76233498D01*
X123548740Y-76289513D01*
X123548734Y-76289517D01*
X123469517Y-76368734D01*
X123469513Y-76368740D01*
X123413498Y-76465760D01*
X123413497Y-76465763D01*
X123384500Y-76573982D01*
X123384500Y-76614521D01*
X123375856Y-76643957D01*
X123369333Y-76673947D01*
X123365577Y-76678963D01*
X123364815Y-76681560D01*
X123348182Y-76702201D01*
X123303942Y-76746442D01*
X123303942Y-76746443D01*
X123226443Y-76823942D01*
X123186625Y-76920071D01*
X123184500Y-76925200D01*
X122405500Y-76925200D01*
X122405500Y-75453982D01*
X130134500Y-75453982D01*
X130134500Y-75566018D01*
X130163497Y-75674237D01*
X130219515Y-75771263D01*
X130298737Y-75850485D01*
X130395763Y-75906503D01*
X130503982Y-75935500D01*
X130503984Y-75935500D01*
X130616016Y-75935500D01*
X130616018Y-75935500D01*
X130724237Y-75906503D01*
X130821263Y-75850485D01*
X130821271Y-75850476D01*
X130827709Y-75845538D01*
X130829188Y-75847466D01*
X130879687Y-75819881D01*
X130949379Y-75824854D01*
X130993747Y-75853362D01*
X131818181Y-76677796D01*
X131851666Y-76739119D01*
X131854500Y-76765477D01*
X131854500Y-76806018D01*
X131883497Y-76914237D01*
X131939515Y-77011263D01*
X132018737Y-77090485D01*
X132115763Y-77146503D01*
X132223982Y-77175500D01*
X132223984Y-77175500D01*
X132336016Y-77175500D01*
X132336018Y-77175500D01*
X132444237Y-77146503D01*
X132541263Y-77090485D01*
X132620485Y-77011263D01*
X132676503Y-76914237D01*
X132705500Y-76806018D01*
X132705500Y-76693982D01*
X132676503Y-76585763D01*
X132620485Y-76488737D01*
X132541263Y-76409515D01*
X132444237Y-76353497D01*
X132336018Y-76324500D01*
X132336017Y-76324500D01*
X132295477Y-76324500D01*
X132228438Y-76304815D01*
X132207796Y-76288181D01*
X131196059Y-75276444D01*
X131196058Y-75276443D01*
X131166228Y-75264087D01*
X131166225Y-75264085D01*
X131166224Y-75264085D01*
X131094802Y-75234500D01*
X131094800Y-75234500D01*
X130937610Y-75234500D01*
X130870571Y-75214815D01*
X130849929Y-75198181D01*
X130821265Y-75169517D01*
X130821263Y-75169515D01*
X130724237Y-75113497D01*
X130616018Y-75084500D01*
X130503982Y-75084500D01*
X130395763Y-75113497D01*
X130395760Y-75113498D01*
X130298740Y-75169513D01*
X130298734Y-75169517D01*
X130219517Y-75248734D01*
X130219513Y-75248740D01*
X130163498Y-75345760D01*
X130163497Y-75345763D01*
X130134500Y-75453982D01*
X122405500Y-75453982D01*
X122405500Y-74403841D01*
X122422114Y-74341839D01*
X122426502Y-74334238D01*
X122426503Y-74334237D01*
X122455500Y-74226018D01*
X122455500Y-74113982D01*
X122426503Y-74005763D01*
X122370485Y-73908737D01*
X122291263Y-73829515D01*
X122194237Y-73773497D01*
X122086018Y-73744500D01*
X121973982Y-73744500D01*
X121973980Y-73744500D01*
X121901592Y-73763896D01*
X121831742Y-73762233D01*
X121773880Y-73723069D01*
X121746377Y-73658841D01*
X121745500Y-73644121D01*
X121745500Y-71703982D01*
X130754500Y-71703982D01*
X130754500Y-71816018D01*
X130783497Y-71924237D01*
X130839515Y-72021263D01*
X130918737Y-72100485D01*
X131015763Y-72156503D01*
X131123982Y-72185500D01*
X131123984Y-72185500D01*
X131236016Y-72185500D01*
X131236018Y-72185500D01*
X131344237Y-72156503D01*
X131350935Y-72152635D01*
X131351522Y-72152493D01*
X131351943Y-72152060D01*
X131385400Y-72144273D01*
X131418834Y-72136162D01*
X131419405Y-72136359D01*
X131419994Y-72136223D01*
X131452320Y-72147751D01*
X131484861Y-72159013D01*
X131485426Y-72159557D01*
X131485804Y-72159692D01*
X131487349Y-72161407D01*
X131511119Y-72184285D01*
X131516180Y-72190846D01*
X131539515Y-72231263D01*
X131573817Y-72265565D01*
X131578683Y-72271873D01*
X131588588Y-72297301D01*
X131601666Y-72321252D01*
X131603095Y-72334544D01*
X131604043Y-72336978D01*
X131603594Y-72339191D01*
X131604500Y-72347610D01*
X131604500Y-72954802D01*
X131637131Y-73033579D01*
X131646442Y-73056057D01*
X131646443Y-73056059D01*
X133168181Y-74577796D01*
X133201666Y-74639119D01*
X133204500Y-74665477D01*
X133204500Y-91528762D01*
X133184815Y-91595801D01*
X133132011Y-91641556D01*
X133062853Y-91651500D01*
X133048408Y-91648537D01*
X132996019Y-91634500D01*
X132996018Y-91634500D01*
X132883982Y-91634500D01*
X132775763Y-91663497D01*
X132775760Y-91663498D01*
X132678740Y-91719513D01*
X132678734Y-91719517D01*
X132599517Y-91798734D01*
X132599513Y-91798740D01*
X132543498Y-91895760D01*
X132543497Y-91895763D01*
X132514500Y-92003982D01*
X132514500Y-92116018D01*
X132543497Y-92224237D01*
X132599515Y-92321263D01*
X132678737Y-92400485D01*
X132775763Y-92456503D01*
X132883982Y-92485500D01*
X132883984Y-92485500D01*
X132996015Y-92485500D01*
X132996018Y-92485500D01*
X133048408Y-92471462D01*
X133118256Y-92473125D01*
X133176119Y-92512287D01*
X133203623Y-92576516D01*
X133204500Y-92591237D01*
X133204500Y-95314800D01*
X133205060Y-95316153D01*
X133214500Y-95363606D01*
X133214500Y-102352390D01*
X133194815Y-102419429D01*
X133178181Y-102440071D01*
X133149517Y-102468734D01*
X133149513Y-102468740D01*
X133093498Y-102565760D01*
X133093497Y-102565763D01*
X133064500Y-102673982D01*
X133064500Y-102786018D01*
X133093497Y-102894237D01*
X133149515Y-102991263D01*
X133228737Y-103070485D01*
X133325763Y-103126503D01*
X133433982Y-103155500D01*
X133433984Y-103155500D01*
X133546016Y-103155500D01*
X133546018Y-103155500D01*
X133654237Y-103126503D01*
X133751263Y-103070485D01*
X133830485Y-102991263D01*
X133886503Y-102894237D01*
X133915500Y-102786018D01*
X133915500Y-102673982D01*
X133886503Y-102565763D01*
X133830485Y-102468737D01*
X133801819Y-102440071D01*
X133768334Y-102378748D01*
X133765500Y-102352390D01*
X133765500Y-98766379D01*
X138709500Y-98766379D01*
X138709500Y-98953620D01*
X138746025Y-99137243D01*
X138746027Y-99137251D01*
X138817676Y-99310228D01*
X138817681Y-99310237D01*
X138921697Y-99465907D01*
X138921700Y-99465911D01*
X139054088Y-99598299D01*
X139054092Y-99598302D01*
X139209762Y-99702318D01*
X139209775Y-99702325D01*
X139307952Y-99742991D01*
X139362356Y-99786832D01*
X139384421Y-99853126D01*
X139384500Y-99857552D01*
X139384500Y-100306158D01*
X139367889Y-100368154D01*
X139363500Y-100375756D01*
X139363497Y-100375763D01*
X139334500Y-100483982D01*
X139334500Y-100596018D01*
X139347642Y-100645063D01*
X139363497Y-100704236D01*
X139363498Y-100704239D01*
X139367600Y-100711344D01*
X139419515Y-100801263D01*
X139498737Y-100880485D01*
X139543156Y-100906130D01*
X139563044Y-100917613D01*
X139611260Y-100968180D01*
X139624482Y-101036787D01*
X139598514Y-101101652D01*
X139563044Y-101132387D01*
X139498740Y-101169513D01*
X139498734Y-101169517D01*
X139419517Y-101248734D01*
X139419513Y-101248740D01*
X139363498Y-101345760D01*
X139363497Y-101345763D01*
X139334500Y-101453982D01*
X139334500Y-101566018D01*
X139360818Y-101664236D01*
X139363497Y-101674236D01*
X139363498Y-101674239D01*
X139369272Y-101684239D01*
X139419515Y-101771263D01*
X139498737Y-101850485D01*
X139595763Y-101906503D01*
X139703982Y-101935500D01*
X139703984Y-101935500D01*
X139816016Y-101935500D01*
X139816018Y-101935500D01*
X139924237Y-101906503D01*
X140021263Y-101850485D01*
X140100485Y-101771263D01*
X140150501Y-101684631D01*
X140201065Y-101636419D01*
X140269672Y-101623195D01*
X140334537Y-101649163D01*
X140365273Y-101684634D01*
X140409515Y-101761263D01*
X140488737Y-101840485D01*
X140523380Y-101860486D01*
X140587685Y-101897613D01*
X140635901Y-101948180D01*
X140649123Y-102016787D01*
X140623155Y-102081652D01*
X140587685Y-102112387D01*
X140488740Y-102169513D01*
X140488734Y-102169517D01*
X140409517Y-102248734D01*
X140409513Y-102248740D01*
X140353498Y-102345760D01*
X140353497Y-102345763D01*
X140324500Y-102453982D01*
X140324500Y-102566018D01*
X140353497Y-102674237D01*
X140409515Y-102771263D01*
X140488737Y-102850485D01*
X140585763Y-102906503D01*
X140693982Y-102935500D01*
X140693984Y-102935500D01*
X140806016Y-102935500D01*
X140806018Y-102935500D01*
X140914237Y-102906503D01*
X141011263Y-102850485D01*
X141090485Y-102771263D01*
X141146503Y-102674237D01*
X141175500Y-102566018D01*
X141175500Y-102453982D01*
X141146503Y-102345763D01*
X141090485Y-102248737D01*
X141011263Y-102169515D01*
X140914237Y-102113497D01*
X140914236Y-102113496D01*
X140912314Y-102112387D01*
X140864098Y-102061820D01*
X140850875Y-101993213D01*
X140876843Y-101928348D01*
X140912314Y-101897613D01*
X140914237Y-101896503D01*
X141011263Y-101840485D01*
X141090485Y-101761263D01*
X141146503Y-101664237D01*
X141175500Y-101556018D01*
X141175500Y-101443982D01*
X141146503Y-101335763D01*
X141090485Y-101238737D01*
X141011263Y-101159515D01*
X140960613Y-101130272D01*
X140912399Y-101079706D01*
X140899177Y-101011098D01*
X140925145Y-100946234D01*
X140960610Y-100915502D01*
X141021263Y-100880485D01*
X141100485Y-100801263D01*
X141152613Y-100710973D01*
X141203180Y-100662759D01*
X141271787Y-100649535D01*
X141336651Y-100675503D01*
X141367385Y-100710972D01*
X141419515Y-100801263D01*
X141498737Y-100880485D01*
X141595763Y-100936503D01*
X141703982Y-100965500D01*
X141703984Y-100965500D01*
X141816016Y-100965500D01*
X141816018Y-100965500D01*
X141924237Y-100936503D01*
X142021263Y-100880485D01*
X142100485Y-100801263D01*
X142152613Y-100710973D01*
X142203180Y-100662759D01*
X142271787Y-100649535D01*
X142336651Y-100675503D01*
X142367385Y-100710972D01*
X142419515Y-100801263D01*
X142419517Y-100801265D01*
X142501071Y-100882819D01*
X142534556Y-100944142D01*
X142529572Y-101013834D01*
X142487700Y-101069767D01*
X142422236Y-101094184D01*
X142413390Y-101094500D01*
X142293982Y-101094500D01*
X142185763Y-101123497D01*
X142185760Y-101123498D01*
X142088740Y-101179513D01*
X142088734Y-101179517D01*
X142009517Y-101258734D01*
X142009513Y-101258740D01*
X141953498Y-101355760D01*
X141953497Y-101355763D01*
X141924500Y-101463982D01*
X141924500Y-101576018D01*
X141953497Y-101684237D01*
X142009515Y-101781263D01*
X142088737Y-101860485D01*
X142151122Y-101896503D01*
X142170365Y-101907613D01*
X142218581Y-101958180D01*
X142231804Y-102026787D01*
X142205836Y-102091652D01*
X142170365Y-102122387D01*
X142088740Y-102169513D01*
X142088734Y-102169517D01*
X142009517Y-102248734D01*
X142009513Y-102248740D01*
X141953498Y-102345760D01*
X141953497Y-102345763D01*
X141924500Y-102453982D01*
X141924500Y-102566018D01*
X141953497Y-102674237D01*
X142009515Y-102771263D01*
X142088737Y-102850485D01*
X142185763Y-102906503D01*
X142293982Y-102935500D01*
X142293984Y-102935500D01*
X142406016Y-102935500D01*
X142406018Y-102935500D01*
X142514237Y-102906503D01*
X142611263Y-102850485D01*
X142690485Y-102771263D01*
X142746503Y-102674237D01*
X142775500Y-102566018D01*
X142775500Y-102453982D01*
X142746503Y-102345763D01*
X142690485Y-102248737D01*
X142611263Y-102169515D01*
X142529632Y-102122385D01*
X142481419Y-102071821D01*
X142468195Y-102003214D01*
X142494163Y-101938349D01*
X142529632Y-101907614D01*
X142611263Y-101860485D01*
X142690485Y-101781263D01*
X142746503Y-101684237D01*
X142775500Y-101576018D01*
X142775500Y-101463982D01*
X142746503Y-101355763D01*
X142690485Y-101258737D01*
X142611263Y-101179515D01*
X142608929Y-101177181D01*
X142575444Y-101115858D01*
X142580428Y-101046166D01*
X142622300Y-100990233D01*
X142687764Y-100965816D01*
X142696610Y-100965500D01*
X142816016Y-100965500D01*
X142816018Y-100965500D01*
X142924237Y-100936503D01*
X143021263Y-100880485D01*
X143100485Y-100801263D01*
X143156503Y-100704237D01*
X143185500Y-100596018D01*
X143185500Y-100483982D01*
X143156503Y-100375763D01*
X143100485Y-100278737D01*
X143021263Y-100199515D01*
X142924237Y-100143497D01*
X142816018Y-100114500D01*
X142703982Y-100114500D01*
X142595763Y-100143497D01*
X142595760Y-100143498D01*
X142498740Y-100199513D01*
X142498734Y-100199517D01*
X142419517Y-100278734D01*
X142419513Y-100278740D01*
X142367387Y-100369025D01*
X142316820Y-100417241D01*
X142248213Y-100430463D01*
X142183348Y-100404495D01*
X142152613Y-100369025D01*
X142142006Y-100350654D01*
X142100485Y-100278737D01*
X142021263Y-100199515D01*
X141924237Y-100143497D01*
X141816018Y-100114500D01*
X141703982Y-100114500D01*
X141595763Y-100143497D01*
X141595760Y-100143498D01*
X141498740Y-100199513D01*
X141498734Y-100199517D01*
X141419517Y-100278734D01*
X141419513Y-100278740D01*
X141367387Y-100369025D01*
X141316820Y-100417241D01*
X141248213Y-100430463D01*
X141183348Y-100404495D01*
X141152613Y-100369025D01*
X141142006Y-100350654D01*
X141100485Y-100278737D01*
X141021263Y-100199515D01*
X140924237Y-100143497D01*
X140816018Y-100114500D01*
X140703982Y-100114500D01*
X140595763Y-100143497D01*
X140595760Y-100143498D01*
X140498740Y-100199513D01*
X140498734Y-100199517D01*
X140419517Y-100278734D01*
X140419513Y-100278740D01*
X140367387Y-100369025D01*
X140316820Y-100417241D01*
X140248213Y-100430463D01*
X140183348Y-100404495D01*
X140152613Y-100369025D01*
X140142006Y-100350654D01*
X140100485Y-100278737D01*
X140021263Y-100199515D01*
X140019833Y-100198689D01*
X139997499Y-100185794D01*
X139989216Y-100177107D01*
X139978297Y-100172121D01*
X139965550Y-100152287D01*
X139949284Y-100135227D01*
X139946068Y-100121971D01*
X139940523Y-100113343D01*
X139935500Y-100078408D01*
X139935500Y-99857552D01*
X139955185Y-99790513D01*
X140007989Y-99744758D01*
X140012048Y-99742991D01*
X140110224Y-99702325D01*
X140110224Y-99702324D01*
X140110231Y-99702322D01*
X140265908Y-99598302D01*
X140398302Y-99465908D01*
X140502322Y-99310231D01*
X140573973Y-99137251D01*
X140610500Y-98953616D01*
X140610500Y-98903982D01*
X143989500Y-98903982D01*
X143989500Y-99016018D01*
X144018497Y-99124237D01*
X144074515Y-99221263D01*
X144153737Y-99300485D01*
X144250763Y-99356503D01*
X144358982Y-99385500D01*
X144358984Y-99385500D01*
X144471016Y-99385500D01*
X144471018Y-99385500D01*
X144483408Y-99382180D01*
X144553256Y-99383843D01*
X144611119Y-99423006D01*
X144638623Y-99487234D01*
X144639500Y-99501955D01*
X144639500Y-103397875D01*
X144619815Y-103464914D01*
X144615271Y-103471508D01*
X144545883Y-103565525D01*
X144502274Y-103690150D01*
X144499500Y-103719739D01*
X144499500Y-104300260D01*
X144502274Y-104329849D01*
X144545884Y-104454476D01*
X144624288Y-104560710D01*
X144624289Y-104560711D01*
X144712777Y-104626018D01*
X144730525Y-104639116D01*
X144756454Y-104648189D01*
X144813230Y-104688909D01*
X144838978Y-104753862D01*
X144839500Y-104765230D01*
X144839500Y-105327522D01*
X144819815Y-105394561D01*
X144767011Y-105440316D01*
X144756455Y-105444563D01*
X144695524Y-105465883D01*
X144695523Y-105465884D01*
X144589289Y-105544288D01*
X144589288Y-105544289D01*
X144510884Y-105650523D01*
X144467274Y-105775150D01*
X144464500Y-105804739D01*
X144464500Y-106410260D01*
X144467274Y-106439849D01*
X144510884Y-106564476D01*
X144589288Y-106670710D01*
X144589289Y-106670711D01*
X144695525Y-106749116D01*
X144695529Y-106749117D01*
X144700144Y-106751557D01*
X144750216Y-106800286D01*
X144765995Y-106868350D01*
X144742470Y-106934141D01*
X144687111Y-106976769D01*
X144681206Y-106978893D01*
X144588699Y-107009546D01*
X144588688Y-107009551D01*
X144441965Y-107100052D01*
X144441961Y-107100055D01*
X144320055Y-107221961D01*
X144320052Y-107221965D01*
X144229551Y-107368688D01*
X144229546Y-107368699D01*
X144175319Y-107532347D01*
X144165000Y-107633345D01*
X144165000Y-107682500D01*
X146114999Y-107682500D01*
X146114999Y-107633360D01*
X146114998Y-107633345D01*
X146104680Y-107532347D01*
X146050453Y-107368699D01*
X146050448Y-107368688D01*
X145959947Y-107221965D01*
X145959944Y-107221961D01*
X145838038Y-107100055D01*
X145838034Y-107100052D01*
X145691311Y-107009551D01*
X145691300Y-107009546D01*
X145598793Y-106978893D01*
X145541348Y-106939121D01*
X145514525Y-106874605D01*
X145526840Y-106805829D01*
X145574383Y-106754629D01*
X145579859Y-106751555D01*
X145584470Y-106749117D01*
X145584475Y-106749116D01*
X145690711Y-106670711D01*
X145769116Y-106564475D01*
X145794811Y-106491045D01*
X145835533Y-106434269D01*
X145900486Y-106408522D01*
X145911852Y-106408000D01*
X146628148Y-106408000D01*
X146695187Y-106427685D01*
X146740942Y-106480489D01*
X146745189Y-106491045D01*
X146770884Y-106564475D01*
X146770884Y-106564476D01*
X146849288Y-106670710D01*
X146849289Y-106670711D01*
X146955523Y-106749115D01*
X146955524Y-106749115D01*
X146955525Y-106749116D01*
X147080151Y-106792725D01*
X147080150Y-106792725D01*
X147109740Y-106795500D01*
X147109744Y-106795500D01*
X147690260Y-106795500D01*
X147719849Y-106792725D01*
X147844475Y-106749116D01*
X147950711Y-106670711D01*
X148029116Y-106564475D01*
X148072725Y-106439849D01*
X148075500Y-106410256D01*
X148075500Y-105804744D01*
X148072725Y-105775151D01*
X148029116Y-105650525D01*
X147950711Y-105544289D01*
X147950710Y-105544288D01*
X147844476Y-105465884D01*
X147719848Y-105422274D01*
X147719849Y-105422274D01*
X147690260Y-105419500D01*
X147690256Y-105419500D01*
X147109744Y-105419500D01*
X147109740Y-105419500D01*
X147080150Y-105422274D01*
X146955523Y-105465884D01*
X146849289Y-105544288D01*
X146849288Y-105544289D01*
X146770884Y-105650523D01*
X146770884Y-105650524D01*
X146745189Y-105723955D01*
X146704467Y-105780731D01*
X146639514Y-105806478D01*
X146628148Y-105807000D01*
X145911852Y-105807000D01*
X145844813Y-105787315D01*
X145799058Y-105734511D01*
X145794811Y-105723955D01*
X145784286Y-105693879D01*
X145769116Y-105650525D01*
X145690711Y-105544289D01*
X145690710Y-105544288D01*
X145584476Y-105465884D01*
X145584475Y-105465883D01*
X145523545Y-105444563D01*
X145466769Y-105403841D01*
X145441022Y-105338888D01*
X145440500Y-105327522D01*
X145440500Y-104809500D01*
X145460185Y-104742461D01*
X145512989Y-104696706D01*
X145564500Y-104685500D01*
X145590260Y-104685500D01*
X145619849Y-104682725D01*
X145642028Y-104674964D01*
X145744475Y-104639116D01*
X145837440Y-104570505D01*
X145903067Y-104546535D01*
X145971238Y-104561850D01*
X146016610Y-104605179D01*
X146080052Y-104708034D01*
X146080055Y-104708038D01*
X146201961Y-104829944D01*
X146201965Y-104829947D01*
X146348688Y-104920448D01*
X146348699Y-104920453D01*
X146512347Y-104974680D01*
X146613351Y-104984999D01*
X147212500Y-104984999D01*
X147311640Y-104984999D01*
X147311654Y-104984998D01*
X147412652Y-104974680D01*
X147576300Y-104920453D01*
X147576311Y-104920448D01*
X147723034Y-104829947D01*
X147723038Y-104829944D01*
X147844944Y-104708038D01*
X147844947Y-104708034D01*
X147935448Y-104561311D01*
X147935453Y-104561300D01*
X147989680Y-104397652D01*
X147999999Y-104296654D01*
X148000000Y-104296641D01*
X148000000Y-104260000D01*
X147212500Y-104260000D01*
X147212500Y-104984999D01*
X146613351Y-104984999D01*
X146712500Y-104984998D01*
X146712500Y-103760000D01*
X147212500Y-103760000D01*
X147999999Y-103760000D01*
X147999999Y-103723360D01*
X147999998Y-103723345D01*
X147989680Y-103622347D01*
X147935453Y-103458699D01*
X147935448Y-103458688D01*
X147844947Y-103311965D01*
X147844944Y-103311961D01*
X147723038Y-103190055D01*
X147723034Y-103190052D01*
X147576311Y-103099551D01*
X147576300Y-103099546D01*
X147412652Y-103045319D01*
X147311654Y-103035000D01*
X147212500Y-103035000D01*
X147212500Y-103760000D01*
X146712500Y-103760000D01*
X146712500Y-103034999D01*
X146613360Y-103035000D01*
X146613344Y-103035001D01*
X146512347Y-103045319D01*
X146348699Y-103099546D01*
X146348688Y-103099551D01*
X146201965Y-103190052D01*
X146201961Y-103190055D01*
X146080054Y-103311962D01*
X146016610Y-103414821D01*
X145964662Y-103461545D01*
X145895699Y-103472766D01*
X145837439Y-103449494D01*
X145744474Y-103380883D01*
X145619848Y-103337274D01*
X145619849Y-103337274D01*
X145590260Y-103334500D01*
X145590256Y-103334500D01*
X145364500Y-103334500D01*
X145297461Y-103314815D01*
X145251706Y-103262011D01*
X145240500Y-103210500D01*
X145240500Y-97483982D01*
X157624500Y-97483982D01*
X157624500Y-97596018D01*
X157653497Y-97704237D01*
X157709515Y-97801263D01*
X157709517Y-97801265D01*
X157723181Y-97814929D01*
X157756666Y-97876252D01*
X157759500Y-97902610D01*
X157759500Y-108307498D01*
X157742888Y-108369496D01*
X157733499Y-108385758D01*
X157733497Y-108385763D01*
X157704500Y-108493982D01*
X157704500Y-108606018D01*
X157733497Y-108714237D01*
X157789515Y-108811263D01*
X157868737Y-108890485D01*
X157965763Y-108946503D01*
X158073982Y-108975500D01*
X158073984Y-108975500D01*
X158186016Y-108975500D01*
X158186018Y-108975500D01*
X158294237Y-108946503D01*
X158391263Y-108890485D01*
X158470485Y-108811263D01*
X158526503Y-108714237D01*
X158555500Y-108606018D01*
X158555500Y-108539500D01*
X158575185Y-108472461D01*
X158627989Y-108426706D01*
X158679500Y-108415500D01*
X158746016Y-108415500D01*
X158746018Y-108415500D01*
X158854237Y-108386503D01*
X158951263Y-108330485D01*
X159030485Y-108251263D01*
X159086503Y-108154237D01*
X159115500Y-108046018D01*
X159115500Y-107933982D01*
X159086503Y-107825763D01*
X159030485Y-107728737D01*
X159026819Y-107725071D01*
X158993334Y-107663748D01*
X158990500Y-107637390D01*
X158990500Y-100429103D01*
X159007113Y-100367103D01*
X159010485Y-100361263D01*
X159066503Y-100264237D01*
X159095500Y-100156018D01*
X159095500Y-100043982D01*
X159066503Y-99935763D01*
X159010485Y-99838737D01*
X158931263Y-99759515D01*
X158834237Y-99703497D01*
X158726018Y-99674500D01*
X158613982Y-99674500D01*
X158516593Y-99700595D01*
X158446743Y-99698932D01*
X158388881Y-99659769D01*
X158361377Y-99595540D01*
X158360500Y-99580820D01*
X158360500Y-97882432D01*
X158380185Y-97815393D01*
X158386125Y-97806944D01*
X158390476Y-97801271D01*
X158390485Y-97801263D01*
X158446503Y-97704237D01*
X158475500Y-97596018D01*
X158475500Y-97483982D01*
X158446503Y-97375763D01*
X158390485Y-97278737D01*
X158311263Y-97199515D01*
X158214237Y-97143497D01*
X158106018Y-97114500D01*
X157993982Y-97114500D01*
X157885763Y-97143497D01*
X157885760Y-97143498D01*
X157788740Y-97199513D01*
X157788734Y-97199517D01*
X157709517Y-97278734D01*
X157709513Y-97278740D01*
X157653498Y-97375760D01*
X157653497Y-97375763D01*
X157624500Y-97483982D01*
X145240500Y-97483982D01*
X145240500Y-94943982D01*
X146924500Y-94943982D01*
X146924500Y-95056018D01*
X146953497Y-95164237D01*
X147009515Y-95261263D01*
X147088737Y-95340485D01*
X147185763Y-95396503D01*
X147293982Y-95425500D01*
X147293984Y-95425500D01*
X147406016Y-95425500D01*
X147406018Y-95425500D01*
X147514237Y-95396503D01*
X147611263Y-95340485D01*
X147690485Y-95261263D01*
X147746503Y-95164237D01*
X147775500Y-95056018D01*
X147775500Y-94943982D01*
X147746503Y-94835763D01*
X147690485Y-94738737D01*
X147611263Y-94659515D01*
X147514237Y-94603497D01*
X147406018Y-94574500D01*
X147293982Y-94574500D01*
X147185763Y-94603497D01*
X147185760Y-94603498D01*
X147088740Y-94659513D01*
X147088734Y-94659517D01*
X147009517Y-94738734D01*
X147009513Y-94738740D01*
X146953498Y-94835760D01*
X146953497Y-94835763D01*
X146924500Y-94943982D01*
X145240500Y-94943982D01*
X145240500Y-94232610D01*
X145257384Y-94170144D01*
X145265470Y-94156277D01*
X145300485Y-94121263D01*
X145356503Y-94024237D01*
X145368430Y-93979723D01*
X145376792Y-93965385D01*
X145390603Y-93952329D01*
X145400497Y-93936098D01*
X145415470Y-93928823D01*
X145427568Y-93917389D01*
X145446246Y-93913873D01*
X145463343Y-93905568D01*
X145479872Y-93907544D01*
X145496232Y-93904465D01*
X145513846Y-93911605D01*
X145532719Y-93913862D01*
X145545556Y-93924461D01*
X145560983Y-93930715D01*
X145571939Y-93946244D01*
X145586597Y-93958346D01*
X145587010Y-93958961D01*
X145611694Y-93995903D01*
X145611700Y-93995911D01*
X145744088Y-94128299D01*
X145744092Y-94128302D01*
X145899762Y-94232318D01*
X145899768Y-94232321D01*
X145899769Y-94232322D01*
X146072749Y-94303973D01*
X146256379Y-94340499D01*
X146256383Y-94340500D01*
X146256384Y-94340500D01*
X146443617Y-94340500D01*
X146443618Y-94340499D01*
X146627251Y-94303973D01*
X146800231Y-94232322D01*
X146955908Y-94128302D01*
X147088302Y-93995908D01*
X147192322Y-93840231D01*
X147263973Y-93667251D01*
X147300500Y-93483616D01*
X147300500Y-93296384D01*
X147263973Y-93112749D01*
X147192322Y-92939769D01*
X147192321Y-92939768D01*
X147192318Y-92939762D01*
X147088302Y-92784092D01*
X147088299Y-92784088D01*
X146955911Y-92651700D01*
X146955907Y-92651697D01*
X146800237Y-92547681D01*
X146800228Y-92547676D01*
X146627251Y-92476027D01*
X146627243Y-92476025D01*
X146443620Y-92439500D01*
X146443616Y-92439500D01*
X146256384Y-92439500D01*
X146256379Y-92439500D01*
X146072756Y-92476025D01*
X146072748Y-92476027D01*
X145899771Y-92547676D01*
X145899762Y-92547681D01*
X145744092Y-92651697D01*
X145744088Y-92651700D01*
X145611700Y-92784088D01*
X145611697Y-92784092D01*
X145507681Y-92939762D01*
X145507678Y-92939769D01*
X145475951Y-93016363D01*
X145432109Y-93070766D01*
X145393485Y-93088684D01*
X145390440Y-93089500D01*
X145390438Y-93089500D01*
X145314011Y-93109979D01*
X145314010Y-93109979D01*
X145314008Y-93109980D01*
X145314004Y-93109982D01*
X145245495Y-93149535D01*
X145245487Y-93149541D01*
X144996848Y-93398181D01*
X144977163Y-93408929D01*
X144960140Y-93423539D01*
X144944086Y-93426991D01*
X144935525Y-93431666D01*
X144926229Y-93433321D01*
X144917742Y-93434500D01*
X144903982Y-93434500D01*
X144889167Y-93438469D01*
X144881562Y-93439526D01*
X144854291Y-93435472D01*
X144826742Y-93434816D01*
X144820231Y-93430409D01*
X144812452Y-93429253D01*
X144791703Y-93411100D01*
X144768880Y-93395653D01*
X144765785Y-93388425D01*
X144759866Y-93383247D01*
X144752225Y-93356757D01*
X144741377Y-93331424D01*
X144740500Y-93316705D01*
X144740500Y-88333572D01*
X144760185Y-88266533D01*
X144802499Y-88226185D01*
X144871263Y-88186485D01*
X144950485Y-88107263D01*
X145006503Y-88010237D01*
X145035500Y-87902018D01*
X145035500Y-87789982D01*
X145006503Y-87681763D01*
X144950485Y-87584737D01*
X144871263Y-87505515D01*
X144774237Y-87449497D01*
X144666018Y-87420500D01*
X144553982Y-87420500D01*
X144445763Y-87449497D01*
X144445760Y-87449498D01*
X144348740Y-87505513D01*
X144348734Y-87505517D01*
X144269517Y-87584734D01*
X144269513Y-87584740D01*
X144213498Y-87681760D01*
X144213497Y-87681763D01*
X144184500Y-87789982D01*
X144184500Y-87824313D01*
X144167888Y-87886311D01*
X144159981Y-87900006D01*
X144159979Y-87900009D01*
X144139500Y-87976439D01*
X144139500Y-93563844D01*
X144135275Y-93595935D01*
X144133500Y-93602556D01*
X144133500Y-93602561D01*
X144133500Y-94117439D01*
X144135274Y-94124061D01*
X144139500Y-94156154D01*
X144139500Y-98582390D01*
X144119815Y-98649429D01*
X144103181Y-98670071D01*
X144074517Y-98698734D01*
X144074513Y-98698740D01*
X144018498Y-98795760D01*
X144018497Y-98795763D01*
X143989500Y-98903982D01*
X140610500Y-98903982D01*
X140610500Y-98766384D01*
X140573973Y-98582749D01*
X140502322Y-98409769D01*
X140502321Y-98409768D01*
X140502318Y-98409762D01*
X140418785Y-98284746D01*
X140398302Y-98254092D01*
X140398299Y-98254088D01*
X140368193Y-98223982D01*
X142174500Y-98223982D01*
X142174500Y-98336018D01*
X142203497Y-98444237D01*
X142259515Y-98541263D01*
X142338737Y-98620485D01*
X142435763Y-98676503D01*
X142543982Y-98705500D01*
X142543984Y-98705500D01*
X142656016Y-98705500D01*
X142656018Y-98705500D01*
X142764237Y-98676503D01*
X142861263Y-98620485D01*
X142940485Y-98541263D01*
X142996503Y-98444237D01*
X143025500Y-98336018D01*
X143025500Y-98223982D01*
X142996503Y-98115763D01*
X142940485Y-98018737D01*
X142936819Y-98015071D01*
X142903334Y-97953748D01*
X142900500Y-97927390D01*
X142900500Y-88752610D01*
X142920185Y-88685571D01*
X142936819Y-88664929D01*
X142941263Y-88660485D01*
X143020485Y-88581263D01*
X143076503Y-88484237D01*
X143105500Y-88376018D01*
X143105500Y-88263982D01*
X143076503Y-88155763D01*
X143020485Y-88058737D01*
X142941263Y-87979515D01*
X142844237Y-87923497D01*
X142736018Y-87894500D01*
X142623982Y-87894500D01*
X142515763Y-87923497D01*
X142515760Y-87923498D01*
X142418740Y-87979513D01*
X142418734Y-87979517D01*
X142339517Y-88058734D01*
X142339513Y-88058740D01*
X142283498Y-88155760D01*
X142283497Y-88155763D01*
X142254500Y-88263982D01*
X142254500Y-88376017D01*
X142283497Y-88484236D01*
X142286608Y-88491747D01*
X142285324Y-88492278D01*
X142299500Y-88545180D01*
X142299500Y-97927390D01*
X142279815Y-97994429D01*
X142263181Y-98015071D01*
X142259517Y-98018734D01*
X142259513Y-98018740D01*
X142203498Y-98115760D01*
X142203497Y-98115763D01*
X142174500Y-98223982D01*
X140368193Y-98223982D01*
X140265911Y-98121700D01*
X140265907Y-98121697D01*
X140110237Y-98017681D01*
X140110228Y-98017676D01*
X139937251Y-97946027D01*
X139937243Y-97946025D01*
X139753620Y-97909500D01*
X139753616Y-97909500D01*
X139566384Y-97909500D01*
X139566379Y-97909500D01*
X139382756Y-97946025D01*
X139382748Y-97946027D01*
X139209771Y-98017676D01*
X139209762Y-98017681D01*
X139054092Y-98121697D01*
X139054088Y-98121700D01*
X138921700Y-98254088D01*
X138921697Y-98254092D01*
X138817681Y-98409762D01*
X138817676Y-98409771D01*
X138746027Y-98582748D01*
X138746025Y-98582756D01*
X138709500Y-98766379D01*
X133765500Y-98766379D01*
X133765500Y-95215201D01*
X133765500Y-95215200D01*
X133764938Y-95213845D01*
X133755500Y-95166392D01*
X133755500Y-94753982D01*
X138314500Y-94753982D01*
X138314500Y-94866018D01*
X138343497Y-94974237D01*
X138399515Y-95071263D01*
X138478737Y-95150485D01*
X138575763Y-95206503D01*
X138683982Y-95235500D01*
X138683984Y-95235500D01*
X138796016Y-95235500D01*
X138796018Y-95235500D01*
X138904237Y-95206503D01*
X139001263Y-95150485D01*
X139080485Y-95071263D01*
X139125103Y-94993982D01*
X140984500Y-94993982D01*
X140984500Y-95106018D01*
X141013393Y-95213846D01*
X141013497Y-95214236D01*
X141013498Y-95214239D01*
X141025773Y-95235499D01*
X141069515Y-95311263D01*
X141148737Y-95390485D01*
X141245763Y-95446503D01*
X141353982Y-95475500D01*
X141353984Y-95475500D01*
X141466016Y-95475500D01*
X141466018Y-95475500D01*
X141574237Y-95446503D01*
X141671263Y-95390485D01*
X141750485Y-95311263D01*
X141806503Y-95214237D01*
X141835500Y-95106018D01*
X141835500Y-94993982D01*
X141806503Y-94885763D01*
X141750485Y-94788737D01*
X141671263Y-94709515D01*
X141584664Y-94659517D01*
X141574239Y-94653498D01*
X141574238Y-94653497D01*
X141574237Y-94653497D01*
X141466018Y-94624500D01*
X141353982Y-94624500D01*
X141245763Y-94653497D01*
X141245760Y-94653498D01*
X141148740Y-94709513D01*
X141148734Y-94709517D01*
X141069517Y-94788734D01*
X141069513Y-94788740D01*
X141013498Y-94885760D01*
X141013497Y-94885763D01*
X140984500Y-94993982D01*
X139125103Y-94993982D01*
X139136503Y-94974237D01*
X139165500Y-94866018D01*
X139165500Y-94753982D01*
X139136503Y-94645763D01*
X139080485Y-94548737D01*
X139076819Y-94545071D01*
X139043334Y-94483748D01*
X139040500Y-94457390D01*
X139040500Y-88885833D01*
X139060185Y-88818794D01*
X139076819Y-88798152D01*
X139613152Y-88261819D01*
X139674475Y-88228334D01*
X139700833Y-88225500D01*
X139706016Y-88225500D01*
X139706018Y-88225500D01*
X139814237Y-88196503D01*
X139911263Y-88140485D01*
X139990485Y-88061263D01*
X140046503Y-87964237D01*
X140075500Y-87856018D01*
X140075500Y-87743982D01*
X140046503Y-87635763D01*
X139990485Y-87538737D01*
X139911263Y-87459515D01*
X139814237Y-87403497D01*
X139706018Y-87374500D01*
X139593982Y-87374500D01*
X139485763Y-87403497D01*
X139485760Y-87403498D01*
X139388740Y-87459513D01*
X139388734Y-87459517D01*
X139309517Y-87538734D01*
X139309513Y-87538740D01*
X139253498Y-87635760D01*
X139253497Y-87635763D01*
X139224500Y-87743982D01*
X139224500Y-87749167D01*
X139204815Y-87816206D01*
X139188181Y-87836848D01*
X138499541Y-88525487D01*
X138499535Y-88525495D01*
X138459982Y-88594004D01*
X138459979Y-88594009D01*
X138439500Y-88670439D01*
X138439500Y-94457390D01*
X138419815Y-94524429D01*
X138403181Y-94545071D01*
X138399517Y-94548734D01*
X138399513Y-94548740D01*
X138343498Y-94645760D01*
X138343497Y-94645763D01*
X138314500Y-94753982D01*
X133755500Y-94753982D01*
X133755500Y-85783982D01*
X147564500Y-85783982D01*
X147564500Y-85896018D01*
X147593497Y-86004237D01*
X147649515Y-86101263D01*
X147728737Y-86180485D01*
X147825763Y-86236503D01*
X147933982Y-86265500D01*
X147974523Y-86265500D01*
X148041562Y-86285185D01*
X148062204Y-86301819D01*
X148878181Y-87117796D01*
X148911666Y-87179119D01*
X148914500Y-87205477D01*
X148914500Y-92958985D01*
X148894815Y-93026024D01*
X148842011Y-93071779D01*
X148772853Y-93081723D01*
X148728501Y-93066373D01*
X148654237Y-93023497D01*
X148626317Y-93016016D01*
X148546018Y-92994500D01*
X148433982Y-92994500D01*
X148325763Y-93023497D01*
X148325760Y-93023498D01*
X148228740Y-93079513D01*
X148228734Y-93079517D01*
X148149517Y-93158734D01*
X148149513Y-93158740D01*
X148093498Y-93255760D01*
X148093497Y-93255763D01*
X148064500Y-93363982D01*
X148064500Y-93476018D01*
X148093497Y-93584237D01*
X148149515Y-93681263D01*
X148228737Y-93760485D01*
X148325763Y-93816503D01*
X148433982Y-93845500D01*
X148433984Y-93845500D01*
X148546016Y-93845500D01*
X148546018Y-93845500D01*
X148654237Y-93816503D01*
X148728500Y-93773626D01*
X148796400Y-93757154D01*
X148862427Y-93780006D01*
X148905618Y-93834928D01*
X148914500Y-93881014D01*
X148914500Y-95322390D01*
X148894815Y-95389429D01*
X148878181Y-95410071D01*
X148849517Y-95438734D01*
X148849513Y-95438740D01*
X148793498Y-95535760D01*
X148793497Y-95535763D01*
X148764500Y-95643982D01*
X148764500Y-95756018D01*
X148793497Y-95864237D01*
X148849515Y-95961263D01*
X148928737Y-96040485D01*
X149025763Y-96096503D01*
X149133982Y-96125500D01*
X149133984Y-96125500D01*
X149246016Y-96125500D01*
X149246018Y-96125500D01*
X149354237Y-96096503D01*
X149451263Y-96040485D01*
X149530485Y-95961263D01*
X149586503Y-95864237D01*
X149615500Y-95756018D01*
X149615500Y-95643982D01*
X149586503Y-95535763D01*
X149530485Y-95438737D01*
X149501819Y-95410071D01*
X149468334Y-95348748D01*
X149465500Y-95322390D01*
X149465500Y-86985201D01*
X149465500Y-86985200D01*
X149423557Y-86883942D01*
X149423557Y-86883941D01*
X148451819Y-85912203D01*
X148418334Y-85850880D01*
X148415500Y-85824522D01*
X148415500Y-85783984D01*
X148415500Y-85783982D01*
X148386503Y-85675763D01*
X148330485Y-85578737D01*
X148251263Y-85499515D01*
X148154237Y-85443497D01*
X148046018Y-85414500D01*
X147933982Y-85414500D01*
X147825763Y-85443497D01*
X147825760Y-85443498D01*
X147728740Y-85499513D01*
X147728734Y-85499517D01*
X147649517Y-85578734D01*
X147649513Y-85578740D01*
X147593498Y-85675760D01*
X147593497Y-85675763D01*
X147564500Y-85783982D01*
X133755500Y-85783982D01*
X133755500Y-82403982D01*
X136334500Y-82403982D01*
X136334500Y-82516018D01*
X136363497Y-82624237D01*
X136419515Y-82721263D01*
X136498737Y-82800485D01*
X136595763Y-82856503D01*
X136703982Y-82885500D01*
X136703984Y-82885500D01*
X136816016Y-82885500D01*
X136816018Y-82885500D01*
X136924237Y-82856503D01*
X137021263Y-82800485D01*
X137100485Y-82721263D01*
X137156503Y-82624237D01*
X137185500Y-82516018D01*
X137185500Y-82403982D01*
X137156503Y-82295763D01*
X137100485Y-82198737D01*
X137021263Y-82119515D01*
X136924237Y-82063497D01*
X136816018Y-82034500D01*
X136703982Y-82034500D01*
X136595763Y-82063497D01*
X136595760Y-82063498D01*
X136498740Y-82119513D01*
X136498734Y-82119517D01*
X136419517Y-82198734D01*
X136419513Y-82198740D01*
X136363498Y-82295760D01*
X136363497Y-82295763D01*
X136334500Y-82403982D01*
X133755500Y-82403982D01*
X133755500Y-80523982D01*
X137304500Y-80523982D01*
X137304500Y-80636018D01*
X137333497Y-80744237D01*
X137389515Y-80841263D01*
X137468737Y-80920485D01*
X137565763Y-80976503D01*
X137673982Y-81005500D01*
X137673984Y-81005500D01*
X137786016Y-81005500D01*
X137786018Y-81005500D01*
X137894237Y-80976503D01*
X137991263Y-80920485D01*
X138070485Y-80841263D01*
X138126503Y-80744237D01*
X138155500Y-80636018D01*
X138155500Y-80523982D01*
X138126503Y-80415763D01*
X138070485Y-80318737D01*
X137991263Y-80239515D01*
X137894237Y-80183497D01*
X137786018Y-80154500D01*
X137673982Y-80154500D01*
X137565763Y-80183497D01*
X137565760Y-80183498D01*
X137468740Y-80239513D01*
X137468734Y-80239517D01*
X137389517Y-80318734D01*
X137389513Y-80318740D01*
X137333498Y-80415760D01*
X137333497Y-80415763D01*
X137304500Y-80523982D01*
X133755500Y-80523982D01*
X133755500Y-79803982D01*
X149234500Y-79803982D01*
X149234500Y-79916018D01*
X149263497Y-80024237D01*
X149319515Y-80121263D01*
X149398737Y-80200485D01*
X149495763Y-80256503D01*
X149603982Y-80285500D01*
X149603984Y-80285500D01*
X149716016Y-80285500D01*
X149716018Y-80285500D01*
X149824237Y-80256503D01*
X149921263Y-80200485D01*
X150000485Y-80121263D01*
X150056503Y-80024237D01*
X150085500Y-79916018D01*
X150085500Y-79803982D01*
X150056503Y-79695763D01*
X150000485Y-79598737D01*
X149921263Y-79519515D01*
X149824237Y-79463497D01*
X149716018Y-79434500D01*
X149603982Y-79434500D01*
X149495763Y-79463497D01*
X149495760Y-79463498D01*
X149398740Y-79519513D01*
X149398734Y-79519517D01*
X149319517Y-79598734D01*
X149319513Y-79598740D01*
X149263498Y-79695760D01*
X149263497Y-79695763D01*
X149234500Y-79803982D01*
X133755500Y-79803982D01*
X133755500Y-74445201D01*
X133755499Y-74445198D01*
X133743369Y-74415913D01*
X133713558Y-74343942D01*
X132191819Y-72822203D01*
X132158334Y-72760880D01*
X132155500Y-72734522D01*
X132155500Y-72347610D01*
X132175185Y-72280571D01*
X132191819Y-72259929D01*
X132220485Y-72231263D01*
X132276503Y-72134237D01*
X132305500Y-72026018D01*
X132305500Y-71913982D01*
X132276503Y-71805763D01*
X132220485Y-71708737D01*
X132141263Y-71629515D01*
X132044237Y-71573497D01*
X131936018Y-71544500D01*
X131823982Y-71544500D01*
X131715763Y-71573497D01*
X131715756Y-71573500D01*
X131709056Y-71577368D01*
X131641155Y-71593836D01*
X131575129Y-71570980D01*
X131539676Y-71531977D01*
X131530799Y-71516602D01*
X131520485Y-71498737D01*
X131441263Y-71419515D01*
X131376579Y-71382169D01*
X131344239Y-71363498D01*
X131344238Y-71363497D01*
X131344237Y-71363497D01*
X131236018Y-71334500D01*
X131123982Y-71334500D01*
X131015763Y-71363497D01*
X131015760Y-71363498D01*
X130918740Y-71419513D01*
X130918734Y-71419517D01*
X130839517Y-71498734D01*
X130839513Y-71498740D01*
X130783498Y-71595760D01*
X130783497Y-71595763D01*
X130754500Y-71703982D01*
X121745500Y-71703982D01*
X121745500Y-70517610D01*
X121765185Y-70450571D01*
X121781819Y-70429929D01*
X121811487Y-70400261D01*
X121860485Y-70351263D01*
X121916503Y-70254237D01*
X121945500Y-70146018D01*
X121945500Y-70033982D01*
X121916503Y-69925763D01*
X121860485Y-69828737D01*
X121781263Y-69749515D01*
X121684237Y-69693497D01*
X121576018Y-69664500D01*
X121463982Y-69664500D01*
X121355763Y-69693497D01*
X121355760Y-69693498D01*
X121258740Y-69749513D01*
X121258734Y-69749517D01*
X121179517Y-69828734D01*
X121179513Y-69828740D01*
X121123498Y-69925760D01*
X121123497Y-69925763D01*
X121094500Y-70033982D01*
X121094500Y-70146018D01*
X121101236Y-70171155D01*
X121123497Y-70254236D01*
X121123498Y-70254239D01*
X121177887Y-70348443D01*
X121194500Y-70410443D01*
X121194500Y-84021665D01*
X121174815Y-84088704D01*
X121122011Y-84134459D01*
X121052853Y-84144403D01*
X121008500Y-84129052D01*
X120964239Y-84103498D01*
X120964238Y-84103497D01*
X120964237Y-84103497D01*
X120856018Y-84074500D01*
X120743982Y-84074500D01*
X120635763Y-84103497D01*
X120635760Y-84103498D01*
X120538740Y-84159513D01*
X120538734Y-84159517D01*
X120459517Y-84238734D01*
X120459513Y-84238740D01*
X120403498Y-84335760D01*
X120403497Y-84335763D01*
X120374500Y-84443982D01*
X98250500Y-84443982D01*
X98250500Y-81753982D01*
X116184500Y-81753982D01*
X116184500Y-81866018D01*
X116213497Y-81974237D01*
X116269515Y-82071263D01*
X116348737Y-82150485D01*
X116445763Y-82206503D01*
X116553982Y-82235500D01*
X116553984Y-82235500D01*
X116666016Y-82235500D01*
X116666018Y-82235500D01*
X116774237Y-82206503D01*
X116871263Y-82150485D01*
X116950485Y-82071263D01*
X117006503Y-81974237D01*
X117035500Y-81866018D01*
X117035500Y-81753982D01*
X117006503Y-81645763D01*
X116950485Y-81548737D01*
X116871263Y-81469515D01*
X116774237Y-81413497D01*
X116666018Y-81384500D01*
X116553982Y-81384500D01*
X116445763Y-81413497D01*
X116445760Y-81413498D01*
X116348740Y-81469513D01*
X116348734Y-81469517D01*
X116269517Y-81548734D01*
X116269513Y-81548740D01*
X116213498Y-81645760D01*
X116213497Y-81645763D01*
X116184500Y-81753982D01*
X98250500Y-81753982D01*
X98250500Y-78943982D01*
X100964500Y-78943982D01*
X100964500Y-79056018D01*
X100993497Y-79164237D01*
X101049515Y-79261263D01*
X101128737Y-79340485D01*
X101225763Y-79396503D01*
X101333982Y-79425500D01*
X101333984Y-79425500D01*
X101446016Y-79425500D01*
X101446018Y-79425500D01*
X101554237Y-79396503D01*
X101651263Y-79340485D01*
X101730485Y-79261263D01*
X101786503Y-79164237D01*
X101815500Y-79056018D01*
X101815500Y-78943982D01*
X101786503Y-78835763D01*
X101730485Y-78738737D01*
X101651263Y-78659515D01*
X101554237Y-78603497D01*
X101446018Y-78574500D01*
X101333982Y-78574500D01*
X101225763Y-78603497D01*
X101225760Y-78603498D01*
X101128740Y-78659513D01*
X101128734Y-78659517D01*
X101049517Y-78738734D01*
X101049513Y-78738740D01*
X100993498Y-78835760D01*
X100993497Y-78835763D01*
X100964500Y-78943982D01*
X98250500Y-78943982D01*
X98250500Y-72919999D01*
X113770884Y-72919999D01*
X113770885Y-72920000D01*
X114839670Y-72920000D01*
X114819925Y-72939745D01*
X114770556Y-73025255D01*
X114745000Y-73120630D01*
X114745000Y-73219370D01*
X114770556Y-73314745D01*
X114819925Y-73400255D01*
X114839670Y-73420000D01*
X113770885Y-73420000D01*
X113772085Y-73427584D01*
X113825591Y-73592255D01*
X113904195Y-73746524D01*
X114005967Y-73886602D01*
X114128397Y-74009032D01*
X114268475Y-74110804D01*
X114422742Y-74189408D01*
X114587415Y-74242914D01*
X114758429Y-74270000D01*
X114870000Y-74270000D01*
X114870000Y-73450330D01*
X114889745Y-73470075D01*
X114975255Y-73519444D01*
X115070630Y-73545000D01*
X115169370Y-73545000D01*
X115264745Y-73519444D01*
X115350255Y-73470075D01*
X115370000Y-73450330D01*
X115370000Y-74270000D01*
X115481571Y-74270000D01*
X115652584Y-74242914D01*
X115817257Y-74189408D01*
X115971524Y-74110804D01*
X116111602Y-74009032D01*
X116234032Y-73886602D01*
X116335804Y-73746524D01*
X116414408Y-73592255D01*
X116467914Y-73427584D01*
X116469115Y-73420000D01*
X115400330Y-73420000D01*
X115420075Y-73400255D01*
X115469444Y-73314745D01*
X115495000Y-73219370D01*
X115495000Y-73120630D01*
X115469444Y-73025255D01*
X115420075Y-72939745D01*
X115400330Y-72920000D01*
X116469115Y-72920000D01*
X116469115Y-72919999D01*
X116467914Y-72912415D01*
X116414408Y-72747744D01*
X116335804Y-72593475D01*
X116234032Y-72453397D01*
X116111602Y-72330967D01*
X115971524Y-72229195D01*
X115817255Y-72150591D01*
X115745869Y-72127396D01*
X115688193Y-72087958D01*
X115660995Y-72023600D01*
X115672910Y-71954753D01*
X115720154Y-71903278D01*
X115736735Y-71894904D01*
X115774173Y-71879397D01*
X115774176Y-71879395D01*
X115774179Y-71879394D01*
X115905289Y-71791789D01*
X116016789Y-71680289D01*
X116104394Y-71549179D01*
X116164737Y-71403497D01*
X116195500Y-71248842D01*
X116195500Y-71091158D01*
X116195500Y-71091155D01*
X116195499Y-71091153D01*
X116164738Y-70936510D01*
X116164737Y-70936503D01*
X116139032Y-70874444D01*
X116104397Y-70790827D01*
X116104390Y-70790814D01*
X116016789Y-70659711D01*
X116016786Y-70659707D01*
X115905292Y-70548213D01*
X115905288Y-70548210D01*
X115774185Y-70460609D01*
X115774172Y-70460602D01*
X115628501Y-70400264D01*
X115628489Y-70400261D01*
X115473845Y-70369500D01*
X115473842Y-70369500D01*
X114766158Y-70369500D01*
X114766155Y-70369500D01*
X114611510Y-70400261D01*
X114611498Y-70400264D01*
X114465827Y-70460602D01*
X114465814Y-70460609D01*
X114334711Y-70548210D01*
X114334707Y-70548213D01*
X114223213Y-70659707D01*
X114223210Y-70659711D01*
X114135609Y-70790814D01*
X114135602Y-70790827D01*
X114075264Y-70936498D01*
X114075261Y-70936510D01*
X114044500Y-71091153D01*
X114044500Y-71248846D01*
X114075261Y-71403489D01*
X114075264Y-71403501D01*
X114135602Y-71549172D01*
X114135609Y-71549185D01*
X114223210Y-71680288D01*
X114223213Y-71680292D01*
X114334707Y-71791786D01*
X114334711Y-71791789D01*
X114465814Y-71879390D01*
X114465823Y-71879395D01*
X114503265Y-71894904D01*
X114557668Y-71938745D01*
X114579733Y-72005039D01*
X114562454Y-72072738D01*
X114511317Y-72120349D01*
X114494131Y-72127396D01*
X114422742Y-72150591D01*
X114268475Y-72229195D01*
X114128397Y-72330967D01*
X114005967Y-72453397D01*
X113904195Y-72593475D01*
X113825591Y-72747744D01*
X113772085Y-72912415D01*
X113770884Y-72919999D01*
X98250500Y-72919999D01*
X98250500Y-70003051D01*
X98250649Y-69996967D01*
X98256846Y-69870821D01*
X98268256Y-69638564D01*
X98269449Y-69626457D01*
X98272160Y-69608179D01*
X98321654Y-69274520D01*
X98324022Y-69262613D01*
X98410475Y-68917473D01*
X98414006Y-68905837D01*
X98464137Y-68765730D01*
X114044500Y-68765730D01*
X114044500Y-69574269D01*
X114047353Y-69604699D01*
X114047353Y-69604701D01*
X114088279Y-69721657D01*
X114092207Y-69732882D01*
X114172850Y-69842150D01*
X114282118Y-69922793D01*
X114324845Y-69937744D01*
X114410299Y-69967646D01*
X114440730Y-69970500D01*
X114440734Y-69970500D01*
X115799270Y-69970500D01*
X115829699Y-69967646D01*
X115829701Y-69967646D01*
X115893790Y-69945219D01*
X115957882Y-69922793D01*
X116067150Y-69842150D01*
X116147793Y-69732882D01*
X116180795Y-69638567D01*
X116192646Y-69604701D01*
X116192646Y-69604699D01*
X116195500Y-69574269D01*
X116195500Y-68765730D01*
X116192646Y-68735300D01*
X116192646Y-68735298D01*
X116147793Y-68607119D01*
X116147792Y-68607117D01*
X116067150Y-68497850D01*
X115957882Y-68417207D01*
X115957880Y-68417206D01*
X115829700Y-68372353D01*
X115799270Y-68369500D01*
X115799266Y-68369500D01*
X114440734Y-68369500D01*
X114440730Y-68369500D01*
X114410300Y-68372353D01*
X114410298Y-68372353D01*
X114282119Y-68417206D01*
X114282117Y-68417207D01*
X114172850Y-68497850D01*
X114092207Y-68607117D01*
X114092206Y-68607119D01*
X114047353Y-68735298D01*
X114047353Y-68735300D01*
X114044500Y-68765730D01*
X98464137Y-68765730D01*
X98533869Y-68570840D01*
X98538508Y-68559643D01*
X98690643Y-68237979D01*
X98696358Y-68227287D01*
X98879278Y-67922105D01*
X98886021Y-67912012D01*
X98966141Y-67803982D01*
X135364500Y-67803982D01*
X135364500Y-67916018D01*
X135393497Y-68024237D01*
X135449515Y-68121263D01*
X135528737Y-68200485D01*
X135625763Y-68256503D01*
X135733982Y-68285500D01*
X135774523Y-68285500D01*
X135803963Y-68294144D01*
X135833950Y-68300668D01*
X135838965Y-68304422D01*
X135841562Y-68305185D01*
X135862204Y-68321819D01*
X135918181Y-68377796D01*
X135951666Y-68439119D01*
X135954500Y-68465477D01*
X135954500Y-77714799D01*
X135965979Y-77742511D01*
X135965980Y-77742514D01*
X135996443Y-77816058D01*
X136117628Y-77937243D01*
X136149721Y-77992829D01*
X136163495Y-78044233D01*
X136163498Y-78044240D01*
X136219512Y-78141259D01*
X136219514Y-78141261D01*
X136219515Y-78141263D01*
X136298737Y-78220485D01*
X136395763Y-78276503D01*
X136503982Y-78305500D01*
X136503984Y-78305500D01*
X136616016Y-78305500D01*
X136616018Y-78305500D01*
X136724237Y-78276503D01*
X136821263Y-78220485D01*
X136900485Y-78141263D01*
X136956503Y-78044237D01*
X136985500Y-77936018D01*
X136985500Y-77823982D01*
X136956503Y-77715763D01*
X136956499Y-77715756D01*
X136953392Y-77708253D01*
X136956102Y-77707130D01*
X136942947Y-77652934D01*
X136965789Y-77586904D01*
X136974509Y-77576008D01*
X136985397Y-77563871D01*
X136991263Y-77560485D01*
X137026726Y-77525022D01*
X154662000Y-77525022D01*
X154662000Y-77774978D01*
X154669762Y-77823982D01*
X154701102Y-78021857D01*
X154778344Y-78259584D01*
X154801740Y-78305500D01*
X154891821Y-78482293D01*
X155038742Y-78684512D01*
X155215488Y-78861258D01*
X155417707Y-79008179D01*
X155511592Y-79056016D01*
X155640415Y-79121655D01*
X155640417Y-79121655D01*
X155640420Y-79121657D01*
X155878143Y-79198898D01*
X156125022Y-79238000D01*
X156125023Y-79238000D01*
X156374977Y-79238000D01*
X156374978Y-79238000D01*
X156621857Y-79198898D01*
X156859580Y-79121657D01*
X157082293Y-79008179D01*
X157284512Y-78861258D01*
X157461258Y-78684512D01*
X157608179Y-78482293D01*
X157721657Y-78259580D01*
X157798898Y-78021857D01*
X157838000Y-77774978D01*
X157838000Y-77525022D01*
X157798898Y-77278143D01*
X157721657Y-77040420D01*
X157721655Y-77040417D01*
X157721655Y-77040415D01*
X157660336Y-76920071D01*
X157608179Y-76817707D01*
X157461258Y-76615488D01*
X157284512Y-76438742D01*
X157082293Y-76291821D01*
X157075149Y-76288181D01*
X156859584Y-76178344D01*
X156621857Y-76101102D01*
X156374978Y-76062000D01*
X156125022Y-76062000D01*
X156001582Y-76081551D01*
X155878142Y-76101102D01*
X155640415Y-76178344D01*
X155417706Y-76291821D01*
X155311841Y-76368737D01*
X155215488Y-76438742D01*
X155215486Y-76438744D01*
X155215485Y-76438744D01*
X155038744Y-76615485D01*
X155038744Y-76615486D01*
X155038742Y-76615488D01*
X154992625Y-76678963D01*
X154891821Y-76817706D01*
X154778344Y-77040415D01*
X154701792Y-77276018D01*
X154701102Y-77278143D01*
X154662000Y-77525022D01*
X137026726Y-77525022D01*
X137070485Y-77481263D01*
X137126503Y-77384237D01*
X137155500Y-77276018D01*
X137155500Y-77163982D01*
X137126503Y-77055763D01*
X137070485Y-76958737D01*
X137031819Y-76920071D01*
X136998334Y-76858748D01*
X136995500Y-76832390D01*
X136995500Y-72470247D01*
X138339500Y-72470247D01*
X138339500Y-74209752D01*
X138351131Y-74268229D01*
X138351132Y-74268230D01*
X138395447Y-74334552D01*
X138461769Y-74378867D01*
X138461770Y-74378868D01*
X138520247Y-74390499D01*
X138520250Y-74390500D01*
X138520252Y-74390500D01*
X140259750Y-74390500D01*
X140259751Y-74390499D01*
X140274568Y-74387552D01*
X140318229Y-74378868D01*
X140318229Y-74378867D01*
X140318231Y-74378867D01*
X140384552Y-74334552D01*
X140428867Y-74268231D01*
X140428867Y-74268229D01*
X140428868Y-74268229D01*
X140440499Y-74209752D01*
X140440500Y-74209750D01*
X140440500Y-73236530D01*
X140879500Y-73236530D01*
X140879500Y-73443469D01*
X140919868Y-73646412D01*
X140919870Y-73646420D01*
X140999058Y-73837596D01*
X141114024Y-74009657D01*
X141260342Y-74155975D01*
X141260345Y-74155977D01*
X141432402Y-74270941D01*
X141623580Y-74350130D01*
X141768052Y-74378867D01*
X141826530Y-74390499D01*
X141826534Y-74390500D01*
X141826535Y-74390500D01*
X142033466Y-74390500D01*
X142033467Y-74390499D01*
X142236420Y-74350130D01*
X142427598Y-74270941D01*
X142599655Y-74155977D01*
X142745977Y-74009655D01*
X142860941Y-73837598D01*
X142940130Y-73646420D01*
X142980500Y-73443465D01*
X142980500Y-73236535D01*
X142980499Y-73236530D01*
X143419500Y-73236530D01*
X143419500Y-73443469D01*
X143459868Y-73646412D01*
X143459870Y-73646420D01*
X143539058Y-73837596D01*
X143654024Y-74009657D01*
X143800342Y-74155975D01*
X143800345Y-74155977D01*
X143972402Y-74270941D01*
X144163580Y-74350130D01*
X144308052Y-74378867D01*
X144366530Y-74390499D01*
X144366534Y-74390500D01*
X144366535Y-74390500D01*
X144573466Y-74390500D01*
X144573467Y-74390499D01*
X144776420Y-74350130D01*
X144967598Y-74270941D01*
X145139655Y-74155977D01*
X145285977Y-74009655D01*
X145400941Y-73837598D01*
X145480130Y-73646420D01*
X145520500Y-73443465D01*
X145520500Y-73236535D01*
X145520499Y-73236530D01*
X145959500Y-73236530D01*
X145959500Y-73443469D01*
X145999868Y-73646412D01*
X145999870Y-73646420D01*
X146079058Y-73837596D01*
X146194024Y-74009657D01*
X146340342Y-74155975D01*
X146340345Y-74155977D01*
X146512402Y-74270941D01*
X146703580Y-74350130D01*
X146848052Y-74378867D01*
X146906530Y-74390499D01*
X146906534Y-74390500D01*
X146906535Y-74390500D01*
X147113466Y-74390500D01*
X147113467Y-74390499D01*
X147316420Y-74350130D01*
X147507598Y-74270941D01*
X147679655Y-74155977D01*
X147825977Y-74009655D01*
X147940941Y-73837598D01*
X148020130Y-73646420D01*
X148060500Y-73443465D01*
X148060500Y-73236535D01*
X148020130Y-73033580D01*
X147969942Y-72912415D01*
X147951380Y-72867603D01*
X147940942Y-72842404D01*
X147929328Y-72825022D01*
X154662000Y-72825022D01*
X154662000Y-73074978D01*
X154687588Y-73236534D01*
X154701102Y-73321857D01*
X154778344Y-73559584D01*
X154861645Y-73723069D01*
X154891821Y-73782293D01*
X155038742Y-73984512D01*
X155215488Y-74161258D01*
X155417707Y-74308179D01*
X155513698Y-74357089D01*
X155640415Y-74421655D01*
X155640417Y-74421655D01*
X155640420Y-74421657D01*
X155878143Y-74498898D01*
X156125022Y-74538000D01*
X156125023Y-74538000D01*
X156374977Y-74538000D01*
X156374978Y-74538000D01*
X156621857Y-74498898D01*
X156859580Y-74421657D01*
X156986301Y-74357088D01*
X157054969Y-74344192D01*
X157119710Y-74370468D01*
X157130277Y-74379892D01*
X160498181Y-77747796D01*
X160531666Y-77809119D01*
X160534500Y-77835477D01*
X160534500Y-93363390D01*
X160514815Y-93430429D01*
X160462011Y-93476184D01*
X160392853Y-93486128D01*
X160329297Y-93457103D01*
X160322819Y-93451071D01*
X160311265Y-93439517D01*
X160311263Y-93439515D01*
X160222773Y-93388425D01*
X160214239Y-93383498D01*
X160214238Y-93383497D01*
X160214237Y-93383497D01*
X160106018Y-93354500D01*
X159993982Y-93354500D01*
X159885763Y-93383497D01*
X159885760Y-93383498D01*
X159788740Y-93439513D01*
X159788734Y-93439517D01*
X159709517Y-93518734D01*
X159709513Y-93518740D01*
X159653498Y-93615760D01*
X159653497Y-93615763D01*
X159624500Y-93723982D01*
X159624500Y-93836018D01*
X159653497Y-93944237D01*
X159709515Y-94041263D01*
X159788737Y-94120485D01*
X159885763Y-94176503D01*
X159993982Y-94205500D01*
X159993984Y-94205500D01*
X160106016Y-94205500D01*
X160106018Y-94205500D01*
X160214237Y-94176503D01*
X160311263Y-94120485D01*
X160322819Y-94108929D01*
X160384142Y-94075444D01*
X160453834Y-94080428D01*
X160509767Y-94122300D01*
X160534184Y-94187764D01*
X160534500Y-94196610D01*
X160534500Y-96741632D01*
X160535276Y-96745538D01*
X160535477Y-96745850D01*
X160535837Y-96748358D01*
X160536883Y-96753614D01*
X160536601Y-96753670D01*
X160540500Y-96780785D01*
X160540500Y-96999216D01*
X160535164Y-97026046D01*
X160536883Y-97026388D01*
X160534500Y-97038368D01*
X160534500Y-103042390D01*
X160514815Y-103109429D01*
X160498181Y-103130071D01*
X160469517Y-103158734D01*
X160469513Y-103158740D01*
X160413498Y-103255760D01*
X160413497Y-103255763D01*
X160384500Y-103363982D01*
X160384500Y-103476018D01*
X160413497Y-103584237D01*
X160469515Y-103681263D01*
X160548737Y-103760485D01*
X160645763Y-103816503D01*
X160753982Y-103845500D01*
X160753984Y-103845500D01*
X160866016Y-103845500D01*
X160866018Y-103845500D01*
X160974237Y-103816503D01*
X161071263Y-103760485D01*
X161150485Y-103681263D01*
X161206503Y-103584237D01*
X161235500Y-103476018D01*
X161235500Y-103363982D01*
X161206503Y-103255763D01*
X161150485Y-103158737D01*
X161121819Y-103130071D01*
X161088334Y-103068748D01*
X161085500Y-103042390D01*
X161085500Y-97181117D01*
X161090837Y-97154288D01*
X161089117Y-97153946D01*
X161091500Y-97141964D01*
X161091500Y-96638036D01*
X161089117Y-96626056D01*
X161090835Y-96625714D01*
X161085500Y-96598884D01*
X161085500Y-86833982D01*
X186154500Y-86833982D01*
X186154500Y-86946018D01*
X186183497Y-87054237D01*
X186239515Y-87151263D01*
X186318737Y-87230485D01*
X186415763Y-87286503D01*
X186523982Y-87315500D01*
X186523984Y-87315500D01*
X186636016Y-87315500D01*
X186636018Y-87315500D01*
X186744237Y-87286503D01*
X186841263Y-87230485D01*
X186920485Y-87151263D01*
X186976503Y-87054237D01*
X187005500Y-86946018D01*
X187005500Y-86833982D01*
X186976503Y-86725763D01*
X186920485Y-86628737D01*
X186841263Y-86549515D01*
X186744237Y-86493497D01*
X186636018Y-86464500D01*
X186523982Y-86464500D01*
X186415763Y-86493497D01*
X186415760Y-86493498D01*
X186318740Y-86549513D01*
X186318734Y-86549517D01*
X186239517Y-86628734D01*
X186239513Y-86628740D01*
X186183498Y-86725760D01*
X186183497Y-86725763D01*
X186154500Y-86833982D01*
X161085500Y-86833982D01*
X161085500Y-83823982D01*
X166974500Y-83823982D01*
X166974500Y-83936018D01*
X167003497Y-84044237D01*
X167059515Y-84141263D01*
X167138737Y-84220485D01*
X167235763Y-84276503D01*
X167343982Y-84305500D01*
X167343984Y-84305500D01*
X167456016Y-84305500D01*
X167456018Y-84305500D01*
X167564237Y-84276503D01*
X167661263Y-84220485D01*
X167740485Y-84141263D01*
X167796503Y-84044237D01*
X167807289Y-84003982D01*
X169324500Y-84003982D01*
X169324500Y-84116018D01*
X169336156Y-84159517D01*
X169353497Y-84224236D01*
X169353498Y-84224239D01*
X169361870Y-84238740D01*
X169409515Y-84321263D01*
X169488737Y-84400485D01*
X169585763Y-84456503D01*
X169693982Y-84485500D01*
X169693984Y-84485500D01*
X169806016Y-84485500D01*
X169806018Y-84485500D01*
X169914237Y-84456503D01*
X170011263Y-84400485D01*
X170090485Y-84321263D01*
X170146503Y-84224237D01*
X170175500Y-84116018D01*
X170175500Y-84003982D01*
X170146503Y-83895763D01*
X170090485Y-83798737D01*
X170011263Y-83719515D01*
X169914237Y-83663497D01*
X169806018Y-83634500D01*
X169693982Y-83634500D01*
X169585763Y-83663497D01*
X169585760Y-83663498D01*
X169488740Y-83719513D01*
X169488734Y-83719517D01*
X169409517Y-83798734D01*
X169409513Y-83798740D01*
X169353498Y-83895760D01*
X169353497Y-83895763D01*
X169324500Y-84003982D01*
X167807289Y-84003982D01*
X167825500Y-83936018D01*
X167825500Y-83888298D01*
X167826328Y-83881170D01*
X167837283Y-83855346D01*
X167845185Y-83828438D01*
X167852607Y-83819226D01*
X167853616Y-83816850D01*
X167855628Y-83815477D01*
X167861819Y-83807796D01*
X168777797Y-82891819D01*
X168839120Y-82858334D01*
X168865478Y-82855500D01*
X170324799Y-82855500D01*
X170324800Y-82855500D01*
X170426058Y-82813557D01*
X170503557Y-82736058D01*
X170503556Y-82736058D01*
X170557797Y-82681818D01*
X170619120Y-82648334D01*
X170645478Y-82645500D01*
X170656016Y-82645500D01*
X170656018Y-82645500D01*
X170764237Y-82616503D01*
X170861263Y-82560485D01*
X170940485Y-82481263D01*
X170996503Y-82384237D01*
X171025500Y-82276018D01*
X171025500Y-82163982D01*
X170996503Y-82055763D01*
X170940485Y-81958737D01*
X170861263Y-81879515D01*
X170764237Y-81823497D01*
X170656018Y-81794500D01*
X170543982Y-81794500D01*
X170435763Y-81823497D01*
X170435760Y-81823498D01*
X170338740Y-81879513D01*
X170338734Y-81879517D01*
X170259517Y-81958734D01*
X170259513Y-81958740D01*
X170203498Y-82055760D01*
X170203497Y-82055763D01*
X170174500Y-82163982D01*
X170174500Y-82180500D01*
X170154815Y-82247539D01*
X170102011Y-82293294D01*
X170050500Y-82304500D01*
X168754800Y-82304500D01*
X168645200Y-82304500D01*
X168645198Y-82304500D01*
X168645196Y-82304501D01*
X168543944Y-82346439D01*
X168543942Y-82346441D01*
X167472204Y-83418181D01*
X167410881Y-83451666D01*
X167384523Y-83454500D01*
X167343982Y-83454500D01*
X167235763Y-83483497D01*
X167235760Y-83483498D01*
X167138740Y-83539513D01*
X167138734Y-83539517D01*
X167059517Y-83618734D01*
X167059513Y-83618740D01*
X167003498Y-83715760D01*
X167003497Y-83715763D01*
X166974500Y-83823982D01*
X161085500Y-83823982D01*
X161085500Y-79943982D01*
X163644500Y-79943982D01*
X163644500Y-80056018D01*
X163673497Y-80164237D01*
X163729515Y-80261263D01*
X163808737Y-80340485D01*
X163905763Y-80396503D01*
X164013982Y-80425500D01*
X164013984Y-80425500D01*
X164126016Y-80425500D01*
X164126018Y-80425500D01*
X164234237Y-80396503D01*
X164331263Y-80340485D01*
X164410485Y-80261263D01*
X164466503Y-80164237D01*
X164495500Y-80056018D01*
X164495500Y-79943982D01*
X164466503Y-79835763D01*
X164410485Y-79738737D01*
X164331263Y-79659515D01*
X164234237Y-79603497D01*
X164126018Y-79574500D01*
X164013982Y-79574500D01*
X163905763Y-79603497D01*
X163905760Y-79603498D01*
X163808740Y-79659513D01*
X163808734Y-79659517D01*
X163729517Y-79738734D01*
X163729513Y-79738740D01*
X163673498Y-79835760D01*
X163673497Y-79835763D01*
X163644500Y-79943982D01*
X161085500Y-79943982D01*
X161085500Y-77615201D01*
X161085500Y-77615200D01*
X161043557Y-77513942D01*
X160966058Y-77436443D01*
X157558392Y-74028777D01*
X157524907Y-73967454D01*
X157529891Y-73897762D01*
X157545752Y-73868214D01*
X157608179Y-73782293D01*
X157721657Y-73559580D01*
X157798898Y-73321857D01*
X157838000Y-73074978D01*
X157838000Y-72825022D01*
X157798898Y-72578143D01*
X157721657Y-72340420D01*
X157721655Y-72340417D01*
X157721655Y-72340415D01*
X157629571Y-72159692D01*
X157608179Y-72117707D01*
X157461258Y-71915488D01*
X157284512Y-71738742D01*
X157082293Y-71591821D01*
X156859584Y-71478344D01*
X156621857Y-71401102D01*
X156466678Y-71376524D01*
X156374978Y-71362000D01*
X156125022Y-71362000D01*
X156033322Y-71376524D01*
X155878142Y-71401102D01*
X155640415Y-71478344D01*
X155417706Y-71591821D01*
X155302333Y-71675644D01*
X155215488Y-71738742D01*
X155215486Y-71738744D01*
X155215485Y-71738744D01*
X155038744Y-71915485D01*
X155038744Y-71915486D01*
X155038742Y-71915488D01*
X154975644Y-72002333D01*
X154891821Y-72117706D01*
X154778344Y-72340415D01*
X154701102Y-72578142D01*
X154676334Y-72734522D01*
X154662000Y-72825022D01*
X147929328Y-72825022D01*
X147927444Y-72822203D01*
X147825977Y-72670345D01*
X147825975Y-72670342D01*
X147679657Y-72524024D01*
X147511655Y-72411770D01*
X147507598Y-72409059D01*
X147316420Y-72329870D01*
X147316412Y-72329868D01*
X147113469Y-72289500D01*
X147113465Y-72289500D01*
X146906535Y-72289500D01*
X146906530Y-72289500D01*
X146703587Y-72329868D01*
X146703579Y-72329870D01*
X146512403Y-72409058D01*
X146340342Y-72524024D01*
X146194024Y-72670342D01*
X146079058Y-72842403D01*
X145999870Y-73033579D01*
X145999868Y-73033587D01*
X145959500Y-73236530D01*
X145520499Y-73236530D01*
X145480130Y-73033580D01*
X145400941Y-72842402D01*
X145285977Y-72670345D01*
X145285975Y-72670342D01*
X145139657Y-72524024D01*
X144971655Y-72411770D01*
X144967598Y-72409059D01*
X144776420Y-72329870D01*
X144776412Y-72329868D01*
X144573469Y-72289500D01*
X144573465Y-72289500D01*
X144366535Y-72289500D01*
X144366530Y-72289500D01*
X144163587Y-72329868D01*
X144163579Y-72329870D01*
X143972403Y-72409058D01*
X143800342Y-72524024D01*
X143654024Y-72670342D01*
X143539058Y-72842403D01*
X143459870Y-73033579D01*
X143459868Y-73033587D01*
X143419500Y-73236530D01*
X142980499Y-73236530D01*
X142940130Y-73033580D01*
X142860941Y-72842402D01*
X142745977Y-72670345D01*
X142745975Y-72670342D01*
X142599657Y-72524024D01*
X142431655Y-72411770D01*
X142427598Y-72409059D01*
X142236420Y-72329870D01*
X142236412Y-72329868D01*
X142033469Y-72289500D01*
X142033465Y-72289500D01*
X141826535Y-72289500D01*
X141826530Y-72289500D01*
X141623587Y-72329868D01*
X141623579Y-72329870D01*
X141432403Y-72409058D01*
X141260342Y-72524024D01*
X141114024Y-72670342D01*
X140999058Y-72842403D01*
X140919870Y-73033579D01*
X140919868Y-73033587D01*
X140879500Y-73236530D01*
X140440500Y-73236530D01*
X140440500Y-72470249D01*
X140440499Y-72470247D01*
X140428868Y-72411770D01*
X140428867Y-72411769D01*
X140384552Y-72345447D01*
X140318230Y-72301132D01*
X140318229Y-72301131D01*
X140259752Y-72289500D01*
X140259748Y-72289500D01*
X138520252Y-72289500D01*
X138520247Y-72289500D01*
X138461770Y-72301131D01*
X138461769Y-72301132D01*
X138395447Y-72345447D01*
X138351132Y-72411769D01*
X138351131Y-72411770D01*
X138339500Y-72470247D01*
X136995500Y-72470247D01*
X136995500Y-71809999D01*
X138039999Y-71809999D01*
X138039999Y-71810000D01*
X138040000Y-71809999D01*
X138040000Y-71810000D01*
X138379120Y-71809017D01*
X138446216Y-71828507D01*
X138448371Y-71829915D01*
X138461768Y-71838867D01*
X138461770Y-71838868D01*
X138520247Y-71850499D01*
X138520250Y-71850500D01*
X138520252Y-71850500D01*
X140259750Y-71850500D01*
X140259751Y-71850499D01*
X140288989Y-71844683D01*
X140318227Y-71838868D01*
X140318227Y-71838867D01*
X140318231Y-71838867D01*
X140340425Y-71824036D01*
X140407098Y-71803158D01*
X140408870Y-71803139D01*
X141573538Y-71799766D01*
X141617710Y-71808488D01*
X141617749Y-71808361D01*
X141619020Y-71808746D01*
X141621351Y-71809206D01*
X141623580Y-71810130D01*
X141723047Y-71829915D01*
X141826530Y-71850499D01*
X141826534Y-71850500D01*
X141826535Y-71850500D01*
X142033466Y-71850500D01*
X142033467Y-71850499D01*
X142101116Y-71837043D01*
X142236412Y-71810132D01*
X142236413Y-71810131D01*
X142236420Y-71810130D01*
X142243663Y-71807129D01*
X142290758Y-71797690D01*
X144095906Y-71792462D01*
X144143714Y-71801901D01*
X144163580Y-71810130D01*
X144263047Y-71829915D01*
X144366530Y-71850499D01*
X144366534Y-71850500D01*
X144366535Y-71850500D01*
X144573466Y-71850500D01*
X144573467Y-71850499D01*
X144776420Y-71810130D01*
X144801543Y-71799722D01*
X144848640Y-71790283D01*
X146618272Y-71785158D01*
X146666079Y-71794596D01*
X146703580Y-71810130D01*
X146848052Y-71838867D01*
X146906530Y-71850499D01*
X146906534Y-71850500D01*
X146906535Y-71850500D01*
X147113466Y-71850500D01*
X147113467Y-71850499D01*
X147316420Y-71810130D01*
X147359429Y-71792314D01*
X147406521Y-71782876D01*
X148400000Y-71780000D01*
X148398667Y-71577368D01*
X148393056Y-70724454D01*
X148389365Y-70163428D01*
X168600000Y-70163428D01*
X168600000Y-70275000D01*
X169419670Y-70275000D01*
X169399925Y-70294745D01*
X169350556Y-70380255D01*
X169325000Y-70475630D01*
X169325000Y-70574370D01*
X169350556Y-70669745D01*
X169399925Y-70755255D01*
X169419670Y-70775000D01*
X168600000Y-70775000D01*
X168600000Y-70886571D01*
X168627085Y-71057584D01*
X168680591Y-71222257D01*
X168759195Y-71376524D01*
X168860967Y-71516602D01*
X168983397Y-71639032D01*
X169123475Y-71740804D01*
X169277744Y-71819408D01*
X169442415Y-71872914D01*
X169442414Y-71872914D01*
X169449999Y-71874115D01*
X169450000Y-71874114D01*
X169450000Y-70805330D01*
X169469745Y-70825075D01*
X169555255Y-70874444D01*
X169650630Y-70900000D01*
X169749370Y-70900000D01*
X169844745Y-70874444D01*
X169930255Y-70825075D01*
X169950000Y-70805330D01*
X169950000Y-71874115D01*
X169957584Y-71872914D01*
X170122255Y-71819408D01*
X170276524Y-71740804D01*
X170416602Y-71639032D01*
X170539032Y-71516602D01*
X170640804Y-71376524D01*
X170719409Y-71222253D01*
X170742603Y-71150870D01*
X170782040Y-71093194D01*
X170846398Y-71065995D01*
X170915244Y-71077909D01*
X170966721Y-71125153D01*
X170975095Y-71141733D01*
X170990603Y-71179172D01*
X170990606Y-71179178D01*
X170990609Y-71179185D01*
X171078210Y-71310288D01*
X171078213Y-71310292D01*
X171189707Y-71421786D01*
X171189711Y-71421789D01*
X171320814Y-71509390D01*
X171320827Y-71509397D01*
X171425596Y-71552793D01*
X171466503Y-71569737D01*
X171587656Y-71593836D01*
X171621153Y-71600499D01*
X171621156Y-71600500D01*
X171621158Y-71600500D01*
X171778844Y-71600500D01*
X171778845Y-71600499D01*
X171933497Y-71569737D01*
X172079179Y-71509394D01*
X172210289Y-71421789D01*
X172321789Y-71310289D01*
X172409394Y-71179179D01*
X172469737Y-71033497D01*
X172500500Y-70878842D01*
X172500500Y-70171158D01*
X172500500Y-70171155D01*
X172500499Y-70171153D01*
X172473214Y-70033984D01*
X172469737Y-70016503D01*
X172461645Y-69996966D01*
X172417474Y-69890327D01*
X172417458Y-69890289D01*
X172416394Y-69887722D01*
X172409394Y-69870821D01*
X172409391Y-69870816D01*
X172409390Y-69870814D01*
X172392629Y-69845730D01*
X172899500Y-69845730D01*
X172899500Y-71204269D01*
X172902353Y-71234699D01*
X172902353Y-71234701D01*
X172946898Y-71362000D01*
X172947207Y-71362882D01*
X173027850Y-71472150D01*
X173137118Y-71552793D01*
X173179845Y-71567744D01*
X173265299Y-71597646D01*
X173295730Y-71600500D01*
X173295734Y-71600500D01*
X174104270Y-71600500D01*
X174134699Y-71597646D01*
X174134701Y-71597646D01*
X174198790Y-71575219D01*
X174262882Y-71552793D01*
X174372150Y-71472150D01*
X174452793Y-71362882D01*
X174492696Y-71248846D01*
X174497646Y-71234701D01*
X174497646Y-71234699D01*
X174500500Y-71204269D01*
X174500500Y-69845730D01*
X174497646Y-69815300D01*
X174497646Y-69815298D01*
X174452793Y-69687119D01*
X174452792Y-69687117D01*
X174436100Y-69664500D01*
X174372150Y-69577850D01*
X174262882Y-69497207D01*
X174262880Y-69497206D01*
X174134700Y-69452353D01*
X174104270Y-69449500D01*
X174104266Y-69449500D01*
X173295734Y-69449500D01*
X173295730Y-69449500D01*
X173265300Y-69452353D01*
X173265298Y-69452353D01*
X173137119Y-69497206D01*
X173137117Y-69497207D01*
X173027850Y-69577850D01*
X172947207Y-69687117D01*
X172947206Y-69687119D01*
X172902353Y-69815298D01*
X172902353Y-69815300D01*
X172899500Y-69845730D01*
X172392629Y-69845730D01*
X172321789Y-69739711D01*
X172321786Y-69739707D01*
X172210292Y-69628213D01*
X172210288Y-69628210D01*
X172079185Y-69540609D01*
X172079172Y-69540602D01*
X171933501Y-69480264D01*
X171933489Y-69480261D01*
X171778845Y-69449500D01*
X171778842Y-69449500D01*
X171621158Y-69449500D01*
X171621155Y-69449500D01*
X171466510Y-69480261D01*
X171466498Y-69480264D01*
X171320827Y-69540602D01*
X171320814Y-69540609D01*
X171189711Y-69628210D01*
X171189707Y-69628213D01*
X171078213Y-69739707D01*
X171078210Y-69739711D01*
X170990609Y-69870814D01*
X170990603Y-69870826D01*
X170975094Y-69908267D01*
X170931252Y-69962670D01*
X170864957Y-69984733D01*
X170797258Y-69967453D01*
X170749649Y-69916314D01*
X170742603Y-69899130D01*
X170719408Y-69827744D01*
X170640804Y-69673475D01*
X170539032Y-69533397D01*
X170416602Y-69410967D01*
X170276524Y-69309195D01*
X170122257Y-69230591D01*
X169957589Y-69177087D01*
X169957581Y-69177085D01*
X169950000Y-69175884D01*
X169950000Y-70244670D01*
X169930255Y-70224925D01*
X169844745Y-70175556D01*
X169749370Y-70150000D01*
X169650630Y-70150000D01*
X169555255Y-70175556D01*
X169469745Y-70224925D01*
X169450000Y-70244670D01*
X169450000Y-69175884D01*
X169449999Y-69175884D01*
X169442418Y-69177085D01*
X169442410Y-69177087D01*
X169277742Y-69230591D01*
X169123475Y-69309195D01*
X168983397Y-69410967D01*
X168860967Y-69533397D01*
X168759195Y-69673475D01*
X168680591Y-69827742D01*
X168627085Y-69992415D01*
X168600000Y-70163428D01*
X148389365Y-70163428D01*
X148389338Y-70159372D01*
X148380000Y-68739999D01*
X148353567Y-68713714D01*
X148319910Y-68652485D01*
X148323073Y-68587465D01*
X148326758Y-68576124D01*
X148326758Y-68576122D01*
X148360000Y-68366246D01*
X148360000Y-68153753D01*
X148357750Y-68139548D01*
X148355449Y-68125022D01*
X154662000Y-68125022D01*
X154662000Y-68374978D01*
X154691246Y-68559629D01*
X154701102Y-68621857D01*
X154778344Y-68859584D01*
X154863039Y-69025806D01*
X154891821Y-69082293D01*
X155038742Y-69284512D01*
X155215488Y-69461258D01*
X155417707Y-69608179D01*
X155477347Y-69638567D01*
X155640415Y-69721655D01*
X155640417Y-69721655D01*
X155640420Y-69721657D01*
X155878143Y-69798898D01*
X156125022Y-69838000D01*
X156125023Y-69838000D01*
X156374977Y-69838000D01*
X156374978Y-69838000D01*
X156621857Y-69798898D01*
X156859580Y-69721657D01*
X157082293Y-69608179D01*
X157284512Y-69461258D01*
X157461258Y-69284512D01*
X157608179Y-69082293D01*
X157721657Y-68859580D01*
X157798898Y-68621857D01*
X157838000Y-68374978D01*
X157838000Y-68125022D01*
X157798898Y-67878143D01*
X157721657Y-67640420D01*
X157721655Y-67640417D01*
X157721655Y-67640415D01*
X157649234Y-67498282D01*
X157608179Y-67417707D01*
X157461258Y-67215488D01*
X157284512Y-67038742D01*
X157082293Y-66891821D01*
X157063813Y-66882405D01*
X156859584Y-66778344D01*
X156621857Y-66701102D01*
X156572193Y-66693236D01*
X156374978Y-66662000D01*
X156125022Y-66662000D01*
X156001582Y-66681551D01*
X155878142Y-66701102D01*
X155640415Y-66778344D01*
X155417706Y-66891821D01*
X155346932Y-66943242D01*
X155215488Y-67038742D01*
X155215486Y-67038744D01*
X155215485Y-67038744D01*
X155038744Y-67215485D01*
X155038744Y-67215486D01*
X155038742Y-67215488D01*
X155030114Y-67227364D01*
X154891821Y-67417706D01*
X154778344Y-67640415D01*
X154701102Y-67878142D01*
X154671189Y-68067007D01*
X154662000Y-68125022D01*
X148355449Y-68125022D01*
X148326757Y-67943872D01*
X148326757Y-67943869D01*
X148261095Y-67741782D01*
X148164624Y-67552449D01*
X148125270Y-67498282D01*
X148125269Y-67498282D01*
X147492962Y-68130589D01*
X147475925Y-68067007D01*
X147410099Y-67952993D01*
X147317007Y-67859901D01*
X147202993Y-67794075D01*
X147139409Y-67777037D01*
X147771716Y-67144728D01*
X147717550Y-67105375D01*
X147528217Y-67008904D01*
X147326129Y-66943242D01*
X147116246Y-66910000D01*
X146903754Y-66910000D01*
X146693872Y-66943242D01*
X146693869Y-66943242D01*
X146491782Y-67008904D01*
X146302439Y-67105380D01*
X146248282Y-67144727D01*
X146248282Y-67144728D01*
X146880591Y-67777037D01*
X146817007Y-67794075D01*
X146702993Y-67859901D01*
X146609901Y-67952993D01*
X146544075Y-68067007D01*
X146527037Y-68130591D01*
X145894728Y-67498282D01*
X145894727Y-67498282D01*
X145855380Y-67552440D01*
X145850483Y-67562051D01*
X145802506Y-67612845D01*
X145734684Y-67629638D01*
X145668550Y-67607098D01*
X145629516Y-67562048D01*
X145624626Y-67552452D01*
X145585270Y-67498282D01*
X145585269Y-67498282D01*
X144952962Y-68130589D01*
X144935925Y-68067007D01*
X144870099Y-67952993D01*
X144777007Y-67859901D01*
X144662993Y-67794075D01*
X144599409Y-67777037D01*
X145231716Y-67144728D01*
X145177550Y-67105375D01*
X144988217Y-67008904D01*
X144786129Y-66943242D01*
X144576246Y-66910000D01*
X144363754Y-66910000D01*
X144153872Y-66943242D01*
X144153869Y-66943242D01*
X143951782Y-67008904D01*
X143762439Y-67105380D01*
X143708282Y-67144727D01*
X143708282Y-67144728D01*
X144340591Y-67777037D01*
X144277007Y-67794075D01*
X144162993Y-67859901D01*
X144069901Y-67952993D01*
X144004075Y-68067007D01*
X143987037Y-68130591D01*
X143354728Y-67498282D01*
X143354727Y-67498282D01*
X143315380Y-67552440D01*
X143310483Y-67562051D01*
X143262506Y-67612845D01*
X143194684Y-67629638D01*
X143128550Y-67607098D01*
X143089516Y-67562048D01*
X143084626Y-67552452D01*
X143045270Y-67498282D01*
X143045269Y-67498282D01*
X142412962Y-68130589D01*
X142395925Y-68067007D01*
X142330099Y-67952993D01*
X142237007Y-67859901D01*
X142122993Y-67794075D01*
X142059409Y-67777037D01*
X142691716Y-67144728D01*
X142637550Y-67105375D01*
X142448217Y-67008904D01*
X142246129Y-66943242D01*
X142036246Y-66910000D01*
X141823754Y-66910000D01*
X141613872Y-66943242D01*
X141613869Y-66943242D01*
X141411782Y-67008904D01*
X141222439Y-67105380D01*
X141168282Y-67144727D01*
X141168282Y-67144728D01*
X141800591Y-67777037D01*
X141737007Y-67794075D01*
X141622993Y-67859901D01*
X141529901Y-67952993D01*
X141464075Y-68067007D01*
X141447037Y-68130591D01*
X140777642Y-67461196D01*
X140744319Y-67400609D01*
X140705527Y-67227364D01*
X140683354Y-67167913D01*
X140683350Y-67167906D01*
X140597190Y-67052812D01*
X140597187Y-67052809D01*
X140482093Y-66966649D01*
X140482086Y-66966645D01*
X140347379Y-66916403D01*
X140347372Y-66916401D01*
X140287844Y-66910000D01*
X139640000Y-66910000D01*
X139640000Y-67826988D01*
X139582993Y-67794075D01*
X139455826Y-67760000D01*
X139324174Y-67760000D01*
X139197007Y-67794075D01*
X139140000Y-67826988D01*
X139140000Y-66910000D01*
X138492155Y-66910000D01*
X138432627Y-66916401D01*
X138432620Y-66916403D01*
X138297913Y-66966645D01*
X138297906Y-66966649D01*
X138182812Y-67052809D01*
X138182809Y-67052812D01*
X138096649Y-67167906D01*
X138096645Y-67167913D01*
X138046403Y-67302620D01*
X138046401Y-67302627D01*
X138040000Y-67362155D01*
X138040000Y-68010000D01*
X138956988Y-68010000D01*
X138924075Y-68067007D01*
X138890000Y-68194174D01*
X138890000Y-68325826D01*
X138924075Y-68452993D01*
X138956988Y-68510000D01*
X138040000Y-68510000D01*
X138040000Y-69157844D01*
X138047231Y-69225087D01*
X138046587Y-69225156D01*
X138048342Y-69240445D01*
X138039999Y-71809999D01*
X136995500Y-71809999D01*
X136995500Y-67956984D01*
X136999725Y-67924891D01*
X137001869Y-67916889D01*
X137015500Y-67866018D01*
X137015500Y-67753982D01*
X136986503Y-67645763D01*
X136930485Y-67548737D01*
X136851263Y-67469515D01*
X136754237Y-67413497D01*
X136646018Y-67384500D01*
X136533982Y-67384500D01*
X136425763Y-67413497D01*
X136425760Y-67413498D01*
X136328740Y-67469513D01*
X136328734Y-67469517D01*
X136252681Y-67545571D01*
X136191358Y-67579056D01*
X136121666Y-67574072D01*
X136077319Y-67545571D01*
X136051265Y-67519517D01*
X136051263Y-67519515D01*
X135964664Y-67469517D01*
X135954239Y-67463498D01*
X135954238Y-67463497D01*
X135954237Y-67463497D01*
X135846018Y-67434500D01*
X135733982Y-67434500D01*
X135625763Y-67463497D01*
X135625760Y-67463498D01*
X135528740Y-67519513D01*
X135528734Y-67519517D01*
X135449517Y-67598734D01*
X135449513Y-67598740D01*
X135393498Y-67695760D01*
X135393497Y-67695763D01*
X135364500Y-67803982D01*
X98966141Y-67803982D01*
X99097979Y-67626219D01*
X99105682Y-67616834D01*
X99344628Y-67353198D01*
X99353198Y-67344628D01*
X99616834Y-67105682D01*
X99626219Y-67097979D01*
X99912012Y-66886021D01*
X99922105Y-66879278D01*
X100227287Y-66696358D01*
X100237979Y-66690643D01*
X100559643Y-66538508D01*
X100570840Y-66533869D01*
X100905858Y-66413998D01*
X100917473Y-66410475D01*
X101262613Y-66324022D01*
X101274520Y-66321654D01*
X101626460Y-66269448D01*
X101638564Y-66268256D01*
X101996967Y-66250648D01*
X102003051Y-66250500D01*
X102044170Y-66250500D01*
X185955830Y-66250500D01*
X185996949Y-66250500D01*
X186003032Y-66250648D01*
G37*
G04 #@! TD.AperFunction*
G04 #@! TA.AperFunction,Conductor*
G36*
X175150763Y-100878856D02*
G01*
X175217718Y-100898814D01*
X175263257Y-100951804D01*
X175271870Y-100978663D01*
X175288535Y-101062444D01*
X175288538Y-101062454D01*
X175335687Y-101176283D01*
X175335692Y-101176292D01*
X175404141Y-101278732D01*
X175404144Y-101278736D01*
X175491263Y-101365855D01*
X175491267Y-101365858D01*
X175593707Y-101434307D01*
X175593713Y-101434310D01*
X175593714Y-101434311D01*
X175707548Y-101481463D01*
X175828389Y-101505499D01*
X175828393Y-101505500D01*
X175828394Y-101505500D01*
X175951607Y-101505500D01*
X175951608Y-101505499D01*
X176072452Y-101481463D01*
X176186286Y-101434311D01*
X176288733Y-101365858D01*
X176375858Y-101278733D01*
X176444311Y-101176286D01*
X176491463Y-101062452D01*
X176506926Y-100984707D01*
X176539309Y-100922799D01*
X176600025Y-100888224D01*
X176629038Y-100884902D01*
X189626011Y-100938060D01*
X189692966Y-100958018D01*
X189738504Y-101011008D01*
X189749500Y-101062058D01*
X189749500Y-106436303D01*
X189729815Y-106503342D01*
X189677011Y-106549097D01*
X189625579Y-106560303D01*
X175287777Y-106569488D01*
X175240245Y-106560049D01*
X175212458Y-106548539D01*
X175212446Y-106548535D01*
X175091610Y-106524500D01*
X175091606Y-106524500D01*
X174968394Y-106524500D01*
X174968389Y-106524500D01*
X174847551Y-106548536D01*
X174847544Y-106548538D01*
X174818950Y-106560381D01*
X174810822Y-106562000D01*
X174806514Y-106564773D01*
X174771582Y-106569818D01*
X174615394Y-106569919D01*
X174548342Y-106550278D01*
X174502553Y-106497503D01*
X174491321Y-106444612D01*
X174543370Y-101505499D01*
X174545798Y-101275070D01*
X174566188Y-101208245D01*
X174566689Y-101207489D01*
X174587540Y-101176283D01*
X174634311Y-101106286D01*
X174681463Y-100992452D01*
X174684484Y-100977259D01*
X174716866Y-100915349D01*
X174777580Y-100880772D01*
X174806604Y-100877448D01*
X175150763Y-100878856D01*
G37*
G04 #@! TD.AperFunction*
G04 #@! TA.AperFunction,Conductor*
G36*
X121347195Y-101299337D02*
G01*
X121414126Y-101319383D01*
X121459596Y-101372433D01*
X121470524Y-101422806D01*
X121475114Y-102497989D01*
X121455716Y-102565112D01*
X121420008Y-102601619D01*
X121401265Y-102614142D01*
X121314144Y-102701263D01*
X121314141Y-102701267D01*
X121245692Y-102803707D01*
X121245687Y-102803716D01*
X121198538Y-102917545D01*
X121198535Y-102917555D01*
X121174500Y-103038389D01*
X121174500Y-103161610D01*
X121198535Y-103282444D01*
X121198538Y-103282454D01*
X121245687Y-103396283D01*
X121245692Y-103396292D01*
X121314141Y-103498732D01*
X121314144Y-103498736D01*
X121401263Y-103585855D01*
X121401271Y-103585861D01*
X121425156Y-103601821D01*
X121469962Y-103655433D01*
X121480265Y-103704394D01*
X121484872Y-104783314D01*
X121476264Y-104827092D01*
X121476500Y-104827164D01*
X121475790Y-104829504D01*
X121475441Y-104831280D01*
X121474732Y-104832990D01*
X121474729Y-104832999D01*
X121450694Y-104953836D01*
X121450694Y-105077057D01*
X121474729Y-105197893D01*
X121474733Y-105197905D01*
X121477433Y-105204423D01*
X121486871Y-105251347D01*
X121520000Y-113010000D01*
X146490000Y-113000000D01*
X146490000Y-110014000D01*
X146509685Y-109946961D01*
X146562489Y-109901206D01*
X146614000Y-109890000D01*
X149226000Y-109890000D01*
X149293039Y-109909685D01*
X149338794Y-109962489D01*
X149350000Y-110014000D01*
X149350000Y-113010000D01*
X152765973Y-113019649D01*
X152832955Y-113039523D01*
X152878560Y-113092456D01*
X152889620Y-113144028D01*
X152871676Y-119011679D01*
X152871676Y-119011680D01*
X152871677Y-119011680D01*
X152868431Y-120073209D01*
X144100000Y-120083207D01*
X144100000Y-120779127D01*
X144095395Y-120779093D01*
X144095396Y-120779093D01*
X144095394Y-120779092D01*
X144095395Y-120779092D01*
X143511494Y-120774860D01*
X143444599Y-120754690D01*
X143443502Y-120753965D01*
X143356291Y-120695692D01*
X143356283Y-120695687D01*
X143242454Y-120648538D01*
X143242455Y-120648538D01*
X143242452Y-120648537D01*
X143242448Y-120648536D01*
X143242444Y-120648535D01*
X143121610Y-120624500D01*
X143121606Y-120624500D01*
X142998394Y-120624500D01*
X142998389Y-120624500D01*
X142877555Y-120648535D01*
X142877545Y-120648538D01*
X142763716Y-120695687D01*
X142763709Y-120695691D01*
X142686208Y-120747476D01*
X142619531Y-120768353D01*
X142616419Y-120768370D01*
X137460745Y-120730996D01*
X137393850Y-120710826D01*
X137392849Y-120710165D01*
X137326286Y-120665689D01*
X137326284Y-120665688D01*
X137326283Y-120665687D01*
X137212454Y-120618538D01*
X137212455Y-120618538D01*
X137212452Y-120618537D01*
X137212448Y-120618536D01*
X137212444Y-120618535D01*
X137091610Y-120594500D01*
X137091606Y-120594500D01*
X136968394Y-120594500D01*
X136968389Y-120594500D01*
X136847555Y-120618535D01*
X136847545Y-120618538D01*
X136733713Y-120665689D01*
X136676510Y-120703910D01*
X136609833Y-120724787D01*
X136606722Y-120724804D01*
X131394933Y-120687022D01*
X131331939Y-120668028D01*
X131331656Y-120668559D01*
X131329011Y-120667145D01*
X131328038Y-120666852D01*
X131326937Y-120666124D01*
X131326285Y-120665688D01*
X131212454Y-120618538D01*
X131212455Y-120618538D01*
X131212452Y-120618537D01*
X131212448Y-120618536D01*
X131212444Y-120618535D01*
X131091610Y-120594500D01*
X131091606Y-120594500D01*
X130968394Y-120594500D01*
X130968389Y-120594500D01*
X130847555Y-120618535D01*
X130847545Y-120618538D01*
X130733710Y-120665690D01*
X130730991Y-120667144D01*
X130729040Y-120667624D01*
X130728087Y-120668020D01*
X130728026Y-120667874D01*
X130671646Y-120681779D01*
X125294801Y-120642800D01*
X125248248Y-120633364D01*
X125212455Y-120618538D01*
X125212453Y-120618537D01*
X125212452Y-120618537D01*
X125212447Y-120618536D01*
X125212443Y-120618535D01*
X125091610Y-120594500D01*
X125091606Y-120594500D01*
X124968394Y-120594500D01*
X124968389Y-120594500D01*
X124847556Y-120618535D01*
X124847551Y-120618536D01*
X124847548Y-120618537D01*
X124834689Y-120623863D01*
X124820887Y-120629580D01*
X124772539Y-120639014D01*
X116059210Y-120575849D01*
X115992315Y-120555679D01*
X115946944Y-120502544D01*
X115936109Y-120452024D01*
X115923791Y-111402377D01*
X115943384Y-111335314D01*
X115978900Y-111299109D01*
X115998733Y-111285858D01*
X116085858Y-111198733D01*
X116154311Y-111096286D01*
X116201463Y-110982452D01*
X116225500Y-110861606D01*
X116225500Y-110738394D01*
X116201463Y-110617548D01*
X116154311Y-110503714D01*
X116154310Y-110503713D01*
X116154307Y-110503707D01*
X116085858Y-110401267D01*
X116085855Y-110401263D01*
X115998736Y-110314144D01*
X115998731Y-110314140D01*
X115977260Y-110299794D01*
X115932454Y-110246182D01*
X115922150Y-110196868D01*
X115916135Y-105777446D01*
X115935727Y-105710385D01*
X115964842Y-105680709D01*
X115964029Y-105679718D01*
X115968727Y-105675861D01*
X115968733Y-105675858D01*
X116055858Y-105588733D01*
X116124311Y-105486286D01*
X116171463Y-105372452D01*
X116195500Y-105251606D01*
X116195500Y-105128394D01*
X116171463Y-105007548D01*
X116124311Y-104893714D01*
X116124310Y-104893713D01*
X116124307Y-104893707D01*
X116055858Y-104791267D01*
X116055855Y-104791263D01*
X115968736Y-104704144D01*
X115964025Y-104700278D01*
X115964957Y-104699141D01*
X115924840Y-104651143D01*
X115914535Y-104601822D01*
X115910169Y-101394836D01*
X115929762Y-101327774D01*
X115982504Y-101281947D01*
X116034835Y-101270673D01*
X121347195Y-101299337D01*
G37*
G04 #@! TD.AperFunction*
G04 #@! TA.AperFunction,Conductor*
G36*
X115447706Y-101289685D02*
G01*
X115493461Y-101342489D01*
X115504667Y-101393831D01*
X115508844Y-104462476D01*
X115489251Y-104529542D01*
X115436509Y-104575369D01*
X115409038Y-104584262D01*
X115387551Y-104588536D01*
X115387545Y-104588538D01*
X115273716Y-104635687D01*
X115273707Y-104635692D01*
X115171267Y-104704141D01*
X115171263Y-104704144D01*
X115084144Y-104791263D01*
X115084141Y-104791267D01*
X115015692Y-104893707D01*
X115015687Y-104893716D01*
X114968538Y-105007545D01*
X114968535Y-105007555D01*
X114944500Y-105128389D01*
X114944500Y-105251610D01*
X114968535Y-105372444D01*
X114968538Y-105372454D01*
X115015687Y-105486283D01*
X115015692Y-105486292D01*
X115084141Y-105588732D01*
X115084144Y-105588736D01*
X115171263Y-105675855D01*
X115171267Y-105675858D01*
X115273707Y-105744307D01*
X115273713Y-105744310D01*
X115273714Y-105744311D01*
X115387548Y-105791463D01*
X115411015Y-105796130D01*
X115439081Y-105810811D01*
X115467899Y-105823925D01*
X115469805Y-105826882D01*
X115472926Y-105828515D01*
X115488594Y-105856031D01*
X115505754Y-105882651D01*
X115506438Y-105887366D01*
X115507500Y-105889231D01*
X115510824Y-105917579D01*
X115511066Y-106095538D01*
X115491473Y-106162605D01*
X115438731Y-106208431D01*
X115386997Y-106219707D01*
X98374431Y-106210208D01*
X98307402Y-106190486D01*
X98261677Y-106137656D01*
X98250500Y-106086208D01*
X98250500Y-101394000D01*
X98270185Y-101326961D01*
X98322989Y-101281206D01*
X98374500Y-101270000D01*
X115380667Y-101270000D01*
X115447706Y-101289685D01*
G37*
G04 #@! TD.AperFunction*
G04 #@! TA.AperFunction,Conductor*
G36*
X189692473Y-106985445D02*
G01*
X189738261Y-107038219D01*
X189749500Y-107089803D01*
X189749500Y-112135452D01*
X189729815Y-112202491D01*
X189677011Y-112248246D01*
X189625341Y-112259452D01*
X176399581Y-112242442D01*
X176332566Y-112222671D01*
X176296639Y-112187333D01*
X176265858Y-112141267D01*
X176265856Y-112141264D01*
X176178736Y-112054144D01*
X176178732Y-112054141D01*
X176076292Y-111985692D01*
X176076283Y-111985687D01*
X175962454Y-111938538D01*
X175962455Y-111938538D01*
X175962452Y-111938537D01*
X175962448Y-111938536D01*
X175962444Y-111938535D01*
X175841610Y-111914500D01*
X175841606Y-111914500D01*
X175718394Y-111914500D01*
X175718389Y-111914500D01*
X175597555Y-111938535D01*
X175597545Y-111938538D01*
X175483716Y-111985687D01*
X175483707Y-111985692D01*
X175381267Y-112054141D01*
X175381263Y-112054144D01*
X175294148Y-112141260D01*
X175294145Y-112141263D01*
X175264424Y-112185742D01*
X175210810Y-112230546D01*
X175161163Y-112240849D01*
X174864988Y-112240468D01*
X174797974Y-112220697D01*
X174752287Y-112167834D01*
X174741150Y-112116055D01*
X174753694Y-108383582D01*
X174773603Y-108316610D01*
X174826561Y-108271033D01*
X174877693Y-108260000D01*
X175660000Y-108260000D01*
X175660000Y-107098669D01*
X175679685Y-107031630D01*
X175732489Y-106985875D01*
X175783915Y-106974670D01*
X189625421Y-106965803D01*
X189692473Y-106985445D01*
G37*
G04 #@! TD.AperFunction*
G04 #@! TA.AperFunction,Conductor*
G36*
X173420808Y-100896856D02*
G01*
X173466605Y-100949623D01*
X173475471Y-100977036D01*
X173478537Y-100992452D01*
X173525687Y-101106283D01*
X173525692Y-101106292D01*
X173594141Y-101208732D01*
X173594144Y-101208736D01*
X173681263Y-101295855D01*
X173681267Y-101295858D01*
X173783707Y-101364307D01*
X173783713Y-101364310D01*
X173783714Y-101364311D01*
X173897548Y-101411463D01*
X174018394Y-101435500D01*
X174018399Y-101435500D01*
X174024455Y-101436097D01*
X174024197Y-101438708D01*
X174080311Y-101455185D01*
X174126066Y-101507989D01*
X174137264Y-101560804D01*
X174120742Y-103128733D01*
X174085843Y-106440338D01*
X174094665Y-106528840D01*
X174094667Y-106528851D01*
X174105897Y-106581735D01*
X174105902Y-106581755D01*
X174129138Y-106655588D01*
X174129139Y-106655591D01*
X174196267Y-106763245D01*
X174196272Y-106763251D01*
X174196278Y-106763259D01*
X174242050Y-106816014D01*
X174242056Y-106816020D01*
X174286441Y-106855553D01*
X174311414Y-106877795D01*
X174348383Y-106937082D01*
X174352940Y-106970809D01*
X174286883Y-126625917D01*
X174266974Y-126692890D01*
X174214016Y-126738467D01*
X174162884Y-126749500D01*
X157651995Y-126749500D01*
X144204143Y-126730178D01*
X144137132Y-126710397D01*
X144091453Y-126657527D01*
X144080321Y-126605857D01*
X144095396Y-120779093D01*
X144100000Y-120779127D01*
X144100000Y-120083207D01*
X152868431Y-120073209D01*
X152871677Y-119011680D01*
X166784067Y-119030206D01*
X166752054Y-101006710D01*
X166771620Y-100939638D01*
X166824342Y-100893789D01*
X166875952Y-100882492D01*
X173353757Y-100877227D01*
X173420808Y-100896856D01*
G37*
G04 #@! TD.AperFunction*
G04 #@! TA.AperFunction,Conductor*
G36*
X115386771Y-106625207D02*
G01*
X115386777Y-106625206D01*
X115388025Y-106625207D01*
X115455054Y-106644929D01*
X115500779Y-106697759D01*
X115511956Y-106749038D01*
X115516485Y-110076923D01*
X115496892Y-110143989D01*
X115444150Y-110189816D01*
X115423317Y-110196561D01*
X115423380Y-110196768D01*
X115417547Y-110198537D01*
X115303716Y-110245687D01*
X115303707Y-110245692D01*
X115201267Y-110314141D01*
X115201263Y-110314144D01*
X115114144Y-110401263D01*
X115114141Y-110401267D01*
X115045692Y-110503707D01*
X115045687Y-110503716D01*
X114998537Y-110617547D01*
X114997190Y-110621990D01*
X114958895Y-110680430D01*
X114895084Y-110708890D01*
X114878528Y-110710000D01*
X114500000Y-110710000D01*
X114500000Y-111317141D01*
X114480315Y-111384180D01*
X114427511Y-111429935D01*
X114358353Y-111439879D01*
X114304666Y-111416225D01*
X114303798Y-111417526D01*
X114196292Y-111345692D01*
X114196283Y-111345687D01*
X114082454Y-111298538D01*
X114082455Y-111298538D01*
X114082452Y-111298537D01*
X114082448Y-111298536D01*
X114082444Y-111298535D01*
X113961610Y-111274500D01*
X113961606Y-111274500D01*
X113838394Y-111274500D01*
X113838389Y-111274500D01*
X113717555Y-111298535D01*
X113717545Y-111298538D01*
X113603716Y-111345687D01*
X113603707Y-111345692D01*
X113501267Y-111414141D01*
X113501263Y-111414144D01*
X113461729Y-111453680D01*
X113400406Y-111487166D01*
X113374047Y-111490000D01*
X98374500Y-111490000D01*
X98307461Y-111470315D01*
X98261706Y-111417511D01*
X98250500Y-111366000D01*
X98250500Y-106739708D01*
X98270185Y-106672669D01*
X98322989Y-106626914D01*
X98374568Y-106615708D01*
X115386771Y-106625207D01*
G37*
G04 #@! TD.AperFunction*
M02*
