G04 #@! TF.GenerationSoftware,KiCad,Pcbnew,9.0.2-9.0.2-0~ubuntu24.04.1*
G04 #@! TF.CreationDate,2025-06-19T00:16:48+02:00*
G04 #@! TF.ProjectId,DRV8701_2Motors,44525638-3730-4315-9f32-4d6f746f7273,rev?*
G04 #@! TF.SameCoordinates,Original*
G04 #@! TF.FileFunction,Legend,Bot*
G04 #@! TF.FilePolarity,Positive*
%FSLAX46Y46*%
G04 Gerber Fmt 4.6, Leading zero omitted, Abs format (unit mm)*
G04 Created by KiCad (PCBNEW 9.0.2-9.0.2-0~ubuntu24.04.1) date 2025-06-19 00:16:48*
%MOMM*%
%LPD*%
G01*
G04 APERTURE LIST*
G04 Aperture macros list*
%AMRoundRect*
0 Rectangle with rounded corners*
0 $1 Rounding radius*
0 $2 $3 $4 $5 $6 $7 $8 $9 X,Y pos of 4 corners*
0 Add a 4 corners polygon primitive as box body*
4,1,4,$2,$3,$4,$5,$6,$7,$8,$9,$2,$3,0*
0 Add four circle primitives for the rounded corners*
1,1,$1+$1,$2,$3*
1,1,$1+$1,$4,$5*
1,1,$1+$1,$6,$7*
1,1,$1+$1,$8,$9*
0 Add four rect primitives between the rounded corners*
20,1,$1+$1,$2,$3,$4,$5,0*
20,1,$1+$1,$4,$5,$6,$7,0*
20,1,$1+$1,$6,$7,$8,$9,0*
20,1,$1+$1,$8,$9,$2,$3,0*%
G04 Aperture macros list end*
%ADD10C,0.150000*%
%ADD11C,0.120000*%
%ADD12RoundRect,0.250000X-0.625000X0.350000X-0.625000X-0.350000X0.625000X-0.350000X0.625000X0.350000X0*%
%ADD13O,1.750000X1.200000*%
%ADD14R,1.700000X1.700000*%
%ADD15C,1.700000*%
%ADD16C,5.000000*%
%ADD17C,1.600000*%
%ADD18RoundRect,0.250000X0.350000X0.625000X-0.350000X0.625000X-0.350000X-0.625000X0.350000X-0.625000X0*%
%ADD19O,1.200000X1.750000*%
%ADD20C,2.200000*%
%ADD21C,2.979000*%
%ADD22C,1.500000*%
%ADD23RoundRect,0.237500X0.237500X-0.250000X0.237500X0.250000X-0.237500X0.250000X-0.237500X-0.250000X0*%
%ADD24RoundRect,0.237500X-0.237500X0.250000X-0.237500X-0.250000X0.237500X-0.250000X0.237500X0.250000X0*%
%ADD25RoundRect,0.237500X0.300000X0.237500X-0.300000X0.237500X-0.300000X-0.237500X0.300000X-0.237500X0*%
G04 APERTURE END LIST*
D10*
X141081904Y-106214819D02*
X140510476Y-106214819D01*
X140796190Y-107214819D02*
X140796190Y-106214819D01*
X140177142Y-107214819D02*
X140177142Y-106214819D01*
X140177142Y-106214819D02*
X139796190Y-106214819D01*
X139796190Y-106214819D02*
X139700952Y-106262438D01*
X139700952Y-106262438D02*
X139653333Y-106310057D01*
X139653333Y-106310057D02*
X139605714Y-106405295D01*
X139605714Y-106405295D02*
X139605714Y-106548152D01*
X139605714Y-106548152D02*
X139653333Y-106643390D01*
X139653333Y-106643390D02*
X139700952Y-106691009D01*
X139700952Y-106691009D02*
X139796190Y-106738628D01*
X139796190Y-106738628D02*
X140177142Y-106738628D01*
X138653333Y-107214819D02*
X139224761Y-107214819D01*
X138939047Y-107214819D02*
X138939047Y-106214819D01*
X138939047Y-106214819D02*
X139034285Y-106357676D01*
X139034285Y-106357676D02*
X139129523Y-106452914D01*
X139129523Y-106452914D02*
X139224761Y-106500533D01*
X149394819Y-103357142D02*
X148918628Y-103023809D01*
X149394819Y-102785714D02*
X148394819Y-102785714D01*
X148394819Y-102785714D02*
X148394819Y-103166666D01*
X148394819Y-103166666D02*
X148442438Y-103261904D01*
X148442438Y-103261904D02*
X148490057Y-103309523D01*
X148490057Y-103309523D02*
X148585295Y-103357142D01*
X148585295Y-103357142D02*
X148728152Y-103357142D01*
X148728152Y-103357142D02*
X148823390Y-103309523D01*
X148823390Y-103309523D02*
X148871009Y-103261904D01*
X148871009Y-103261904D02*
X148918628Y-103166666D01*
X148918628Y-103166666D02*
X148918628Y-102785714D01*
X149394819Y-104309523D02*
X149394819Y-103738095D01*
X149394819Y-104023809D02*
X148394819Y-104023809D01*
X148394819Y-104023809D02*
X148537676Y-103928571D01*
X148537676Y-103928571D02*
X148632914Y-103833333D01*
X148632914Y-103833333D02*
X148680533Y-103738095D01*
X148394819Y-104642857D02*
X148394819Y-105261904D01*
X148394819Y-105261904D02*
X148775771Y-104928571D01*
X148775771Y-104928571D02*
X148775771Y-105071428D01*
X148775771Y-105071428D02*
X148823390Y-105166666D01*
X148823390Y-105166666D02*
X148871009Y-105214285D01*
X148871009Y-105214285D02*
X148966247Y-105261904D01*
X148966247Y-105261904D02*
X149204342Y-105261904D01*
X149204342Y-105261904D02*
X149299580Y-105214285D01*
X149299580Y-105214285D02*
X149347200Y-105166666D01*
X149347200Y-105166666D02*
X149394819Y-105071428D01*
X149394819Y-105071428D02*
X149394819Y-104785714D01*
X149394819Y-104785714D02*
X149347200Y-104690476D01*
X149347200Y-104690476D02*
X149299580Y-104642857D01*
X147541904Y-91204819D02*
X146970476Y-91204819D01*
X147256190Y-92204819D02*
X147256190Y-91204819D01*
X146637142Y-92204819D02*
X146637142Y-91204819D01*
X146637142Y-91204819D02*
X146256190Y-91204819D01*
X146256190Y-91204819D02*
X146160952Y-91252438D01*
X146160952Y-91252438D02*
X146113333Y-91300057D01*
X146113333Y-91300057D02*
X146065714Y-91395295D01*
X146065714Y-91395295D02*
X146065714Y-91538152D01*
X146065714Y-91538152D02*
X146113333Y-91633390D01*
X146113333Y-91633390D02*
X146160952Y-91681009D01*
X146160952Y-91681009D02*
X146256190Y-91728628D01*
X146256190Y-91728628D02*
X146637142Y-91728628D01*
X145732380Y-91204819D02*
X145113333Y-91204819D01*
X145113333Y-91204819D02*
X145446666Y-91585771D01*
X145446666Y-91585771D02*
X145303809Y-91585771D01*
X145303809Y-91585771D02*
X145208571Y-91633390D01*
X145208571Y-91633390D02*
X145160952Y-91681009D01*
X145160952Y-91681009D02*
X145113333Y-91776247D01*
X145113333Y-91776247D02*
X145113333Y-92014342D01*
X145113333Y-92014342D02*
X145160952Y-92109580D01*
X145160952Y-92109580D02*
X145208571Y-92157200D01*
X145208571Y-92157200D02*
X145303809Y-92204819D01*
X145303809Y-92204819D02*
X145589523Y-92204819D01*
X145589523Y-92204819D02*
X145684761Y-92157200D01*
X145684761Y-92157200D02*
X145732380Y-92109580D01*
X144084819Y-103497142D02*
X143608628Y-103163809D01*
X144084819Y-102925714D02*
X143084819Y-102925714D01*
X143084819Y-102925714D02*
X143084819Y-103306666D01*
X143084819Y-103306666D02*
X143132438Y-103401904D01*
X143132438Y-103401904D02*
X143180057Y-103449523D01*
X143180057Y-103449523D02*
X143275295Y-103497142D01*
X143275295Y-103497142D02*
X143418152Y-103497142D01*
X143418152Y-103497142D02*
X143513390Y-103449523D01*
X143513390Y-103449523D02*
X143561009Y-103401904D01*
X143561009Y-103401904D02*
X143608628Y-103306666D01*
X143608628Y-103306666D02*
X143608628Y-102925714D01*
X144084819Y-104449523D02*
X144084819Y-103878095D01*
X144084819Y-104163809D02*
X143084819Y-104163809D01*
X143084819Y-104163809D02*
X143227676Y-104068571D01*
X143227676Y-104068571D02*
X143322914Y-103973333D01*
X143322914Y-103973333D02*
X143370533Y-103878095D01*
X143418152Y-105306666D02*
X144084819Y-105306666D01*
X143037200Y-105068571D02*
X143751485Y-104830476D01*
X143751485Y-104830476D02*
X143751485Y-105449523D01*
X140911904Y-96444819D02*
X140340476Y-96444819D01*
X140626190Y-97444819D02*
X140626190Y-96444819D01*
X140007142Y-97444819D02*
X140007142Y-96444819D01*
X140007142Y-96444819D02*
X139626190Y-96444819D01*
X139626190Y-96444819D02*
X139530952Y-96492438D01*
X139530952Y-96492438D02*
X139483333Y-96540057D01*
X139483333Y-96540057D02*
X139435714Y-96635295D01*
X139435714Y-96635295D02*
X139435714Y-96778152D01*
X139435714Y-96778152D02*
X139483333Y-96873390D01*
X139483333Y-96873390D02*
X139530952Y-96921009D01*
X139530952Y-96921009D02*
X139626190Y-96968628D01*
X139626190Y-96968628D02*
X140007142Y-96968628D01*
X139054761Y-96540057D02*
X139007142Y-96492438D01*
X139007142Y-96492438D02*
X138911904Y-96444819D01*
X138911904Y-96444819D02*
X138673809Y-96444819D01*
X138673809Y-96444819D02*
X138578571Y-96492438D01*
X138578571Y-96492438D02*
X138530952Y-96540057D01*
X138530952Y-96540057D02*
X138483333Y-96635295D01*
X138483333Y-96635295D02*
X138483333Y-96730533D01*
X138483333Y-96730533D02*
X138530952Y-96873390D01*
X138530952Y-96873390D02*
X139102380Y-97444819D01*
X139102380Y-97444819D02*
X138483333Y-97444819D01*
X146742857Y-102939580D02*
X146790476Y-102987200D01*
X146790476Y-102987200D02*
X146933333Y-103034819D01*
X146933333Y-103034819D02*
X147028571Y-103034819D01*
X147028571Y-103034819D02*
X147171428Y-102987200D01*
X147171428Y-102987200D02*
X147266666Y-102891961D01*
X147266666Y-102891961D02*
X147314285Y-102796723D01*
X147314285Y-102796723D02*
X147361904Y-102606247D01*
X147361904Y-102606247D02*
X147361904Y-102463390D01*
X147361904Y-102463390D02*
X147314285Y-102272914D01*
X147314285Y-102272914D02*
X147266666Y-102177676D01*
X147266666Y-102177676D02*
X147171428Y-102082438D01*
X147171428Y-102082438D02*
X147028571Y-102034819D01*
X147028571Y-102034819D02*
X146933333Y-102034819D01*
X146933333Y-102034819D02*
X146790476Y-102082438D01*
X146790476Y-102082438D02*
X146742857Y-102130057D01*
X145790476Y-103034819D02*
X146361904Y-103034819D01*
X146076190Y-103034819D02*
X146076190Y-102034819D01*
X146076190Y-102034819D02*
X146171428Y-102177676D01*
X146171428Y-102177676D02*
X146266666Y-102272914D01*
X146266666Y-102272914D02*
X146361904Y-102320533D01*
X145171428Y-102034819D02*
X145076190Y-102034819D01*
X145076190Y-102034819D02*
X144980952Y-102082438D01*
X144980952Y-102082438D02*
X144933333Y-102130057D01*
X144933333Y-102130057D02*
X144885714Y-102225295D01*
X144885714Y-102225295D02*
X144838095Y-102415771D01*
X144838095Y-102415771D02*
X144838095Y-102653866D01*
X144838095Y-102653866D02*
X144885714Y-102844342D01*
X144885714Y-102844342D02*
X144933333Y-102939580D01*
X144933333Y-102939580D02*
X144980952Y-102987200D01*
X144980952Y-102987200D02*
X145076190Y-103034819D01*
X145076190Y-103034819D02*
X145171428Y-103034819D01*
X145171428Y-103034819D02*
X145266666Y-102987200D01*
X145266666Y-102987200D02*
X145314285Y-102939580D01*
X145314285Y-102939580D02*
X145361904Y-102844342D01*
X145361904Y-102844342D02*
X145409523Y-102653866D01*
X145409523Y-102653866D02*
X145409523Y-102415771D01*
X145409523Y-102415771D02*
X145361904Y-102225295D01*
X145361904Y-102225295D02*
X145314285Y-102130057D01*
X145314285Y-102130057D02*
X145266666Y-102082438D01*
X145266666Y-102082438D02*
X145171428Y-102034819D01*
D11*
X143440000Y-106740000D02*
G75*
G02*
X141540000Y-106740000I-950000J0D01*
G01*
X141540000Y-106740000D02*
G75*
G02*
X143440000Y-106740000I950000J0D01*
G01*
X146877500Y-107274724D02*
X146877500Y-106765276D01*
X147922500Y-107274724D02*
X147922500Y-106765276D01*
X147300000Y-93390000D02*
G75*
G02*
X145400000Y-93390000I-950000J0D01*
G01*
X145400000Y-93390000D02*
G75*
G02*
X147300000Y-93390000I950000J0D01*
G01*
X144617500Y-106765276D02*
X144617500Y-107274724D01*
X145662500Y-106765276D02*
X145662500Y-107274724D01*
X140610000Y-98860000D02*
G75*
G02*
X138710000Y-98860000I-950000J0D01*
G01*
X138710000Y-98860000D02*
G75*
G02*
X140610000Y-98860000I950000J0D01*
G01*
X146246267Y-103500000D02*
X145953733Y-103500000D01*
X146246267Y-104520000D02*
X145953733Y-104520000D01*
%LPC*%
D12*
X115120000Y-69170000D03*
D13*
X115120000Y-71170000D03*
X115120000Y-73170000D03*
D14*
X139390000Y-73340000D03*
D15*
X141930000Y-73340000D03*
X144470000Y-73340000D03*
X147010000Y-73340000D03*
D16*
X186000000Y-70000000D03*
D17*
X118407767Y-118142233D03*
X114872233Y-121677767D03*
D16*
X102000000Y-70000000D03*
D18*
X173700000Y-70525000D03*
D19*
X171700000Y-70525000D03*
X169700000Y-70525000D03*
D20*
X102800000Y-103810000D03*
X102800000Y-108810000D03*
D16*
X186000000Y-123000000D03*
D14*
X139390000Y-68260000D03*
D15*
X141930000Y-68260000D03*
X144470000Y-68260000D03*
X147010000Y-68260000D03*
D16*
X102000000Y-123000000D03*
D21*
X156250000Y-68250000D03*
X156250000Y-72950000D03*
X156250000Y-77650000D03*
D20*
X141545000Y-122800000D03*
X146545000Y-122800000D03*
X185600000Y-104030000D03*
X185600000Y-109030000D03*
D14*
X139390000Y-70800000D03*
D15*
X141930000Y-70800000D03*
X144470000Y-70800000D03*
X147010000Y-70800000D03*
D17*
X147540000Y-110750000D03*
X145000000Y-110750000D03*
X142460000Y-110750000D03*
D22*
X142490000Y-106740000D03*
D23*
X147400000Y-107932500D03*
X147400000Y-106107500D03*
D22*
X146350000Y-93390000D03*
D24*
X145140000Y-106107500D03*
X145140000Y-107932500D03*
D22*
X139660000Y-98860000D03*
D25*
X146962500Y-104010000D03*
X145237500Y-104010000D03*
%LPD*%
M02*
