G04 #@! TF.GenerationSoftware,KiCad,Pcbnew,9.0.4-9.0.4-0~ubuntu24.04.1*
G04 #@! TF.CreationDate,2025-09-16T16:13:20+02:00*
G04 #@! TF.ProjectId,DRV8701_2Motors,44525638-3730-4315-9f32-4d6f746f7273,rev?*
G04 #@! TF.SameCoordinates,Original*
G04 #@! TF.FileFunction,Legend,Top*
G04 #@! TF.FilePolarity,Positive*
%FSLAX46Y46*%
G04 Gerber Fmt 4.6, Leading zero omitted, Abs format (unit mm)*
G04 Created by KiCad (PCBNEW 9.0.4-9.0.4-0~ubuntu24.04.1) date 2025-09-16 16:13:20*
%MOMM*%
%LPD*%
G01*
G04 APERTURE LIST*
G04 Aperture macros list*
%AMRoundRect*
0 Rectangle with rounded corners*
0 $1 Rounding radius*
0 $2 $3 $4 $5 $6 $7 $8 $9 X,Y pos of 4 corners*
0 Add a 4 corners polygon primitive as box body*
4,1,4,$2,$3,$4,$5,$6,$7,$8,$9,$2,$3,0*
0 Add four circle primitives for the rounded corners*
1,1,$1+$1,$2,$3*
1,1,$1+$1,$4,$5*
1,1,$1+$1,$6,$7*
1,1,$1+$1,$8,$9*
0 Add four rect primitives between the rounded corners*
20,1,$1+$1,$2,$3,$4,$5,0*
20,1,$1+$1,$4,$5,$6,$7,0*
20,1,$1+$1,$6,$7,$8,$9,0*
20,1,$1+$1,$8,$9,$2,$3,0*%
G04 Aperture macros list end*
%ADD10C,0.100000*%
%ADD11C,0.200000*%
%ADD12C,0.120000*%
%ADD13C,0.127000*%
%ADD14C,0.400000*%
%ADD15C,0.000000*%
%ADD16R,0.600000X0.400000*%
%ADD17R,0.880000X0.400000*%
%ADD18R,0.820000X0.400000*%
%ADD19R,0.840000X0.400000*%
%ADD20R,0.830000X0.400000*%
%ADD21R,3.500000X4.210000*%
%ADD22RoundRect,0.135000X-0.185000X0.135000X-0.185000X-0.135000X0.185000X-0.135000X0.185000X0.135000X0*%
%ADD23RoundRect,0.140000X-0.140000X-0.170000X0.140000X-0.170000X0.140000X0.170000X-0.140000X0.170000X0*%
%ADD24RoundRect,0.250000X-0.475000X0.250000X-0.475000X-0.250000X0.475000X-0.250000X0.475000X0.250000X0*%
%ADD25RoundRect,0.225000X-0.250000X0.225000X-0.250000X-0.225000X0.250000X-0.225000X0.250000X0.225000X0*%
%ADD26RoundRect,0.250000X-0.725000X0.600000X-0.725000X-0.600000X0.725000X-0.600000X0.725000X0.600000X0*%
%ADD27O,1.950000X1.700000*%
%ADD28RoundRect,0.057500X-0.447500X-0.172500X0.447500X-0.172500X0.447500X0.172500X-0.447500X0.172500X0*%
%ADD29RoundRect,0.057500X-0.172500X-0.447500X0.172500X-0.447500X0.172500X0.447500X-0.172500X0.447500X0*%
%ADD30RoundRect,0.050000X-1.350000X-1.350000X1.350000X-1.350000X1.350000X1.350000X-1.350000X1.350000X0*%
%ADD31RoundRect,0.250000X0.650000X-0.325000X0.650000X0.325000X-0.650000X0.325000X-0.650000X-0.325000X0*%
%ADD32RoundRect,0.225000X0.335876X0.017678X0.017678X0.335876X-0.335876X-0.017678X-0.017678X-0.335876X0*%
%ADD33RoundRect,0.135000X0.185000X-0.135000X0.185000X0.135000X-0.185000X0.135000X-0.185000X-0.135000X0*%
%ADD34RoundRect,0.225000X0.250000X-0.225000X0.250000X0.225000X-0.250000X0.225000X-0.250000X-0.225000X0*%
%ADD35C,5.000000*%
%ADD36C,2.200000*%
%ADD37RoundRect,0.140000X0.170000X-0.140000X0.170000X0.140000X-0.170000X0.140000X-0.170000X-0.140000X0*%
%ADD38RoundRect,0.135000X0.135000X0.185000X-0.135000X0.185000X-0.135000X-0.185000X0.135000X-0.185000X0*%
%ADD39R,0.400000X0.600000*%
%ADD40R,0.400000X0.880000*%
%ADD41R,0.400000X0.820000*%
%ADD42R,0.400000X0.840000*%
%ADD43R,0.400000X0.830000*%
%ADD44R,4.210000X3.500000*%
%ADD45RoundRect,0.140000X-0.170000X0.140000X-0.170000X-0.140000X0.170000X-0.140000X0.170000X0.140000X0*%
%ADD46R,2.400000X0.740000*%
%ADD47RoundRect,0.140000X0.140000X0.170000X-0.140000X0.170000X-0.140000X-0.170000X0.140000X-0.170000X0*%
%ADD48RoundRect,0.090000X-0.360000X0.660000X-0.360000X-0.660000X0.360000X-0.660000X0.360000X0.660000X0*%
%ADD49RoundRect,0.057500X-0.172500X0.447500X-0.172500X-0.447500X0.172500X-0.447500X0.172500X0.447500X0*%
%ADD50RoundRect,0.057500X-0.447500X0.172500X-0.447500X-0.172500X0.447500X-0.172500X0.447500X0.172500X0*%
%ADD51RoundRect,0.050000X-1.350000X1.350000X-1.350000X-1.350000X1.350000X-1.350000X1.350000X1.350000X0*%
%ADD52RoundRect,0.225000X0.225000X0.250000X-0.225000X0.250000X-0.225000X-0.250000X0.225000X-0.250000X0*%
%ADD53C,1.600000*%
%ADD54C,2.979000*%
%ADD55RoundRect,0.102000X-0.600000X0.600000X-0.600000X-0.600000X0.600000X-0.600000X0.600000X0.600000X0*%
%ADD56C,1.404000*%
%ADD57RoundRect,0.135000X-0.135000X-0.185000X0.135000X-0.185000X0.135000X0.185000X-0.135000X0.185000X0*%
%ADD58R,1.350000X0.600000*%
%ADD59R,0.740000X2.400000*%
%ADD60RoundRect,0.225000X-0.225000X-0.250000X0.225000X-0.250000X0.225000X0.250000X-0.225000X0.250000X0*%
%ADD61RoundRect,0.210000X-0.763675X0.070711X0.070711X-0.763675X0.763675X-0.070711X-0.070711X0.763675X0*%
%ADD62RoundRect,0.250000X-0.650000X0.325000X-0.650000X-0.325000X0.650000X-0.325000X0.650000X0.325000X0*%
%ADD63RoundRect,0.076750X-0.810250X-0.230250X0.810250X-0.230250X0.810250X0.230250X-0.810250X0.230250X0*%
%ADD64RoundRect,0.237500X0.237500X-0.287500X0.237500X0.287500X-0.237500X0.287500X-0.237500X-0.287500X0*%
%ADD65RoundRect,0.150000X0.825000X0.150000X-0.825000X0.150000X-0.825000X-0.150000X0.825000X-0.150000X0*%
%ADD66RoundRect,0.250000X0.725000X-0.600000X0.725000X0.600000X-0.725000X0.600000X-0.725000X-0.600000X0*%
%ADD67R,1.700000X1.700000*%
%ADD68C,1.700000*%
%ADD69RoundRect,0.150000X-0.825000X-0.150000X0.825000X-0.150000X0.825000X0.150000X-0.825000X0.150000X0*%
%ADD70RoundRect,0.102000X-0.450000X-0.300000X0.450000X-0.300000X0.450000X0.300000X-0.450000X0.300000X0*%
%ADD71RoundRect,0.075000X0.700000X0.075000X-0.700000X0.075000X-0.700000X-0.075000X0.700000X-0.075000X0*%
%ADD72RoundRect,0.075000X0.075000X0.700000X-0.075000X0.700000X-0.075000X-0.700000X0.075000X-0.700000X0*%
G04 APERTURE END LIST*
D10*
X130000000Y-68100000D02*
X130000000Y-68900000D01*
X117700000Y-68550000D02*
X118350000Y-68550000D01*
X129600000Y-68500000D02*
X130400000Y-68500000D01*
X152951503Y-69777847D02*
X153022931Y-69815942D01*
X153022931Y-69815942D02*
X153046741Y-69854038D01*
X153046741Y-69854038D02*
X153070550Y-69930228D01*
X153070550Y-69930228D02*
X153070550Y-70044514D01*
X153070550Y-70044514D02*
X153046741Y-70120704D01*
X153046741Y-70120704D02*
X153022931Y-70158800D01*
X153022931Y-70158800D02*
X152975312Y-70196895D01*
X152975312Y-70196895D02*
X152784836Y-70196895D01*
X152784836Y-70196895D02*
X152784836Y-69396895D01*
X152784836Y-69396895D02*
X152951503Y-69396895D01*
X152951503Y-69396895D02*
X152999122Y-69434990D01*
X152999122Y-69434990D02*
X153022931Y-69473085D01*
X153022931Y-69473085D02*
X153046741Y-69549276D01*
X153046741Y-69549276D02*
X153046741Y-69625466D01*
X153046741Y-69625466D02*
X153022931Y-69701657D01*
X153022931Y-69701657D02*
X152999122Y-69739752D01*
X152999122Y-69739752D02*
X152951503Y-69777847D01*
X152951503Y-69777847D02*
X152784836Y-69777847D01*
X153237217Y-69663561D02*
X153356265Y-70196895D01*
X153475312Y-69663561D02*
X153356265Y-70196895D01*
X153356265Y-70196895D02*
X153308646Y-70387371D01*
X153308646Y-70387371D02*
X153284836Y-70425466D01*
X153284836Y-70425466D02*
X153237217Y-70463561D01*
X154332454Y-70120704D02*
X154308645Y-70158800D01*
X154308645Y-70158800D02*
X154237216Y-70196895D01*
X154237216Y-70196895D02*
X154189597Y-70196895D01*
X154189597Y-70196895D02*
X154118169Y-70158800D01*
X154118169Y-70158800D02*
X154070550Y-70082609D01*
X154070550Y-70082609D02*
X154046740Y-70006419D01*
X154046740Y-70006419D02*
X154022931Y-69854038D01*
X154022931Y-69854038D02*
X154022931Y-69739752D01*
X154022931Y-69739752D02*
X154046740Y-69587371D01*
X154046740Y-69587371D02*
X154070550Y-69511180D01*
X154070550Y-69511180D02*
X154118169Y-69434990D01*
X154118169Y-69434990D02*
X154189597Y-69396895D01*
X154189597Y-69396895D02*
X154237216Y-69396895D01*
X154237216Y-69396895D02*
X154308645Y-69434990D01*
X154308645Y-69434990D02*
X154332454Y-69473085D01*
X154546740Y-70120704D02*
X154570550Y-70158800D01*
X154570550Y-70158800D02*
X154546740Y-70196895D01*
X154546740Y-70196895D02*
X154522931Y-70158800D01*
X154522931Y-70158800D02*
X154546740Y-70120704D01*
X154546740Y-70120704D02*
X154546740Y-70196895D01*
X154927692Y-69396895D02*
X154927692Y-69968323D01*
X154927692Y-69968323D02*
X154903883Y-70082609D01*
X154903883Y-70082609D02*
X154856264Y-70158800D01*
X154856264Y-70158800D02*
X154784835Y-70196895D01*
X154784835Y-70196895D02*
X154737216Y-70196895D01*
X155380073Y-70196895D02*
X155380073Y-69777847D01*
X155380073Y-69777847D02*
X155356263Y-69701657D01*
X155356263Y-69701657D02*
X155308644Y-69663561D01*
X155308644Y-69663561D02*
X155213406Y-69663561D01*
X155213406Y-69663561D02*
X155165787Y-69701657D01*
X155380073Y-70158800D02*
X155332454Y-70196895D01*
X155332454Y-70196895D02*
X155213406Y-70196895D01*
X155213406Y-70196895D02*
X155165787Y-70158800D01*
X155165787Y-70158800D02*
X155141978Y-70082609D01*
X155141978Y-70082609D02*
X155141978Y-70006419D01*
X155141978Y-70006419D02*
X155165787Y-69930228D01*
X155165787Y-69930228D02*
X155213406Y-69892133D01*
X155213406Y-69892133D02*
X155332454Y-69892133D01*
X155332454Y-69892133D02*
X155380073Y-69854038D01*
X155618168Y-69663561D02*
X155618168Y-70196895D01*
X155618168Y-69739752D02*
X155641978Y-69701657D01*
X155641978Y-69701657D02*
X155689597Y-69663561D01*
X155689597Y-69663561D02*
X155761025Y-69663561D01*
X155761025Y-69663561D02*
X155808644Y-69701657D01*
X155808644Y-69701657D02*
X155832454Y-69777847D01*
X155832454Y-69777847D02*
X155832454Y-70196895D01*
X156284835Y-69663561D02*
X156284835Y-70196895D01*
X156070549Y-69663561D02*
X156070549Y-70082609D01*
X156070549Y-70082609D02*
X156094359Y-70158800D01*
X156094359Y-70158800D02*
X156141978Y-70196895D01*
X156141978Y-70196895D02*
X156213406Y-70196895D01*
X156213406Y-70196895D02*
X156261025Y-70158800D01*
X156261025Y-70158800D02*
X156284835Y-70120704D01*
X156499121Y-70158800D02*
X156546740Y-70196895D01*
X156546740Y-70196895D02*
X156641978Y-70196895D01*
X156641978Y-70196895D02*
X156689597Y-70158800D01*
X156689597Y-70158800D02*
X156713406Y-70082609D01*
X156713406Y-70082609D02*
X156713406Y-70044514D01*
X156713406Y-70044514D02*
X156689597Y-69968323D01*
X156689597Y-69968323D02*
X156641978Y-69930228D01*
X156641978Y-69930228D02*
X156570549Y-69930228D01*
X156570549Y-69930228D02*
X156522930Y-69892133D01*
X156522930Y-69892133D02*
X156499121Y-69815942D01*
X156499121Y-69815942D02*
X156499121Y-69777847D01*
X156499121Y-69777847D02*
X156522930Y-69701657D01*
X156522930Y-69701657D02*
X156570549Y-69663561D01*
X156570549Y-69663561D02*
X156641978Y-69663561D01*
X156641978Y-69663561D02*
X156689597Y-69701657D01*
X168270550Y-74896895D02*
X168103884Y-74515942D01*
X167984836Y-74896895D02*
X167984836Y-74096895D01*
X167984836Y-74096895D02*
X168175312Y-74096895D01*
X168175312Y-74096895D02*
X168222931Y-74134990D01*
X168222931Y-74134990D02*
X168246741Y-74173085D01*
X168246741Y-74173085D02*
X168270550Y-74249276D01*
X168270550Y-74249276D02*
X168270550Y-74363561D01*
X168270550Y-74363561D02*
X168246741Y-74439752D01*
X168246741Y-74439752D02*
X168222931Y-74477847D01*
X168222931Y-74477847D02*
X168175312Y-74515942D01*
X168175312Y-74515942D02*
X167984836Y-74515942D01*
X168484836Y-74896895D02*
X168484836Y-74363561D01*
X168484836Y-74096895D02*
X168461027Y-74134990D01*
X168461027Y-74134990D02*
X168484836Y-74173085D01*
X168484836Y-74173085D02*
X168508646Y-74134990D01*
X168508646Y-74134990D02*
X168484836Y-74096895D01*
X168484836Y-74096895D02*
X168484836Y-74173085D01*
X168937217Y-74363561D02*
X168937217Y-75011180D01*
X168937217Y-75011180D02*
X168913407Y-75087371D01*
X168913407Y-75087371D02*
X168889598Y-75125466D01*
X168889598Y-75125466D02*
X168841979Y-75163561D01*
X168841979Y-75163561D02*
X168770550Y-75163561D01*
X168770550Y-75163561D02*
X168722931Y-75125466D01*
X168937217Y-74858800D02*
X168889598Y-74896895D01*
X168889598Y-74896895D02*
X168794360Y-74896895D01*
X168794360Y-74896895D02*
X168746741Y-74858800D01*
X168746741Y-74858800D02*
X168722931Y-74820704D01*
X168722931Y-74820704D02*
X168699122Y-74744514D01*
X168699122Y-74744514D02*
X168699122Y-74515942D01*
X168699122Y-74515942D02*
X168722931Y-74439752D01*
X168722931Y-74439752D02*
X168746741Y-74401657D01*
X168746741Y-74401657D02*
X168794360Y-74363561D01*
X168794360Y-74363561D02*
X168889598Y-74363561D01*
X168889598Y-74363561D02*
X168937217Y-74401657D01*
X169175312Y-74896895D02*
X169175312Y-74096895D01*
X169389598Y-74896895D02*
X169389598Y-74477847D01*
X169389598Y-74477847D02*
X169365788Y-74401657D01*
X169365788Y-74401657D02*
X169318169Y-74363561D01*
X169318169Y-74363561D02*
X169246741Y-74363561D01*
X169246741Y-74363561D02*
X169199122Y-74401657D01*
X169199122Y-74401657D02*
X169175312Y-74439752D01*
X169556265Y-74363561D02*
X169746741Y-74363561D01*
X169627693Y-74096895D02*
X169627693Y-74782609D01*
X169627693Y-74782609D02*
X169651503Y-74858800D01*
X169651503Y-74858800D02*
X169699122Y-74896895D01*
X169699122Y-74896895D02*
X169746741Y-74896895D01*
X170294359Y-74896895D02*
X170294359Y-74096895D01*
X170294359Y-74096895D02*
X170461026Y-74668323D01*
X170461026Y-74668323D02*
X170627692Y-74096895D01*
X170627692Y-74096895D02*
X170627692Y-74896895D01*
X170937217Y-74896895D02*
X170889598Y-74858800D01*
X170889598Y-74858800D02*
X170865788Y-74820704D01*
X170865788Y-74820704D02*
X170841979Y-74744514D01*
X170841979Y-74744514D02*
X170841979Y-74515942D01*
X170841979Y-74515942D02*
X170865788Y-74439752D01*
X170865788Y-74439752D02*
X170889598Y-74401657D01*
X170889598Y-74401657D02*
X170937217Y-74363561D01*
X170937217Y-74363561D02*
X171008645Y-74363561D01*
X171008645Y-74363561D02*
X171056264Y-74401657D01*
X171056264Y-74401657D02*
X171080074Y-74439752D01*
X171080074Y-74439752D02*
X171103883Y-74515942D01*
X171103883Y-74515942D02*
X171103883Y-74744514D01*
X171103883Y-74744514D02*
X171080074Y-74820704D01*
X171080074Y-74820704D02*
X171056264Y-74858800D01*
X171056264Y-74858800D02*
X171008645Y-74896895D01*
X171008645Y-74896895D02*
X170937217Y-74896895D01*
X171246741Y-74363561D02*
X171437217Y-74363561D01*
X171318169Y-74096895D02*
X171318169Y-74782609D01*
X171318169Y-74782609D02*
X171341979Y-74858800D01*
X171341979Y-74858800D02*
X171389598Y-74896895D01*
X171389598Y-74896895D02*
X171437217Y-74896895D01*
X171675312Y-74896895D02*
X171627693Y-74858800D01*
X171627693Y-74858800D02*
X171603883Y-74820704D01*
X171603883Y-74820704D02*
X171580074Y-74744514D01*
X171580074Y-74744514D02*
X171580074Y-74515942D01*
X171580074Y-74515942D02*
X171603883Y-74439752D01*
X171603883Y-74439752D02*
X171627693Y-74401657D01*
X171627693Y-74401657D02*
X171675312Y-74363561D01*
X171675312Y-74363561D02*
X171746740Y-74363561D01*
X171746740Y-74363561D02*
X171794359Y-74401657D01*
X171794359Y-74401657D02*
X171818169Y-74439752D01*
X171818169Y-74439752D02*
X171841978Y-74515942D01*
X171841978Y-74515942D02*
X171841978Y-74744514D01*
X171841978Y-74744514D02*
X171818169Y-74820704D01*
X171818169Y-74820704D02*
X171794359Y-74858800D01*
X171794359Y-74858800D02*
X171746740Y-74896895D01*
X171746740Y-74896895D02*
X171675312Y-74896895D01*
X172056264Y-74896895D02*
X172056264Y-74363561D01*
X172056264Y-74515942D02*
X172080074Y-74439752D01*
X172080074Y-74439752D02*
X172103883Y-74401657D01*
X172103883Y-74401657D02*
X172151502Y-74363561D01*
X172151502Y-74363561D02*
X172199121Y-74363561D01*
X76522931Y-74996895D02*
X76284836Y-74996895D01*
X76284836Y-74996895D02*
X76284836Y-74196895D01*
X76880074Y-74958800D02*
X76832455Y-74996895D01*
X76832455Y-74996895D02*
X76737217Y-74996895D01*
X76737217Y-74996895D02*
X76689598Y-74958800D01*
X76689598Y-74958800D02*
X76665789Y-74882609D01*
X76665789Y-74882609D02*
X76665789Y-74577847D01*
X76665789Y-74577847D02*
X76689598Y-74501657D01*
X76689598Y-74501657D02*
X76737217Y-74463561D01*
X76737217Y-74463561D02*
X76832455Y-74463561D01*
X76832455Y-74463561D02*
X76880074Y-74501657D01*
X76880074Y-74501657D02*
X76903884Y-74577847D01*
X76903884Y-74577847D02*
X76903884Y-74654038D01*
X76903884Y-74654038D02*
X76665789Y-74730228D01*
X77046741Y-74463561D02*
X77237217Y-74463561D01*
X77118169Y-74996895D02*
X77118169Y-74311180D01*
X77118169Y-74311180D02*
X77141979Y-74234990D01*
X77141979Y-74234990D02*
X77189598Y-74196895D01*
X77189598Y-74196895D02*
X77237217Y-74196895D01*
X77332455Y-74463561D02*
X77522931Y-74463561D01*
X77403883Y-74196895D02*
X77403883Y-74882609D01*
X77403883Y-74882609D02*
X77427693Y-74958800D01*
X77427693Y-74958800D02*
X77475312Y-74996895D01*
X77475312Y-74996895D02*
X77522931Y-74996895D01*
X78070549Y-74996895D02*
X78070549Y-74196895D01*
X78070549Y-74196895D02*
X78237216Y-74768323D01*
X78237216Y-74768323D02*
X78403882Y-74196895D01*
X78403882Y-74196895D02*
X78403882Y-74996895D01*
X78713407Y-74996895D02*
X78665788Y-74958800D01*
X78665788Y-74958800D02*
X78641978Y-74920704D01*
X78641978Y-74920704D02*
X78618169Y-74844514D01*
X78618169Y-74844514D02*
X78618169Y-74615942D01*
X78618169Y-74615942D02*
X78641978Y-74539752D01*
X78641978Y-74539752D02*
X78665788Y-74501657D01*
X78665788Y-74501657D02*
X78713407Y-74463561D01*
X78713407Y-74463561D02*
X78784835Y-74463561D01*
X78784835Y-74463561D02*
X78832454Y-74501657D01*
X78832454Y-74501657D02*
X78856264Y-74539752D01*
X78856264Y-74539752D02*
X78880073Y-74615942D01*
X78880073Y-74615942D02*
X78880073Y-74844514D01*
X78880073Y-74844514D02*
X78856264Y-74920704D01*
X78856264Y-74920704D02*
X78832454Y-74958800D01*
X78832454Y-74958800D02*
X78784835Y-74996895D01*
X78784835Y-74996895D02*
X78713407Y-74996895D01*
X79022931Y-74463561D02*
X79213407Y-74463561D01*
X79094359Y-74196895D02*
X79094359Y-74882609D01*
X79094359Y-74882609D02*
X79118169Y-74958800D01*
X79118169Y-74958800D02*
X79165788Y-74996895D01*
X79165788Y-74996895D02*
X79213407Y-74996895D01*
X79451502Y-74996895D02*
X79403883Y-74958800D01*
X79403883Y-74958800D02*
X79380073Y-74920704D01*
X79380073Y-74920704D02*
X79356264Y-74844514D01*
X79356264Y-74844514D02*
X79356264Y-74615942D01*
X79356264Y-74615942D02*
X79380073Y-74539752D01*
X79380073Y-74539752D02*
X79403883Y-74501657D01*
X79403883Y-74501657D02*
X79451502Y-74463561D01*
X79451502Y-74463561D02*
X79522930Y-74463561D01*
X79522930Y-74463561D02*
X79570549Y-74501657D01*
X79570549Y-74501657D02*
X79594359Y-74539752D01*
X79594359Y-74539752D02*
X79618168Y-74615942D01*
X79618168Y-74615942D02*
X79618168Y-74844514D01*
X79618168Y-74844514D02*
X79594359Y-74920704D01*
X79594359Y-74920704D02*
X79570549Y-74958800D01*
X79570549Y-74958800D02*
X79522930Y-74996895D01*
X79522930Y-74996895D02*
X79451502Y-74996895D01*
X79832454Y-74996895D02*
X79832454Y-74463561D01*
X79832454Y-74615942D02*
X79856264Y-74539752D01*
X79856264Y-74539752D02*
X79880073Y-74501657D01*
X79880073Y-74501657D02*
X79927692Y-74463561D01*
X79927692Y-74463561D02*
X79975311Y-74463561D01*
X152461027Y-68568323D02*
X152699122Y-68568323D01*
X152413408Y-68796895D02*
X152580074Y-67996895D01*
X152580074Y-67996895D02*
X152746741Y-68796895D01*
X153199121Y-68796895D02*
X153032455Y-68415942D01*
X152913407Y-68796895D02*
X152913407Y-67996895D01*
X152913407Y-67996895D02*
X153103883Y-67996895D01*
X153103883Y-67996895D02*
X153151502Y-68034990D01*
X153151502Y-68034990D02*
X153175312Y-68073085D01*
X153175312Y-68073085D02*
X153199121Y-68149276D01*
X153199121Y-68149276D02*
X153199121Y-68263561D01*
X153199121Y-68263561D02*
X153175312Y-68339752D01*
X153175312Y-68339752D02*
X153151502Y-68377847D01*
X153151502Y-68377847D02*
X153103883Y-68415942D01*
X153103883Y-68415942D02*
X152913407Y-68415942D01*
X153413407Y-68377847D02*
X153580074Y-68377847D01*
X153651502Y-68796895D02*
X153413407Y-68796895D01*
X153413407Y-68796895D02*
X153413407Y-67996895D01*
X153413407Y-67996895D02*
X153651502Y-67996895D01*
X153841979Y-68758800D02*
X153913407Y-68796895D01*
X153913407Y-68796895D02*
X154032455Y-68796895D01*
X154032455Y-68796895D02*
X154080074Y-68758800D01*
X154080074Y-68758800D02*
X154103883Y-68720704D01*
X154103883Y-68720704D02*
X154127693Y-68644514D01*
X154127693Y-68644514D02*
X154127693Y-68568323D01*
X154127693Y-68568323D02*
X154103883Y-68492133D01*
X154103883Y-68492133D02*
X154080074Y-68454038D01*
X154080074Y-68454038D02*
X154032455Y-68415942D01*
X154032455Y-68415942D02*
X153937217Y-68377847D01*
X153937217Y-68377847D02*
X153889598Y-68339752D01*
X153889598Y-68339752D02*
X153865788Y-68301657D01*
X153865788Y-68301657D02*
X153841979Y-68225466D01*
X153841979Y-68225466D02*
X153841979Y-68149276D01*
X153841979Y-68149276D02*
X153865788Y-68073085D01*
X153865788Y-68073085D02*
X153889598Y-68034990D01*
X153889598Y-68034990D02*
X153937217Y-67996895D01*
X153937217Y-67996895D02*
X154056264Y-67996895D01*
X154056264Y-67996895D02*
X154127693Y-68034990D01*
X154722930Y-68377847D02*
X154889597Y-68377847D01*
X154961025Y-68796895D02*
X154722930Y-68796895D01*
X154722930Y-68796895D02*
X154722930Y-67996895D01*
X154722930Y-67996895D02*
X154961025Y-67996895D01*
X155175311Y-68796895D02*
X155175311Y-67996895D01*
X155175311Y-67996895D02*
X155461025Y-68796895D01*
X155461025Y-68796895D02*
X155461025Y-67996895D01*
X155675312Y-68758800D02*
X155746740Y-68796895D01*
X155746740Y-68796895D02*
X155865788Y-68796895D01*
X155865788Y-68796895D02*
X155913407Y-68758800D01*
X155913407Y-68758800D02*
X155937216Y-68720704D01*
X155937216Y-68720704D02*
X155961026Y-68644514D01*
X155961026Y-68644514D02*
X155961026Y-68568323D01*
X155961026Y-68568323D02*
X155937216Y-68492133D01*
X155937216Y-68492133D02*
X155913407Y-68454038D01*
X155913407Y-68454038D02*
X155865788Y-68415942D01*
X155865788Y-68415942D02*
X155770550Y-68377847D01*
X155770550Y-68377847D02*
X155722931Y-68339752D01*
X155722931Y-68339752D02*
X155699121Y-68301657D01*
X155699121Y-68301657D02*
X155675312Y-68225466D01*
X155675312Y-68225466D02*
X155675312Y-68149276D01*
X155675312Y-68149276D02*
X155699121Y-68073085D01*
X155699121Y-68073085D02*
X155722931Y-68034990D01*
X155722931Y-68034990D02*
X155770550Y-67996895D01*
X155770550Y-67996895D02*
X155889597Y-67996895D01*
X155889597Y-67996895D02*
X155961026Y-68034990D01*
X156175311Y-68377847D02*
X156341978Y-68377847D01*
X156413406Y-68796895D02*
X156175311Y-68796895D01*
X156175311Y-68796895D02*
X156175311Y-67996895D01*
X156175311Y-67996895D02*
X156413406Y-67996895D01*
X156603883Y-68568323D02*
X156841978Y-68568323D01*
X156556264Y-68796895D02*
X156722930Y-67996895D01*
X156722930Y-67996895D02*
X156889597Y-68796895D01*
X90484836Y-67508940D02*
X90484836Y-66708940D01*
X90484836Y-66708940D02*
X90603884Y-66708940D01*
X90603884Y-66708940D02*
X90675312Y-66747035D01*
X90675312Y-66747035D02*
X90722931Y-66823225D01*
X90722931Y-66823225D02*
X90746741Y-66899416D01*
X90746741Y-66899416D02*
X90770550Y-67051797D01*
X90770550Y-67051797D02*
X90770550Y-67166083D01*
X90770550Y-67166083D02*
X90746741Y-67318464D01*
X90746741Y-67318464D02*
X90722931Y-67394654D01*
X90722931Y-67394654D02*
X90675312Y-67470845D01*
X90675312Y-67470845D02*
X90603884Y-67508940D01*
X90603884Y-67508940D02*
X90484836Y-67508940D01*
X91270550Y-67432749D02*
X91246741Y-67470845D01*
X91246741Y-67470845D02*
X91175312Y-67508940D01*
X91175312Y-67508940D02*
X91127693Y-67508940D01*
X91127693Y-67508940D02*
X91056265Y-67470845D01*
X91056265Y-67470845D02*
X91008646Y-67394654D01*
X91008646Y-67394654D02*
X90984836Y-67318464D01*
X90984836Y-67318464D02*
X90961027Y-67166083D01*
X90961027Y-67166083D02*
X90961027Y-67051797D01*
X90961027Y-67051797D02*
X90984836Y-66899416D01*
X90984836Y-66899416D02*
X91008646Y-66823225D01*
X91008646Y-66823225D02*
X91056265Y-66747035D01*
X91056265Y-66747035D02*
X91127693Y-66708940D01*
X91127693Y-66708940D02*
X91175312Y-66708940D01*
X91175312Y-66708940D02*
X91246741Y-66747035D01*
X91246741Y-66747035D02*
X91270550Y-66785130D01*
X91865788Y-67508940D02*
X91865788Y-66708940D01*
X91865788Y-66708940D02*
X92032455Y-67280368D01*
X92032455Y-67280368D02*
X92199121Y-66708940D01*
X92199121Y-66708940D02*
X92199121Y-67508940D01*
X92508646Y-67508940D02*
X92461027Y-67470845D01*
X92461027Y-67470845D02*
X92437217Y-67432749D01*
X92437217Y-67432749D02*
X92413408Y-67356559D01*
X92413408Y-67356559D02*
X92413408Y-67127987D01*
X92413408Y-67127987D02*
X92437217Y-67051797D01*
X92437217Y-67051797D02*
X92461027Y-67013702D01*
X92461027Y-67013702D02*
X92508646Y-66975606D01*
X92508646Y-66975606D02*
X92580074Y-66975606D01*
X92580074Y-66975606D02*
X92627693Y-67013702D01*
X92627693Y-67013702D02*
X92651503Y-67051797D01*
X92651503Y-67051797D02*
X92675312Y-67127987D01*
X92675312Y-67127987D02*
X92675312Y-67356559D01*
X92675312Y-67356559D02*
X92651503Y-67432749D01*
X92651503Y-67432749D02*
X92627693Y-67470845D01*
X92627693Y-67470845D02*
X92580074Y-67508940D01*
X92580074Y-67508940D02*
X92508646Y-67508940D01*
X92818170Y-66975606D02*
X93008646Y-66975606D01*
X92889598Y-66708940D02*
X92889598Y-67394654D01*
X92889598Y-67394654D02*
X92913408Y-67470845D01*
X92913408Y-67470845D02*
X92961027Y-67508940D01*
X92961027Y-67508940D02*
X93008646Y-67508940D01*
X93246741Y-67508940D02*
X93199122Y-67470845D01*
X93199122Y-67470845D02*
X93175312Y-67432749D01*
X93175312Y-67432749D02*
X93151503Y-67356559D01*
X93151503Y-67356559D02*
X93151503Y-67127987D01*
X93151503Y-67127987D02*
X93175312Y-67051797D01*
X93175312Y-67051797D02*
X93199122Y-67013702D01*
X93199122Y-67013702D02*
X93246741Y-66975606D01*
X93246741Y-66975606D02*
X93318169Y-66975606D01*
X93318169Y-66975606D02*
X93365788Y-67013702D01*
X93365788Y-67013702D02*
X93389598Y-67051797D01*
X93389598Y-67051797D02*
X93413407Y-67127987D01*
X93413407Y-67127987D02*
X93413407Y-67356559D01*
X93413407Y-67356559D02*
X93389598Y-67432749D01*
X93389598Y-67432749D02*
X93365788Y-67470845D01*
X93365788Y-67470845D02*
X93318169Y-67508940D01*
X93318169Y-67508940D02*
X93246741Y-67508940D01*
X93627693Y-67508940D02*
X93627693Y-66975606D01*
X93627693Y-67127987D02*
X93651503Y-67051797D01*
X93651503Y-67051797D02*
X93675312Y-67013702D01*
X93675312Y-67013702D02*
X93722931Y-66975606D01*
X93722931Y-66975606D02*
X93770550Y-66975606D01*
X93913408Y-67470845D02*
X93961027Y-67508940D01*
X93961027Y-67508940D02*
X94056265Y-67508940D01*
X94056265Y-67508940D02*
X94103884Y-67470845D01*
X94103884Y-67470845D02*
X94127693Y-67394654D01*
X94127693Y-67394654D02*
X94127693Y-67356559D01*
X94127693Y-67356559D02*
X94103884Y-67280368D01*
X94103884Y-67280368D02*
X94056265Y-67242273D01*
X94056265Y-67242273D02*
X93984836Y-67242273D01*
X93984836Y-67242273D02*
X93937217Y-67204178D01*
X93937217Y-67204178D02*
X93913408Y-67127987D01*
X93913408Y-67127987D02*
X93913408Y-67089892D01*
X93913408Y-67089892D02*
X93937217Y-67013702D01*
X93937217Y-67013702D02*
X93984836Y-66975606D01*
X93984836Y-66975606D02*
X94056265Y-66975606D01*
X94056265Y-66975606D02*
X94103884Y-67013702D01*
X94722931Y-67508940D02*
X94722931Y-66708940D01*
X94722931Y-66708940D02*
X94841979Y-66708940D01*
X94841979Y-66708940D02*
X94913407Y-66747035D01*
X94913407Y-66747035D02*
X94961026Y-66823225D01*
X94961026Y-66823225D02*
X94984836Y-66899416D01*
X94984836Y-66899416D02*
X95008645Y-67051797D01*
X95008645Y-67051797D02*
X95008645Y-67166083D01*
X95008645Y-67166083D02*
X94984836Y-67318464D01*
X94984836Y-67318464D02*
X94961026Y-67394654D01*
X94961026Y-67394654D02*
X94913407Y-67470845D01*
X94913407Y-67470845D02*
X94841979Y-67508940D01*
X94841979Y-67508940D02*
X94722931Y-67508940D01*
X95222931Y-67508940D02*
X95222931Y-66975606D01*
X95222931Y-67127987D02*
X95246741Y-67051797D01*
X95246741Y-67051797D02*
X95270550Y-67013702D01*
X95270550Y-67013702D02*
X95318169Y-66975606D01*
X95318169Y-66975606D02*
X95365788Y-66975606D01*
X95532455Y-67508940D02*
X95532455Y-66975606D01*
X95532455Y-66708940D02*
X95508646Y-66747035D01*
X95508646Y-66747035D02*
X95532455Y-66785130D01*
X95532455Y-66785130D02*
X95556265Y-66747035D01*
X95556265Y-66747035D02*
X95532455Y-66708940D01*
X95532455Y-66708940D02*
X95532455Y-66785130D01*
X95722931Y-66975606D02*
X95841979Y-67508940D01*
X95841979Y-67508940D02*
X95961026Y-66975606D01*
X96341978Y-67470845D02*
X96294359Y-67508940D01*
X96294359Y-67508940D02*
X96199121Y-67508940D01*
X96199121Y-67508940D02*
X96151502Y-67470845D01*
X96151502Y-67470845D02*
X96127693Y-67394654D01*
X96127693Y-67394654D02*
X96127693Y-67089892D01*
X96127693Y-67089892D02*
X96151502Y-67013702D01*
X96151502Y-67013702D02*
X96199121Y-66975606D01*
X96199121Y-66975606D02*
X96294359Y-66975606D01*
X96294359Y-66975606D02*
X96341978Y-67013702D01*
X96341978Y-67013702D02*
X96365788Y-67089892D01*
X96365788Y-67089892D02*
X96365788Y-67166083D01*
X96365788Y-67166083D02*
X96127693Y-67242273D01*
X96580073Y-67508940D02*
X96580073Y-66975606D01*
X96580073Y-67127987D02*
X96603883Y-67051797D01*
X96603883Y-67051797D02*
X96627692Y-67013702D01*
X96627692Y-67013702D02*
X96675311Y-66975606D01*
X96675311Y-66975606D02*
X96722930Y-66975606D01*
X90484836Y-67996895D02*
X90484836Y-68644514D01*
X90484836Y-68644514D02*
X90508646Y-68720704D01*
X90508646Y-68720704D02*
X90532455Y-68758800D01*
X90532455Y-68758800D02*
X90580074Y-68796895D01*
X90580074Y-68796895D02*
X90675312Y-68796895D01*
X90675312Y-68796895D02*
X90722931Y-68758800D01*
X90722931Y-68758800D02*
X90746741Y-68720704D01*
X90746741Y-68720704D02*
X90770550Y-68644514D01*
X90770550Y-68644514D02*
X90770550Y-67996895D01*
X91008646Y-68263561D02*
X91008646Y-69063561D01*
X91008646Y-68301657D02*
X91056265Y-68263561D01*
X91056265Y-68263561D02*
X91151503Y-68263561D01*
X91151503Y-68263561D02*
X91199122Y-68301657D01*
X91199122Y-68301657D02*
X91222932Y-68339752D01*
X91222932Y-68339752D02*
X91246741Y-68415942D01*
X91246741Y-68415942D02*
X91246741Y-68644514D01*
X91246741Y-68644514D02*
X91222932Y-68720704D01*
X91222932Y-68720704D02*
X91199122Y-68758800D01*
X91199122Y-68758800D02*
X91151503Y-68796895D01*
X91151503Y-68796895D02*
X91056265Y-68796895D01*
X91056265Y-68796895D02*
X91008646Y-68758800D01*
X91770551Y-68263561D02*
X91961027Y-68263561D01*
X91841979Y-67996895D02*
X91841979Y-68682609D01*
X91841979Y-68682609D02*
X91865789Y-68758800D01*
X91865789Y-68758800D02*
X91913408Y-68796895D01*
X91913408Y-68796895D02*
X91961027Y-68796895D01*
X92199122Y-68796895D02*
X92151503Y-68758800D01*
X92151503Y-68758800D02*
X92127693Y-68720704D01*
X92127693Y-68720704D02*
X92103884Y-68644514D01*
X92103884Y-68644514D02*
X92103884Y-68415942D01*
X92103884Y-68415942D02*
X92127693Y-68339752D01*
X92127693Y-68339752D02*
X92151503Y-68301657D01*
X92151503Y-68301657D02*
X92199122Y-68263561D01*
X92199122Y-68263561D02*
X92270550Y-68263561D01*
X92270550Y-68263561D02*
X92318169Y-68301657D01*
X92318169Y-68301657D02*
X92341979Y-68339752D01*
X92341979Y-68339752D02*
X92365788Y-68415942D01*
X92365788Y-68415942D02*
X92365788Y-68644514D01*
X92365788Y-68644514D02*
X92341979Y-68720704D01*
X92341979Y-68720704D02*
X92318169Y-68758800D01*
X92318169Y-68758800D02*
X92270550Y-68796895D01*
X92270550Y-68796895D02*
X92199122Y-68796895D01*
X93222931Y-68796895D02*
X92937217Y-68796895D01*
X93080074Y-68796895D02*
X93080074Y-67996895D01*
X93080074Y-67996895D02*
X93032455Y-68111180D01*
X93032455Y-68111180D02*
X92984836Y-68187371D01*
X92984836Y-68187371D02*
X92937217Y-68225466D01*
X93532454Y-67996895D02*
X93580073Y-67996895D01*
X93580073Y-67996895D02*
X93627692Y-68034990D01*
X93627692Y-68034990D02*
X93651502Y-68073085D01*
X93651502Y-68073085D02*
X93675311Y-68149276D01*
X93675311Y-68149276D02*
X93699121Y-68301657D01*
X93699121Y-68301657D02*
X93699121Y-68492133D01*
X93699121Y-68492133D02*
X93675311Y-68644514D01*
X93675311Y-68644514D02*
X93651502Y-68720704D01*
X93651502Y-68720704D02*
X93627692Y-68758800D01*
X93627692Y-68758800D02*
X93580073Y-68796895D01*
X93580073Y-68796895D02*
X93532454Y-68796895D01*
X93532454Y-68796895D02*
X93484835Y-68758800D01*
X93484835Y-68758800D02*
X93461026Y-68720704D01*
X93461026Y-68720704D02*
X93437216Y-68644514D01*
X93437216Y-68644514D02*
X93413407Y-68492133D01*
X93413407Y-68492133D02*
X93413407Y-68301657D01*
X93413407Y-68301657D02*
X93437216Y-68149276D01*
X93437216Y-68149276D02*
X93461026Y-68073085D01*
X93461026Y-68073085D02*
X93484835Y-68034990D01*
X93484835Y-68034990D02*
X93532454Y-67996895D01*
X93889597Y-68568323D02*
X94127692Y-68568323D01*
X93841978Y-68796895D02*
X94008644Y-67996895D01*
X94008644Y-67996895D02*
X94175311Y-68796895D01*
X94699120Y-67958800D02*
X94270549Y-68987371D01*
X95080073Y-68263561D02*
X95080073Y-68796895D01*
X94961025Y-67958800D02*
X94841978Y-68530228D01*
X94841978Y-68530228D02*
X95151501Y-68530228D01*
X95437215Y-67996895D02*
X95484834Y-67996895D01*
X95484834Y-67996895D02*
X95532453Y-68034990D01*
X95532453Y-68034990D02*
X95556263Y-68073085D01*
X95556263Y-68073085D02*
X95580072Y-68149276D01*
X95580072Y-68149276D02*
X95603882Y-68301657D01*
X95603882Y-68301657D02*
X95603882Y-68492133D01*
X95603882Y-68492133D02*
X95580072Y-68644514D01*
X95580072Y-68644514D02*
X95556263Y-68720704D01*
X95556263Y-68720704D02*
X95532453Y-68758800D01*
X95532453Y-68758800D02*
X95484834Y-68796895D01*
X95484834Y-68796895D02*
X95437215Y-68796895D01*
X95437215Y-68796895D02*
X95389596Y-68758800D01*
X95389596Y-68758800D02*
X95365787Y-68720704D01*
X95365787Y-68720704D02*
X95341977Y-68644514D01*
X95341977Y-68644514D02*
X95318168Y-68492133D01*
X95318168Y-68492133D02*
X95318168Y-68301657D01*
X95318168Y-68301657D02*
X95341977Y-68149276D01*
X95341977Y-68149276D02*
X95365787Y-68073085D01*
X95365787Y-68073085D02*
X95389596Y-68034990D01*
X95389596Y-68034990D02*
X95437215Y-67996895D01*
X95746739Y-67996895D02*
X95913405Y-68796895D01*
X95913405Y-68796895D02*
X96080072Y-67996895D01*
X96841976Y-68758800D02*
X96794357Y-68796895D01*
X96794357Y-68796895D02*
X96699119Y-68796895D01*
X96699119Y-68796895D02*
X96651500Y-68758800D01*
X96651500Y-68758800D02*
X96627690Y-68720704D01*
X96627690Y-68720704D02*
X96603881Y-68644514D01*
X96603881Y-68644514D02*
X96603881Y-68415942D01*
X96603881Y-68415942D02*
X96627690Y-68339752D01*
X96627690Y-68339752D02*
X96651500Y-68301657D01*
X96651500Y-68301657D02*
X96699119Y-68263561D01*
X96699119Y-68263561D02*
X96794357Y-68263561D01*
X96794357Y-68263561D02*
X96841976Y-68301657D01*
X97127690Y-68796895D02*
X97080071Y-68758800D01*
X97080071Y-68758800D02*
X97056261Y-68720704D01*
X97056261Y-68720704D02*
X97032452Y-68644514D01*
X97032452Y-68644514D02*
X97032452Y-68415942D01*
X97032452Y-68415942D02*
X97056261Y-68339752D01*
X97056261Y-68339752D02*
X97080071Y-68301657D01*
X97080071Y-68301657D02*
X97127690Y-68263561D01*
X97127690Y-68263561D02*
X97199118Y-68263561D01*
X97199118Y-68263561D02*
X97246737Y-68301657D01*
X97246737Y-68301657D02*
X97270547Y-68339752D01*
X97270547Y-68339752D02*
X97294356Y-68415942D01*
X97294356Y-68415942D02*
X97294356Y-68644514D01*
X97294356Y-68644514D02*
X97270547Y-68720704D01*
X97270547Y-68720704D02*
X97246737Y-68758800D01*
X97246737Y-68758800D02*
X97199118Y-68796895D01*
X97199118Y-68796895D02*
X97127690Y-68796895D01*
X97508642Y-68263561D02*
X97508642Y-68796895D01*
X97508642Y-68339752D02*
X97532452Y-68301657D01*
X97532452Y-68301657D02*
X97580071Y-68263561D01*
X97580071Y-68263561D02*
X97651499Y-68263561D01*
X97651499Y-68263561D02*
X97699118Y-68301657D01*
X97699118Y-68301657D02*
X97722928Y-68377847D01*
X97722928Y-68377847D02*
X97722928Y-68796895D01*
X97889595Y-68263561D02*
X98080071Y-68263561D01*
X97961023Y-67996895D02*
X97961023Y-68682609D01*
X97961023Y-68682609D02*
X97984833Y-68758800D01*
X97984833Y-68758800D02*
X98032452Y-68796895D01*
X98032452Y-68796895D02*
X98080071Y-68796895D01*
X98246737Y-68796895D02*
X98246737Y-68263561D01*
X98246737Y-67996895D02*
X98222928Y-68034990D01*
X98222928Y-68034990D02*
X98246737Y-68073085D01*
X98246737Y-68073085D02*
X98270547Y-68034990D01*
X98270547Y-68034990D02*
X98246737Y-67996895D01*
X98246737Y-67996895D02*
X98246737Y-68073085D01*
X98484832Y-68263561D02*
X98484832Y-68796895D01*
X98484832Y-68339752D02*
X98508642Y-68301657D01*
X98508642Y-68301657D02*
X98556261Y-68263561D01*
X98556261Y-68263561D02*
X98627689Y-68263561D01*
X98627689Y-68263561D02*
X98675308Y-68301657D01*
X98675308Y-68301657D02*
X98699118Y-68377847D01*
X98699118Y-68377847D02*
X98699118Y-68796895D01*
X99151499Y-68263561D02*
X99151499Y-68796895D01*
X98937213Y-68263561D02*
X98937213Y-68682609D01*
X98937213Y-68682609D02*
X98961023Y-68758800D01*
X98961023Y-68758800D02*
X99008642Y-68796895D01*
X99008642Y-68796895D02*
X99080070Y-68796895D01*
X99080070Y-68796895D02*
X99127689Y-68758800D01*
X99127689Y-68758800D02*
X99151499Y-68720704D01*
X99461023Y-68796895D02*
X99413404Y-68758800D01*
X99413404Y-68758800D02*
X99389594Y-68720704D01*
X99389594Y-68720704D02*
X99365785Y-68644514D01*
X99365785Y-68644514D02*
X99365785Y-68415942D01*
X99365785Y-68415942D02*
X99389594Y-68339752D01*
X99389594Y-68339752D02*
X99413404Y-68301657D01*
X99413404Y-68301657D02*
X99461023Y-68263561D01*
X99461023Y-68263561D02*
X99532451Y-68263561D01*
X99532451Y-68263561D02*
X99580070Y-68301657D01*
X99580070Y-68301657D02*
X99603880Y-68339752D01*
X99603880Y-68339752D02*
X99627689Y-68415942D01*
X99627689Y-68415942D02*
X99627689Y-68644514D01*
X99627689Y-68644514D02*
X99603880Y-68720704D01*
X99603880Y-68720704D02*
X99580070Y-68758800D01*
X99580070Y-68758800D02*
X99532451Y-68796895D01*
X99532451Y-68796895D02*
X99461023Y-68796895D01*
X100056261Y-68263561D02*
X100056261Y-68796895D01*
X99841975Y-68263561D02*
X99841975Y-68682609D01*
X99841975Y-68682609D02*
X99865785Y-68758800D01*
X99865785Y-68758800D02*
X99913404Y-68796895D01*
X99913404Y-68796895D02*
X99984832Y-68796895D01*
X99984832Y-68796895D02*
X100032451Y-68758800D01*
X100032451Y-68758800D02*
X100056261Y-68720704D01*
X100270547Y-68758800D02*
X100318166Y-68796895D01*
X100318166Y-68796895D02*
X100413404Y-68796895D01*
X100413404Y-68796895D02*
X100461023Y-68758800D01*
X100461023Y-68758800D02*
X100484832Y-68682609D01*
X100484832Y-68682609D02*
X100484832Y-68644514D01*
X100484832Y-68644514D02*
X100461023Y-68568323D01*
X100461023Y-68568323D02*
X100413404Y-68530228D01*
X100413404Y-68530228D02*
X100341975Y-68530228D01*
X100341975Y-68530228D02*
X100294356Y-68492133D01*
X100294356Y-68492133D02*
X100270547Y-68415942D01*
X100270547Y-68415942D02*
X100270547Y-68377847D01*
X100270547Y-68377847D02*
X100294356Y-68301657D01*
X100294356Y-68301657D02*
X100341975Y-68263561D01*
X100341975Y-68263561D02*
X100413404Y-68263561D01*
X100413404Y-68263561D02*
X100461023Y-68301657D01*
X89020000Y-75360000D02*
X94020000Y-75360000D01*
X89020000Y-75820000D02*
X89020000Y-75360000D01*
X89020000Y-77110000D02*
X89020000Y-76390000D01*
X89020000Y-78380000D02*
X89020000Y-77650000D01*
X89020000Y-79650000D02*
X89020000Y-78920000D01*
X89020000Y-80670000D02*
X89020000Y-80200000D01*
X94020000Y-75360000D02*
X94020000Y-75820000D01*
X94020000Y-76380000D02*
X94020000Y-77110000D01*
X94020000Y-77670000D02*
X94020000Y-78370000D01*
X94020000Y-78930000D02*
X94020000Y-79650000D01*
X94020000Y-80210000D02*
X94020000Y-80670000D01*
X94020000Y-80670000D02*
X89020000Y-80670000D01*
D11*
X89750000Y-75830000D02*
G75*
G02*
X89550000Y-75830000I-100000J0D01*
G01*
X89550000Y-75830000D02*
G75*
G02*
X89750000Y-75830000I100000J0D01*
G01*
D12*
X86120000Y-98426359D02*
X86120000Y-98733641D01*
X86880000Y-98426359D02*
X86880000Y-98733641D01*
X134860664Y-77120000D02*
X135076336Y-77120000D01*
X134860664Y-77840000D02*
X135076336Y-77840000D01*
X145765000Y-74578748D02*
X145765000Y-75101252D01*
X147235000Y-74578748D02*
X147235000Y-75101252D01*
X95365000Y-77038748D02*
X95365000Y-77561252D01*
X96835000Y-77038748D02*
X96835000Y-77561252D01*
X95990000Y-81599420D02*
X95990000Y-81880580D01*
X97010000Y-81599420D02*
X97010000Y-81880580D01*
X158112164Y-100785000D02*
X158327836Y-100785000D01*
X158112164Y-101505000D02*
X158327836Y-101505000D01*
X130770000Y-83576359D02*
X130770000Y-83883641D01*
X131530000Y-83576359D02*
X131530000Y-83883641D01*
X95345000Y-89480000D02*
X95345000Y-91980000D01*
X95645000Y-89780000D02*
X95645000Y-100000000D01*
X95645000Y-100000000D02*
X99665000Y-100000000D01*
X97145000Y-89780000D02*
X97145000Y-90780000D01*
X97145000Y-90780000D02*
X95645000Y-90780000D01*
X97145000Y-99000000D02*
X95645000Y-99000000D01*
X97145000Y-100000000D02*
X97145000Y-99000000D01*
X97845000Y-89480000D02*
X95345000Y-89480000D01*
X97955000Y-89780000D02*
X97955000Y-90280000D01*
X97955000Y-90280000D02*
X99165000Y-90280000D01*
X97955000Y-99500000D02*
X97955000Y-100000000D01*
X99165000Y-90280000D02*
X99165000Y-99500000D01*
X99165000Y-99500000D02*
X97955000Y-99500000D01*
X99665000Y-89780000D02*
X95645000Y-89780000D01*
X99665000Y-100000000D02*
X99665000Y-89780000D01*
D13*
X99450000Y-76340000D02*
X99450000Y-76640000D01*
X99450000Y-76340000D02*
X99750000Y-76340000D01*
X99450000Y-80340000D02*
X99450000Y-80040000D01*
X99450000Y-80340000D02*
X99750000Y-80340000D01*
X103450000Y-76340000D02*
X103150000Y-76340000D01*
X103450000Y-76340000D02*
X103450000Y-76640000D01*
X103450000Y-80340000D02*
X103150000Y-80340000D01*
X103450000Y-80340000D02*
X103450000Y-80040000D01*
D11*
X99210000Y-76480000D02*
G75*
G02*
X99010000Y-76480000I-100000J0D01*
G01*
X99010000Y-76480000D02*
G75*
G02*
X99210000Y-76480000I100000J0D01*
G01*
D12*
X95290000Y-73711252D02*
X95290000Y-72288748D01*
X97110000Y-73711252D02*
X97110000Y-72288748D01*
X126070000Y-99936359D02*
X126070000Y-100243641D01*
X126830000Y-99936359D02*
X126830000Y-100243641D01*
X140746789Y-92788038D02*
X140547978Y-92589227D01*
X141468038Y-92066789D02*
X141269227Y-91867978D01*
X154580000Y-91398641D02*
X154580000Y-91091359D01*
X155340000Y-91398641D02*
X155340000Y-91091359D01*
X86140000Y-92383641D02*
X86140000Y-92076359D01*
X86900000Y-92383641D02*
X86900000Y-92076359D01*
X97790000Y-73840580D02*
X97790000Y-73559420D01*
X98810000Y-73840580D02*
X98810000Y-73559420D01*
D10*
X152950000Y-75345000D02*
X157950000Y-75345000D01*
X152950000Y-75805000D02*
X152950000Y-75345000D01*
X152950000Y-77085000D02*
X152950000Y-76365000D01*
X152950000Y-78345000D02*
X152950000Y-77645000D01*
X152950000Y-79635000D02*
X152950000Y-78905000D01*
X152950000Y-80655000D02*
X152950000Y-80195000D01*
X157950000Y-75345000D02*
X157950000Y-75815000D01*
X157950000Y-76365000D02*
X157950000Y-77095000D01*
X157950000Y-77635000D02*
X157950000Y-78365000D01*
X157950000Y-78905000D02*
X157950000Y-79625000D01*
X157950000Y-80195000D02*
X157950000Y-80655000D01*
X157950000Y-80655000D02*
X152950000Y-80655000D01*
D11*
X157420000Y-80185000D02*
G75*
G02*
X157220000Y-80185000I-100000J0D01*
G01*
X157220000Y-80185000D02*
G75*
G02*
X157420000Y-80185000I100000J0D01*
G01*
D10*
X165670000Y-85465000D02*
X173670000Y-85465000D01*
X173670000Y-75465000D01*
X165670000Y-75465000D01*
X165670000Y-85465000D01*
X172130000Y-86155000D02*
X173670000Y-86155000D01*
X173670000Y-85465000D01*
X172130000Y-85465000D01*
X172130000Y-86155000D01*
D12*
X119440000Y-99197836D02*
X119440000Y-98982164D01*
X120160000Y-99197836D02*
X120160000Y-98982164D01*
X98758641Y-81210000D02*
X98451359Y-81210000D01*
X98758641Y-81970000D02*
X98451359Y-81970000D01*
X127870000Y-99936359D02*
X127870000Y-100243641D01*
X128630000Y-99936359D02*
X128630000Y-100243641D01*
D10*
X74400000Y-85755000D02*
X82400000Y-85755000D01*
X82400000Y-75755000D01*
X74400000Y-75755000D01*
X74400000Y-85755000D01*
X80860000Y-86445000D02*
X82400000Y-86445000D01*
X82400000Y-85755000D01*
X80860000Y-85755000D01*
X80860000Y-86445000D01*
X82665000Y-74940000D02*
X83135000Y-74940000D01*
X82665000Y-79940000D02*
X82665000Y-74940000D01*
X83125000Y-79940000D02*
X82665000Y-79940000D01*
X83685000Y-74940000D02*
X84415000Y-74940000D01*
X84405000Y-79940000D02*
X83685000Y-79940000D01*
X84955000Y-74940000D02*
X85685000Y-74940000D01*
X85665000Y-79940000D02*
X84965000Y-79940000D01*
X86225000Y-74940000D02*
X86945000Y-74940000D01*
X86955000Y-79940000D02*
X86225000Y-79940000D01*
X87515000Y-74940000D02*
X87975000Y-74940000D01*
X87975000Y-74940000D02*
X87975000Y-79940000D01*
X87975000Y-79940000D02*
X87515000Y-79940000D01*
D11*
X87605000Y-75570000D02*
G75*
G02*
X87405000Y-75570000I-100000J0D01*
G01*
X87405000Y-75570000D02*
G75*
G02*
X87605000Y-75570000I100000J0D01*
G01*
D12*
X163630000Y-98831359D02*
X163630000Y-99138641D01*
X164390000Y-98831359D02*
X164390000Y-99138641D01*
X129590000Y-83632164D02*
X129590000Y-83847836D01*
X130310000Y-83632164D02*
X130310000Y-83847836D01*
X167785000Y-90780000D02*
X167785000Y-90715000D01*
X167785000Y-97285000D02*
X167785000Y-97220000D01*
X171415000Y-90715000D02*
X167785000Y-90715000D01*
X171415000Y-90780000D02*
X171415000Y-90715000D01*
X171415000Y-97285000D02*
X167785000Y-97285000D01*
X171415000Y-97285000D02*
X171415000Y-97220000D01*
X172690000Y-97220000D02*
X171415000Y-97220000D01*
X91197836Y-89620000D02*
X90982164Y-89620000D01*
X91197836Y-90340000D02*
X90982164Y-90340000D01*
X113305000Y-89090000D02*
X113305000Y-95640000D01*
X113305000Y-95640000D02*
X113755000Y-96090000D01*
X113755000Y-96090000D02*
X118805000Y-96090000D01*
X115155000Y-89890000D02*
X116955000Y-89890000D01*
X115155000Y-95290000D02*
X116955000Y-95290000D01*
X118805000Y-89090000D02*
X113305000Y-89090000D01*
X118805000Y-89090000D02*
X118805000Y-96090000D01*
X138326789Y-90458038D02*
X138127978Y-90259227D01*
X139048038Y-89736789D02*
X138849227Y-89537978D01*
X124652141Y-79300000D02*
X124344859Y-79300000D01*
X124652141Y-80060000D02*
X124344859Y-80060000D01*
D13*
X145045000Y-78540000D02*
X145045000Y-78840000D01*
X145045000Y-78540000D02*
X145345000Y-78540000D01*
X145045000Y-82540000D02*
X145045000Y-82240000D01*
X145045000Y-82540000D02*
X145345000Y-82540000D01*
X149045000Y-78540000D02*
X148745000Y-78540000D01*
X149045000Y-78540000D02*
X149045000Y-78840000D01*
X149045000Y-82540000D02*
X148745000Y-82540000D01*
X149045000Y-82540000D02*
X149045000Y-82240000D01*
D11*
X149005000Y-78200000D02*
G75*
G02*
X148805000Y-78200000I-100000J0D01*
G01*
X148805000Y-78200000D02*
G75*
G02*
X149005000Y-78200000I100000J0D01*
G01*
D12*
X143790580Y-75630000D02*
X143509420Y-75630000D01*
X143790580Y-76650000D02*
X143509420Y-76650000D01*
D10*
X109905000Y-88090000D02*
X101405000Y-88090000D01*
X101405000Y-99690000D01*
X109905000Y-99690000D01*
X109905000Y-88090000D01*
D11*
X114000000Y-75050000D02*
X120800000Y-75050000D01*
X114000000Y-87950000D02*
X114000000Y-75050000D01*
X120800000Y-75050000D02*
X120800000Y-87950000D01*
X120800000Y-87950000D02*
X114000000Y-87950000D01*
D14*
X113350000Y-87430000D02*
G75*
G02*
X112950000Y-87430000I-200000J0D01*
G01*
X112950000Y-87430000D02*
G75*
G02*
X113350000Y-87430000I200000J0D01*
G01*
D12*
X111045000Y-95340580D02*
X111045000Y-95059420D01*
X112065000Y-95340580D02*
X112065000Y-95059420D01*
D11*
X109040000Y-66150000D02*
G75*
G02*
X108840000Y-66150000I-100000J0D01*
G01*
X108840000Y-66150000D02*
G75*
G02*
X109040000Y-66150000I100000J0D01*
G01*
D13*
X113940000Y-71900000D02*
G75*
G02*
X103940000Y-71900000I-5000000J0D01*
G01*
X103940000Y-71900000D02*
G75*
G02*
X113940000Y-71900000I5000000J0D01*
G01*
D12*
X112020000Y-82321359D02*
X112020000Y-82628641D01*
X112780000Y-82321359D02*
X112780000Y-82628641D01*
X90846359Y-101590000D02*
X91153641Y-101590000D01*
X90846359Y-102350000D02*
X91153641Y-102350000D01*
X141920000Y-82546359D02*
X141920000Y-82853641D01*
X142680000Y-82546359D02*
X142680000Y-82853641D01*
X129670000Y-99936359D02*
X129670000Y-100243641D01*
X130430000Y-99936359D02*
X130430000Y-100243641D01*
D10*
X152950000Y-81345000D02*
X157950000Y-81345000D01*
X152950000Y-81805000D02*
X152950000Y-81345000D01*
X152950000Y-83085000D02*
X152950000Y-82365000D01*
X152950000Y-84345000D02*
X152950000Y-83645000D01*
X152950000Y-85635000D02*
X152950000Y-84905000D01*
X152950000Y-86655000D02*
X152950000Y-86195000D01*
X157950000Y-81345000D02*
X157950000Y-81815000D01*
X157950000Y-82365000D02*
X157950000Y-83095000D01*
X157950000Y-83635000D02*
X157950000Y-84365000D01*
X157950000Y-84905000D02*
X157950000Y-85625000D01*
X157950000Y-86195000D02*
X157950000Y-86655000D01*
X157950000Y-86655000D02*
X152950000Y-86655000D01*
D11*
X157420000Y-86185000D02*
G75*
G02*
X157220000Y-86185000I-100000J0D01*
G01*
X157220000Y-86185000D02*
G75*
G02*
X157420000Y-86185000I100000J0D01*
G01*
D12*
X98451359Y-82360000D02*
X98758641Y-82360000D01*
X98451359Y-83120000D02*
X98758641Y-83120000D01*
D10*
X82675000Y-82150000D02*
X83135000Y-82150000D01*
X82675000Y-87150000D02*
X82675000Y-82150000D01*
X83135000Y-87150000D02*
X82675000Y-87150000D01*
X83695000Y-82150000D02*
X84425000Y-82150000D01*
X84425000Y-87150000D02*
X83705000Y-87150000D01*
X84985000Y-82150000D02*
X85685000Y-82150000D01*
X85695000Y-87150000D02*
X84965000Y-87150000D01*
X86245000Y-82150000D02*
X86965000Y-82150000D01*
X86965000Y-87150000D02*
X86235000Y-87150000D01*
X87525000Y-82150000D02*
X87985000Y-82150000D01*
X87985000Y-82150000D02*
X87985000Y-87150000D01*
X87985000Y-87150000D02*
X87515000Y-87150000D01*
D11*
X83245000Y-86520000D02*
G75*
G02*
X83045000Y-86520000I-100000J0D01*
G01*
X83045000Y-86520000D02*
G75*
G02*
X83245000Y-86520000I100000J0D01*
G01*
D12*
X143420000Y-82546359D02*
X143420000Y-82853641D01*
X144180000Y-82546359D02*
X144180000Y-82853641D01*
X124652141Y-77300000D02*
X124344859Y-77300000D01*
X124652141Y-78060000D02*
X124344859Y-78060000D01*
D10*
X116000000Y-101150000D02*
X120700000Y-101150000D01*
X116000000Y-101600000D02*
X116000000Y-101150000D01*
X116000000Y-103350000D02*
X116000000Y-102450000D01*
X116000000Y-104650000D02*
X116000000Y-104200000D01*
X118350000Y-103800000D02*
X118350000Y-104500000D01*
X118350000Y-104500000D02*
X118150000Y-104300000D01*
X118350000Y-104500000D02*
X118550000Y-104300000D01*
X119650000Y-104650000D02*
X116000000Y-104650000D01*
X120700000Y-101150000D02*
X120700000Y-101600000D01*
X120700000Y-102450000D02*
X120700000Y-103350000D01*
X120700000Y-104200000D02*
X120700000Y-104650000D01*
X120700000Y-104650000D02*
X119650000Y-104650000D01*
D12*
X137265000Y-97625000D02*
X137330000Y-97625000D01*
X137265000Y-101255000D02*
X137265000Y-97625000D01*
X137265000Y-101255000D02*
X137330000Y-101255000D01*
X137330000Y-102530000D02*
X137330000Y-101255000D01*
X146310000Y-97625000D02*
X146375000Y-97625000D01*
X146310000Y-101255000D02*
X146375000Y-101255000D01*
X146375000Y-101255000D02*
X146375000Y-97625000D01*
X104164420Y-84780000D02*
X104445580Y-84780000D01*
X104164420Y-85800000D02*
X104445580Y-85800000D01*
D11*
X137440000Y-65950000D02*
G75*
G02*
X137240000Y-65950000I-100000J0D01*
G01*
X137240000Y-65950000D02*
G75*
G02*
X137440000Y-65950000I100000J0D01*
G01*
D13*
X142340000Y-71700000D02*
G75*
G02*
X132340000Y-71700000I-5000000J0D01*
G01*
X132340000Y-71700000D02*
G75*
G02*
X142340000Y-71700000I5000000J0D01*
G01*
D12*
X131470000Y-99936359D02*
X131470000Y-100243641D01*
X132230000Y-99936359D02*
X132230000Y-100243641D01*
D10*
X138098923Y-87972548D02*
X138424192Y-87647279D01*
X139520208Y-86551264D02*
X140227315Y-85844157D01*
X141316259Y-84755212D02*
X141634457Y-84437014D01*
X141634457Y-84437014D02*
X146584205Y-89386762D01*
X143048671Y-92922296D02*
X138098923Y-87972548D01*
X143345656Y-92625311D02*
X143048671Y-92922296D01*
X145162920Y-90808046D02*
X144462884Y-91508082D01*
X146584205Y-89386762D02*
X146266007Y-89704960D01*
D12*
X135122141Y-78500000D02*
X134814859Y-78500000D01*
X135122141Y-79260000D02*
X134814859Y-79260000D01*
D10*
X159540000Y-75015000D02*
X160010000Y-75015000D01*
X159540000Y-80015000D02*
X159540000Y-75015000D01*
X160000000Y-80015000D02*
X159540000Y-80015000D01*
X160560000Y-75015000D02*
X161290000Y-75015000D01*
X161280000Y-80015000D02*
X160560000Y-80015000D01*
X161830000Y-75015000D02*
X162560000Y-75015000D01*
X162540000Y-80015000D02*
X161840000Y-80015000D01*
X163100000Y-75015000D02*
X163820000Y-75015000D01*
X163830000Y-80015000D02*
X163100000Y-80015000D01*
X164390000Y-75015000D02*
X164850000Y-75015000D01*
X164850000Y-75015000D02*
X164850000Y-80015000D01*
X164850000Y-80015000D02*
X164390000Y-80015000D01*
D11*
X164480000Y-75645000D02*
G75*
G02*
X164280000Y-75645000I-100000J0D01*
G01*
X164280000Y-75645000D02*
G75*
G02*
X164480000Y-75645000I100000J0D01*
G01*
D10*
X118370000Y-72430000D02*
X119060000Y-72430000D01*
X119060000Y-73970000D01*
X118370000Y-73970000D01*
X118370000Y-72430000D01*
X119060000Y-65970000D02*
X129060000Y-65970000D01*
X129060000Y-73970000D01*
X119060000Y-73970000D01*
X119060000Y-65970000D01*
D12*
X128370000Y-83883641D02*
X128370000Y-83576359D01*
X129130000Y-83883641D02*
X129130000Y-83576359D01*
X143370000Y-78343641D02*
X143370000Y-78036359D01*
X144130000Y-78343641D02*
X144130000Y-78036359D01*
X110645000Y-89778748D02*
X110645000Y-91201252D01*
X112465000Y-89778748D02*
X112465000Y-91201252D01*
X98745580Y-83630000D02*
X98464420Y-83630000D01*
X98745580Y-84650000D02*
X98464420Y-84650000D01*
X147940000Y-74755580D02*
X147940000Y-74474420D01*
X148960000Y-74755580D02*
X148960000Y-74474420D01*
D13*
X127580000Y-76480000D02*
X131980000Y-76480000D01*
X127580000Y-81480000D02*
X131980000Y-81480000D01*
D11*
X125567000Y-77001000D02*
G75*
G02*
X125367000Y-77001000I-100000J0D01*
G01*
X125367000Y-77001000D02*
G75*
G02*
X125567000Y-77001000I100000J0D01*
G01*
D12*
X109965000Y-81600000D02*
X109965000Y-84060000D01*
X109965000Y-84060000D02*
X111435000Y-84060000D01*
X111435000Y-84060000D02*
X111435000Y-81600000D01*
X159500000Y-90040000D02*
X157550000Y-90040000D01*
X159500000Y-90040000D02*
X161450000Y-90040000D01*
X159500000Y-100160000D02*
X157550000Y-100160000D01*
X159500000Y-100160000D02*
X161450000Y-100160000D01*
X162440000Y-100435000D02*
X161960000Y-100435000D01*
X162200000Y-100105000D01*
X162440000Y-100435000D01*
G36*
X162440000Y-100435000D02*
G01*
X161960000Y-100435000D01*
X162200000Y-100105000D01*
X162440000Y-100435000D01*
G37*
X148870000Y-89730000D02*
X148870000Y-99950000D01*
X148870000Y-99950000D02*
X152890000Y-99950000D01*
X149370000Y-90230000D02*
X150580000Y-90230000D01*
X149370000Y-99450000D02*
X149370000Y-90230000D01*
X150580000Y-90230000D02*
X150580000Y-89730000D01*
X150580000Y-99450000D02*
X149370000Y-99450000D01*
X150580000Y-99950000D02*
X150580000Y-99450000D01*
X150690000Y-100250000D02*
X153190000Y-100250000D01*
X151390000Y-89730000D02*
X151390000Y-90730000D01*
X151390000Y-90730000D02*
X152890000Y-90730000D01*
X151390000Y-98950000D02*
X152890000Y-98950000D01*
X151390000Y-99950000D02*
X151390000Y-98950000D01*
X152890000Y-89730000D02*
X148870000Y-89730000D01*
X152890000Y-99950000D02*
X152890000Y-89730000D01*
X153190000Y-100250000D02*
X153190000Y-97750000D01*
D15*
G36*
X160458332Y-72165623D02*
G01*
X160667249Y-72167889D01*
X160900863Y-72533114D01*
X161134477Y-72898339D01*
X161136684Y-72530996D01*
X161138890Y-72163654D01*
X161299721Y-72163654D01*
X161460553Y-72163654D01*
X161460553Y-72824449D01*
X161460553Y-73485245D01*
X161289629Y-73482952D01*
X161118705Y-73480659D01*
X160847098Y-73043323D01*
X160575491Y-72605987D01*
X160573298Y-73045441D01*
X160571105Y-73484894D01*
X160410260Y-73484894D01*
X160249416Y-73484894D01*
X160249416Y-72824126D01*
X160249416Y-72163358D01*
X160458332Y-72165623D01*
G37*
G36*
X159783594Y-72294931D02*
G01*
X159783594Y-72426208D01*
X159478692Y-72426208D01*
X159173791Y-72426208D01*
X159173791Y-72536311D01*
X159173791Y-72646415D01*
X159457518Y-72646415D01*
X159741246Y-72646415D01*
X159741246Y-72777692D01*
X159741246Y-72908969D01*
X159457518Y-72908969D01*
X159173791Y-72908969D01*
X159173791Y-73065654D01*
X159173791Y-73222340D01*
X159478692Y-73222340D01*
X159783594Y-73222340D01*
X159783594Y-73353617D01*
X159783594Y-73484894D01*
X159300833Y-73484894D01*
X158818072Y-73484894D01*
X158818072Y-72824274D01*
X158818072Y-72163654D01*
X159300833Y-72163654D01*
X159783594Y-72163654D01*
X159783594Y-72294931D01*
G37*
G36*
X164416405Y-72294931D02*
G01*
X164416405Y-72426208D01*
X164107268Y-72426208D01*
X163798132Y-72426208D01*
X163798132Y-72536311D01*
X163798132Y-72646415D01*
X164081860Y-72646415D01*
X164365588Y-72646415D01*
X164365588Y-72777692D01*
X164365588Y-72908969D01*
X164081860Y-72908969D01*
X163798132Y-72908969D01*
X163798132Y-73065549D01*
X163798132Y-73222129D01*
X164105151Y-73224352D01*
X164412170Y-73226575D01*
X164414508Y-73355734D01*
X164416846Y-73484894D01*
X163929630Y-73484894D01*
X163442413Y-73484894D01*
X163442413Y-72824274D01*
X163442413Y-72163654D01*
X163929409Y-72163654D01*
X164416405Y-72163654D01*
X164416405Y-72294931D01*
G37*
G36*
X165859188Y-72818759D02*
G01*
X165896433Y-72919379D01*
X165931933Y-73015413D01*
X165965254Y-73105679D01*
X165995962Y-73188992D01*
X166023621Y-73264170D01*
X166047796Y-73330028D01*
X166068054Y-73385383D01*
X166083960Y-73429051D01*
X166095078Y-73459849D01*
X166100974Y-73476594D01*
X166101833Y-73479379D01*
X166093773Y-73481003D01*
X166071226Y-73482438D01*
X166036646Y-73483609D01*
X165992485Y-73484441D01*
X165941195Y-73484859D01*
X165920805Y-73484894D01*
X165739777Y-73484894D01*
X165694440Y-73353490D01*
X165649104Y-73222087D01*
X165408569Y-73224331D01*
X165168035Y-73226575D01*
X165124580Y-73353617D01*
X165081125Y-73480659D01*
X164905450Y-73482949D01*
X164852976Y-73483298D01*
X164806754Y-73482965D01*
X164769273Y-73482022D01*
X164743022Y-73480539D01*
X164730489Y-73478587D01*
X164729776Y-73477938D01*
X164732627Y-73469340D01*
X164740825Y-73446303D01*
X164753837Y-73410275D01*
X164771132Y-73362702D01*
X164792175Y-73305031D01*
X164816436Y-73238711D01*
X164843380Y-73165187D01*
X164872477Y-73085907D01*
X164903192Y-73002319D01*
X164915723Y-72968255D01*
X165255992Y-72968255D01*
X165408510Y-72968255D01*
X165464798Y-72968010D01*
X165506012Y-72967183D01*
X165534008Y-72965640D01*
X165550645Y-72963246D01*
X165557780Y-72959866D01*
X165558289Y-72957373D01*
X165554896Y-72946701D01*
X165546750Y-72922254D01*
X165534610Y-72886274D01*
X165519235Y-72841002D01*
X165501384Y-72788680D01*
X165483560Y-72736634D01*
X165461828Y-72673384D01*
X165444868Y-72624594D01*
X165431960Y-72588699D01*
X165422386Y-72564136D01*
X165415428Y-72549339D01*
X165410368Y-72542744D01*
X165406486Y-72542786D01*
X165403065Y-72547901D01*
X165400078Y-72554836D01*
X165394109Y-72570672D01*
X165383589Y-72599902D01*
X165369445Y-72639893D01*
X165352605Y-72688012D01*
X165333998Y-72741625D01*
X165322289Y-72775574D01*
X165255992Y-72968255D01*
X164915723Y-72968255D01*
X164934995Y-72915869D01*
X164967351Y-72828004D01*
X164999728Y-72740172D01*
X165031595Y-72653819D01*
X165062418Y-72570393D01*
X165091665Y-72491341D01*
X165118803Y-72418110D01*
X165143299Y-72352147D01*
X165164622Y-72294899D01*
X165182239Y-72247814D01*
X165192403Y-72220823D01*
X165214018Y-72163654D01*
X165415280Y-72163654D01*
X165616543Y-72163654D01*
X165859188Y-72818759D01*
G37*
G36*
X162634574Y-72141935D02*
G01*
X162756685Y-72158252D01*
X162872534Y-72184480D01*
X162961770Y-72213637D01*
X162985061Y-72222521D01*
X162985061Y-72379416D01*
X162985004Y-72434469D01*
X162984657Y-72474855D01*
X162983756Y-72502845D01*
X162982040Y-72520711D01*
X162979244Y-72530725D01*
X162975105Y-72535157D01*
X162969360Y-72536280D01*
X162966881Y-72536311D01*
X162950519Y-72531777D01*
X162926160Y-72519977D01*
X162902987Y-72505968D01*
X162808876Y-72452939D01*
X162710222Y-72416015D01*
X162605997Y-72394886D01*
X162519239Y-72389157D01*
X162447605Y-72391244D01*
X162389947Y-72399566D01*
X162344303Y-72414619D01*
X162308711Y-72436902D01*
X162300019Y-72444759D01*
X162276839Y-72472229D01*
X162267047Y-72498808D01*
X162268531Y-72530433D01*
X162268873Y-72532302D01*
X162274832Y-72552874D01*
X162285497Y-72570425D01*
X162302626Y-72585774D01*
X162327978Y-72599736D01*
X162363312Y-72613128D01*
X162410386Y-72626765D01*
X162470959Y-72641464D01*
X162533921Y-72655306D01*
X162607945Y-72671699D01*
X162668597Y-72686622D01*
X162719262Y-72701093D01*
X162763322Y-72716131D01*
X162804162Y-72732757D01*
X162829284Y-72744278D01*
X162899646Y-72785603D01*
X162955686Y-72835837D01*
X162997599Y-72895161D01*
X163003858Y-72907225D01*
X163015430Y-72931483D01*
X163023242Y-72951493D01*
X163028032Y-72971578D01*
X163030537Y-72996064D01*
X163031495Y-73029276D01*
X163031643Y-73070150D01*
X163031495Y-73114499D01*
X163030497Y-73146356D01*
X163027821Y-73170167D01*
X163022634Y-73190380D01*
X163014109Y-73211441D01*
X163001415Y-73237797D01*
X162999715Y-73241239D01*
X162956202Y-73310436D01*
X162899057Y-73369914D01*
X162828700Y-73419419D01*
X162745548Y-73458693D01*
X162650022Y-73487481D01*
X162574291Y-73501504D01*
X162545395Y-73504303D01*
X162504878Y-73506481D01*
X162456948Y-73507995D01*
X162405810Y-73508802D01*
X162355671Y-73508861D01*
X162310737Y-73508127D01*
X162275215Y-73506560D01*
X162256685Y-73504721D01*
X162174510Y-73490895D01*
X162104433Y-73476479D01*
X162041622Y-73460384D01*
X161992013Y-73445126D01*
X161900966Y-73415081D01*
X161900966Y-73250955D01*
X161900966Y-73086828D01*
X161920884Y-73086828D01*
X161936684Y-73091383D01*
X161961816Y-73103544D01*
X161991836Y-73121060D01*
X162004351Y-73129150D01*
X162103435Y-73185285D01*
X162208411Y-73226045D01*
X162317603Y-73250917D01*
X162429334Y-73259387D01*
X162430309Y-73259388D01*
X162508656Y-73255533D01*
X162572360Y-73244086D01*
X162621278Y-73225111D01*
X162655262Y-73198671D01*
X162674168Y-73164833D01*
X162677427Y-73149610D01*
X162678200Y-73118177D01*
X162670594Y-73091337D01*
X162653267Y-73068214D01*
X162624874Y-73047932D01*
X162584073Y-73029614D01*
X162529520Y-73012385D01*
X162459870Y-72995368D01*
X162431582Y-72989280D01*
X162335764Y-72967856D01*
X162254877Y-72946571D01*
X162186938Y-72924590D01*
X162129967Y-72901074D01*
X162081982Y-72875189D01*
X162041002Y-72846097D01*
X162005047Y-72812963D01*
X161999158Y-72806723D01*
X161961871Y-72760144D01*
X161936059Y-72711640D01*
X161919997Y-72656777D01*
X161911959Y-72591123D01*
X161911401Y-72581309D01*
X161913324Y-72503478D01*
X161928158Y-72434842D01*
X161956883Y-72373367D01*
X162000476Y-72317015D01*
X162059916Y-72263752D01*
X162066366Y-72258822D01*
X162136991Y-72213443D01*
X162214940Y-72178987D01*
X162301970Y-72154969D01*
X162399839Y-72140905D01*
X162510304Y-72136311D01*
X162510770Y-72136311D01*
X162634574Y-72141935D01*
G37*
G36*
X163006267Y-65491381D02*
G01*
X163048271Y-65492284D01*
X163075383Y-65494036D01*
X163088281Y-65496739D01*
X163087647Y-65500492D01*
X163074158Y-65505399D01*
X163048495Y-65511559D01*
X163031643Y-65515074D01*
X163000632Y-65523834D01*
X162957066Y-65539730D01*
X162903230Y-65561724D01*
X162841406Y-65588779D01*
X162773878Y-65619860D01*
X162702929Y-65653928D01*
X162630842Y-65689947D01*
X162559900Y-65726881D01*
X162530983Y-65742424D01*
X162423648Y-65803168D01*
X162313169Y-65870316D01*
X162200938Y-65942752D01*
X162088346Y-66019362D01*
X161976786Y-66099031D01*
X161867649Y-66180644D01*
X161762329Y-66263088D01*
X161662217Y-66345247D01*
X161568704Y-66426007D01*
X161483185Y-66504253D01*
X161407050Y-66578871D01*
X161341691Y-66648747D01*
X161288502Y-66712766D01*
X161249999Y-66767973D01*
X161234669Y-66790889D01*
X161221889Y-66806476D01*
X161215639Y-66810936D01*
X161207933Y-66817262D01*
X161191854Y-66834716D01*
X161169376Y-66861017D01*
X161142473Y-66893882D01*
X161125907Y-66914687D01*
X161091586Y-66959549D01*
X161061945Y-67001786D01*
X161035482Y-67044265D01*
X161010692Y-67089852D01*
X160986076Y-67141415D01*
X160960129Y-67201822D01*
X160931349Y-67273937D01*
X160913969Y-67319106D01*
X160892597Y-67375545D01*
X160876370Y-67420033D01*
X160864269Y-67456400D01*
X160855275Y-67488472D01*
X160848371Y-67520077D01*
X160842538Y-67555044D01*
X160836757Y-67597200D01*
X160833772Y-67620554D01*
X160828052Y-67680557D01*
X160828892Y-67727808D01*
X160837665Y-67765677D01*
X160855741Y-67797537D01*
X160884494Y-67826759D01*
X160925295Y-67856716D01*
X160931527Y-67860822D01*
X161023139Y-67910992D01*
X161126656Y-67949849D01*
X161213301Y-67971693D01*
X161265231Y-67982807D01*
X161303414Y-67992299D01*
X161330849Y-68001100D01*
X161350535Y-68010137D01*
X161362293Y-68017836D01*
X161372988Y-68029206D01*
X161369723Y-68040304D01*
X161367698Y-68042874D01*
X161359637Y-68056574D01*
X161362280Y-68067125D01*
X161377159Y-68075341D01*
X161405805Y-68082036D01*
X161449751Y-68088026D01*
X161453427Y-68088438D01*
X161490688Y-68091600D01*
X161540268Y-68094396D01*
X161597548Y-68096641D01*
X161657909Y-68098151D01*
X161710403Y-68098726D01*
X161774653Y-68098940D01*
X161844685Y-68099176D01*
X161914377Y-68099411D01*
X161977608Y-68099627D01*
X162015304Y-68099757D01*
X162088065Y-68099613D01*
X162147263Y-68098491D01*
X162196260Y-68096192D01*
X162238415Y-68092514D01*
X162277086Y-68087260D01*
X162303267Y-68082654D01*
X162333265Y-68077429D01*
X162358364Y-68073899D01*
X162370218Y-68072939D01*
X162381058Y-68073850D01*
X162379899Y-68079545D01*
X162371091Y-68089754D01*
X162353754Y-68101233D01*
X162325901Y-68111871D01*
X162306257Y-68116857D01*
X162276728Y-68124150D01*
X162262875Y-68130177D01*
X162263459Y-68134572D01*
X162277240Y-68136968D01*
X162302979Y-68136998D01*
X162339437Y-68134296D01*
X162358121Y-68132201D01*
X162397833Y-68126978D01*
X162425490Y-68121773D01*
X162445893Y-68114887D01*
X162463840Y-68104618D01*
X162484127Y-68089266D01*
X162487941Y-68086201D01*
X162526528Y-68056012D01*
X162566861Y-68026532D01*
X162611544Y-67996041D01*
X162663181Y-67962820D01*
X162724375Y-67925152D01*
X162797728Y-67881317D01*
X162802967Y-67878220D01*
X162851467Y-67849454D01*
X162896306Y-67822644D01*
X162934976Y-67799307D01*
X162964968Y-67780959D01*
X162983776Y-67769118D01*
X162987360Y-67766716D01*
X163005554Y-67756974D01*
X163018584Y-67755171D01*
X163019374Y-67755553D01*
X163032115Y-67754378D01*
X163056355Y-67743545D01*
X163090382Y-67724002D01*
X163132485Y-67696693D01*
X163158685Y-67678549D01*
X163191135Y-67657701D01*
X163231619Y-67634618D01*
X163272540Y-67613581D01*
X163281493Y-67609353D01*
X163315014Y-67592950D01*
X163358340Y-67570431D01*
X163406717Y-67544335D01*
X163455388Y-67517200D01*
X163473606Y-67506779D01*
X163527572Y-67477072D01*
X163530061Y-67475791D01*
X163679559Y-67475791D01*
X163683794Y-67480026D01*
X163688029Y-67475791D01*
X163683794Y-67471556D01*
X163679559Y-67475791D01*
X163530061Y-67475791D01*
X163590239Y-67444816D01*
X163654499Y-67413549D01*
X163713246Y-67386808D01*
X163723456Y-67382422D01*
X163770085Y-67362537D01*
X163814151Y-67343579D01*
X163852015Y-67327125D01*
X163880035Y-67314753D01*
X163890393Y-67310047D01*
X163918413Y-67299648D01*
X163934454Y-67299939D01*
X163935939Y-67301074D01*
X163932646Y-67308650D01*
X163913907Y-67322139D01*
X163880061Y-67341319D01*
X163852147Y-67355716D01*
X163804295Y-67380900D01*
X163763432Y-67404614D01*
X163731425Y-67425590D01*
X163710145Y-67442556D01*
X163701457Y-67454243D01*
X163702295Y-67457592D01*
X163712191Y-67456077D01*
X163735360Y-67446088D01*
X163770739Y-67428172D01*
X163817264Y-67402873D01*
X163873871Y-67370739D01*
X163891296Y-67360641D01*
X163930305Y-67339566D01*
X163961433Y-67326018D01*
X163982803Y-67320633D01*
X163992535Y-67324045D01*
X163992930Y-67326236D01*
X163986446Y-67337415D01*
X163978109Y-67343836D01*
X163970484Y-67350675D01*
X163973874Y-67352726D01*
X163984234Y-67356643D01*
X163979347Y-67367388D01*
X163959380Y-67384765D01*
X163927292Y-67406793D01*
X163894818Y-67429161D01*
X163856103Y-67458036D01*
X163817507Y-67488607D01*
X163801420Y-67502019D01*
X163756572Y-67539905D01*
X163716504Y-67572920D01*
X163679059Y-67602539D01*
X163642080Y-67630235D01*
X163603409Y-67657482D01*
X163560891Y-67685754D01*
X163512367Y-67716525D01*
X163455682Y-67751269D01*
X163388677Y-67791459D01*
X163309196Y-67838570D01*
X163306902Y-67839926D01*
X163262295Y-67866729D01*
X163217390Y-67894518D01*
X163174123Y-67922000D01*
X163134429Y-67947882D01*
X163100243Y-67970872D01*
X163073501Y-67989676D01*
X163056137Y-68003002D01*
X163050087Y-68009557D01*
X163052817Y-68009667D01*
X163109705Y-67996691D01*
X163155575Y-67993233D01*
X163193298Y-67999122D01*
X163198598Y-68000859D01*
X163262119Y-68016450D01*
X163330452Y-68019512D01*
X163406317Y-68010057D01*
X163442413Y-68002026D01*
X163484415Y-67990548D01*
X163525115Y-67977609D01*
X163558657Y-67965152D01*
X163573008Y-67958669D01*
X163601110Y-67946497D01*
X163627131Y-67938791D01*
X163638360Y-67937378D01*
X163663057Y-67933953D01*
X163689529Y-67925701D01*
X163689859Y-67925562D01*
X163714546Y-67916811D01*
X163746564Y-67907638D01*
X163764254Y-67903347D01*
X163806824Y-67892653D01*
X163851778Y-67879371D01*
X163895370Y-67864828D01*
X163933856Y-67850350D01*
X163963490Y-67837263D01*
X163980527Y-67826893D01*
X163980772Y-67826669D01*
X163997789Y-67814454D01*
X164010415Y-67810070D01*
X164023883Y-67806343D01*
X164047149Y-67796867D01*
X164073175Y-67784662D01*
X164101035Y-67771699D01*
X164124127Y-67762525D01*
X164136696Y-67759250D01*
X164153362Y-67754171D01*
X164166056Y-67746545D01*
X164185157Y-67736638D01*
X164197596Y-67734111D01*
X164211771Y-67730478D01*
X164236440Y-67720797D01*
X164267098Y-67706894D01*
X164278555Y-67701296D01*
X164309989Y-67685821D01*
X164336589Y-67673069D01*
X164353985Y-67665123D01*
X164357118Y-67663852D01*
X164363435Y-67659710D01*
X164359236Y-67658554D01*
X164350471Y-67650912D01*
X164348649Y-67641806D01*
X164350954Y-67633138D01*
X164360157Y-67627323D01*
X164379686Y-67623116D01*
X164409837Y-67619582D01*
X164442723Y-67615010D01*
X164470727Y-67608867D01*
X164487918Y-67602460D01*
X164488179Y-67602294D01*
X164504738Y-67594969D01*
X164532196Y-67586163D01*
X164564836Y-67577693D01*
X164567344Y-67577119D01*
X164601213Y-67568562D01*
X164631366Y-67559390D01*
X164651493Y-67551532D01*
X164652039Y-67551252D01*
X164673018Y-67542583D01*
X164688479Y-67539365D01*
X164703432Y-67535382D01*
X164726471Y-67525268D01*
X164741167Y-67517552D01*
X164777063Y-67502333D01*
X164817388Y-67492250D01*
X164827305Y-67490920D01*
X164855501Y-67488883D01*
X164873565Y-67491235D01*
X164888090Y-67499693D01*
X164899098Y-67509604D01*
X164923685Y-67533160D01*
X164903434Y-67573123D01*
X164867656Y-67625922D01*
X164815351Y-67675862D01*
X164746722Y-67722768D01*
X164710173Y-67743044D01*
X164670210Y-67764358D01*
X164630837Y-67786145D01*
X164597429Y-67805392D01*
X164580463Y-67815745D01*
X164556885Y-67830173D01*
X164522638Y-67850362D01*
X164481882Y-67873893D01*
X164438782Y-67898344D01*
X164428013Y-67904382D01*
X164381291Y-67931086D01*
X164332410Y-67959999D01*
X164286863Y-67987814D01*
X164250145Y-68011226D01*
X164247015Y-68013301D01*
X164187023Y-68051969D01*
X164129717Y-68085813D01*
X164069787Y-68117732D01*
X164001919Y-68150626D01*
X163961090Y-68169368D01*
X163932102Y-68181967D01*
X163892595Y-68198395D01*
X163844790Y-68217792D01*
X163790911Y-68239300D01*
X163733179Y-68262059D01*
X163673818Y-68285212D01*
X163615049Y-68307898D01*
X163559096Y-68329260D01*
X163508180Y-68348439D01*
X163464525Y-68364575D01*
X163430352Y-68376810D01*
X163407884Y-68384285D01*
X163399806Y-68386261D01*
X163394042Y-68378900D01*
X163391597Y-68361166D01*
X163391596Y-68360853D01*
X163388058Y-68341565D01*
X163377018Y-68336319D01*
X163357838Y-68345150D01*
X163334452Y-68363933D01*
X163292961Y-68395800D01*
X163248625Y-68417562D01*
X163213737Y-68428566D01*
X163187560Y-68437591D01*
X163153390Y-68452071D01*
X163117977Y-68469114D01*
X163112807Y-68471801D01*
X163082543Y-68487042D01*
X163057226Y-68498562D01*
X163041143Y-68504451D01*
X163038699Y-68504834D01*
X163028659Y-68511627D01*
X163027408Y-68517321D01*
X163019321Y-68531795D01*
X162996465Y-68544009D01*
X162960950Y-68553146D01*
X162923074Y-68557828D01*
X162884176Y-68562798D01*
X162858412Y-68571213D01*
X162846849Y-68579140D01*
X162825535Y-68595554D01*
X162798339Y-68610513D01*
X162763536Y-68624527D01*
X162719397Y-68638104D01*
X162664196Y-68651755D01*
X162596207Y-68665988D01*
X162513703Y-68681313D01*
X162481126Y-68687020D01*
X162427038Y-68696698D01*
X162376387Y-68706353D01*
X162332405Y-68715321D01*
X162298326Y-68722941D01*
X162277385Y-68728551D01*
X162276057Y-68729004D01*
X162244123Y-68738683D01*
X162211216Y-68746269D01*
X162205847Y-68747200D01*
X162186982Y-68752553D01*
X162167927Y-68763480D01*
X162147356Y-68781502D01*
X162123941Y-68808137D01*
X162096355Y-68844907D01*
X162063273Y-68893330D01*
X162023366Y-68954927D01*
X162020327Y-68959702D01*
X161963293Y-69051480D01*
X161916104Y-69132834D01*
X161877887Y-69206457D01*
X161847773Y-69275045D01*
X161824888Y-69341291D01*
X161808361Y-69407890D01*
X161797320Y-69477536D01*
X161790895Y-69552923D01*
X161788212Y-69636745D01*
X161787994Y-69677859D01*
X161789534Y-69764115D01*
X161794527Y-69837102D01*
X161803839Y-69900292D01*
X161818337Y-69957156D01*
X161838885Y-70011164D01*
X161866349Y-70065788D01*
X161897912Y-70118691D01*
X161954330Y-70202272D01*
X162007989Y-70269809D01*
X162058688Y-70321054D01*
X162076233Y-70335511D01*
X162099920Y-70350946D01*
X162136178Y-70371052D01*
X162181799Y-70394334D01*
X162233577Y-70419294D01*
X162288306Y-70444438D01*
X162342781Y-70468270D01*
X162393793Y-70489294D01*
X162438137Y-70506014D01*
X162451483Y-70510570D01*
X162475850Y-70517247D01*
X162513720Y-70525945D01*
X162561872Y-70536003D01*
X162617082Y-70546760D01*
X162676128Y-70557556D01*
X162705568Y-70562674D01*
X162766959Y-70573198D01*
X162827665Y-70583683D01*
X162884068Y-70593498D01*
X162932549Y-70602013D01*
X162969489Y-70608596D01*
X162980826Y-70610658D01*
X163013744Y-70615961D01*
X163046780Y-70619421D01*
X163083713Y-70621177D01*
X163128319Y-70621368D01*
X163184376Y-70620131D01*
X163213737Y-70619166D01*
X163268438Y-70617052D01*
X163321792Y-70614642D01*
X163369684Y-70612146D01*
X163408000Y-70609775D01*
X163428742Y-70608135D01*
X163459705Y-70605748D01*
X163476921Y-70606191D01*
X163483399Y-70609818D01*
X163483130Y-70614522D01*
X163472540Y-70624655D01*
X163458689Y-70628921D01*
X163442184Y-70631491D01*
X163413426Y-70636523D01*
X163376789Y-70643233D01*
X163345014Y-70649235D01*
X163306511Y-70655930D01*
X163268780Y-70660811D01*
X163227996Y-70664139D01*
X163180333Y-70666174D01*
X163121965Y-70667176D01*
X163078225Y-70667394D01*
X163022721Y-70667050D01*
X162970327Y-70665899D01*
X162924398Y-70664078D01*
X162888289Y-70661725D01*
X162865355Y-70658976D01*
X162863632Y-70658623D01*
X162841832Y-70654680D01*
X162830139Y-70654386D01*
X162829754Y-70656253D01*
X162850523Y-70667081D01*
X162886520Y-70675610D01*
X162936196Y-70681875D01*
X162998004Y-70685910D01*
X163070394Y-70687750D01*
X163151817Y-70687432D01*
X163240725Y-70684990D01*
X163335568Y-70680458D01*
X163434799Y-70673873D01*
X163536868Y-70665270D01*
X163640226Y-70654682D01*
X163743325Y-70642146D01*
X163800648Y-70634248D01*
X163868009Y-70622711D01*
X163944706Y-70606504D01*
X164026609Y-70586748D01*
X164109586Y-70564565D01*
X164189506Y-70541076D01*
X164262239Y-70517402D01*
X164323653Y-70494664D01*
X164340179Y-70487796D01*
X164354462Y-70482354D01*
X164382002Y-70472467D01*
X164420009Y-70459112D01*
X164465695Y-70443268D01*
X164516270Y-70425914D01*
X164526508Y-70422423D01*
X164619320Y-70390359D01*
X164699558Y-70361542D01*
X164770914Y-70334495D01*
X164837082Y-70307740D01*
X164901753Y-70279797D01*
X164968621Y-70249188D01*
X165018843Y-70225322D01*
X165069989Y-70201259D01*
X165121900Y-70177776D01*
X165170284Y-70156749D01*
X165210847Y-70140056D01*
X165232572Y-70131856D01*
X165268267Y-70118826D01*
X165300504Y-70106298D01*
X165323980Y-70096359D01*
X165329412Y-70093741D01*
X165362512Y-70085130D01*
X165387970Y-70085990D01*
X165397293Y-70086638D01*
X165407992Y-70085720D01*
X165421531Y-70082609D01*
X165439375Y-70076682D01*
X165462986Y-70067315D01*
X165493830Y-70053881D01*
X165533370Y-70035756D01*
X165583070Y-70012316D01*
X165644394Y-69982936D01*
X165718806Y-69946991D01*
X165756535Y-69928709D01*
X165826457Y-69894869D01*
X165891666Y-69863427D01*
X165950587Y-69835134D01*
X166001646Y-69810740D01*
X166043269Y-69790997D01*
X166073880Y-69776653D01*
X166091905Y-69768462D01*
X166096169Y-69766788D01*
X166100491Y-69774026D01*
X166101833Y-69787153D01*
X166100270Y-69795042D01*
X166094292Y-69803327D01*
X166081971Y-69813256D01*
X166061376Y-69826074D01*
X166030578Y-69843026D01*
X165987645Y-69865359D01*
X165954602Y-69882192D01*
X165907536Y-69906624D01*
X165867632Y-69928437D01*
X165836902Y-69946449D01*
X165817360Y-69959482D01*
X165811016Y-69966353D01*
X165811039Y-69966423D01*
X165804869Y-69972930D01*
X165785320Y-69985962D01*
X165754171Y-70004483D01*
X165713202Y-70027459D01*
X165664192Y-70053854D01*
X165630077Y-70071725D01*
X165576710Y-70099627D01*
X165526522Y-70126290D01*
X165482082Y-70150315D01*
X165445961Y-70170304D01*
X165420729Y-70184859D01*
X165411570Y-70190616D01*
X165394800Y-70200425D01*
X165365093Y-70216080D01*
X165324903Y-70236360D01*
X165276686Y-70260042D01*
X165222896Y-70285902D01*
X165172022Y-70309903D01*
X165118085Y-70335343D01*
X165070022Y-70358453D01*
X165029722Y-70378287D01*
X164999075Y-70393900D01*
X164979970Y-70404348D01*
X164974298Y-70408686D01*
X164974363Y-70408715D01*
X164984827Y-70406226D01*
X165006776Y-70397397D01*
X165036682Y-70383732D01*
X165061460Y-70371591D01*
X165104195Y-70350879D01*
X165145987Y-70332551D01*
X165191441Y-70314781D01*
X165216376Y-70305945D01*
X165504545Y-70305945D01*
X165507292Y-70308836D01*
X165519144Y-70304553D01*
X165540808Y-70293234D01*
X165567956Y-70277169D01*
X165572698Y-70274198D01*
X165598747Y-70257318D01*
X165618095Y-70243964D01*
X165627244Y-70236572D01*
X165627542Y-70236013D01*
X165620913Y-70238031D01*
X165603765Y-70246368D01*
X165580207Y-70258806D01*
X165554350Y-70273124D01*
X165530303Y-70287101D01*
X165513437Y-70297665D01*
X165504545Y-70305945D01*
X165216376Y-70305945D01*
X165245162Y-70295744D01*
X165293851Y-70279470D01*
X165321143Y-70268698D01*
X165353961Y-70253280D01*
X165374311Y-70242548D01*
X165402258Y-70228375D01*
X165636011Y-70228375D01*
X165640246Y-70232610D01*
X165644481Y-70228375D01*
X165640246Y-70224141D01*
X165636011Y-70228375D01*
X165402258Y-70228375D01*
X165403552Y-70227719D01*
X165442001Y-70210226D01*
X165482909Y-70193093D01*
X165497324Y-70187448D01*
X165523681Y-70176451D01*
X165562693Y-70158945D01*
X165611913Y-70136088D01*
X165668892Y-70109037D01*
X165731182Y-70078953D01*
X165796333Y-70046991D01*
X165838221Y-70026177D01*
X165908477Y-69991151D01*
X165965080Y-69963155D01*
X166009491Y-69941568D01*
X166043170Y-69925770D01*
X166067577Y-69915140D01*
X166084173Y-69909058D01*
X166094418Y-69906902D01*
X166099773Y-69908053D01*
X166101697Y-69911889D01*
X166101833Y-69914138D01*
X166099971Y-69922008D01*
X166093134Y-69930735D01*
X166079445Y-69941567D01*
X166057026Y-69955754D01*
X166024001Y-69974542D01*
X165978492Y-69999182D01*
X165955734Y-70011294D01*
X165888983Y-70046923D01*
X165836707Y-70075358D01*
X165798260Y-70097034D01*
X165772992Y-70112383D01*
X165760255Y-70121837D01*
X165759400Y-70125831D01*
X165769778Y-70124796D01*
X165790741Y-70119165D01*
X165796932Y-70117284D01*
X165812677Y-70114108D01*
X165814718Y-70118089D01*
X165804198Y-70128236D01*
X165782262Y-70143558D01*
X165750056Y-70163063D01*
X165732894Y-70172732D01*
X165700734Y-70191142D01*
X165675547Y-70206805D01*
X165660134Y-70217893D01*
X165656810Y-70222354D01*
X165665949Y-70221633D01*
X165671724Y-70217224D01*
X165686016Y-70207853D01*
X165694299Y-70212287D01*
X165695298Y-70218780D01*
X165688719Y-70229744D01*
X165671925Y-70244933D01*
X165659302Y-70253943D01*
X165633592Y-70272203D01*
X165602580Y-70296207D01*
X165576725Y-70317589D01*
X165544369Y-70342719D01*
X165505472Y-70369124D01*
X165470856Y-70389728D01*
X165435985Y-70409435D01*
X165401162Y-70430479D01*
X165373831Y-70448359D01*
X165373457Y-70448621D01*
X165349133Y-70464466D01*
X165312943Y-70486417D01*
X165268027Y-70512718D01*
X165217522Y-70541609D01*
X165164565Y-70571332D01*
X165112293Y-70600130D01*
X165063846Y-70626244D01*
X165022359Y-70647916D01*
X164990972Y-70663387D01*
X164986622Y-70665385D01*
X164963970Y-70675445D01*
X164928302Y-70691073D01*
X164882172Y-70711159D01*
X164828133Y-70734595D01*
X164768738Y-70760273D01*
X164706540Y-70787083D01*
X164691663Y-70793484D01*
X164563213Y-70848131D01*
X164447519Y-70895877D01*
X164342195Y-70937407D01*
X164244853Y-70973412D01*
X164153107Y-71004579D01*
X164064571Y-71031597D01*
X163976856Y-71055153D01*
X163887578Y-71075936D01*
X163794348Y-71094634D01*
X163694780Y-71111935D01*
X163586488Y-71128529D01*
X163476765Y-71143805D01*
X163437913Y-71149262D01*
X163405375Y-71154286D01*
X163382743Y-71158291D01*
X163373763Y-71160572D01*
X163363582Y-71162781D01*
X163339723Y-71166305D01*
X163305359Y-71170720D01*
X163263662Y-71175605D01*
X163246248Y-71177530D01*
X163189676Y-71183999D01*
X163142188Y-71190063D01*
X163105263Y-71195476D01*
X163080382Y-71199995D01*
X163069025Y-71203376D01*
X163072671Y-71205373D01*
X163076108Y-71205627D01*
X163092172Y-71209441D01*
X163093625Y-71216482D01*
X163081627Y-71223795D01*
X163067638Y-71227219D01*
X163049678Y-71229573D01*
X163018570Y-71233091D01*
X162978032Y-71237374D01*
X162931783Y-71242024D01*
X162908836Y-71244251D01*
X162857210Y-71249107D01*
X162811294Y-71253171D01*
X162766909Y-71256756D01*
X162719878Y-71260176D01*
X162666020Y-71263743D01*
X162601159Y-71267770D01*
X162570056Y-71269649D01*
X162535800Y-71270294D01*
X162503712Y-71268561D01*
X162485361Y-71265774D01*
X162467309Y-71262175D01*
X162435920Y-71256717D01*
X162394624Y-71249964D01*
X162346850Y-71242480D01*
X162307502Y-71236529D01*
X162266049Y-71230062D01*
X162743680Y-71230062D01*
X162781793Y-71230046D01*
X162811576Y-71229028D01*
X162848607Y-71226415D01*
X162874958Y-71223842D01*
X162930009Y-71217654D01*
X162870723Y-71216851D01*
X162834673Y-71217472D01*
X162800097Y-71219895D01*
X162777558Y-71223055D01*
X162743680Y-71230062D01*
X162266049Y-71230062D01*
X162223961Y-71223496D01*
X162157565Y-71211688D01*
X162967603Y-71211688D01*
X162979315Y-71213024D01*
X162985061Y-71213106D01*
X163000470Y-71212223D01*
X163002286Y-71210025D01*
X162999883Y-71209233D01*
X162978402Y-71207916D01*
X162970239Y-71209233D01*
X162967603Y-71211688D01*
X162157565Y-71211688D01*
X162153112Y-71210896D01*
X162090772Y-71197708D01*
X162032757Y-71182916D01*
X161974881Y-71165500D01*
X161912962Y-71144444D01*
X161879793Y-71132458D01*
X161796020Y-71100660D01*
X161725803Y-71071161D01*
X161666271Y-71042128D01*
X161614551Y-71011727D01*
X161567774Y-70978126D01*
X161523066Y-70939490D01*
X161477556Y-70893988D01*
X161437434Y-70850048D01*
X161364714Y-70763908D01*
X161343926Y-70735834D01*
X161443614Y-70735834D01*
X161449817Y-70753569D01*
X161466589Y-70778340D01*
X161491177Y-70806724D01*
X161520827Y-70835297D01*
X161529778Y-70842961D01*
X161554156Y-70862797D01*
X161573308Y-70877538D01*
X161583754Y-70884527D01*
X161584512Y-70884761D01*
X161582422Y-70878911D01*
X161572091Y-70863989D01*
X161563564Y-70853000D01*
X161545470Y-70831856D01*
X161523124Y-70807774D01*
X161499282Y-70783446D01*
X161476702Y-70761566D01*
X161458141Y-70744826D01*
X161446356Y-70735920D01*
X161443614Y-70735834D01*
X161343926Y-70735834D01*
X161305101Y-70683403D01*
X161257073Y-70605622D01*
X161219109Y-70527658D01*
X161189689Y-70446602D01*
X161167292Y-70359544D01*
X161159110Y-70317696D01*
X161153508Y-70276805D01*
X161148742Y-70223468D01*
X161144905Y-70161358D01*
X161144419Y-70149777D01*
X161241105Y-70149777D01*
X161243171Y-70172973D01*
X161247504Y-70209610D01*
X161249162Y-70222906D01*
X161271610Y-70335459D01*
X161309775Y-70442963D01*
X161362927Y-70543445D01*
X161373704Y-70560143D01*
X161392445Y-70587408D01*
X161403813Y-70601863D01*
X161407305Y-70603086D01*
X161402422Y-70590655D01*
X161396995Y-70579788D01*
X161388726Y-70560699D01*
X161376544Y-70528599D01*
X161361510Y-70486667D01*
X161344685Y-70438084D01*
X161327131Y-70386029D01*
X161309909Y-70333683D01*
X161294080Y-70284226D01*
X161280706Y-70240838D01*
X161270847Y-70206699D01*
X161266028Y-70187344D01*
X161259363Y-70160626D01*
X161252460Y-70141289D01*
X161248246Y-70134859D01*
X161243670Y-70133318D01*
X161241281Y-70137425D01*
X161241105Y-70149777D01*
X161144419Y-70149777D01*
X161142087Y-70094147D01*
X161140382Y-70025511D01*
X161139881Y-69959121D01*
X161140675Y-69898653D01*
X161142858Y-69847778D01*
X161146430Y-69810785D01*
X161161748Y-69732622D01*
X161185087Y-69647722D01*
X161214338Y-69562921D01*
X161246330Y-69487295D01*
X161271276Y-69433250D01*
X161288722Y-69392621D01*
X161299200Y-69363906D01*
X161303237Y-69345607D01*
X161301364Y-69336222D01*
X161300079Y-69335120D01*
X161297378Y-69324218D01*
X161304153Y-69306027D01*
X161313715Y-69286645D01*
X161315249Y-69277937D01*
X161308717Y-69275638D01*
X161303867Y-69275558D01*
X161292502Y-69271327D01*
X161294731Y-69258444D01*
X161310700Y-69236622D01*
X161338565Y-69207513D01*
X161365889Y-69178842D01*
X161397468Y-69142710D01*
X161427791Y-69105499D01*
X161437041Y-69093464D01*
X161466218Y-69057146D01*
X161502159Y-69015878D01*
X161539123Y-68976136D01*
X161557122Y-68957952D01*
X161589627Y-68925236D01*
X161621889Y-68891399D01*
X161649382Y-68861253D01*
X161662703Y-68845731D01*
X161699276Y-68801266D01*
X161542093Y-68801266D01*
X161424067Y-68798746D01*
X161319542Y-68790982D01*
X161225813Y-68777666D01*
X161140177Y-68758494D01*
X161123518Y-68753853D01*
X161081550Y-68740256D01*
X161032086Y-68721844D01*
X160978641Y-68700175D01*
X160924726Y-68676805D01*
X160873854Y-68653289D01*
X160829539Y-68631184D01*
X160795293Y-68612045D01*
X160779449Y-68601442D01*
X160753902Y-68578957D01*
X160721425Y-68545976D01*
X160684885Y-68505826D01*
X160647148Y-68461830D01*
X160611081Y-68417312D01*
X160579551Y-68375596D01*
X160559417Y-68346314D01*
X160551053Y-68331210D01*
X163400066Y-68331210D01*
X163404301Y-68335444D01*
X163408535Y-68331210D01*
X163404301Y-68326975D01*
X163400066Y-68331210D01*
X160551053Y-68331210D01*
X160499482Y-68238077D01*
X160455059Y-68123509D01*
X160450035Y-68106768D01*
X160443063Y-68080409D01*
X160438077Y-68054685D01*
X160434765Y-68025983D01*
X160432814Y-67990688D01*
X160431913Y-67945189D01*
X160431738Y-67895031D01*
X160432023Y-67838413D01*
X160433068Y-67794560D01*
X160435275Y-67759302D01*
X160439046Y-67728470D01*
X160444781Y-67697894D01*
X160452883Y-67663404D01*
X160454750Y-67655954D01*
X160468201Y-67606726D01*
X160484719Y-67552179D01*
X160501541Y-67501268D01*
X160508325Y-67482329D01*
X160523573Y-67444460D01*
X160544903Y-67396068D01*
X160570784Y-67340235D01*
X160599681Y-67280044D01*
X160630063Y-67218577D01*
X160660397Y-67158915D01*
X160689150Y-67104140D01*
X160714789Y-67057335D01*
X160735782Y-67021581D01*
X160743157Y-67010137D01*
X160808573Y-66917294D01*
X160877558Y-66828080D01*
X160952727Y-66739425D01*
X161036697Y-66648259D01*
X161132085Y-66551512D01*
X161144214Y-66539587D01*
X161361603Y-66337760D01*
X161587714Y-66149849D01*
X161821933Y-65976309D01*
X162063646Y-65817594D01*
X162312239Y-65674159D01*
X162315971Y-65672151D01*
X162368096Y-65644027D01*
X162425177Y-65613052D01*
X162481104Y-65582554D01*
X162529766Y-65555859D01*
X162540322Y-65550036D01*
X162641864Y-65493931D01*
X162874866Y-65491717D01*
X162948692Y-65491226D01*
X163006267Y-65491381D01*
G37*
D12*
X135132141Y-79900000D02*
X134824859Y-79900000D01*
X135132141Y-80660000D02*
X134824859Y-80660000D01*
X104151359Y-81210000D02*
X104458641Y-81210000D01*
X104151359Y-81970000D02*
X104458641Y-81970000D01*
X140690000Y-77534420D02*
X140690000Y-77815580D01*
X141710000Y-77534420D02*
X141710000Y-77815580D01*
X124230000Y-101710000D02*
X124230000Y-104470000D01*
X131960000Y-101710000D02*
X124230000Y-101710000D01*
X131960000Y-101710000D02*
X131960000Y-104470000D01*
X131960000Y-104470000D02*
X124230000Y-104470000D01*
X133230000Y-101710000D02*
X134610000Y-101710000D01*
X134610000Y-101710000D02*
X134610000Y-103090000D01*
X90925000Y-90935000D02*
X88975000Y-90935000D01*
X90925000Y-90935000D02*
X92875000Y-90935000D01*
X90925000Y-101055000D02*
X88975000Y-101055000D01*
X90925000Y-101055000D02*
X92875000Y-101055000D01*
X88225000Y-90990000D02*
X87985000Y-90660000D01*
X88465000Y-90660000D01*
X88225000Y-90990000D01*
G36*
X88225000Y-90990000D02*
G01*
X87985000Y-90660000D01*
X88465000Y-90660000D01*
X88225000Y-90990000D01*
G37*
X119275000Y-93446359D02*
X119275000Y-93753641D01*
X120035000Y-93446359D02*
X120035000Y-93753641D01*
X142220000Y-78036359D02*
X142220000Y-78343641D01*
X142980000Y-78036359D02*
X142980000Y-78343641D01*
D10*
X159510000Y-82190000D02*
X159970000Y-82190000D01*
X159510000Y-87190000D02*
X159510000Y-82190000D01*
X159970000Y-87190000D02*
X159510000Y-87190000D01*
X160530000Y-82190000D02*
X161260000Y-82190000D01*
X161260000Y-87190000D02*
X160540000Y-87190000D01*
X161820000Y-82190000D02*
X162520000Y-82190000D01*
X162530000Y-87190000D02*
X161800000Y-87190000D01*
X163080000Y-82190000D02*
X163800000Y-82190000D01*
X163800000Y-87190000D02*
X163070000Y-87190000D01*
X164360000Y-82190000D02*
X164820000Y-82190000D01*
X164820000Y-82190000D02*
X164820000Y-87190000D01*
X164820000Y-87190000D02*
X164350000Y-87190000D01*
D11*
X160080000Y-86560000D02*
G75*
G02*
X159880000Y-86560000I-100000J0D01*
G01*
X159880000Y-86560000D02*
G75*
G02*
X160080000Y-86560000I100000J0D01*
G01*
D12*
X160623641Y-100785000D02*
X160316359Y-100785000D01*
X160623641Y-101545000D02*
X160316359Y-101545000D01*
X117695000Y-98359420D02*
X117695000Y-98640580D01*
X118715000Y-98359420D02*
X118715000Y-98640580D01*
X140620000Y-82546359D02*
X140620000Y-82853641D01*
X141380000Y-82546359D02*
X141380000Y-82853641D01*
D10*
X89050000Y-81350000D02*
X94050000Y-81350000D01*
X89050000Y-81810000D02*
X89050000Y-81350000D01*
X89050000Y-83100000D02*
X89050000Y-82380000D01*
X89050000Y-84370000D02*
X89050000Y-83640000D01*
X89050000Y-85640000D02*
X89050000Y-84910000D01*
X89050000Y-86660000D02*
X89050000Y-86190000D01*
X94050000Y-81350000D02*
X94050000Y-81810000D01*
X94050000Y-82370000D02*
X94050000Y-83100000D01*
X94050000Y-83660000D02*
X94050000Y-84360000D01*
X94050000Y-84920000D02*
X94050000Y-85640000D01*
X94050000Y-86200000D02*
X94050000Y-86660000D01*
X94050000Y-86660000D02*
X89050000Y-86660000D01*
D11*
X89780000Y-81820000D02*
G75*
G02*
X89580000Y-81820000I-100000J0D01*
G01*
X89580000Y-81820000D02*
G75*
G02*
X89780000Y-81820000I100000J0D01*
G01*
X113055000Y-96950000D02*
X113955000Y-96950000D01*
X114305000Y-97000000D02*
X115505000Y-97000000D01*
X114305000Y-99900000D02*
X114305000Y-97000000D01*
X115505000Y-97000000D02*
X115505000Y-99900000D01*
X115505000Y-99900000D02*
X114305000Y-99900000D01*
D12*
X119295000Y-91317836D02*
X119295000Y-91102164D01*
X120015000Y-91317836D02*
X120015000Y-91102164D01*
X77585000Y-92180000D02*
X77585000Y-92115000D01*
X77585000Y-98685000D02*
X77585000Y-98620000D01*
X81215000Y-92115000D02*
X77585000Y-92115000D01*
X81215000Y-92180000D02*
X81215000Y-92115000D01*
X81215000Y-98685000D02*
X77585000Y-98685000D01*
X81215000Y-98685000D02*
X81215000Y-98620000D01*
X82490000Y-98620000D02*
X81215000Y-98620000D01*
X138890000Y-82159420D02*
X138890000Y-82440580D01*
X139910000Y-82159420D02*
X139910000Y-82440580D01*
X149640000Y-76121252D02*
X149640000Y-74698748D01*
X151460000Y-76121252D02*
X151460000Y-74698748D01*
D15*
G36*
X147150097Y-70834303D02*
G01*
X147373214Y-70834998D01*
X147717485Y-70836555D01*
X148011846Y-70838477D01*
X148259743Y-70840851D01*
X148464626Y-70843761D01*
X148629943Y-70847294D01*
X148759144Y-70851537D01*
X148855678Y-70856575D01*
X148922992Y-70862494D01*
X148964537Y-70869381D01*
X148980637Y-70875104D01*
X149012935Y-70911568D01*
X149066507Y-70995776D01*
X149140820Y-71126773D01*
X149235341Y-71303601D01*
X149349535Y-71525302D01*
X149411916Y-71648843D01*
X149503125Y-71831712D01*
X149585369Y-71998978D01*
X149655865Y-72144794D01*
X149711829Y-72263309D01*
X149750481Y-72348674D01*
X149769037Y-72395039D01*
X149770040Y-72401681D01*
X149739607Y-72407028D01*
X149667144Y-72411354D01*
X149563978Y-72414173D01*
X149458823Y-72415021D01*
X149160819Y-72415021D01*
X149041304Y-72188235D01*
X148985748Y-72080564D01*
X148950758Y-72000703D01*
X148931548Y-71929509D01*
X148923330Y-71847839D01*
X148921321Y-71736548D01*
X148921240Y-71707983D01*
X148919462Y-71584619D01*
X148912991Y-71500382D01*
X148899171Y-71441076D01*
X148875343Y-71392507D01*
X148857074Y-71365319D01*
X148794602Y-71301495D01*
X148710287Y-71245710D01*
X148617105Y-71202845D01*
X148528030Y-71177782D01*
X148456035Y-71175403D01*
X148415028Y-71198998D01*
X148379986Y-71222651D01*
X148326742Y-71240494D01*
X148265280Y-71271990D01*
X148199613Y-71330467D01*
X148180304Y-71353565D01*
X148132921Y-71428998D01*
X148111257Y-71508030D01*
X148106932Y-71593541D01*
X148121414Y-71735819D01*
X148169690Y-71845831D01*
X148259010Y-71937602D01*
X148300019Y-71967142D01*
X148386236Y-72040797D01*
X148459191Y-72142078D01*
X148498607Y-72215936D01*
X148537742Y-72302485D01*
X148561828Y-72369951D01*
X148566180Y-72404973D01*
X148565309Y-72406218D01*
X148532703Y-72412253D01*
X148458757Y-72414573D01*
X148355373Y-72413057D01*
X148264844Y-72409286D01*
X147982525Y-72394476D01*
X147764581Y-71957639D01*
X147694970Y-71816056D01*
X147634558Y-71689248D01*
X147587162Y-71585556D01*
X147556602Y-71513320D01*
X147546638Y-71481675D01*
X147525013Y-71443623D01*
X147472498Y-71404273D01*
X147467921Y-71401840D01*
X147434862Y-71389140D01*
X147386522Y-71379276D01*
X147316620Y-71371923D01*
X147218875Y-71366758D01*
X147087008Y-71363454D01*
X146914737Y-71361689D01*
X146695783Y-71361136D01*
X146680510Y-71361134D01*
X145971816Y-71361134D01*
X145882527Y-71501208D01*
X145839873Y-71575129D01*
X145781908Y-71685362D01*
X145714938Y-71819431D01*
X145645267Y-71964861D01*
X145612818Y-72034821D01*
X145432397Y-72428361D01*
X145126580Y-72428361D01*
X145007074Y-72426741D01*
X144911035Y-72422335D01*
X144848606Y-72415828D01*
X144829656Y-72408351D01*
X144843294Y-72380403D01*
X144877799Y-72310527D01*
X144930272Y-72204571D01*
X144997813Y-72068384D01*
X145077523Y-71907814D01*
X145166501Y-71728708D01*
X145219119Y-71622850D01*
X145581362Y-70894223D01*
X145598949Y-70894223D01*
X145612289Y-70907563D01*
X145625630Y-70894223D01*
X145612289Y-70880882D01*
X145598949Y-70894223D01*
X145581362Y-70894223D01*
X145599689Y-70857360D01*
X145712712Y-70843248D01*
X145759780Y-70840757D01*
X145855051Y-70838607D01*
X145993368Y-70836823D01*
X146169571Y-70835432D01*
X146378503Y-70834459D01*
X146615007Y-70833929D01*
X146873924Y-70833869D01*
X147150097Y-70834303D01*
G37*
G36*
X148219927Y-65977975D02*
G01*
X148303633Y-65982392D01*
X148346851Y-65989098D01*
X148349880Y-65990843D01*
X148360792Y-66023323D01*
X148376752Y-66097445D01*
X148395883Y-66201940D01*
X148416307Y-66325540D01*
X148436145Y-66456976D01*
X148453519Y-66584980D01*
X148464524Y-66678676D01*
X148483580Y-66741426D01*
X148523441Y-66761449D01*
X148593004Y-66771665D01*
X148685284Y-66797818D01*
X148811498Y-66843226D01*
X148849698Y-66857987D01*
X148992149Y-66913589D01*
X149086388Y-66809473D01*
X149145814Y-66742149D01*
X149225898Y-66649200D01*
X149313321Y-66546149D01*
X149354136Y-66497465D01*
X149428721Y-66411241D01*
X149491836Y-66344093D01*
X149535312Y-66304385D01*
X149549581Y-66297360D01*
X149585489Y-66319314D01*
X149649716Y-66366775D01*
X149732860Y-66431961D01*
X149825513Y-66507088D01*
X149918273Y-66584375D01*
X150001733Y-66656039D01*
X150066490Y-66714297D01*
X150103136Y-66751367D01*
X150107983Y-66759427D01*
X150098808Y-66793294D01*
X150073669Y-66866806D01*
X150036142Y-66969952D01*
X149989803Y-67092723D01*
X149977276Y-67125267D01*
X149846570Y-67463528D01*
X149972512Y-67591375D01*
X150044014Y-67666650D01*
X150104676Y-67735239D01*
X150137644Y-67777203D01*
X150176835Y-67835184D01*
X150599923Y-67743348D01*
X150742493Y-67712953D01*
X150865535Y-67687771D01*
X150960183Y-67669531D01*
X151017573Y-67659964D01*
X151030775Y-67659276D01*
X151042186Y-67685948D01*
X151067606Y-67752965D01*
X151103323Y-67850339D01*
X151145624Y-67968082D01*
X151147473Y-67973279D01*
X151256408Y-68279517D01*
X151115756Y-68407677D01*
X151015693Y-68496148D01*
X150902166Y-68592594D01*
X150823536Y-68656959D01*
X150733785Y-68736654D01*
X150684350Y-68799090D01*
X150675800Y-68828956D01*
X150687752Y-68871035D01*
X150699607Y-68879832D01*
X150718919Y-68903367D01*
X150743210Y-68975113D01*
X150772976Y-69096785D01*
X150800452Y-69228147D01*
X150829983Y-69376358D01*
X151129330Y-69436706D01*
X151253877Y-69462188D01*
X151362711Y-69485140D01*
X151443001Y-69502814D01*
X151479330Y-69511667D01*
X151500159Y-69521076D01*
X151513593Y-69540996D01*
X151520498Y-69580447D01*
X151521742Y-69648446D01*
X151518191Y-69754013D01*
X151512986Y-69861638D01*
X151503680Y-70001803D01*
X151491882Y-70113192D01*
X151478706Y-70187321D01*
X151466624Y-70215146D01*
X151429046Y-70229037D01*
X151352713Y-70251186D01*
X151250868Y-70277869D01*
X151192841Y-70292150D01*
X151034096Y-70330433D01*
X150919770Y-70358879D01*
X150842463Y-70380384D01*
X150794775Y-70397843D01*
X150769305Y-70414152D01*
X150758654Y-70432207D01*
X150755421Y-70454903D01*
X150754747Y-70463580D01*
X150744114Y-70516569D01*
X150720078Y-70604782D01*
X150686907Y-70713089D01*
X150668840Y-70768224D01*
X150634068Y-70873135D01*
X150606832Y-70957450D01*
X150590864Y-71009497D01*
X150588235Y-71020233D01*
X150607670Y-71040805D01*
X150659557Y-71085937D01*
X150734268Y-71147375D01*
X150768329Y-71174622D01*
X150863820Y-71251775D01*
X150954291Y-71327163D01*
X151023001Y-71386787D01*
X151033329Y-71396209D01*
X151118235Y-71474823D01*
X150906069Y-71791508D01*
X150830085Y-71904220D01*
X150765271Y-71999027D01*
X150717049Y-72068101D01*
X150690841Y-72103614D01*
X150687760Y-72106678D01*
X150661578Y-72098391D01*
X150594035Y-72076716D01*
X150494546Y-72044681D01*
X150372525Y-72005314D01*
X150334768Y-71993121D01*
X149987920Y-71881080D01*
X149921863Y-71747840D01*
X149891613Y-71686430D01*
X149840128Y-71581449D01*
X149769552Y-71437290D01*
X149682031Y-71258350D01*
X149579709Y-71049023D01*
X149464731Y-70813704D01*
X149339241Y-70556788D01*
X149205385Y-70282670D01*
X149065308Y-69995746D01*
X148921153Y-69700410D01*
X148775066Y-69401058D01*
X148629192Y-69102083D01*
X148485674Y-68807882D01*
X148346659Y-68522850D01*
X148214290Y-68251381D01*
X148090713Y-67997870D01*
X147978071Y-67766712D01*
X147878511Y-67562303D01*
X147794177Y-67389038D01*
X147727212Y-67251310D01*
X147679763Y-67153517D01*
X147668913Y-67131088D01*
X147449192Y-66676357D01*
X147533040Y-66330668D01*
X147610416Y-66011660D01*
X147626680Y-66011660D01*
X147640020Y-66025000D01*
X147653361Y-66011660D01*
X148320377Y-66011660D01*
X148333718Y-66025000D01*
X148347058Y-66011660D01*
X148333718Y-65998319D01*
X148320377Y-66011660D01*
X147653361Y-66011660D01*
X147640020Y-65998319D01*
X147626680Y-66011660D01*
X147610416Y-66011660D01*
X147616888Y-65984979D01*
X147973163Y-65977503D01*
X148106261Y-65976221D01*
X148219927Y-65977975D01*
G37*
G36*
X146783446Y-66494021D02*
G01*
X146835029Y-66526882D01*
X146853515Y-66557953D01*
X146893160Y-66632292D01*
X146951652Y-66745244D01*
X147026682Y-66892154D01*
X147115937Y-67068367D01*
X147217107Y-67269227D01*
X147327880Y-67490079D01*
X147445947Y-67726269D01*
X147568996Y-67973141D01*
X147694716Y-68226040D01*
X147820796Y-68480311D01*
X147944926Y-68731299D01*
X148064794Y-68974349D01*
X148178089Y-69204806D01*
X148282501Y-69418014D01*
X148375718Y-69609319D01*
X148455429Y-69774066D01*
X148519325Y-69907599D01*
X148565093Y-70005263D01*
X148590422Y-70062403D01*
X148591457Y-70064984D01*
X148620643Y-70142082D01*
X148629980Y-70187075D01*
X148619476Y-70217390D01*
X148591538Y-70248050D01*
X148576284Y-70260991D01*
X148555459Y-70271682D01*
X148523985Y-70280412D01*
X148476782Y-70287467D01*
X148408772Y-70293138D01*
X148314875Y-70297712D01*
X148190011Y-70301477D01*
X148029103Y-70304724D01*
X147827069Y-70307739D01*
X147578832Y-70310811D01*
X147462883Y-70312150D01*
X147219257Y-70314329D01*
X146984758Y-70315286D01*
X146766487Y-70315076D01*
X146571546Y-70313751D01*
X146407036Y-70311365D01*
X146280058Y-70307973D01*
X146197713Y-70303627D01*
X146185924Y-70302508D01*
X146084292Y-70290519D01*
X146024116Y-70278364D01*
X145993789Y-70260240D01*
X145981705Y-70230344D01*
X145977801Y-70198457D01*
X145984777Y-70114486D01*
X146013539Y-70005785D01*
X146056816Y-69892381D01*
X146107338Y-69794302D01*
X146141640Y-69747113D01*
X146205402Y-69690466D01*
X146284187Y-69637434D01*
X146292415Y-69632867D01*
X146397800Y-69549049D01*
X146464509Y-69439808D01*
X146492870Y-69316133D01*
X146483213Y-69189016D01*
X146435865Y-69069447D01*
X146351155Y-68968419D01*
X146270954Y-68915194D01*
X146125202Y-68867813D01*
X145984068Y-68872114D01*
X145853602Y-68926440D01*
X145739854Y-69029130D01*
X145709943Y-69069050D01*
X145676429Y-69124561D01*
X145660094Y-69178047D01*
X145657778Y-69248507D01*
X145664860Y-69340002D01*
X145682208Y-69520025D01*
X144962240Y-70973816D01*
X144242273Y-72427608D01*
X143946766Y-72425227D01*
X143822193Y-72422041D01*
X143725534Y-72415245D01*
X143666003Y-72405716D01*
X143651260Y-72397180D01*
X143654866Y-72388340D01*
X144211554Y-72388340D01*
X144224894Y-72401681D01*
X144238235Y-72388340D01*
X144224894Y-72375000D01*
X144211554Y-72388340D01*
X143654866Y-72388340D01*
X143663215Y-72367870D01*
X143699108Y-72291987D01*
X143758979Y-72169452D01*
X143842866Y-72000185D01*
X143950810Y-71784108D01*
X144082851Y-71521141D01*
X144239029Y-71211205D01*
X144419383Y-70854221D01*
X144623953Y-70450110D01*
X144852780Y-69998793D01*
X145105902Y-69500191D01*
X145383359Y-68954224D01*
X145457408Y-68808598D01*
X145573650Y-68581382D01*
X145683718Y-68368851D01*
X145785064Y-68175743D01*
X145875139Y-68006792D01*
X145951394Y-67866737D01*
X146011280Y-67760314D01*
X146052249Y-67692261D01*
X146071487Y-67667394D01*
X146103091Y-67658745D01*
X146133268Y-67661275D01*
X146164949Y-67679370D01*
X146201063Y-67717415D01*
X146244539Y-67779796D01*
X146298308Y-67870901D01*
X146365299Y-67995114D01*
X146448442Y-68156823D01*
X146550665Y-68360412D01*
X146598412Y-68456282D01*
X146704092Y-68669019D01*
X146788348Y-68839922D01*
X146853569Y-68974909D01*
X146902145Y-69079900D01*
X146936465Y-69160814D01*
X146958917Y-69223570D01*
X146971890Y-69274086D01*
X146977774Y-69318283D01*
X146978957Y-69362078D01*
X146978223Y-69397306D01*
X146979491Y-69501820D01*
X146994717Y-69579409D01*
X147030481Y-69655997D01*
X147053787Y-69695038D01*
X147111768Y-69776637D01*
X147172546Y-69826790D01*
X147251513Y-69852989D01*
X147364064Y-69862723D01*
X147399894Y-69863471D01*
X147540900Y-69842661D01*
X147655505Y-69781646D01*
X147739728Y-69688643D01*
X147789588Y-69571870D01*
X147801105Y-69439543D01*
X147770299Y-69299881D01*
X147720756Y-69201099D01*
X147673916Y-69137537D01*
X147632429Y-69098805D01*
X147617997Y-69093277D01*
X147574611Y-69076233D01*
X147520729Y-69023010D01*
X147454163Y-68930473D01*
X147372721Y-68795487D01*
X147274216Y-68614917D01*
X147245304Y-68559664D01*
X147166841Y-68406785D01*
X147080189Y-68234755D01*
X146988370Y-68049882D01*
X146894403Y-67858472D01*
X146801312Y-67666830D01*
X146712116Y-67481264D01*
X146629836Y-67308080D01*
X146557495Y-67153585D01*
X146498114Y-67024084D01*
X146454712Y-66925884D01*
X146430312Y-66865292D01*
X146426050Y-66849544D01*
X146438977Y-66808576D01*
X146472982Y-66737269D01*
X146520898Y-66650557D01*
X146524338Y-66644718D01*
X146578600Y-66557273D01*
X146619255Y-66507125D01*
X146657335Y-66484240D01*
X146703871Y-66478582D01*
X146706968Y-66478571D01*
X146783446Y-66494021D01*
G37*
D12*
X124090000Y-86580000D02*
X124090000Y-87530000D01*
X124090000Y-96800000D02*
X124090000Y-95850000D01*
X125040000Y-86580000D02*
X124090000Y-86580000D01*
X125040000Y-96800000D02*
X124090000Y-96800000D01*
X133360000Y-86580000D02*
X134310000Y-86580000D01*
X133360000Y-96800000D02*
X134310000Y-96800000D01*
X134310000Y-86580000D02*
X134310000Y-87530000D01*
X134310000Y-96800000D02*
X134310000Y-95850000D01*
X135265000Y-96320000D02*
X134585000Y-96320000D01*
X134925000Y-95850000D01*
X135265000Y-96320000D01*
G36*
X135265000Y-96320000D02*
G01*
X134585000Y-96320000D01*
X134925000Y-95850000D01*
X135265000Y-96320000D01*
G37*
X110995000Y-98359420D02*
X110995000Y-98640580D01*
X112015000Y-98359420D02*
X112015000Y-98640580D01*
X104151359Y-82360000D02*
X104458641Y-82360000D01*
X104151359Y-83120000D02*
X104458641Y-83120000D01*
X104151359Y-83510000D02*
X104458641Y-83510000D01*
X104151359Y-84270000D02*
X104458641Y-84270000D01*
%LPC*%
D16*
X89020000Y-76110000D03*
X89020000Y-77380000D03*
X89020000Y-78650000D03*
X89020000Y-79920000D03*
D17*
X93980000Y-79920000D03*
D18*
X94010000Y-78650000D03*
D19*
X94000000Y-77380000D03*
D20*
X94005000Y-76110000D03*
D21*
X91870000Y-78015000D03*
D22*
X86500000Y-98070000D03*
X86500000Y-99090000D03*
D23*
X134488500Y-77480000D03*
X135448500Y-77480000D03*
D24*
X146500000Y-73890000D03*
X146500000Y-75790000D03*
X96100000Y-76350000D03*
X96100000Y-78250000D03*
D25*
X96500000Y-80965000D03*
X96500000Y-82515000D03*
D23*
X157740000Y-101145000D03*
X158700000Y-101145000D03*
D22*
X131150000Y-83220000D03*
X131150000Y-84240000D03*
D26*
X97955000Y-92390000D03*
D27*
X97955000Y-94890000D03*
X97955000Y-97390000D03*
D28*
X99495000Y-77090000D03*
X99495000Y-77590000D03*
X99495000Y-78090000D03*
X99495000Y-78590000D03*
X99495000Y-79090000D03*
X99495000Y-79590000D03*
D29*
X100200000Y-80295000D03*
X100700000Y-80295000D03*
X101200000Y-80295000D03*
X101700000Y-80295000D03*
X102200000Y-80295000D03*
X102700000Y-80295000D03*
D28*
X103405000Y-79590000D03*
X103405000Y-79090000D03*
X103405000Y-78590000D03*
X103405000Y-78090000D03*
X103405000Y-77590000D03*
X103405000Y-77090000D03*
D29*
X102700000Y-76385000D03*
X102200000Y-76385000D03*
X101700000Y-76385000D03*
X101200000Y-76385000D03*
X100700000Y-76385000D03*
X100200000Y-76385000D03*
D30*
X101450000Y-78340000D03*
D31*
X96200000Y-74475000D03*
X96200000Y-71525000D03*
D22*
X126450000Y-99580000D03*
X126450000Y-100600000D03*
D32*
X141556016Y-92876016D03*
X140460000Y-91780000D03*
D33*
X154960000Y-91755000D03*
X154960000Y-90735000D03*
X86520000Y-92740000D03*
X86520000Y-91720000D03*
D34*
X98300000Y-74475000D03*
X98300000Y-72925000D03*
D35*
X170000000Y-69000000D03*
D16*
X157950000Y-79905000D03*
X157950000Y-78635000D03*
X157950000Y-77365000D03*
X157950000Y-76095000D03*
D17*
X152990000Y-76095000D03*
D18*
X152960000Y-77365000D03*
D19*
X152970000Y-78635000D03*
D20*
X152965000Y-79905000D03*
D21*
X155100000Y-78000000D03*
D36*
X169670000Y-82965000D03*
X169670000Y-77965000D03*
D37*
X119800000Y-99570000D03*
X119800000Y-98610000D03*
D38*
X99115000Y-81590000D03*
X98095000Y-81590000D03*
D22*
X128250000Y-99580000D03*
X128250000Y-100600000D03*
D36*
X78400000Y-83255000D03*
X78400000Y-78255000D03*
D39*
X87225000Y-74940000D03*
X85955000Y-74940000D03*
X84685000Y-74940000D03*
X83415000Y-74940000D03*
D40*
X83415000Y-79900000D03*
D41*
X84685000Y-79930000D03*
D42*
X85955000Y-79920000D03*
D43*
X87225000Y-79925000D03*
D44*
X85320000Y-77790000D03*
D22*
X164010000Y-98475000D03*
X164010000Y-99495000D03*
D45*
X129950000Y-83260000D03*
X129950000Y-84220000D03*
D46*
X171550000Y-96540000D03*
X167650000Y-96540000D03*
X171550000Y-95270000D03*
X167650000Y-95270000D03*
X171550000Y-94000000D03*
X167650000Y-94000000D03*
X171550000Y-92730000D03*
X167650000Y-92730000D03*
X171550000Y-91460000D03*
X167650000Y-91460000D03*
D47*
X91570000Y-89980000D03*
X90610000Y-89980000D03*
D48*
X117705000Y-90140000D03*
X114405000Y-90140000D03*
X114405000Y-95040000D03*
X117705000Y-95040000D03*
D32*
X139136016Y-90546016D03*
X138040000Y-89450000D03*
D38*
X125008500Y-79680000D03*
X123988500Y-79680000D03*
D49*
X148295000Y-78585000D03*
X147795000Y-78585000D03*
X147295000Y-78585000D03*
X146795000Y-78585000D03*
X146295000Y-78585000D03*
X145795000Y-78585000D03*
D50*
X145090000Y-79290000D03*
X145090000Y-79790000D03*
X145090000Y-80290000D03*
X145090000Y-80790000D03*
X145090000Y-81290000D03*
X145090000Y-81790000D03*
D49*
X145795000Y-82495000D03*
X146295000Y-82495000D03*
X146795000Y-82495000D03*
X147295000Y-82495000D03*
X147795000Y-82495000D03*
X148295000Y-82495000D03*
D50*
X149000000Y-81790000D03*
X149000000Y-81290000D03*
X149000000Y-80790000D03*
X149000000Y-80290000D03*
X149000000Y-79790000D03*
X149000000Y-79290000D03*
D51*
X147045000Y-80540000D03*
D52*
X144425000Y-76140000D03*
X142875000Y-76140000D03*
D53*
X103405000Y-91350000D03*
X103405000Y-93890000D03*
X103405000Y-96430000D03*
D54*
X117400000Y-86200000D03*
X117400000Y-81500000D03*
X117400000Y-76800000D03*
D34*
X111555000Y-95975000D03*
X111555000Y-94425000D03*
D55*
X108940000Y-69400000D03*
D56*
X108940000Y-74400000D03*
D22*
X112400000Y-81965000D03*
X112400000Y-82985000D03*
D57*
X90490000Y-101970000D03*
X91510000Y-101970000D03*
D22*
X142300000Y-82190000D03*
X142300000Y-83210000D03*
X130050000Y-99580000D03*
X130050000Y-100600000D03*
D16*
X157950000Y-85905000D03*
X157950000Y-84635000D03*
X157950000Y-83365000D03*
X157950000Y-82095000D03*
D17*
X152990000Y-82095000D03*
D18*
X152960000Y-83365000D03*
D19*
X152970000Y-84635000D03*
D20*
X152965000Y-85905000D03*
D21*
X155100000Y-84000000D03*
D57*
X98095000Y-82740000D03*
X99115000Y-82740000D03*
D39*
X83425000Y-87150000D03*
X84695000Y-87150000D03*
X85965000Y-87150000D03*
X87235000Y-87150000D03*
D40*
X87235000Y-82190000D03*
D41*
X85965000Y-82160000D03*
D42*
X84695000Y-82170000D03*
D43*
X83425000Y-82165000D03*
D44*
X85330000Y-84300000D03*
D22*
X143800000Y-82190000D03*
X143800000Y-83210000D03*
D38*
X125008500Y-77680000D03*
X123988500Y-77680000D03*
D58*
X115850000Y-103750000D03*
X120900000Y-103750000D03*
X120900000Y-102050000D03*
X115850000Y-102050000D03*
D59*
X138010000Y-101390000D03*
X138010000Y-97490000D03*
X139280000Y-101390000D03*
X139280000Y-97490000D03*
X140550000Y-101390000D03*
X140550000Y-97490000D03*
X141820000Y-101390000D03*
X141820000Y-97490000D03*
X143090000Y-101390000D03*
X143090000Y-97490000D03*
X144360000Y-101390000D03*
X144360000Y-97490000D03*
X145630000Y-101390000D03*
X145630000Y-97490000D03*
D60*
X103530000Y-85290000D03*
X105080000Y-85290000D03*
D55*
X137340000Y-69200000D03*
D56*
X137340000Y-74200000D03*
D22*
X131850000Y-99580000D03*
X131850000Y-100600000D03*
D61*
X141196051Y-85723949D03*
X145297270Y-89825168D03*
X143480006Y-91642432D03*
X139400000Y-87520000D03*
D38*
X135478500Y-78880000D03*
X134458500Y-78880000D03*
D39*
X164100000Y-75015000D03*
X162830000Y-75015000D03*
X161560000Y-75015000D03*
X160290000Y-75015000D03*
D40*
X160290000Y-79975000D03*
D41*
X161560000Y-80005000D03*
D42*
X162830000Y-79995000D03*
D43*
X164100000Y-80000000D03*
D44*
X162195000Y-77865000D03*
D36*
X121560000Y-69970000D03*
X126560000Y-69970000D03*
D33*
X128750000Y-84240000D03*
X128750000Y-83220000D03*
X143750000Y-78700000D03*
X143750000Y-77680000D03*
D62*
X111555000Y-89015000D03*
X111555000Y-91965000D03*
D52*
X99380000Y-84140000D03*
X97830000Y-84140000D03*
D34*
X148450000Y-75390000D03*
X148450000Y-73840000D03*
D63*
X126910000Y-77030000D03*
X126910000Y-77680000D03*
X126910000Y-78330000D03*
X126910000Y-78980000D03*
X126910000Y-79630000D03*
X126910000Y-80280000D03*
X126910000Y-80930000D03*
X132650000Y-80930000D03*
X132650000Y-80280000D03*
X132650000Y-79630000D03*
X132650000Y-78980000D03*
X132650000Y-78330000D03*
X132650000Y-77680000D03*
X132650000Y-77030000D03*
D64*
X110700000Y-83275000D03*
X110700000Y-81525000D03*
D65*
X161975000Y-99545000D03*
X161975000Y-98275000D03*
X161975000Y-97005000D03*
X161975000Y-95735000D03*
X161975000Y-94465000D03*
X161975000Y-93195000D03*
X161975000Y-91925000D03*
X161975000Y-90655000D03*
X157025000Y-90655000D03*
X157025000Y-91925000D03*
X157025000Y-93195000D03*
X157025000Y-94465000D03*
X157025000Y-95735000D03*
X157025000Y-97005000D03*
X157025000Y-98275000D03*
X157025000Y-99545000D03*
D66*
X150580000Y-97340000D03*
D27*
X150580000Y-94840000D03*
X150580000Y-92340000D03*
D38*
X135488500Y-80280000D03*
X134468500Y-80280000D03*
D57*
X103795000Y-81590000D03*
X104815000Y-81590000D03*
D25*
X141200000Y-76900000D03*
X141200000Y-78450000D03*
D67*
X133230000Y-103090000D03*
D68*
X130690000Y-103090000D03*
X128150000Y-103090000D03*
X125610000Y-103090000D03*
D69*
X88450000Y-91550000D03*
X88450000Y-92820000D03*
X88450000Y-94090000D03*
X88450000Y-95360000D03*
X88450000Y-96630000D03*
X88450000Y-97900000D03*
X88450000Y-99170000D03*
X88450000Y-100440000D03*
X93400000Y-100440000D03*
X93400000Y-99170000D03*
X93400000Y-97900000D03*
X93400000Y-96630000D03*
X93400000Y-95360000D03*
X93400000Y-94090000D03*
X93400000Y-92820000D03*
X93400000Y-91550000D03*
D22*
X119655000Y-93090000D03*
X119655000Y-94110000D03*
X142600000Y-77680000D03*
X142600000Y-78700000D03*
D39*
X160260000Y-87190000D03*
X161530000Y-87190000D03*
X162800000Y-87190000D03*
X164070000Y-87190000D03*
D40*
X164070000Y-82230000D03*
D41*
X162800000Y-82200000D03*
D42*
X161530000Y-82210000D03*
D43*
X160260000Y-82205000D03*
D44*
X162165000Y-84340000D03*
D38*
X160980000Y-101165000D03*
X159960000Y-101165000D03*
D25*
X118205000Y-97725000D03*
X118205000Y-99275000D03*
D35*
X78000000Y-69000000D03*
D22*
X141000000Y-82190000D03*
X141000000Y-83210000D03*
D16*
X89050000Y-82100000D03*
X89050000Y-83370000D03*
X89050000Y-84640000D03*
X89050000Y-85910000D03*
D17*
X94010000Y-85910000D03*
D18*
X94040000Y-84640000D03*
D19*
X94030000Y-83370000D03*
D20*
X94035000Y-82100000D03*
D21*
X91900000Y-84005000D03*
D70*
X113505000Y-97500000D03*
X113505000Y-98450000D03*
X113505000Y-99400000D03*
X116305000Y-99400000D03*
X116305000Y-97500000D03*
D37*
X119655000Y-91690000D03*
X119655000Y-90730000D03*
D46*
X81350000Y-97940000D03*
X77450000Y-97940000D03*
X81350000Y-96670000D03*
X77450000Y-96670000D03*
X81350000Y-95400000D03*
X77450000Y-95400000D03*
X81350000Y-94130000D03*
X77450000Y-94130000D03*
X81350000Y-92860000D03*
X77450000Y-92860000D03*
D25*
X139400000Y-81525000D03*
X139400000Y-83075000D03*
D31*
X150550000Y-76885000D03*
X150550000Y-73935000D03*
D71*
X134875000Y-95440000D03*
X134875000Y-94940000D03*
X134875000Y-94440000D03*
X134875000Y-93940000D03*
X134875000Y-93440000D03*
X134875000Y-92940000D03*
X134875000Y-92440000D03*
X134875000Y-91940000D03*
X134875000Y-91440000D03*
X134875000Y-90940000D03*
X134875000Y-90440000D03*
X134875000Y-89940000D03*
X134875000Y-89440000D03*
X134875000Y-88940000D03*
X134875000Y-88440000D03*
X134875000Y-87940000D03*
D72*
X132950000Y-86015000D03*
X132450000Y-86015000D03*
X131950000Y-86015000D03*
X131450000Y-86015000D03*
X130950000Y-86015000D03*
X130450000Y-86015000D03*
X129950000Y-86015000D03*
X129450000Y-86015000D03*
X128950000Y-86015000D03*
X128450000Y-86015000D03*
X127950000Y-86015000D03*
X127450000Y-86015000D03*
X126950000Y-86015000D03*
X126450000Y-86015000D03*
X125950000Y-86015000D03*
X125450000Y-86015000D03*
D71*
X123525000Y-87940000D03*
X123525000Y-88440000D03*
X123525000Y-88940000D03*
X123525000Y-89440000D03*
X123525000Y-89940000D03*
X123525000Y-90440000D03*
X123525000Y-90940000D03*
X123525000Y-91440000D03*
X123525000Y-91940000D03*
X123525000Y-92440000D03*
X123525000Y-92940000D03*
X123525000Y-93440000D03*
X123525000Y-93940000D03*
X123525000Y-94440000D03*
X123525000Y-94940000D03*
X123525000Y-95440000D03*
D72*
X125450000Y-97365000D03*
X125950000Y-97365000D03*
X126450000Y-97365000D03*
X126950000Y-97365000D03*
X127450000Y-97365000D03*
X127950000Y-97365000D03*
X128450000Y-97365000D03*
X128950000Y-97365000D03*
X129450000Y-97365000D03*
X129950000Y-97365000D03*
X130450000Y-97365000D03*
X130950000Y-97365000D03*
X131450000Y-97365000D03*
X131950000Y-97365000D03*
X132450000Y-97365000D03*
X132950000Y-97365000D03*
D25*
X111505000Y-97725000D03*
X111505000Y-99275000D03*
D57*
X103795000Y-82740000D03*
X104815000Y-82740000D03*
X103795000Y-83890000D03*
X104815000Y-83890000D03*
%LPD*%
M02*
