G04 #@! TF.GenerationSoftware,KiCad,Pcbnew,9.0.2-9.0.2-0~ubuntu24.04.1*
G04 #@! TF.CreationDate,2025-06-22T00:29:59+02:00*
G04 #@! TF.ProjectId,DRV8701_2Motors,44525638-3730-4315-9f32-4d6f746f7273,rev?*
G04 #@! TF.SameCoordinates,Original*
G04 #@! TF.FileFunction,Soldermask,Top*
G04 #@! TF.FilePolarity,Negative*
%FSLAX46Y46*%
G04 Gerber Fmt 4.6, Leading zero omitted, Abs format (unit mm)*
G04 Created by KiCad (PCBNEW 9.0.2-9.0.2-0~ubuntu24.04.1) date 2025-06-22 00:29:59*
%MOMM*%
%LPD*%
G01*
G04 APERTURE LIST*
G04 Aperture macros list*
%AMRoundRect*
0 Rectangle with rounded corners*
0 $1 Rounding radius*
0 $2 $3 $4 $5 $6 $7 $8 $9 X,Y pos of 4 corners*
0 Add a 4 corners polygon primitive as box body*
4,1,4,$2,$3,$4,$5,$6,$7,$8,$9,$2,$3,0*
0 Add four circle primitives for the rounded corners*
1,1,$1+$1,$2,$3*
1,1,$1+$1,$4,$5*
1,1,$1+$1,$6,$7*
1,1,$1+$1,$8,$9*
0 Add four rect primitives between the rounded corners*
20,1,$1+$1,$2,$3,$4,$5,0*
20,1,$1+$1,$4,$5,$6,$7,0*
20,1,$1+$1,$6,$7,$8,$9,0*
20,1,$1+$1,$8,$9,$2,$3,0*%
G04 Aperture macros list end*
%ADD10RoundRect,0.237500X-0.237500X0.287500X-0.237500X-0.287500X0.237500X-0.287500X0.237500X0.287500X0*%
%ADD11R,0.400000X0.600000*%
%ADD12R,0.400000X0.880000*%
%ADD13R,0.400000X0.820000*%
%ADD14R,0.400000X0.840000*%
%ADD15R,0.400000X0.830000*%
%ADD16R,4.210000X3.500000*%
%ADD17RoundRect,0.100000X-0.130000X-0.100000X0.130000X-0.100000X0.130000X0.100000X-0.130000X0.100000X0*%
%ADD18RoundRect,0.210000X0.590000X0.490000X-0.590000X0.490000X-0.590000X-0.490000X0.590000X-0.490000X0*%
%ADD19RoundRect,0.140000X0.170000X-0.140000X0.170000X0.140000X-0.170000X0.140000X-0.170000X-0.140000X0*%
%ADD20R,0.600000X0.400000*%
%ADD21R,0.880000X0.400000*%
%ADD22R,0.820000X0.400000*%
%ADD23R,0.840000X0.400000*%
%ADD24R,0.830000X0.400000*%
%ADD25R,3.500000X4.210000*%
%ADD26RoundRect,0.135000X-0.185000X0.135000X-0.185000X-0.135000X0.185000X-0.135000X0.185000X0.135000X0*%
%ADD27R,0.740000X2.400000*%
%ADD28RoundRect,0.250000X0.475000X-0.250000X0.475000X0.250000X-0.475000X0.250000X-0.475000X-0.250000X0*%
%ADD29RoundRect,0.140000X0.140000X0.170000X-0.140000X0.170000X-0.140000X-0.170000X0.140000X-0.170000X0*%
%ADD30RoundRect,0.250000X-0.625000X0.350000X-0.625000X-0.350000X0.625000X-0.350000X0.625000X0.350000X0*%
%ADD31O,1.750000X1.200000*%
%ADD32RoundRect,0.090000X-0.660000X-0.360000X0.660000X-0.360000X0.660000X0.360000X-0.660000X0.360000X0*%
%ADD33R,1.700000X1.700000*%
%ADD34C,1.700000*%
%ADD35RoundRect,0.076750X0.810250X0.230250X-0.810250X0.230250X-0.810250X-0.230250X0.810250X-0.230250X0*%
%ADD36RoundRect,0.200000X-0.275000X0.200000X-0.275000X-0.200000X0.275000X-0.200000X0.275000X0.200000X0*%
%ADD37RoundRect,0.140000X-0.170000X0.140000X-0.170000X-0.140000X0.170000X-0.140000X0.170000X0.140000X0*%
%ADD38RoundRect,0.218750X-0.218750X-0.256250X0.218750X-0.256250X0.218750X0.256250X-0.218750X0.256250X0*%
%ADD39RoundRect,0.100000X0.130000X0.100000X-0.130000X0.100000X-0.130000X-0.100000X0.130000X-0.100000X0*%
%ADD40RoundRect,0.057500X-0.172500X0.447500X-0.172500X-0.447500X0.172500X-0.447500X0.172500X0.447500X0*%
%ADD41RoundRect,0.057500X-0.447500X0.172500X-0.447500X-0.172500X0.447500X-0.172500X0.447500X0.172500X0*%
%ADD42RoundRect,0.050000X-1.350000X1.350000X-1.350000X-1.350000X1.350000X-1.350000X1.350000X1.350000X0*%
%ADD43RoundRect,0.135000X0.185000X-0.135000X0.185000X0.135000X-0.185000X0.135000X-0.185000X-0.135000X0*%
%ADD44C,5.000000*%
%ADD45C,1.600000*%
%ADD46RoundRect,0.225000X-0.225000X-0.250000X0.225000X-0.250000X0.225000X0.250000X-0.225000X0.250000X0*%
%ADD47RoundRect,0.075000X0.700000X0.075000X-0.700000X0.075000X-0.700000X-0.075000X0.700000X-0.075000X0*%
%ADD48RoundRect,0.075000X0.075000X0.700000X-0.075000X0.700000X-0.075000X-0.700000X0.075000X-0.700000X0*%
%ADD49RoundRect,0.140000X-0.140000X-0.170000X0.140000X-0.170000X0.140000X0.170000X-0.140000X0.170000X0*%
%ADD50C,2.200000*%
%ADD51RoundRect,0.150000X0.150000X-0.825000X0.150000X0.825000X-0.150000X0.825000X-0.150000X-0.825000X0*%
%ADD52R,1.350000X0.600000*%
%ADD53C,2.979000*%
%ADD54RoundRect,0.102000X-0.300000X0.450000X-0.300000X-0.450000X0.300000X-0.450000X0.300000X0.450000X0*%
%ADD55RoundRect,0.150000X-0.150000X0.825000X-0.150000X-0.825000X0.150000X-0.825000X0.150000X0.825000X0*%
%ADD56R,2.400000X0.740000*%
G04 APERTURE END LIST*
D10*
X85290000Y-70735000D03*
X85290000Y-72485000D03*
D11*
X172540000Y-54745000D03*
X171270000Y-54745000D03*
X170000000Y-54745000D03*
X168730000Y-54745000D03*
D12*
X168730000Y-59705000D03*
D13*
X170000000Y-59735000D03*
D14*
X171270000Y-59725000D03*
D15*
X172540000Y-59730000D03*
D16*
X170635000Y-57595000D03*
D17*
X109120000Y-79060000D03*
X109760000Y-79060000D03*
D18*
X151440000Y-83830000D03*
X145640000Y-83830000D03*
X145640000Y-81260000D03*
X151440000Y-81290000D03*
D19*
X131990000Y-69070000D03*
X131990000Y-68110000D03*
D20*
X165290000Y-59770000D03*
X165290000Y-58500000D03*
X165290000Y-57230000D03*
X165290000Y-55960000D03*
D21*
X160330000Y-55960000D03*
D22*
X160300000Y-57230000D03*
D23*
X160310000Y-58500000D03*
D24*
X160305000Y-59770000D03*
D25*
X162440000Y-57865000D03*
D19*
X157590000Y-61490000D03*
X157590000Y-60530000D03*
D26*
X137790000Y-83410000D03*
X137790000Y-84430000D03*
D27*
X106180000Y-86610000D03*
X106180000Y-82710000D03*
X107450000Y-86610000D03*
X107450000Y-82710000D03*
X108720000Y-86610000D03*
X108720000Y-82710000D03*
X109990000Y-86610000D03*
X109990000Y-82710000D03*
X111260000Y-86610000D03*
X111260000Y-82710000D03*
D28*
X155890000Y-61560000D03*
X155890000Y-59660000D03*
D19*
X111490000Y-61290000D03*
X111490000Y-60330000D03*
D29*
X116770000Y-63410000D03*
X115810000Y-63410000D03*
D26*
X132990000Y-83410000D03*
X132990000Y-84430000D03*
D27*
X156465000Y-86635000D03*
X156465000Y-82735000D03*
X157735000Y-86635000D03*
X157735000Y-82735000D03*
X159005000Y-86635000D03*
X159005000Y-82735000D03*
X160275000Y-86635000D03*
X160275000Y-82735000D03*
X161545000Y-86635000D03*
X161545000Y-82735000D03*
D26*
X145490000Y-67200000D03*
X145490000Y-68220000D03*
X138990000Y-83410000D03*
X138990000Y-84430000D03*
D30*
X125590000Y-82600000D03*
D31*
X125590000Y-84600000D03*
X125590000Y-86600000D03*
D32*
X122670000Y-75060000D03*
X122670000Y-78360000D03*
X127570000Y-78360000D03*
X127570000Y-75060000D03*
D26*
X140190000Y-83410000D03*
X140190000Y-84430000D03*
D19*
X130890000Y-69080000D03*
X130890000Y-68120000D03*
X152500000Y-76480000D03*
X152500000Y-75520000D03*
D33*
X100830000Y-87520000D03*
D34*
X100830000Y-84980000D03*
X100830000Y-82440000D03*
X100830000Y-79900000D03*
D35*
X139630000Y-66970000D03*
X139630000Y-66320000D03*
X139630000Y-65670000D03*
X139630000Y-65020000D03*
X139630000Y-64370000D03*
X139630000Y-63720000D03*
X139630000Y-63070000D03*
X133890000Y-63070000D03*
X133890000Y-63720000D03*
X133890000Y-64370000D03*
X133890000Y-65020000D03*
X133890000Y-65670000D03*
X133890000Y-66320000D03*
X133890000Y-66970000D03*
D11*
X168730000Y-67310000D03*
X170000000Y-67310000D03*
X171270000Y-67310000D03*
X172540000Y-67310000D03*
D12*
X172540000Y-62350000D03*
D13*
X171270000Y-62320000D03*
D14*
X170000000Y-62330000D03*
D15*
X168730000Y-62325000D03*
D16*
X170635000Y-64460000D03*
D36*
X85290000Y-74385000D03*
X85290000Y-76035000D03*
D37*
X142590000Y-83440000D03*
X142590000Y-84400000D03*
D20*
X102545000Y-55670000D03*
X102545000Y-56940000D03*
X102545000Y-58210000D03*
X102545000Y-59480000D03*
D21*
X107505000Y-59480000D03*
D22*
X107535000Y-58210000D03*
D23*
X107525000Y-56940000D03*
D24*
X107530000Y-55670000D03*
D25*
X105395000Y-57575000D03*
D17*
X161715000Y-79835000D03*
X162355000Y-79835000D03*
D38*
X145152500Y-69850000D03*
X146727500Y-69850000D03*
D11*
X98350000Y-54460000D03*
X97080000Y-54460000D03*
X95810000Y-54460000D03*
X94540000Y-54460000D03*
D12*
X94540000Y-59420000D03*
D13*
X95810000Y-59450000D03*
D14*
X97080000Y-59440000D03*
D15*
X98350000Y-59445000D03*
D16*
X96445000Y-57310000D03*
D39*
X157255000Y-79835000D03*
X156615000Y-79835000D03*
D37*
X112990000Y-60330000D03*
X112990000Y-61290000D03*
D40*
X113470000Y-62505000D03*
X112970000Y-62505000D03*
X112470000Y-62505000D03*
X111970000Y-62505000D03*
X111470000Y-62505000D03*
X110970000Y-62505000D03*
D41*
X110265000Y-63210000D03*
X110265000Y-63710000D03*
X110265000Y-64210000D03*
X110265000Y-64710000D03*
X110265000Y-65210000D03*
X110265000Y-65710000D03*
D40*
X110970000Y-66415000D03*
X111470000Y-66415000D03*
X111970000Y-66415000D03*
X112470000Y-66415000D03*
X112970000Y-66415000D03*
X113470000Y-66415000D03*
D41*
X114175000Y-65710000D03*
X114175000Y-65210000D03*
X114175000Y-64710000D03*
X114175000Y-64210000D03*
X114175000Y-63710000D03*
X114175000Y-63210000D03*
D42*
X112220000Y-64460000D03*
D43*
X131990000Y-67130000D03*
X131990000Y-66110000D03*
D37*
X146590000Y-71200000D03*
X146590000Y-72160000D03*
D44*
X88790000Y-84810000D03*
D45*
X146790000Y-57210000D03*
X146790000Y-62210000D03*
D37*
X130890000Y-64130000D03*
X130890000Y-65090000D03*
D26*
X135390000Y-83410000D03*
X135390000Y-84430000D03*
D44*
X178790000Y-84810000D03*
D37*
X158790000Y-60530000D03*
X158790000Y-61490000D03*
D17*
X165340000Y-79835000D03*
X165980000Y-79835000D03*
D46*
X146065000Y-78650000D03*
X147615000Y-78650000D03*
D30*
X118940000Y-82600000D03*
D31*
X118940000Y-84600000D03*
X118940000Y-86600000D03*
D29*
X152770000Y-66310000D03*
X151810000Y-66310000D03*
D28*
X116390000Y-61860000D03*
X116390000Y-59960000D03*
D26*
X144290000Y-67200000D03*
X144290000Y-68220000D03*
D47*
X142775000Y-78960000D03*
X142775000Y-78460000D03*
X142775000Y-77960000D03*
X142775000Y-77460000D03*
X142775000Y-76960000D03*
X142775000Y-76460000D03*
X142775000Y-75960000D03*
X142775000Y-75460000D03*
X142775000Y-74960000D03*
X142775000Y-74460000D03*
X142775000Y-73960000D03*
X142775000Y-73460000D03*
X142775000Y-72960000D03*
X142775000Y-72460000D03*
X142775000Y-71960000D03*
X142775000Y-71460000D03*
D48*
X140850000Y-69535000D03*
X140350000Y-69535000D03*
X139850000Y-69535000D03*
X139350000Y-69535000D03*
X138850000Y-69535000D03*
X138350000Y-69535000D03*
X137850000Y-69535000D03*
X137350000Y-69535000D03*
X136850000Y-69535000D03*
X136350000Y-69535000D03*
X135850000Y-69535000D03*
X135350000Y-69535000D03*
X134850000Y-69535000D03*
X134350000Y-69535000D03*
X133850000Y-69535000D03*
X133350000Y-69535000D03*
D47*
X131425000Y-71460000D03*
X131425000Y-71960000D03*
X131425000Y-72460000D03*
X131425000Y-72960000D03*
X131425000Y-73460000D03*
X131425000Y-73960000D03*
X131425000Y-74460000D03*
X131425000Y-74960000D03*
X131425000Y-75460000D03*
X131425000Y-75960000D03*
X131425000Y-76460000D03*
X131425000Y-76960000D03*
X131425000Y-77460000D03*
X131425000Y-77960000D03*
X131425000Y-78460000D03*
X131425000Y-78960000D03*
D48*
X133350000Y-80885000D03*
X133850000Y-80885000D03*
X134350000Y-80885000D03*
X134850000Y-80885000D03*
X135350000Y-80885000D03*
X135850000Y-80885000D03*
X136350000Y-80885000D03*
X136850000Y-80885000D03*
X137350000Y-80885000D03*
X137850000Y-80885000D03*
X138350000Y-80885000D03*
X138850000Y-80885000D03*
X139350000Y-80885000D03*
X139850000Y-80885000D03*
X140350000Y-80885000D03*
X140850000Y-80885000D03*
D43*
X130890000Y-67120000D03*
X130890000Y-66100000D03*
D40*
X157640000Y-63455000D03*
X157140000Y-63455000D03*
X156640000Y-63455000D03*
X156140000Y-63455000D03*
X155640000Y-63455000D03*
X155140000Y-63455000D03*
D41*
X154435000Y-64160000D03*
X154435000Y-64660000D03*
X154435000Y-65160000D03*
X154435000Y-65660000D03*
X154435000Y-66160000D03*
X154435000Y-66660000D03*
D40*
X155140000Y-67365000D03*
X155640000Y-67365000D03*
X156140000Y-67365000D03*
X156640000Y-67365000D03*
X157140000Y-67365000D03*
X157640000Y-67365000D03*
D41*
X158345000Y-66660000D03*
X158345000Y-66160000D03*
X158345000Y-65660000D03*
X158345000Y-65160000D03*
X158345000Y-64660000D03*
X158345000Y-64160000D03*
D42*
X156390000Y-65410000D03*
D49*
X129890000Y-80410000D03*
X130850000Y-80410000D03*
D46*
X149365000Y-78650000D03*
X150915000Y-78650000D03*
D50*
X179290000Y-63610000D03*
X179290000Y-58610000D03*
D37*
X115890000Y-73530000D03*
X115890000Y-74490000D03*
D51*
X155290000Y-76910000D03*
X156560000Y-76910000D03*
X157830000Y-76910000D03*
X159100000Y-76910000D03*
X160370000Y-76910000D03*
X161640000Y-76910000D03*
X162910000Y-76910000D03*
X164180000Y-76910000D03*
X164180000Y-71960000D03*
X162910000Y-71960000D03*
X161640000Y-71960000D03*
X160370000Y-71960000D03*
X159100000Y-71960000D03*
X157830000Y-71960000D03*
X156560000Y-71960000D03*
X155290000Y-71960000D03*
D33*
X95750000Y-87520000D03*
D34*
X95750000Y-84980000D03*
X95750000Y-82440000D03*
X95750000Y-79900000D03*
D52*
X167100000Y-88540000D03*
X172150000Y-88540000D03*
X172150000Y-86840000D03*
X167100000Y-86840000D03*
D37*
X145190000Y-71190000D03*
X145190000Y-72150000D03*
D26*
X131790000Y-83410000D03*
X131790000Y-84430000D03*
D29*
X152770000Y-65110000D03*
X151810000Y-65110000D03*
D53*
X90870000Y-73400000D03*
X95570000Y-73400000D03*
X100270000Y-73400000D03*
D50*
X132190000Y-55210000D03*
X127190000Y-55210000D03*
X88290000Y-63610000D03*
X88290000Y-58610000D03*
D20*
X165290000Y-66155000D03*
X165290000Y-64885000D03*
X165290000Y-63615000D03*
X165290000Y-62345000D03*
D21*
X160330000Y-62345000D03*
D22*
X160300000Y-63615000D03*
D23*
X160310000Y-64885000D03*
D24*
X160305000Y-66155000D03*
D25*
X162440000Y-64250000D03*
D26*
X126490000Y-72000000D03*
X126490000Y-73020000D03*
D19*
X115890000Y-78490000D03*
X115890000Y-77530000D03*
D37*
X124090000Y-72030000D03*
X124090000Y-72990000D03*
D54*
X119640000Y-74810000D03*
X118690000Y-74810000D03*
X117740000Y-74810000D03*
X117740000Y-77610000D03*
X119640000Y-77610000D03*
D19*
X115890000Y-76490000D03*
X115890000Y-75530000D03*
D17*
X111520000Y-79060000D03*
X112160000Y-79060000D03*
D26*
X136590000Y-83410000D03*
X136590000Y-84430000D03*
D20*
X102530000Y-62570000D03*
X102530000Y-63840000D03*
X102530000Y-65110000D03*
X102530000Y-66380000D03*
D21*
X107490000Y-66380000D03*
D22*
X107520000Y-65110000D03*
D23*
X107510000Y-63840000D03*
D24*
X107515000Y-62570000D03*
D25*
X105380000Y-64475000D03*
D33*
X98290000Y-87520000D03*
D34*
X98290000Y-84980000D03*
X98290000Y-82440000D03*
X98290000Y-79900000D03*
D45*
X126170000Y-64210000D03*
X123630000Y-64210000D03*
X121090000Y-64210000D03*
D26*
X134190000Y-83410000D03*
X134190000Y-84430000D03*
D43*
X143090000Y-68220000D03*
X143090000Y-67200000D03*
X147890000Y-68220000D03*
X147890000Y-67200000D03*
D49*
X129890000Y-81610000D03*
X130850000Y-81610000D03*
D37*
X125290000Y-72030000D03*
X125290000Y-72990000D03*
D11*
X94580000Y-68110000D03*
X95850000Y-68110000D03*
X97120000Y-68110000D03*
X98390000Y-68110000D03*
D12*
X98390000Y-63150000D03*
D13*
X97120000Y-63120000D03*
D14*
X95850000Y-63130000D03*
D15*
X94580000Y-63125000D03*
D16*
X96485000Y-65260000D03*
D29*
X116770000Y-64610000D03*
X115810000Y-64610000D03*
D37*
X152500000Y-73520000D03*
X152500000Y-74480000D03*
X141890000Y-67230000D03*
X141890000Y-68190000D03*
D29*
X116770000Y-65810000D03*
X115810000Y-65810000D03*
D39*
X104660000Y-79060000D03*
X104020000Y-79060000D03*
D37*
X141390000Y-83440000D03*
X141390000Y-84400000D03*
D55*
X112900000Y-71610000D03*
X111630000Y-71610000D03*
X110360000Y-71610000D03*
X109090000Y-71610000D03*
X107820000Y-71610000D03*
X106550000Y-71610000D03*
X105280000Y-71610000D03*
X104010000Y-71610000D03*
X104010000Y-76560000D03*
X105280000Y-76560000D03*
X106550000Y-76560000D03*
X107820000Y-76560000D03*
X109090000Y-76560000D03*
X110360000Y-76560000D03*
X111630000Y-76560000D03*
X112900000Y-76560000D03*
D29*
X152770000Y-67510000D03*
X151810000Y-67510000D03*
D56*
X180690000Y-78820000D03*
X176790000Y-78820000D03*
X180690000Y-77550000D03*
X176790000Y-77550000D03*
X180690000Y-76280000D03*
X176790000Y-76280000D03*
X180690000Y-75010000D03*
X176790000Y-75010000D03*
X180690000Y-73740000D03*
X176790000Y-73740000D03*
X180690000Y-72470000D03*
X176790000Y-72470000D03*
X180690000Y-71200000D03*
X176790000Y-71200000D03*
D19*
X146690000Y-68190000D03*
X146690000Y-67230000D03*
M02*
