G04 #@! TF.GenerationSoftware,KiCad,Pcbnew,9.0.2-9.0.2-0~ubuntu24.04.1*
G04 #@! TF.CreationDate,2025-06-21T18:40:21+02:00*
G04 #@! TF.ProjectId,DRV8701_2Motors,44525638-3730-4315-9f32-4d6f746f7273,rev?*
G04 #@! TF.SameCoordinates,Original*
G04 #@! TF.FileFunction,Copper,L4,Bot*
G04 #@! TF.FilePolarity,Positive*
%FSLAX46Y46*%
G04 Gerber Fmt 4.6, Leading zero omitted, Abs format (unit mm)*
G04 Created by KiCad (PCBNEW 9.0.2-9.0.2-0~ubuntu24.04.1) date 2025-06-21 18:40:21*
%MOMM*%
%LPD*%
G01*
G04 APERTURE LIST*
G04 Aperture macros list*
%AMRoundRect*
0 Rectangle with rounded corners*
0 $1 Rounding radius*
0 $2 $3 $4 $5 $6 $7 $8 $9 X,Y pos of 4 corners*
0 Add a 4 corners polygon primitive as box body*
4,1,4,$2,$3,$4,$5,$6,$7,$8,$9,$2,$3,0*
0 Add four circle primitives for the rounded corners*
1,1,$1+$1,$2,$3*
1,1,$1+$1,$4,$5*
1,1,$1+$1,$6,$7*
1,1,$1+$1,$8,$9*
0 Add four rect primitives between the rounded corners*
20,1,$1+$1,$2,$3,$4,$5,0*
20,1,$1+$1,$4,$5,$6,$7,0*
20,1,$1+$1,$6,$7,$8,$9,0*
20,1,$1+$1,$8,$9,$2,$3,0*%
G04 Aperture macros list end*
G04 #@! TA.AperFunction,ComponentPad*
%ADD10RoundRect,0.250000X-0.625000X0.350000X-0.625000X-0.350000X0.625000X-0.350000X0.625000X0.350000X0*%
G04 #@! TD*
G04 #@! TA.AperFunction,ComponentPad*
%ADD11O,1.750000X1.200000*%
G04 #@! TD*
G04 #@! TA.AperFunction,ComponentPad*
%ADD12R,1.700000X1.700000*%
G04 #@! TD*
G04 #@! TA.AperFunction,ComponentPad*
%ADD13C,1.700000*%
G04 #@! TD*
G04 #@! TA.AperFunction,ComponentPad*
%ADD14C,5.000000*%
G04 #@! TD*
G04 #@! TA.AperFunction,ComponentPad*
%ADD15C,1.600000*%
G04 #@! TD*
G04 #@! TA.AperFunction,ComponentPad*
%ADD16C,2.200000*%
G04 #@! TD*
G04 #@! TA.AperFunction,ComponentPad*
%ADD17C,2.775000*%
G04 #@! TD*
G04 #@! TA.AperFunction,ViaPad*
%ADD18C,0.450000*%
G04 #@! TD*
G04 #@! TA.AperFunction,ViaPad*
%ADD19C,0.600000*%
G04 #@! TD*
G04 #@! TA.AperFunction,Conductor*
%ADD20C,0.150000*%
G04 #@! TD*
G04 #@! TA.AperFunction,Conductor*
%ADD21C,0.400000*%
G04 #@! TD*
G04 APERTURE END LIST*
D10*
X125590000Y-82600000D03*
D11*
X125590000Y-84600000D03*
X125590000Y-86600000D03*
D12*
X100830000Y-87520000D03*
D13*
X100830000Y-84980000D03*
X100830000Y-82440000D03*
X100830000Y-79900000D03*
D14*
X88790000Y-84810000D03*
D15*
X146790000Y-57210000D03*
X146790000Y-62210000D03*
D14*
X178790000Y-84810000D03*
D10*
X118940000Y-82600000D03*
D11*
X118940000Y-84600000D03*
X118940000Y-86600000D03*
D16*
X179290000Y-63610000D03*
X179290000Y-58610000D03*
D12*
X95750000Y-87520000D03*
D13*
X95750000Y-84980000D03*
X95750000Y-82440000D03*
X95750000Y-79900000D03*
D17*
X90870000Y-73400000D03*
X95570000Y-73400000D03*
X100270000Y-73400000D03*
D16*
X132190000Y-55210000D03*
X127190000Y-55210000D03*
X88290000Y-63610000D03*
X88290000Y-58610000D03*
D12*
X98290000Y-87520000D03*
D13*
X98290000Y-84980000D03*
X98290000Y-82440000D03*
X98290000Y-79900000D03*
D15*
X126170000Y-64210000D03*
X123630000Y-64210000D03*
X121090000Y-64210000D03*
D18*
X149480000Y-66140000D03*
X162790000Y-68860000D03*
X161290000Y-68860000D03*
X159790000Y-68860000D03*
X158290000Y-68860000D03*
X156790000Y-68860000D03*
X164290000Y-68860000D03*
X121930000Y-61490000D03*
X118790000Y-61510000D03*
X118770000Y-62850000D03*
X103200000Y-69830000D03*
X111200000Y-69840000D03*
X107220000Y-69820000D03*
X114860000Y-69080000D03*
X118480000Y-65260000D03*
X117430000Y-66360000D03*
X105380000Y-65675000D03*
X104180000Y-65675000D03*
X106580000Y-64475000D03*
X105380000Y-64475000D03*
X104180000Y-64475000D03*
X106580000Y-63275000D03*
X105380000Y-63275000D03*
X104180000Y-63275000D03*
X105370000Y-58750000D03*
X104170000Y-58750000D03*
X106570000Y-57550000D03*
X105370000Y-57550000D03*
X104170000Y-57550000D03*
X106570000Y-56350000D03*
X105370000Y-56350000D03*
X104170000Y-56350000D03*
X106570000Y-58750000D03*
X162310000Y-65690000D03*
X161110000Y-65690000D03*
X163510000Y-64490000D03*
X162310000Y-64490000D03*
X161110000Y-64490000D03*
X163510000Y-63290000D03*
X162310000Y-63290000D03*
X161110000Y-63290000D03*
X163510000Y-65690000D03*
D19*
X170635000Y-58800000D03*
X169435000Y-58800000D03*
X171835000Y-57600000D03*
X170635000Y-57600000D03*
X169435000Y-57600000D03*
X171835000Y-56400000D03*
X170635000Y-56400000D03*
X169435000Y-56400000D03*
X170590000Y-65730000D03*
X169390000Y-65730000D03*
X171790000Y-64530000D03*
X170590000Y-64530000D03*
X169390000Y-64530000D03*
X171790000Y-63330000D03*
X170590000Y-63330000D03*
X169390000Y-63330000D03*
X171790000Y-65730000D03*
D18*
X161350000Y-57910000D03*
X161350000Y-59360000D03*
X162350000Y-57230000D03*
X162350000Y-58680000D03*
X127610000Y-73790000D03*
X175020000Y-74990000D03*
X84790000Y-54110000D03*
X115900000Y-77560000D03*
X172390000Y-68610000D03*
X174390000Y-52510000D03*
X134220000Y-71040000D03*
X123680000Y-84510000D03*
X167790000Y-50710000D03*
X120590000Y-69880000D03*
X102110000Y-71980000D03*
X155390000Y-66410000D03*
X164160000Y-78635000D03*
X141530000Y-65090000D03*
X167390000Y-68610000D03*
X163620000Y-89300000D03*
X150770000Y-70670000D03*
X156390000Y-64410000D03*
X135870000Y-61500000D03*
X113220000Y-63460000D03*
X157590000Y-61490000D03*
X172190000Y-50710000D03*
X123680000Y-82990000D03*
X176590000Y-50710000D03*
X86990000Y-54110000D03*
X158490000Y-73480000D03*
X157390000Y-66410000D03*
X148890000Y-73390000D03*
X166560000Y-82160000D03*
X99640000Y-78600000D03*
X132170000Y-64390000D03*
X84450000Y-78690000D03*
X127870000Y-61500000D03*
X132370000Y-81930000D03*
X174390000Y-50710000D03*
X183030000Y-72900000D03*
X148580000Y-86500000D03*
X174390000Y-68610000D03*
X175400000Y-68600000D03*
X103850000Y-74870000D03*
X150930000Y-77530000D03*
X89190000Y-54110000D03*
X159260000Y-80835000D03*
X136600000Y-73160000D03*
X178790000Y-54310000D03*
X113640000Y-87800000D03*
X167210000Y-71110000D03*
X162280000Y-73610000D03*
X169390000Y-68610000D03*
X121110000Y-80030000D03*
X156390000Y-65410000D03*
X162850000Y-82140000D03*
X178740000Y-75010000D03*
X165210000Y-71110000D03*
X169990000Y-54310000D03*
X131870000Y-61500000D03*
X115910000Y-69940000D03*
X170460000Y-82900000D03*
X99600000Y-83900000D03*
X87570000Y-77030000D03*
X153870000Y-73410000D03*
X128550000Y-80320000D03*
X183190000Y-54310000D03*
X84450000Y-73690000D03*
X113220000Y-65460000D03*
X137950000Y-65020000D03*
X87590000Y-75270000D03*
X120590000Y-71440000D03*
X128990000Y-77690000D03*
X91390000Y-52310000D03*
X121920000Y-73950000D03*
X139870000Y-61500000D03*
X151810000Y-63870000D03*
X165590000Y-52510000D03*
X96990000Y-69410000D03*
X157390000Y-64410000D03*
X166530000Y-78630000D03*
X89190000Y-52310000D03*
X171210000Y-71110000D03*
X123620000Y-89300000D03*
X133970000Y-67840000D03*
X168680000Y-81200000D03*
X168390000Y-68610000D03*
X97990000Y-50510000D03*
X130890000Y-67110000D03*
X180990000Y-54310000D03*
X164610000Y-80340000D03*
X149640000Y-61590000D03*
X139770000Y-73310000D03*
X121150000Y-83000000D03*
X173480000Y-80170000D03*
X138620000Y-89300000D03*
X88620000Y-89300000D03*
X173390000Y-68610000D03*
X176590000Y-54310000D03*
X169210000Y-71110000D03*
X141870000Y-81880000D03*
X174390000Y-54310000D03*
X97990000Y-54110000D03*
X93590000Y-52310000D03*
X178750000Y-79080000D03*
X98680000Y-71910000D03*
X106910000Y-79870000D03*
X149330000Y-77510000D03*
X91390000Y-54110000D03*
X170390000Y-68610000D03*
X144290000Y-73410000D03*
X165180000Y-75110000D03*
X131990000Y-66110000D03*
X165590000Y-50710000D03*
X160960000Y-78835000D03*
X153640000Y-80960000D03*
X102390000Y-54110000D03*
X143530000Y-65110000D03*
X129000000Y-71390000D03*
X93590000Y-50510000D03*
X115790000Y-65210000D03*
X95790000Y-54110000D03*
X126760000Y-67870000D03*
X118800000Y-64100000D03*
X100190000Y-52310000D03*
X155290000Y-84640000D03*
X160380000Y-73600000D03*
X140440000Y-70660000D03*
X113650000Y-79970000D03*
X140350000Y-75850000D03*
X124900000Y-77680000D03*
X168620000Y-89300000D03*
X107440000Y-84600000D03*
X133620000Y-89300000D03*
X143050000Y-66670000D03*
X151000000Y-73400000D03*
X178770000Y-70110000D03*
X143870000Y-61500000D03*
X176590000Y-52510000D03*
X119800000Y-66990000D03*
X169990000Y-50710000D03*
X92590000Y-75270000D03*
X139630000Y-66970000D03*
X129010000Y-74810000D03*
X165590000Y-54310000D03*
X146060000Y-77530000D03*
X107480000Y-86660000D03*
X118620000Y-89300000D03*
X89190000Y-50510000D03*
X167790000Y-52510000D03*
X131990000Y-68110000D03*
X163640000Y-73620000D03*
X151810000Y-65110000D03*
X166540000Y-74880000D03*
X173210000Y-71110000D03*
X178790000Y-50710000D03*
X123800000Y-66990000D03*
X112220000Y-63460000D03*
X97990000Y-69410000D03*
X100190000Y-50510000D03*
X126760000Y-69890000D03*
X90460000Y-68720000D03*
X111220000Y-63460000D03*
X84450000Y-83690000D03*
X173620000Y-89300000D03*
X153640000Y-61590000D03*
X144090000Y-77520000D03*
X155390000Y-65410000D03*
X177400000Y-68600000D03*
X132370000Y-80410000D03*
X95790000Y-50510000D03*
X183030000Y-77900000D03*
X112220000Y-65460000D03*
X143940000Y-70660000D03*
X133890000Y-66320000D03*
X153660000Y-84680000D03*
X113630000Y-83650000D03*
X172190000Y-52510000D03*
X153620000Y-89300000D03*
X93590000Y-54110000D03*
X105950000Y-74840000D03*
X94990000Y-69410000D03*
X146040000Y-78650000D03*
X141890000Y-67230000D03*
X87600000Y-68710000D03*
X91990000Y-69410000D03*
X111220000Y-64460000D03*
X135020000Y-74720000D03*
X137310000Y-71100000D03*
X97990000Y-52310000D03*
X128610000Y-87760000D03*
X145690000Y-64950000D03*
X109290000Y-69860000D03*
X150890000Y-67440000D03*
X112220000Y-64460000D03*
X113290000Y-69860000D03*
X124900000Y-74940000D03*
X113700000Y-77570000D03*
X99600000Y-81250000D03*
X140330000Y-82030000D03*
X175410000Y-69980000D03*
X142130000Y-63730000D03*
X147570000Y-70670000D03*
X163630000Y-85740000D03*
X151810000Y-66310000D03*
X116270000Y-67330000D03*
X153650000Y-82580000D03*
X148620000Y-89300000D03*
X166390000Y-68610000D03*
X129560000Y-65090000D03*
X180990000Y-52510000D03*
X113220000Y-64460000D03*
X155290000Y-82340000D03*
X148180000Y-64930000D03*
X121090000Y-77590000D03*
X99610000Y-86170000D03*
X136090000Y-79010000D03*
X116850000Y-74500000D03*
X183030000Y-67900000D03*
X143490000Y-81880000D03*
X179400000Y-68600000D03*
X150940000Y-78650000D03*
X86990000Y-52310000D03*
X158620000Y-89300000D03*
X109560000Y-61300000D03*
X98990000Y-69410000D03*
X178620000Y-89300000D03*
X107820000Y-76560000D03*
X165390000Y-68610000D03*
X142030000Y-70670000D03*
X154350000Y-71140000D03*
X157760000Y-84635000D03*
X176400000Y-68600000D03*
X130890000Y-68110000D03*
X155280000Y-86660000D03*
X102390000Y-52310000D03*
X167790000Y-54310000D03*
X143640000Y-86460000D03*
X140350000Y-78980000D03*
X135940000Y-63730000D03*
X102390000Y-50510000D03*
X104740000Y-82060000D03*
X120240000Y-61520000D03*
X145490000Y-68220000D03*
X155870000Y-73450000D03*
X131430000Y-69950000D03*
X155300000Y-79720000D03*
X143620000Y-89300000D03*
X104730000Y-84590000D03*
X92990000Y-69410000D03*
X113620000Y-89300000D03*
X123870000Y-61500000D03*
X95990000Y-69410000D03*
X99990000Y-69410000D03*
X128550000Y-81840000D03*
X93990000Y-69410000D03*
X103620000Y-89300000D03*
X98620000Y-89300000D03*
X143520000Y-63730000D03*
X115910000Y-71500000D03*
X132900000Y-72700000D03*
X114740000Y-74500000D03*
X92570000Y-77030000D03*
X157390000Y-65410000D03*
X164810000Y-84550000D03*
X133550000Y-76350000D03*
X93620000Y-89300000D03*
X137960000Y-63730000D03*
X169990000Y-52510000D03*
X146580000Y-73410000D03*
X171700000Y-78470000D03*
X138610000Y-86490000D03*
X172190000Y-54310000D03*
X111050000Y-74860000D03*
X155960000Y-78335000D03*
X121150000Y-84520000D03*
X171390000Y-68610000D03*
X117430000Y-80010000D03*
X128620000Y-89300000D03*
X156390000Y-66410000D03*
X108620000Y-89300000D03*
X111220000Y-65460000D03*
X95790000Y-52310000D03*
X91390000Y-50510000D03*
X100990000Y-69410000D03*
X155390000Y-64410000D03*
X100190000Y-54110000D03*
X133400000Y-85700000D03*
X178790000Y-52510000D03*
X111490000Y-61290000D03*
X84450000Y-68690000D03*
X105290000Y-69860000D03*
X153880000Y-77530000D03*
X178400000Y-68600000D03*
X156460000Y-80835000D03*
X183030000Y-82900000D03*
X157160000Y-78435000D03*
X162260000Y-78835000D03*
X160140000Y-59700000D03*
X147860000Y-51230000D03*
X103860000Y-51230000D03*
X160130000Y-57160000D03*
X139860000Y-51230000D03*
X151860000Y-51230000D03*
X159860000Y-51230000D03*
X144290000Y-66210000D03*
X119860000Y-51230000D03*
X163860000Y-51230000D03*
X155860000Y-51230000D03*
X127850000Y-59720000D03*
X106580000Y-65675000D03*
X163360000Y-56540000D03*
X119850000Y-59720000D03*
X160140000Y-58250000D03*
X123850000Y-59720000D03*
X163860000Y-52830000D03*
X103870000Y-53970000D03*
X123860000Y-51230000D03*
X103860000Y-52500000D03*
X161350000Y-56300000D03*
X147850000Y-59720000D03*
X107860000Y-51230000D03*
X151850000Y-59720000D03*
X131850000Y-59720000D03*
X115850000Y-59720000D03*
X111860000Y-51230000D03*
X143850000Y-59720000D03*
X127860000Y-51230000D03*
X139850000Y-59720000D03*
X155850000Y-59720000D03*
X135860000Y-51230000D03*
X135850000Y-59720000D03*
X163370000Y-57630000D03*
X160140000Y-56040000D03*
X115860000Y-51230000D03*
X143860000Y-51230000D03*
X131860000Y-51230000D03*
X120640000Y-73320000D03*
X117640000Y-73320000D03*
X106180000Y-81970000D03*
X155745000Y-81335000D03*
X117790000Y-74810000D03*
X118640000Y-73320000D03*
X119640000Y-74810000D03*
X125290000Y-72030000D03*
X119640000Y-73320000D03*
X120650000Y-74180000D03*
X180690000Y-77550000D03*
X118790000Y-77610000D03*
X146680000Y-68200000D03*
X109090000Y-71610000D03*
X112920000Y-76540000D03*
X115890000Y-78710000D03*
X133890000Y-66970000D03*
X130890000Y-69080000D03*
X146727500Y-69850000D03*
X116890000Y-78710000D03*
X132840000Y-69550000D03*
X155260000Y-71960000D03*
X115890000Y-76490000D03*
X119640000Y-77610000D03*
X117890000Y-78710000D03*
X116740000Y-77690000D03*
X118890000Y-78710000D03*
X159060000Y-78835000D03*
X140850000Y-82570000D03*
X129860000Y-79010000D03*
X142790000Y-79590000D03*
X119890000Y-78710000D03*
X175230000Y-77540000D03*
X132750000Y-77960000D03*
X154560000Y-69250000D03*
X141490000Y-69610000D03*
X175250000Y-76280000D03*
X133790000Y-78100000D03*
X142790000Y-70960000D03*
X154140000Y-69770000D03*
X138710000Y-71230000D03*
X139630000Y-66320000D03*
X147890000Y-68260000D03*
X135240000Y-65060000D03*
X135180000Y-71270000D03*
X135890000Y-65710000D03*
X135990000Y-71250000D03*
X130190000Y-73910000D03*
X129780000Y-72130000D03*
X148700000Y-71409000D03*
X109775000Y-68345000D03*
X111470000Y-67480000D03*
X133890000Y-63070000D03*
X139690000Y-63710000D03*
X155000000Y-68640000D03*
X142640000Y-65460000D03*
X156130000Y-68350000D03*
X133890000Y-65020000D03*
X111970000Y-68480000D03*
X129882668Y-76369675D03*
X109090000Y-76560000D03*
X157860000Y-75535000D03*
X143890000Y-75460000D03*
X160360000Y-75135000D03*
X144490000Y-75010000D03*
X129890000Y-77060000D03*
X106550000Y-76560000D03*
X145090000Y-74460000D03*
X161610000Y-74435000D03*
X110360000Y-71610000D03*
X133340000Y-77460000D03*
X137780000Y-85720000D03*
X136590000Y-85710000D03*
D19*
X98540000Y-60220000D03*
D18*
X115090000Y-61960000D03*
D19*
X85400000Y-60260000D03*
D18*
X102545000Y-58210000D03*
D19*
X96540000Y-58220000D03*
X94540000Y-58220000D03*
X96540000Y-56220000D03*
X94540000Y-56220000D03*
X94540000Y-60220000D03*
X96540000Y-60220000D03*
X85400000Y-56260000D03*
X98540000Y-56220000D03*
X98540000Y-58220000D03*
X85400000Y-58260000D03*
X94540000Y-66220000D03*
X98540000Y-64220000D03*
X85400000Y-64260000D03*
X96540000Y-64220000D03*
D18*
X113700000Y-66990000D03*
D19*
X94540000Y-64220000D03*
X85400000Y-66260000D03*
X94540000Y-62220000D03*
X98540000Y-66220000D03*
X85400000Y-62260000D03*
X96540000Y-62220000D03*
X96540000Y-66220000D03*
X98540000Y-62220000D03*
X182610000Y-60220000D03*
X182610000Y-56220000D03*
X182610000Y-58220000D03*
X171835000Y-58800000D03*
X182620000Y-61870000D03*
X182620000Y-65870000D03*
X182620000Y-63870000D03*
D18*
X102545000Y-59480000D03*
X114590000Y-61010000D03*
X116790000Y-65810000D03*
X109690000Y-63710000D03*
X116810000Y-64610000D03*
X110790000Y-62110000D03*
X111970000Y-61960597D03*
X115770000Y-63410000D03*
X112230000Y-61220000D03*
X116770000Y-63410000D03*
X156990000Y-62310000D03*
X152690000Y-67510000D03*
X151690000Y-67510000D03*
X156140000Y-62510000D03*
X138990000Y-84430000D03*
X140190000Y-84430000D03*
X115090000Y-64010000D03*
X94490000Y-54510000D03*
X102530000Y-66380000D03*
X112990000Y-67160000D03*
X158990000Y-65210000D03*
X165500000Y-55220000D03*
X159060000Y-66665000D03*
X164990000Y-67310000D03*
X164790000Y-55970000D03*
X158410000Y-63620000D03*
X165290000Y-62345000D03*
X165903497Y-67369299D03*
D20*
X109775000Y-68345000D02*
X109770000Y-68350000D01*
X109770000Y-68350000D02*
X103780000Y-68350000D01*
X103780000Y-68350000D02*
X101520000Y-70610000D01*
X144820000Y-59180000D02*
X146790000Y-57210000D01*
X144290000Y-66210000D02*
X144820000Y-65680000D01*
X144820000Y-65680000D02*
X144820000Y-59180000D01*
D21*
X125290000Y-72030000D02*
X125290000Y-73010000D01*
X125290000Y-73010000D02*
X123540000Y-74760000D01*
X117790000Y-74810000D02*
X119640000Y-74810000D01*
X119690000Y-74760000D02*
X119640000Y-74810000D01*
X123540000Y-74760000D02*
X119690000Y-74760000D01*
D20*
X175220000Y-77550000D02*
X174450000Y-77550000D01*
X138770000Y-83880000D02*
X132850000Y-77960000D01*
X175230000Y-77540000D02*
X175220000Y-77550000D01*
X168120000Y-83880000D02*
X138770000Y-83880000D01*
X174450000Y-77550000D02*
X168120000Y-83880000D01*
X132850000Y-77960000D02*
X132750000Y-77960000D01*
X142220000Y-68880000D02*
X141490000Y-69610000D01*
X154560000Y-69250000D02*
X154560000Y-69220000D01*
X154220000Y-68880000D02*
X142220000Y-68880000D01*
X154560000Y-69220000D02*
X154220000Y-68880000D01*
X133790000Y-78140000D02*
X133790000Y-78100000D01*
X167870000Y-83300000D02*
X138950000Y-83300000D01*
X138950000Y-83300000D02*
X133790000Y-78140000D01*
X174890000Y-76280000D02*
X167870000Y-83300000D01*
X175250000Y-76280000D02*
X174890000Y-76280000D01*
X142790000Y-69860000D02*
X142790000Y-70960000D01*
X154140000Y-69770000D02*
X154130000Y-69770000D01*
X142791000Y-70959000D02*
X142790000Y-70960000D01*
X154130000Y-69770000D02*
X153600000Y-69240000D01*
X143410000Y-69240000D02*
X142790000Y-69860000D01*
X153600000Y-69240000D02*
X143410000Y-69240000D01*
X138690000Y-66760000D02*
X139130000Y-66320000D01*
X138710000Y-71230000D02*
X138690000Y-71210000D01*
X147340000Y-67710000D02*
X141210000Y-67710000D01*
X141210000Y-67710000D02*
X139820000Y-66320000D01*
X138690000Y-71210000D02*
X138690000Y-66760000D01*
X139820000Y-66320000D02*
X139630000Y-66320000D01*
X147890000Y-68260000D02*
X147340000Y-67710000D01*
X139130000Y-66320000D02*
X139630000Y-66320000D01*
X135190000Y-71260000D02*
X135190000Y-65110000D01*
X135190000Y-65110000D02*
X135240000Y-65060000D01*
X135180000Y-71270000D02*
X135190000Y-71260000D01*
X135990000Y-71250000D02*
X135990000Y-65810000D01*
X135990000Y-65810000D02*
X135890000Y-65710000D01*
X129790000Y-72140000D02*
X129790000Y-73510000D01*
X129790000Y-73510000D02*
X130190000Y-73910000D01*
X129780000Y-72130000D02*
X129790000Y-72140000D01*
X98360000Y-70610000D02*
X95570000Y-73400000D01*
X101790000Y-70610000D02*
X98360000Y-70610000D01*
X148700000Y-71409000D02*
X147499000Y-72610000D01*
X132340000Y-70610000D02*
X101790000Y-70610000D01*
X147499000Y-72610000D02*
X134340000Y-72610000D01*
X134340000Y-72610000D02*
X132340000Y-70610000D01*
X133870000Y-63050000D02*
X133890000Y-63070000D01*
X133610000Y-63050000D02*
X133870000Y-63050000D01*
X111910000Y-67900000D02*
X125200000Y-67900000D01*
X125200000Y-67900000D02*
X130050000Y-63050000D01*
X111470000Y-67480000D02*
X111490000Y-67480000D01*
X111490000Y-67480000D02*
X111910000Y-67900000D01*
X130050000Y-63050000D02*
X133870000Y-63050000D01*
X154900000Y-68540000D02*
X148970000Y-68540000D01*
X155000000Y-68640000D02*
X154900000Y-68540000D01*
X147640000Y-67210000D02*
X142730000Y-67210000D01*
X142730000Y-67210000D02*
X139690000Y-64170000D01*
X148970000Y-68540000D02*
X147640000Y-67210000D01*
X139690000Y-64170000D02*
X139690000Y-63710000D01*
X142770000Y-65460000D02*
X142640000Y-65460000D01*
X148980000Y-68100000D02*
X147690000Y-66810000D01*
X156120000Y-68340000D02*
X155740000Y-68340000D01*
X144120000Y-66810000D02*
X142770000Y-65460000D01*
X147690000Y-66810000D02*
X144120000Y-66810000D01*
X156130000Y-68350000D02*
X156120000Y-68340000D01*
X155500000Y-68100000D02*
X148980000Y-68100000D01*
X155740000Y-68340000D02*
X155500000Y-68100000D01*
X112050000Y-68400000D02*
X128620000Y-68400000D01*
X111970000Y-68480000D02*
X112050000Y-68400000D01*
X132000000Y-65020000D02*
X133890000Y-65020000D01*
X128620000Y-68400000D02*
X132000000Y-65020000D01*
X109090000Y-76560000D02*
X109740000Y-75910000D01*
X109740000Y-75910000D02*
X129422993Y-75910000D01*
X129422993Y-75910000D02*
X129882668Y-76369675D01*
X157860000Y-75535000D02*
X143965000Y-75535000D01*
X143965000Y-75535000D02*
X143890000Y-75460000D01*
X160235000Y-75010000D02*
X144490000Y-75010000D01*
X160360000Y-75135000D02*
X160235000Y-75010000D01*
X129890000Y-77060000D02*
X107050000Y-77060000D01*
X107050000Y-77060000D02*
X106550000Y-76560000D01*
X145115000Y-74435000D02*
X145090000Y-74460000D01*
X161610000Y-74435000D02*
X145115000Y-74435000D01*
X114310000Y-75560000D02*
X110360000Y-71610000D01*
X133340000Y-77460000D02*
X131440000Y-75560000D01*
X131440000Y-75560000D02*
X114310000Y-75560000D01*
X137780000Y-86330000D02*
X137780000Y-85720000D01*
X100830000Y-87520000D02*
X102080000Y-88770000D01*
X102080000Y-88770000D02*
X135340000Y-88770000D01*
X135340000Y-88770000D02*
X137780000Y-86330000D01*
X136590000Y-86520000D02*
X136590000Y-85710000D01*
X104200000Y-88350000D02*
X134760000Y-88350000D01*
X100830000Y-84980000D02*
X104200000Y-88350000D01*
X134760000Y-88350000D02*
X136590000Y-86520000D01*
X113300000Y-66520000D02*
X111330000Y-66520000D01*
X101300000Y-67290000D02*
X101270000Y-67290000D01*
X113700000Y-66920000D02*
X113300000Y-66520000D01*
X113700000Y-66990000D02*
X113700000Y-66920000D01*
X110150000Y-67700000D02*
X101710000Y-67700000D01*
X111330000Y-66520000D02*
X110150000Y-67700000D01*
X101710000Y-67700000D02*
X101300000Y-67290000D01*
X153640000Y-66160000D02*
X152690000Y-67110000D01*
X156990000Y-62410000D02*
X156390000Y-63010000D01*
X156390000Y-63010000D02*
X154890000Y-63010000D01*
X152690000Y-67110000D02*
X152690000Y-67510000D01*
X153640000Y-64260000D02*
X153640000Y-66160000D01*
X156990000Y-62310000D02*
X156990000Y-62410000D01*
X154890000Y-63010000D02*
X153640000Y-64260000D01*
X152960471Y-64039529D02*
X152960471Y-66180471D01*
X151690000Y-67450942D02*
X151690000Y-67510000D01*
X154490000Y-62510000D02*
X152960471Y-64039529D01*
X156140000Y-62510000D02*
X154490000Y-62510000D01*
X152960471Y-66180471D02*
X151690000Y-67450942D01*
X138990000Y-84430000D02*
X127760000Y-84430000D01*
X127760000Y-84430000D02*
X125930000Y-82600000D01*
X125930000Y-82600000D02*
X125590000Y-82600000D01*
X140190000Y-84460000D02*
X139630000Y-85020000D01*
X139630000Y-85020000D02*
X125900000Y-85020000D01*
X125900000Y-85020000D02*
X125590000Y-84710000D01*
X140190000Y-84430000D02*
X140190000Y-84460000D01*
X94800000Y-54820000D02*
X94490000Y-54510000D01*
X113870000Y-66090000D02*
X111120000Y-66090000D01*
X102680000Y-54820000D02*
X94800000Y-54820000D01*
X115090000Y-64010000D02*
X115090000Y-64870000D01*
X115090000Y-64870000D02*
X113870000Y-66090000D01*
X103200000Y-66920000D02*
X103200000Y-55340000D01*
X109930000Y-67280000D02*
X103560000Y-67280000D01*
X103200000Y-55340000D02*
X102680000Y-54820000D01*
X111120000Y-66090000D02*
X109930000Y-67280000D01*
X103560000Y-67280000D02*
X103200000Y-66920000D01*
X159705000Y-67310000D02*
X159060000Y-66665000D01*
X164990000Y-67310000D02*
X159705000Y-67310000D01*
X164800000Y-66265802D02*
X164800000Y-62835000D01*
X164800000Y-62835000D02*
X165290000Y-62345000D01*
X165903497Y-67369299D02*
X164800000Y-66265802D01*
G04 #@! TA.AperFunction,Conductor*
G36*
X164434582Y-50080185D02*
G01*
X164480337Y-50132989D01*
X164491542Y-50183989D01*
X164512781Y-55336157D01*
X164493373Y-55403277D01*
X164457673Y-55439770D01*
X164391267Y-55484141D01*
X164391263Y-55484144D01*
X164304144Y-55571263D01*
X164304141Y-55571267D01*
X164235692Y-55673707D01*
X164235687Y-55673716D01*
X164188538Y-55787545D01*
X164188535Y-55787555D01*
X164164500Y-55908389D01*
X164164500Y-56031610D01*
X164188535Y-56152444D01*
X164188538Y-56152454D01*
X164235687Y-56266283D01*
X164235692Y-56266292D01*
X164307526Y-56373798D01*
X164305768Y-56374972D01*
X164329339Y-56430450D01*
X164318097Y-56498203D01*
X164299565Y-56537057D01*
X164299562Y-56537064D01*
X164279727Y-56604031D01*
X164279723Y-56604049D01*
X164263029Y-56718250D01*
X164263029Y-56718254D01*
X164254042Y-60563529D01*
X164254042Y-60563531D01*
X164263227Y-60650293D01*
X164274456Y-60702142D01*
X164274460Y-60702160D01*
X164297328Y-60774345D01*
X164297332Y-60774353D01*
X164364430Y-60882000D01*
X164364444Y-60882019D01*
X164378771Y-60898537D01*
X164410220Y-60934796D01*
X164483475Y-61000066D01*
X164494442Y-61009837D01*
X164492058Y-61012512D01*
X164526081Y-61052946D01*
X164536551Y-61102306D01*
X164541773Y-62368892D01*
X164533181Y-62398605D01*
X164526608Y-62428826D01*
X164523080Y-62433539D01*
X164522365Y-62436012D01*
X164505458Y-62457081D01*
X164490597Y-62471943D01*
X164490594Y-62471946D01*
X164490593Y-62471946D01*
X164490594Y-62471947D01*
X164419503Y-62543037D01*
X164356905Y-62651463D01*
X164352595Y-62667548D01*
X164324500Y-62772399D01*
X164324500Y-66203201D01*
X164324500Y-66328403D01*
X164356905Y-66449338D01*
X164408516Y-66538733D01*
X164419504Y-66557764D01*
X164419506Y-66557767D01*
X164440889Y-66579150D01*
X164474374Y-66640473D01*
X164469390Y-66710165D01*
X164427518Y-66766098D01*
X164362054Y-66790515D01*
X164353707Y-66790830D01*
X159927960Y-66808639D01*
X159898253Y-66800045D01*
X159868034Y-66793472D01*
X159863315Y-66789939D01*
X159860842Y-66789224D01*
X159839780Y-66772321D01*
X159715735Y-66648276D01*
X159682250Y-66586953D01*
X159681810Y-66584843D01*
X159661463Y-66482548D01*
X159614311Y-66368714D01*
X159602283Y-66350713D01*
X159581407Y-66284043D01*
X159568196Y-65475352D01*
X159577618Y-65425876D01*
X159582656Y-65413714D01*
X159591463Y-65392452D01*
X159615500Y-65271606D01*
X159615500Y-65148394D01*
X159591463Y-65027548D01*
X159568659Y-64972496D01*
X159559239Y-64927075D01*
X159490000Y-60688816D01*
X115136568Y-60620804D01*
X115069559Y-60601017D01*
X115049077Y-60584485D01*
X114988736Y-60524144D01*
X114988732Y-60524141D01*
X114886292Y-60455692D01*
X114886283Y-60455687D01*
X114772454Y-60408538D01*
X114772455Y-60408538D01*
X114772452Y-60408537D01*
X114772448Y-60408536D01*
X114772444Y-60408535D01*
X114651610Y-60384500D01*
X114651606Y-60384500D01*
X114528394Y-60384500D01*
X114528389Y-60384500D01*
X114407555Y-60408535D01*
X114407545Y-60408538D01*
X114293716Y-60455687D01*
X114293707Y-60455692D01*
X114191267Y-60524141D01*
X114191263Y-60524144D01*
X114132597Y-60582811D01*
X114071274Y-60616296D01*
X114044726Y-60619130D01*
X112414895Y-60616630D01*
X112390896Y-60614248D01*
X112304103Y-60596985D01*
X112291606Y-60594500D01*
X112168394Y-60594500D01*
X112153385Y-60597485D01*
X112071936Y-60613685D01*
X112047557Y-60616067D01*
X108790000Y-60611072D01*
X108790000Y-66680500D01*
X108770315Y-66747539D01*
X108717511Y-66793294D01*
X108666000Y-66804500D01*
X103808321Y-66804500D01*
X103778880Y-66795855D01*
X103748894Y-66789332D01*
X103743878Y-66785577D01*
X103741282Y-66784815D01*
X103720640Y-66768181D01*
X103711819Y-66759360D01*
X103678334Y-66698037D01*
X103675500Y-66671679D01*
X103675500Y-55277400D01*
X103658616Y-55214388D01*
X103643095Y-55156464D01*
X103638805Y-55149033D01*
X103638804Y-55149030D01*
X103605821Y-55091902D01*
X130689500Y-55091902D01*
X130689500Y-55328097D01*
X130726446Y-55561368D01*
X130799433Y-55785996D01*
X130906657Y-55996433D01*
X131045483Y-56187510D01*
X131212490Y-56354517D01*
X131403567Y-56493343D01*
X131489359Y-56537056D01*
X131614003Y-56600566D01*
X131614005Y-56600566D01*
X131614008Y-56600568D01*
X131734412Y-56639689D01*
X131838631Y-56673553D01*
X132071903Y-56710500D01*
X132071908Y-56710500D01*
X132308097Y-56710500D01*
X132541368Y-56673553D01*
X132765992Y-56600568D01*
X132976433Y-56493343D01*
X133167510Y-56354517D01*
X133334517Y-56187510D01*
X133473343Y-55996433D01*
X133580568Y-55785992D01*
X133653553Y-55561368D01*
X133660201Y-55519392D01*
X133690500Y-55328097D01*
X133690500Y-55091902D01*
X133653553Y-54858631D01*
X133580566Y-54634003D01*
X133524002Y-54522991D01*
X133473343Y-54423567D01*
X133334517Y-54232490D01*
X133167510Y-54065483D01*
X132976433Y-53926657D01*
X132765996Y-53819433D01*
X132541368Y-53746446D01*
X132308097Y-53709500D01*
X132308092Y-53709500D01*
X132071908Y-53709500D01*
X132071903Y-53709500D01*
X131838631Y-53746446D01*
X131614003Y-53819433D01*
X131403566Y-53926657D01*
X131294550Y-54005862D01*
X131212490Y-54065483D01*
X131212488Y-54065485D01*
X131212487Y-54065485D01*
X131045485Y-54232487D01*
X131045485Y-54232488D01*
X131045483Y-54232490D01*
X130985862Y-54314550D01*
X130906657Y-54423566D01*
X130799433Y-54634003D01*
X130726446Y-54858631D01*
X130689500Y-55091902D01*
X103605821Y-55091902D01*
X103580499Y-55048042D01*
X103580493Y-55048034D01*
X103426319Y-54893860D01*
X103392834Y-54832537D01*
X103390000Y-54806179D01*
X103390000Y-50184500D01*
X103409685Y-50117461D01*
X103462489Y-50071706D01*
X103514000Y-50060500D01*
X164367543Y-50060500D01*
X164434582Y-50080185D01*
G37*
G04 #@! TD.AperFunction*
G04 #@! TA.AperFunction,Conductor*
G36*
X183482491Y-61105311D02*
G01*
X183528271Y-61158093D01*
X183539500Y-61209657D01*
X183539500Y-66666000D01*
X183519815Y-66733039D01*
X183467011Y-66778794D01*
X183415500Y-66790000D01*
X166164122Y-66790000D01*
X166133279Y-66786103D01*
X166124779Y-66783920D01*
X166085949Y-66767836D01*
X165980372Y-66746836D01*
X165977058Y-66745985D01*
X165949847Y-66729785D01*
X165921799Y-66715114D01*
X165920220Y-66713563D01*
X165311819Y-66105162D01*
X165278334Y-66043839D01*
X165275500Y-66017481D01*
X165275500Y-63114000D01*
X165295185Y-63046961D01*
X165347989Y-63001206D01*
X165399500Y-62990000D01*
X165976953Y-62990000D01*
X165976954Y-62990000D01*
X165969250Y-61218190D01*
X165988643Y-61151068D01*
X166041248Y-61105084D01*
X166093189Y-61093653D01*
X183415446Y-61085658D01*
X183482491Y-61105311D01*
G37*
G04 #@! TD.AperFunction*
G04 #@! TA.AperFunction,Conductor*
G36*
X94312165Y-55112381D02*
G01*
X94409786Y-55131798D01*
X94471697Y-55164183D01*
X94473276Y-55165735D01*
X94508036Y-55200495D01*
X94616464Y-55263095D01*
X94737399Y-55295500D01*
X102431679Y-55295500D01*
X102461119Y-55304144D01*
X102491106Y-55310668D01*
X102496121Y-55314422D01*
X102498718Y-55315185D01*
X102519360Y-55331819D01*
X102688181Y-55500640D01*
X102721666Y-55561963D01*
X102724500Y-55588321D01*
X102724500Y-58730500D01*
X102704815Y-58797539D01*
X102652011Y-58843294D01*
X102600500Y-58854500D01*
X102483389Y-58854500D01*
X102362555Y-58878535D01*
X102362545Y-58878538D01*
X102309378Y-58900561D01*
X102261925Y-58910000D01*
X101990000Y-58910000D01*
X101990000Y-59160711D01*
X101980561Y-59208163D01*
X101943539Y-59297541D01*
X101943535Y-59297555D01*
X101919500Y-59418389D01*
X101919500Y-59541610D01*
X101943535Y-59662444D01*
X101943538Y-59662454D01*
X101980561Y-59751834D01*
X101990000Y-59799287D01*
X101990000Y-60900853D01*
X101970315Y-60967892D01*
X101917511Y-61013647D01*
X101866000Y-61024853D01*
X84164500Y-61024853D01*
X84097461Y-61005168D01*
X84051706Y-60952364D01*
X84040500Y-60900853D01*
X84040500Y-55234000D01*
X84060185Y-55166961D01*
X84112989Y-55121206D01*
X84164500Y-55110000D01*
X94287981Y-55110000D01*
X94312165Y-55112381D01*
G37*
G04 #@! TD.AperFunction*
G04 #@! TA.AperFunction,Conductor*
G36*
X102667539Y-61450038D02*
G01*
X102713294Y-61502842D01*
X102724500Y-61554353D01*
X102724500Y-65630775D01*
X102704815Y-65697814D01*
X102652011Y-65743569D01*
X102597698Y-65752628D01*
X102597698Y-65754500D01*
X102468389Y-65754500D01*
X102347555Y-65778535D01*
X102347545Y-65778538D01*
X102245241Y-65820914D01*
X102197788Y-65830353D01*
X101990000Y-65830353D01*
X101990000Y-66025878D01*
X101977028Y-66077675D01*
X101978020Y-66078086D01*
X101928538Y-66197545D01*
X101928535Y-66197555D01*
X101904500Y-66318389D01*
X101904500Y-66441610D01*
X101928535Y-66562444D01*
X101928538Y-66562454D01*
X101978021Y-66681915D01*
X101977026Y-66682327D01*
X101990000Y-66734120D01*
X101990000Y-67505669D01*
X101970315Y-67572708D01*
X101917511Y-67618463D01*
X101865319Y-67629667D01*
X84163819Y-67532406D01*
X84096888Y-67512354D01*
X84051424Y-67459299D01*
X84040500Y-67408408D01*
X84040500Y-61554353D01*
X84060185Y-61487314D01*
X84112989Y-61441559D01*
X84164500Y-61430353D01*
X102600500Y-61430353D01*
X102667539Y-61450038D01*
G37*
G04 #@! TD.AperFunction*
G04 #@! TA.AperFunction,Conductor*
G36*
X183482235Y-55479257D02*
G01*
X183528144Y-55531927D01*
X183539500Y-55583767D01*
X183539500Y-60556158D01*
X183519815Y-60623197D01*
X183467011Y-60668952D01*
X183415557Y-60680158D01*
X164783598Y-60688758D01*
X164716550Y-60669104D01*
X164670770Y-60616322D01*
X164659541Y-60564470D01*
X164668528Y-56719207D01*
X164688370Y-56652217D01*
X164741280Y-56606586D01*
X164792528Y-56595500D01*
X164851607Y-56595500D01*
X164851608Y-56595499D01*
X164972452Y-56571463D01*
X165086286Y-56524311D01*
X165188733Y-56455858D01*
X165202715Y-56441875D01*
X165264032Y-56408389D01*
X165289616Y-56405557D01*
X166190000Y-56400000D01*
X166190000Y-55633638D01*
X166209685Y-55566599D01*
X166262489Y-55520844D01*
X166313635Y-55509639D01*
X183415140Y-55459768D01*
X183482235Y-55479257D01*
G37*
G04 #@! TD.AperFunction*
G04 #@! TA.AperFunction,Conductor*
G36*
X111682119Y-61021007D02*
G01*
X111749127Y-61040794D01*
X111794801Y-61093669D01*
X111804072Y-61155855D01*
X111804500Y-61155855D01*
X111804500Y-61158728D01*
X111804867Y-61161190D01*
X111804500Y-61163977D01*
X111804500Y-61163982D01*
X111804500Y-61276018D01*
X111824454Y-61350485D01*
X111833497Y-61384236D01*
X111833499Y-61384241D01*
X111842444Y-61399735D01*
X111858915Y-61467636D01*
X111836062Y-61533662D01*
X111797057Y-61569120D01*
X111708737Y-61620112D01*
X111708734Y-61620114D01*
X111629517Y-61699331D01*
X111629513Y-61699337D01*
X111573498Y-61796357D01*
X111573497Y-61796360D01*
X111544500Y-61904579D01*
X111544500Y-62016615D01*
X111573497Y-62124834D01*
X111629515Y-62221860D01*
X111708737Y-62301082D01*
X111805763Y-62357100D01*
X111913982Y-62386097D01*
X111913984Y-62386097D01*
X112026016Y-62386097D01*
X112026018Y-62386097D01*
X112134237Y-62357100D01*
X112231263Y-62301082D01*
X112310485Y-62221860D01*
X112366503Y-62124834D01*
X112395500Y-62016615D01*
X112395500Y-61904579D01*
X112395340Y-61903982D01*
X114664500Y-61903982D01*
X114664500Y-62016018D01*
X114693497Y-62124237D01*
X114749515Y-62221263D01*
X114828737Y-62300485D01*
X114925763Y-62356503D01*
X115033982Y-62385500D01*
X115033984Y-62385500D01*
X115146016Y-62385500D01*
X115146018Y-62385500D01*
X115254237Y-62356503D01*
X115351263Y-62300485D01*
X115430485Y-62221263D01*
X115486503Y-62124237D01*
X115515500Y-62016018D01*
X115515500Y-61903982D01*
X115486503Y-61795763D01*
X115430485Y-61698737D01*
X115351263Y-61619515D01*
X115286579Y-61582169D01*
X115254239Y-61563498D01*
X115254238Y-61563497D01*
X115254237Y-61563497D01*
X115146018Y-61534500D01*
X115033982Y-61534500D01*
X115033980Y-61534500D01*
X114992972Y-61545487D01*
X114992965Y-61545490D01*
X114925763Y-61563497D01*
X114828737Y-61619515D01*
X114806143Y-61642108D01*
X114806141Y-61642110D01*
X114749514Y-61698738D01*
X114749513Y-61698740D01*
X114693498Y-61795760D01*
X114693497Y-61795763D01*
X114664500Y-61903982D01*
X112395340Y-61903982D01*
X112366503Y-61796360D01*
X112363216Y-61790667D01*
X112357556Y-61780862D01*
X112341083Y-61712962D01*
X112363936Y-61646935D01*
X112402941Y-61611477D01*
X112491263Y-61560485D01*
X112570485Y-61481263D01*
X112626503Y-61384237D01*
X112655500Y-61276018D01*
X112655500Y-61163982D01*
X112655499Y-61163977D01*
X112655354Y-61162875D01*
X112655500Y-61161938D01*
X112655500Y-61155855D01*
X112656449Y-61155855D01*
X112666119Y-61093840D01*
X112712498Y-61041583D01*
X112778480Y-61022688D01*
X114044104Y-61024630D01*
X114051608Y-61024236D01*
X114119587Y-61040378D01*
X114168048Y-61090710D01*
X114177885Y-61115971D01*
X114193497Y-61174238D01*
X114193498Y-61174239D01*
X114249515Y-61271263D01*
X114328737Y-61350485D01*
X114425763Y-61406503D01*
X114533982Y-61435500D01*
X114533984Y-61435500D01*
X114646015Y-61435500D01*
X114646018Y-61435500D01*
X114754237Y-61406503D01*
X114851263Y-61350485D01*
X114930485Y-61271263D01*
X114986503Y-61174237D01*
X115001728Y-61117412D01*
X115038091Y-61057755D01*
X115100937Y-61027225D01*
X115131457Y-61026884D01*
X115131523Y-61025981D01*
X115135935Y-61026302D01*
X115135946Y-61026304D01*
X144420690Y-61071209D01*
X144487699Y-61090996D01*
X144533373Y-61143871D01*
X144544500Y-61195209D01*
X144544500Y-65514522D01*
X144535855Y-65543962D01*
X144529332Y-65573949D01*
X144525577Y-65578964D01*
X144524815Y-65581561D01*
X144508185Y-65602198D01*
X144362202Y-65748182D01*
X144300882Y-65781666D01*
X144274523Y-65784500D01*
X144233982Y-65784500D01*
X144125763Y-65813497D01*
X144125760Y-65813498D01*
X144028740Y-65869513D01*
X144028734Y-65869517D01*
X143949517Y-65948734D01*
X143949513Y-65948740D01*
X143920080Y-65999718D01*
X143869512Y-66047933D01*
X143800905Y-66061154D01*
X143736041Y-66035185D01*
X143725013Y-66025397D01*
X143075050Y-65375435D01*
X143042956Y-65319845D01*
X143036504Y-65295766D01*
X143036503Y-65295764D01*
X143036503Y-65295763D01*
X142980485Y-65198737D01*
X142901263Y-65119515D01*
X142804237Y-65063497D01*
X142696018Y-65034500D01*
X142583982Y-65034500D01*
X142475763Y-65063497D01*
X142475760Y-65063498D01*
X142378740Y-65119513D01*
X142378734Y-65119517D01*
X142299517Y-65198734D01*
X142299513Y-65198740D01*
X142243498Y-65295760D01*
X142243497Y-65295763D01*
X142214500Y-65403982D01*
X142214500Y-65516018D01*
X142243497Y-65624237D01*
X142299515Y-65721263D01*
X142378737Y-65800485D01*
X142475763Y-65856503D01*
X142583982Y-65885500D01*
X142583984Y-65885500D01*
X142696017Y-65885500D01*
X142696018Y-65885500D01*
X142709681Y-65881839D01*
X142713514Y-65880812D01*
X142783364Y-65882474D01*
X142833290Y-65912905D01*
X143643203Y-66722819D01*
X143676688Y-66784142D01*
X143671704Y-66853834D01*
X143629832Y-66909767D01*
X143564368Y-66934184D01*
X143555522Y-66934500D01*
X142895478Y-66934500D01*
X142828439Y-66914815D01*
X142807797Y-66898181D01*
X140042424Y-64132808D01*
X140008939Y-64071485D01*
X140013923Y-64001793D01*
X140026809Y-63978526D01*
X140026421Y-63978302D01*
X140061144Y-63918160D01*
X140086503Y-63874237D01*
X140115500Y-63766018D01*
X140115500Y-63653982D01*
X140086503Y-63545763D01*
X140030485Y-63448737D01*
X139951263Y-63369515D01*
X139871327Y-63323364D01*
X139854239Y-63313498D01*
X139854238Y-63313497D01*
X139854237Y-63313497D01*
X139746018Y-63284500D01*
X139633982Y-63284500D01*
X139525763Y-63313497D01*
X139525760Y-63313498D01*
X139428740Y-63369513D01*
X139428734Y-63369517D01*
X139349517Y-63448734D01*
X139349513Y-63448740D01*
X139293498Y-63545760D01*
X139293497Y-63545763D01*
X139264500Y-63653982D01*
X139264500Y-63766018D01*
X139285868Y-63845763D01*
X139293497Y-63874236D01*
X139293498Y-63874239D01*
X139298827Y-63883469D01*
X139349515Y-63971263D01*
X139349517Y-63971265D01*
X139378181Y-63999929D01*
X139411666Y-64061252D01*
X139414500Y-64087610D01*
X139414500Y-64224800D01*
X139442174Y-64291610D01*
X139456443Y-64326058D01*
X139456444Y-64326059D01*
X142353203Y-67222819D01*
X142386688Y-67284142D01*
X142381704Y-67353834D01*
X142339832Y-67409767D01*
X142274368Y-67434184D01*
X142265522Y-67434500D01*
X141375477Y-67434500D01*
X141308438Y-67414815D01*
X141287796Y-67398181D01*
X140012263Y-66122648D01*
X139992556Y-66096966D01*
X139970485Y-66058737D01*
X139891263Y-65979515D01*
X139794237Y-65923497D01*
X139686018Y-65894500D01*
X139573982Y-65894500D01*
X139465763Y-65923497D01*
X139465760Y-65923498D01*
X139368740Y-65979513D01*
X139368734Y-65979517D01*
X139340071Y-66008181D01*
X139278748Y-66041666D01*
X139252390Y-66044500D01*
X139075197Y-66044500D01*
X138981755Y-66083205D01*
X138981756Y-66083206D01*
X138973941Y-66086443D01*
X138973940Y-66086443D01*
X138533942Y-66526443D01*
X138456444Y-66603940D01*
X138414500Y-66705199D01*
X138414500Y-70872390D01*
X138394815Y-70939429D01*
X138378181Y-70960071D01*
X138369517Y-70968734D01*
X138369513Y-70968740D01*
X138313498Y-71065760D01*
X138313497Y-71065763D01*
X138284500Y-71173982D01*
X138284500Y-71286018D01*
X138313497Y-71394237D01*
X138369515Y-71491263D01*
X138448737Y-71570485D01*
X138545763Y-71626503D01*
X138653982Y-71655500D01*
X138653984Y-71655500D01*
X138766016Y-71655500D01*
X138766018Y-71655500D01*
X138874237Y-71626503D01*
X138971263Y-71570485D01*
X139050485Y-71491263D01*
X139106503Y-71394237D01*
X139135500Y-71286018D01*
X139135500Y-71173982D01*
X139106503Y-71065763D01*
X139050485Y-70968737D01*
X139001819Y-70920071D01*
X138968334Y-70858748D01*
X138965500Y-70832390D01*
X138965500Y-66925477D01*
X138985185Y-66858438D01*
X139001819Y-66837796D01*
X139088667Y-66750948D01*
X139186254Y-66653360D01*
X139247575Y-66619877D01*
X139317266Y-66624861D01*
X139361614Y-66653362D01*
X139368737Y-66660485D01*
X139465763Y-66716503D01*
X139573982Y-66745500D01*
X139573984Y-66745500D01*
X139686014Y-66745500D01*
X139686018Y-66745500D01*
X139750839Y-66728131D01*
X139820684Y-66729794D01*
X139870610Y-66760225D01*
X141053942Y-67943557D01*
X141155200Y-67985500D01*
X141264800Y-67985500D01*
X146135366Y-67985500D01*
X146202405Y-68005185D01*
X146248160Y-68057989D01*
X146258104Y-68127147D01*
X146255140Y-68141591D01*
X146254500Y-68143982D01*
X146254500Y-68256018D01*
X146264673Y-68293982D01*
X146283497Y-68364236D01*
X146283498Y-68364239D01*
X146314826Y-68418500D01*
X146331299Y-68486400D01*
X146308447Y-68552427D01*
X146253526Y-68595617D01*
X146207439Y-68604500D01*
X142165199Y-68604500D01*
X142138644Y-68615500D01*
X142069270Y-68644236D01*
X142069269Y-68644236D01*
X142063947Y-68646440D01*
X142063939Y-68646445D01*
X141562204Y-69148181D01*
X141500881Y-69181666D01*
X141474523Y-69184500D01*
X141433982Y-69184500D01*
X141325763Y-69213497D01*
X141325760Y-69213498D01*
X141228740Y-69269513D01*
X141228734Y-69269517D01*
X141149517Y-69348734D01*
X141149513Y-69348740D01*
X141093498Y-69445760D01*
X141093497Y-69445763D01*
X141064500Y-69553982D01*
X141064500Y-69666018D01*
X141078200Y-69717145D01*
X141093497Y-69774236D01*
X141093498Y-69774239D01*
X141112169Y-69806579D01*
X141149515Y-69871263D01*
X141228737Y-69950485D01*
X141325763Y-70006503D01*
X141433982Y-70035500D01*
X141433984Y-70035500D01*
X141546016Y-70035500D01*
X141546018Y-70035500D01*
X141654237Y-70006503D01*
X141751263Y-69950485D01*
X141830485Y-69871263D01*
X141886503Y-69774237D01*
X141915500Y-69666018D01*
X141915500Y-69625477D01*
X141935185Y-69558438D01*
X141951819Y-69537796D01*
X142297796Y-69191819D01*
X142359119Y-69158334D01*
X142385477Y-69155500D01*
X142805522Y-69155500D01*
X142872561Y-69175185D01*
X142918316Y-69227989D01*
X142928260Y-69297147D01*
X142899235Y-69360703D01*
X142893203Y-69367181D01*
X142633942Y-69626443D01*
X142556444Y-69703940D01*
X142514500Y-69805199D01*
X142514500Y-70582390D01*
X142494815Y-70649429D01*
X142478181Y-70670071D01*
X142449517Y-70698734D01*
X142449513Y-70698740D01*
X142393498Y-70795760D01*
X142393497Y-70795763D01*
X142364500Y-70903982D01*
X142364500Y-71016018D01*
X142393497Y-71124237D01*
X142449515Y-71221263D01*
X142528737Y-71300485D01*
X142625763Y-71356503D01*
X142733982Y-71385500D01*
X142733984Y-71385500D01*
X142846016Y-71385500D01*
X142846018Y-71385500D01*
X142954237Y-71356503D01*
X143051263Y-71300485D01*
X143130485Y-71221263D01*
X143186503Y-71124237D01*
X143215500Y-71016018D01*
X143215500Y-70903982D01*
X143186503Y-70795763D01*
X143130485Y-70698737D01*
X143101819Y-70670071D01*
X143068334Y-70608748D01*
X143065500Y-70582390D01*
X143065500Y-70025477D01*
X143085185Y-69958438D01*
X143101819Y-69937796D01*
X143487797Y-69551819D01*
X143549120Y-69518334D01*
X143575478Y-69515500D01*
X146215943Y-69515500D01*
X146282982Y-69535185D01*
X146328737Y-69587989D01*
X146338681Y-69657147D01*
X146332993Y-69677883D01*
X146333101Y-69677912D01*
X146330997Y-69685761D01*
X146330997Y-69685763D01*
X146302000Y-69793982D01*
X146302000Y-69906018D01*
X146330997Y-70014237D01*
X146387015Y-70111263D01*
X146466237Y-70190485D01*
X146563263Y-70246503D01*
X146671482Y-70275500D01*
X146671484Y-70275500D01*
X146783516Y-70275500D01*
X146783518Y-70275500D01*
X146891737Y-70246503D01*
X146988763Y-70190485D01*
X147067985Y-70111263D01*
X147124003Y-70014237D01*
X147153000Y-69906018D01*
X147153000Y-69793982D01*
X147124003Y-69685763D01*
X147124002Y-69685761D01*
X147121899Y-69677912D01*
X147123476Y-69677489D01*
X147117028Y-69617477D01*
X147148307Y-69554999D01*
X147208398Y-69519350D01*
X147239057Y-69515500D01*
X153434523Y-69515500D01*
X153463963Y-69524144D01*
X153493950Y-69530668D01*
X153498965Y-69534422D01*
X153501562Y-69535185D01*
X153522204Y-69551819D01*
X153678181Y-69707796D01*
X153711666Y-69769119D01*
X153714500Y-69795477D01*
X153714500Y-69826018D01*
X153743497Y-69934237D01*
X153799515Y-70031263D01*
X153878737Y-70110485D01*
X153975763Y-70166503D01*
X154083982Y-70195500D01*
X154083984Y-70195500D01*
X154196016Y-70195500D01*
X154196018Y-70195500D01*
X154304237Y-70166503D01*
X154401263Y-70110485D01*
X154480485Y-70031263D01*
X154536503Y-69934237D01*
X154565500Y-69826018D01*
X154565500Y-69784184D01*
X154585185Y-69717145D01*
X154637989Y-69671390D01*
X154657400Y-69664411D01*
X154724237Y-69646503D01*
X154821263Y-69590485D01*
X154900485Y-69511263D01*
X154956503Y-69414237D01*
X154985500Y-69306018D01*
X154985500Y-69193982D01*
X154985500Y-69185855D01*
X154987333Y-69185855D01*
X154996521Y-69126914D01*
X155042898Y-69074656D01*
X155076597Y-69059985D01*
X155164237Y-69036503D01*
X155261263Y-68980485D01*
X155340485Y-68901263D01*
X155396503Y-68804237D01*
X155425500Y-68696018D01*
X155425500Y-68693507D01*
X155426098Y-68691467D01*
X155426561Y-68687958D01*
X155427108Y-68688030D01*
X155434738Y-68662043D01*
X155442852Y-68630244D01*
X155444536Y-68628674D01*
X155445185Y-68626468D01*
X155469963Y-68604997D01*
X155493985Y-68582628D01*
X155496251Y-68582218D01*
X155497989Y-68580713D01*
X155530447Y-68576045D01*
X155562743Y-68570216D01*
X155565716Y-68570974D01*
X155567147Y-68570769D01*
X155596934Y-68578938D01*
X155600647Y-68580476D01*
X155600654Y-68580482D01*
X155600655Y-68580480D01*
X155685200Y-68615500D01*
X155742390Y-68615500D01*
X155809429Y-68635185D01*
X155830071Y-68651819D01*
X155868737Y-68690485D01*
X155965763Y-68746503D01*
X156073982Y-68775500D01*
X156073984Y-68775500D01*
X156186016Y-68775500D01*
X156186018Y-68775500D01*
X156294237Y-68746503D01*
X156391263Y-68690485D01*
X156470485Y-68611263D01*
X156526503Y-68514237D01*
X156555500Y-68406018D01*
X156555500Y-68293982D01*
X156526503Y-68185763D01*
X156470485Y-68088737D01*
X156391263Y-68009515D01*
X156294237Y-67953497D01*
X156186018Y-67924500D01*
X156073982Y-67924500D01*
X155965763Y-67953497D01*
X155965762Y-67953497D01*
X155907007Y-67987419D01*
X155839106Y-68003890D01*
X155773080Y-67981037D01*
X155757332Y-67967717D01*
X155656058Y-67866443D01*
X155656057Y-67866442D01*
X155648944Y-67863496D01*
X155648944Y-67863495D01*
X155554802Y-67824500D01*
X155554800Y-67824500D01*
X153207840Y-67824500D01*
X153140801Y-67804815D01*
X153095046Y-67752011D01*
X153085102Y-67682853D01*
X153088065Y-67668407D01*
X153092868Y-67650482D01*
X153115500Y-67566018D01*
X153115500Y-67453982D01*
X153086503Y-67345763D01*
X153045260Y-67274328D01*
X153028787Y-67206428D01*
X153051640Y-67140401D01*
X153064960Y-67124654D01*
X153873557Y-66316058D01*
X153886052Y-66285892D01*
X153915500Y-66214800D01*
X153915500Y-64425477D01*
X153935185Y-64358438D01*
X153951819Y-64337796D01*
X154725633Y-63563982D01*
X157984500Y-63563982D01*
X157984500Y-63676018D01*
X158013497Y-63784237D01*
X158069515Y-63881263D01*
X158148737Y-63960485D01*
X158245763Y-64016503D01*
X158353982Y-64045500D01*
X158353984Y-64045500D01*
X158466016Y-64045500D01*
X158466018Y-64045500D01*
X158574237Y-64016503D01*
X158671263Y-63960485D01*
X158750485Y-63881263D01*
X158806503Y-63784237D01*
X158835500Y-63676018D01*
X158835500Y-63563982D01*
X158806503Y-63455763D01*
X158750485Y-63358737D01*
X158671263Y-63279515D01*
X158592839Y-63234237D01*
X158574239Y-63223498D01*
X158574238Y-63223497D01*
X158574237Y-63223497D01*
X158466018Y-63194500D01*
X158353982Y-63194500D01*
X158245763Y-63223497D01*
X158245760Y-63223498D01*
X158148740Y-63279513D01*
X158148734Y-63279517D01*
X158069517Y-63358734D01*
X158069513Y-63358740D01*
X158013498Y-63455760D01*
X158013497Y-63455763D01*
X157984500Y-63563982D01*
X154725633Y-63563982D01*
X154967796Y-63321819D01*
X155029119Y-63288334D01*
X155055477Y-63285500D01*
X156444799Y-63285500D01*
X156444800Y-63285500D01*
X156546058Y-63243557D01*
X156623557Y-63166058D01*
X156623556Y-63166058D01*
X156682125Y-63107489D01*
X157033586Y-62756028D01*
X157089171Y-62723937D01*
X157154237Y-62706503D01*
X157251263Y-62650485D01*
X157330485Y-62571263D01*
X157386503Y-62474237D01*
X157415500Y-62366018D01*
X157415500Y-62253982D01*
X157386503Y-62145763D01*
X157330485Y-62048737D01*
X157251263Y-61969515D01*
X157181965Y-61929506D01*
X157154239Y-61913498D01*
X157154238Y-61913497D01*
X157154237Y-61913497D01*
X157046018Y-61884500D01*
X156933982Y-61884500D01*
X156825763Y-61913497D01*
X156825760Y-61913498D01*
X156728740Y-61969513D01*
X156728734Y-61969517D01*
X156649517Y-62048734D01*
X156649515Y-62048737D01*
X156595240Y-62142744D01*
X156544673Y-62190959D01*
X156476065Y-62204181D01*
X156411201Y-62178213D01*
X156402288Y-62170302D01*
X156401267Y-62169519D01*
X156401263Y-62169515D01*
X156322839Y-62124237D01*
X156304239Y-62113498D01*
X156304238Y-62113497D01*
X156304237Y-62113497D01*
X156196018Y-62084500D01*
X156083982Y-62084500D01*
X155975763Y-62113497D01*
X155975760Y-62113498D01*
X155878740Y-62169513D01*
X155878734Y-62169517D01*
X155850071Y-62198181D01*
X155788748Y-62231666D01*
X155762390Y-62234500D01*
X154544800Y-62234500D01*
X154435200Y-62234500D01*
X154435198Y-62234500D01*
X154435196Y-62234501D01*
X154333944Y-62276439D01*
X154333942Y-62276441D01*
X152804413Y-63805972D01*
X152726915Y-63883469D01*
X152684971Y-63984728D01*
X152684971Y-66014993D01*
X152665286Y-66082032D01*
X152648652Y-66102674D01*
X151701570Y-67049756D01*
X151641826Y-67082378D01*
X151641832Y-67082397D01*
X151641754Y-67082417D01*
X151640247Y-67083241D01*
X151635764Y-67084022D01*
X151525763Y-67113497D01*
X151525760Y-67113498D01*
X151428740Y-67169513D01*
X151428734Y-67169517D01*
X151349517Y-67248734D01*
X151349513Y-67248740D01*
X151293498Y-67345760D01*
X151293497Y-67345763D01*
X151264500Y-67453982D01*
X151264500Y-67566018D01*
X151281795Y-67630564D01*
X151291935Y-67668407D01*
X151290272Y-67738257D01*
X151251109Y-67796119D01*
X151186881Y-67823623D01*
X151172160Y-67824500D01*
X149145478Y-67824500D01*
X149078439Y-67804815D01*
X149057797Y-67788181D01*
X147846059Y-66576444D01*
X147846058Y-66576443D01*
X147744800Y-66534500D01*
X144805160Y-66534500D01*
X144785689Y-66528782D01*
X144765412Y-66527957D01*
X144752846Y-66519138D01*
X144738121Y-66514815D01*
X144724832Y-66499479D01*
X144708220Y-66487821D01*
X144702417Y-66473610D01*
X144692366Y-66462011D01*
X144689477Y-66441924D01*
X144681806Y-66423137D01*
X144683583Y-66400927D01*
X144682422Y-66392853D01*
X144683242Y-66387872D01*
X144685426Y-66376101D01*
X144686503Y-66374237D01*
X144715500Y-66266018D01*
X144715500Y-66214066D01*
X144717582Y-66202849D01*
X144728427Y-66181451D01*
X144735185Y-66158438D01*
X144748410Y-66142026D01*
X144749170Y-66140527D01*
X144750020Y-66140028D01*
X144751819Y-66137796D01*
X144881434Y-66008181D01*
X145053557Y-65836059D01*
X145068292Y-65800485D01*
X145095500Y-65734800D01*
X145095500Y-61196434D01*
X145115185Y-61129395D01*
X145167989Y-61083640D01*
X145219688Y-61072434D01*
X145955947Y-61073563D01*
X146022952Y-61093349D01*
X146043434Y-61109881D01*
X146701414Y-61767861D01*
X146616306Y-61790667D01*
X146513694Y-61849910D01*
X146429910Y-61933694D01*
X146370667Y-62036306D01*
X146347861Y-62121414D01*
X145710524Y-61484077D01*
X145710523Y-61484077D01*
X145678143Y-61528644D01*
X145585244Y-61710968D01*
X145522009Y-61905582D01*
X145490000Y-62107682D01*
X145490000Y-62312317D01*
X145522009Y-62514417D01*
X145585244Y-62709031D01*
X145678141Y-62891350D01*
X145678147Y-62891359D01*
X145710523Y-62935921D01*
X145710524Y-62935922D01*
X146347861Y-62298584D01*
X146370667Y-62383694D01*
X146429910Y-62486306D01*
X146513694Y-62570090D01*
X146616306Y-62629333D01*
X146701414Y-62652137D01*
X146064076Y-63289474D01*
X146108650Y-63321859D01*
X146290968Y-63414755D01*
X146485582Y-63477990D01*
X146687683Y-63510000D01*
X146892317Y-63510000D01*
X147094417Y-63477990D01*
X147289031Y-63414755D01*
X147471349Y-63321859D01*
X147515921Y-63289474D01*
X146878585Y-62652138D01*
X146963694Y-62629333D01*
X147066306Y-62570090D01*
X147150090Y-62486306D01*
X147209333Y-62383694D01*
X147232138Y-62298585D01*
X147869474Y-62935921D01*
X147901859Y-62891349D01*
X147994755Y-62709031D01*
X148057990Y-62514417D01*
X148090000Y-62312317D01*
X148090000Y-62107682D01*
X148057990Y-61905582D01*
X147994755Y-61710968D01*
X147901859Y-61528650D01*
X147869474Y-61484077D01*
X147869474Y-61484076D01*
X147232137Y-62121413D01*
X147209333Y-62036306D01*
X147150090Y-61933694D01*
X147066306Y-61849910D01*
X146963694Y-61790667D01*
X146878583Y-61767861D01*
X147534010Y-61112436D01*
X147595333Y-61078951D01*
X147621871Y-61076117D01*
X158969256Y-61093518D01*
X159036265Y-61113305D01*
X159081939Y-61166180D01*
X159093049Y-61215493D01*
X159149296Y-64658475D01*
X159130710Y-64725827D01*
X159078660Y-64772438D01*
X159025313Y-64784500D01*
X158933982Y-64784500D01*
X158825763Y-64813497D01*
X158825760Y-64813498D01*
X158728740Y-64869513D01*
X158728734Y-64869517D01*
X158649517Y-64948734D01*
X158649513Y-64948740D01*
X158593498Y-65045760D01*
X158593497Y-65045763D01*
X158564500Y-65153982D01*
X158564500Y-65266018D01*
X158593497Y-65374237D01*
X158649515Y-65471263D01*
X158728737Y-65550485D01*
X158825763Y-65606503D01*
X158933982Y-65635500D01*
X158933984Y-65635500D01*
X159043267Y-65635500D01*
X159110306Y-65655185D01*
X159156061Y-65707989D01*
X159167250Y-65757474D01*
X159173066Y-66113474D01*
X159154480Y-66180827D01*
X159102430Y-66227438D01*
X159049083Y-66239500D01*
X159003982Y-66239500D01*
X158895763Y-66268497D01*
X158895760Y-66268498D01*
X158798740Y-66324513D01*
X158798734Y-66324517D01*
X158719517Y-66403734D01*
X158719513Y-66403740D01*
X158663498Y-66500760D01*
X158663497Y-66500763D01*
X158634500Y-66608982D01*
X158634500Y-66721018D01*
X158662566Y-66825760D01*
X158663497Y-66829236D01*
X158663498Y-66829239D01*
X158672923Y-66845564D01*
X158719515Y-66926263D01*
X158798737Y-67005485D01*
X158895763Y-67061503D01*
X159003982Y-67090500D01*
X159044523Y-67090500D01*
X159111562Y-67110185D01*
X159132203Y-67126818D01*
X159349218Y-67343834D01*
X159548942Y-67543558D01*
X159548944Y-67543560D01*
X159615268Y-67571031D01*
X159650200Y-67585500D01*
X164612390Y-67585500D01*
X164679429Y-67605185D01*
X164700071Y-67621819D01*
X164728737Y-67650485D01*
X164825763Y-67706503D01*
X164933982Y-67735500D01*
X164933984Y-67735500D01*
X165046016Y-67735500D01*
X165046018Y-67735500D01*
X165154237Y-67706503D01*
X165251263Y-67650485D01*
X165330485Y-67571263D01*
X165330490Y-67571253D01*
X165330662Y-67571031D01*
X165330865Y-67570882D01*
X165336232Y-67565516D01*
X165337068Y-67566352D01*
X165387089Y-67529827D01*
X165456835Y-67525670D01*
X165517756Y-67559881D01*
X165536425Y-67584513D01*
X165563012Y-67630562D01*
X165642234Y-67709784D01*
X165739260Y-67765802D01*
X165847479Y-67794799D01*
X165847481Y-67794799D01*
X165959513Y-67794799D01*
X165959515Y-67794799D01*
X166067734Y-67765802D01*
X166164760Y-67709784D01*
X166243982Y-67630562D01*
X166300000Y-67533536D01*
X166328997Y-67425317D01*
X166328997Y-67319500D01*
X166348682Y-67252461D01*
X166401486Y-67206706D01*
X166452997Y-67195500D01*
X183415500Y-67195500D01*
X183482539Y-67215185D01*
X183528294Y-67267989D01*
X183539500Y-67319500D01*
X183539500Y-84807293D01*
X183539382Y-84812702D01*
X183521663Y-85218539D01*
X183520720Y-85229316D01*
X183468051Y-85629370D01*
X183466173Y-85640022D01*
X183378837Y-86033974D01*
X183376037Y-86044424D01*
X183254697Y-86429264D01*
X183250997Y-86439429D01*
X183096579Y-86812226D01*
X183092007Y-86822030D01*
X182905690Y-87179942D01*
X182900282Y-87189310D01*
X182683469Y-87529638D01*
X182677264Y-87538499D01*
X182431621Y-87858627D01*
X182424667Y-87866914D01*
X182152061Y-88164412D01*
X182144412Y-88172061D01*
X181846914Y-88444667D01*
X181838627Y-88451621D01*
X181518499Y-88697264D01*
X181509638Y-88703469D01*
X181169310Y-88920282D01*
X181159942Y-88925690D01*
X180802030Y-89112007D01*
X180792226Y-89116579D01*
X180419429Y-89270997D01*
X180409264Y-89274697D01*
X180024424Y-89396037D01*
X180013974Y-89398837D01*
X179620022Y-89486173D01*
X179609370Y-89488051D01*
X179209316Y-89540720D01*
X179198539Y-89541663D01*
X178792703Y-89559382D01*
X178787294Y-89559500D01*
X88792706Y-89559500D01*
X88787297Y-89559382D01*
X88381460Y-89541663D01*
X88370685Y-89540720D01*
X88170656Y-89514385D01*
X87970629Y-89488051D01*
X87959977Y-89486173D01*
X87705393Y-89429733D01*
X87566022Y-89398836D01*
X87555579Y-89396038D01*
X87170733Y-89274696D01*
X87160570Y-89270997D01*
X86787773Y-89116579D01*
X86777969Y-89112007D01*
X86420057Y-88925690D01*
X86410689Y-88920282D01*
X86070361Y-88703469D01*
X86061500Y-88697264D01*
X85741372Y-88451621D01*
X85733085Y-88444667D01*
X85435587Y-88172061D01*
X85427938Y-88164412D01*
X85155332Y-87866914D01*
X85148385Y-87858636D01*
X85098882Y-87794123D01*
X85098882Y-87794122D01*
X84902735Y-87538499D01*
X84896530Y-87529638D01*
X84679717Y-87189310D01*
X84674309Y-87179942D01*
X84608787Y-87054075D01*
X84487989Y-86822024D01*
X84483420Y-86812226D01*
X84328996Y-86439414D01*
X84325307Y-86429279D01*
X84203956Y-86044405D01*
X84201167Y-86033993D01*
X84113823Y-85640010D01*
X84111950Y-85629386D01*
X84059277Y-85229293D01*
X84058337Y-85218558D01*
X84043283Y-84873753D01*
X84040618Y-84812702D01*
X84040500Y-84807293D01*
X84040500Y-79793753D01*
X94400000Y-79793753D01*
X94400000Y-80006246D01*
X94433242Y-80216127D01*
X94433242Y-80216130D01*
X94498904Y-80418217D01*
X94595375Y-80607550D01*
X94634728Y-80661716D01*
X95267037Y-80029408D01*
X95284075Y-80092993D01*
X95349901Y-80207007D01*
X95442993Y-80300099D01*
X95557007Y-80365925D01*
X95620591Y-80382962D01*
X95019971Y-80983581D01*
X95098711Y-81100895D01*
X95099920Y-81104729D01*
X95102844Y-81107491D01*
X95110343Y-81137778D01*
X95119727Y-81167529D01*
X95118671Y-81171408D01*
X95119638Y-81175312D01*
X95109573Y-81204844D01*
X95101383Y-81234947D01*
X95098397Y-81237640D01*
X95097100Y-81241447D01*
X95052051Y-81280483D01*
X95042440Y-81285380D01*
X94988282Y-81324727D01*
X94988282Y-81324728D01*
X95620591Y-81957037D01*
X95557007Y-81974075D01*
X95442993Y-82039901D01*
X95349901Y-82132993D01*
X95284075Y-82247007D01*
X95267037Y-82310591D01*
X94634728Y-81678282D01*
X94634727Y-81678282D01*
X94595380Y-81732439D01*
X94498904Y-81921782D01*
X94433242Y-82123869D01*
X94433242Y-82123872D01*
X94400000Y-82333753D01*
X94400000Y-82546246D01*
X94433242Y-82756127D01*
X94433242Y-82756130D01*
X94498904Y-82958217D01*
X94595375Y-83147550D01*
X94634728Y-83201716D01*
X95267037Y-82569408D01*
X95284075Y-82632993D01*
X95349901Y-82747007D01*
X95442993Y-82840099D01*
X95557007Y-82905925D01*
X95620590Y-82922962D01*
X94988282Y-83555269D01*
X94988282Y-83555270D01*
X95042452Y-83594626D01*
X95052048Y-83599516D01*
X95102844Y-83647491D01*
X95119638Y-83715312D01*
X95097100Y-83781447D01*
X95052051Y-83820483D01*
X95042440Y-83825380D01*
X94988282Y-83864727D01*
X94988282Y-83864728D01*
X95620591Y-84497037D01*
X95557007Y-84514075D01*
X95442993Y-84579901D01*
X95349901Y-84672993D01*
X95284075Y-84787007D01*
X95267037Y-84850591D01*
X94634728Y-84218282D01*
X94634727Y-84218282D01*
X94595380Y-84272439D01*
X94498904Y-84461782D01*
X94433242Y-84663869D01*
X94433242Y-84663872D01*
X94400000Y-84873753D01*
X94400000Y-85086246D01*
X94433242Y-85296127D01*
X94433242Y-85296130D01*
X94498904Y-85498217D01*
X94595375Y-85687550D01*
X94634728Y-85741716D01*
X95267037Y-85109408D01*
X95284075Y-85172993D01*
X95349901Y-85287007D01*
X95442993Y-85380099D01*
X95557007Y-85445925D01*
X95620590Y-85462962D01*
X94951195Y-86132356D01*
X94889872Y-86165841D01*
X94875167Y-86164924D01*
X94875444Y-86167497D01*
X94792626Y-86176401D01*
X94792619Y-86176403D01*
X94657913Y-86226645D01*
X94657906Y-86226649D01*
X94542812Y-86312809D01*
X94542809Y-86312812D01*
X94456649Y-86427906D01*
X94456645Y-86427913D01*
X94406403Y-86562620D01*
X94406401Y-86562627D01*
X94400000Y-86622155D01*
X94400000Y-87270000D01*
X95316988Y-87270000D01*
X95284075Y-87327007D01*
X95250000Y-87454174D01*
X95250000Y-87585826D01*
X95284075Y-87712993D01*
X95316988Y-87770000D01*
X94400000Y-87770000D01*
X94400000Y-88417844D01*
X94406401Y-88477372D01*
X94406403Y-88477379D01*
X94456645Y-88612086D01*
X94456649Y-88612093D01*
X94542809Y-88727187D01*
X94542812Y-88727190D01*
X94657906Y-88813350D01*
X94657913Y-88813354D01*
X94792620Y-88863596D01*
X94792627Y-88863598D01*
X94852155Y-88869999D01*
X94852172Y-88870000D01*
X95500000Y-88870000D01*
X95500000Y-87953012D01*
X95557007Y-87985925D01*
X95684174Y-88020000D01*
X95815826Y-88020000D01*
X95942993Y-87985925D01*
X96000000Y-87953012D01*
X96000000Y-88870000D01*
X96647828Y-88870000D01*
X96647844Y-88869999D01*
X96707372Y-88863598D01*
X96707379Y-88863596D01*
X96842086Y-88813354D01*
X96842093Y-88813350D01*
X96957187Y-88727190D01*
X96957190Y-88727187D01*
X97043350Y-88612093D01*
X97043354Y-88612086D01*
X97072336Y-88534382D01*
X97114207Y-88478448D01*
X97179671Y-88454031D01*
X97247944Y-88468882D01*
X97291619Y-88508823D01*
X97295446Y-88514551D01*
X97361769Y-88558867D01*
X97361770Y-88558868D01*
X97420247Y-88570499D01*
X97420250Y-88570500D01*
X97420252Y-88570500D01*
X99159750Y-88570500D01*
X99159751Y-88570499D01*
X99174568Y-88567552D01*
X99218229Y-88558868D01*
X99218229Y-88558867D01*
X99218231Y-88558867D01*
X99284552Y-88514552D01*
X99328867Y-88448231D01*
X99328867Y-88448229D01*
X99328868Y-88448229D01*
X99340499Y-88389752D01*
X99340500Y-88389750D01*
X99340500Y-86650249D01*
X99340499Y-86650247D01*
X99328868Y-86591770D01*
X99328867Y-86591769D01*
X99284552Y-86525447D01*
X99218230Y-86481132D01*
X99218229Y-86481131D01*
X99159752Y-86469500D01*
X99159748Y-86469500D01*
X97420252Y-86469500D01*
X97420247Y-86469500D01*
X97361770Y-86481131D01*
X97361769Y-86481132D01*
X97295446Y-86525448D01*
X97291617Y-86531179D01*
X97238003Y-86575982D01*
X97168678Y-86584686D01*
X97105652Y-86554529D01*
X97072336Y-86505617D01*
X97043354Y-86427913D01*
X97043350Y-86427906D01*
X96957190Y-86312812D01*
X96957187Y-86312809D01*
X96842093Y-86226649D01*
X96842086Y-86226645D01*
X96707380Y-86176403D01*
X96707373Y-86176401D01*
X96624555Y-86167497D01*
X96624884Y-86164431D01*
X96607875Y-86165330D01*
X96548803Y-86132356D01*
X95879408Y-85462962D01*
X95942993Y-85445925D01*
X96057007Y-85380099D01*
X96150099Y-85287007D01*
X96215925Y-85172993D01*
X96232962Y-85109408D01*
X96865270Y-85741717D01*
X96865270Y-85741716D01*
X96904622Y-85687554D01*
X97001095Y-85498217D01*
X97058343Y-85322026D01*
X97097780Y-85264351D01*
X97162139Y-85237152D01*
X97230985Y-85249066D01*
X97282461Y-85296310D01*
X97290833Y-85312887D01*
X97318673Y-85380099D01*
X97345939Y-85445925D01*
X97359059Y-85477598D01*
X97389474Y-85523117D01*
X97474024Y-85649657D01*
X97620342Y-85795975D01*
X97620345Y-85795977D01*
X97792402Y-85910941D01*
X97983580Y-85990130D01*
X98151218Y-86023475D01*
X98186530Y-86030499D01*
X98186534Y-86030500D01*
X98186535Y-86030500D01*
X98393466Y-86030500D01*
X98393467Y-86030499D01*
X98596420Y-85990130D01*
X98787598Y-85910941D01*
X98959655Y-85795977D01*
X99105977Y-85649655D01*
X99220941Y-85477598D01*
X99300130Y-85286420D01*
X99340500Y-85083465D01*
X99340500Y-84876535D01*
X99340499Y-84876530D01*
X99779500Y-84876530D01*
X99779500Y-85083469D01*
X99819868Y-85286412D01*
X99819870Y-85286420D01*
X99889118Y-85453600D01*
X99899059Y-85477598D01*
X99929474Y-85523117D01*
X100014024Y-85649657D01*
X100160342Y-85795975D01*
X100160345Y-85795977D01*
X100332402Y-85910941D01*
X100523580Y-85990130D01*
X100691218Y-86023475D01*
X100726530Y-86030499D01*
X100726534Y-86030500D01*
X100726535Y-86030500D01*
X100933466Y-86030500D01*
X100933467Y-86030499D01*
X101136420Y-85990130D01*
X101281972Y-85929839D01*
X101351439Y-85922371D01*
X101413918Y-85953646D01*
X101417104Y-85956720D01*
X101718203Y-86257819D01*
X101751688Y-86319142D01*
X101746704Y-86388834D01*
X101704832Y-86444767D01*
X101639368Y-86469184D01*
X101630522Y-86469500D01*
X99960247Y-86469500D01*
X99901770Y-86481131D01*
X99901769Y-86481132D01*
X99835447Y-86525447D01*
X99791132Y-86591769D01*
X99791131Y-86591770D01*
X99779500Y-86650247D01*
X99779500Y-88389752D01*
X99791131Y-88448229D01*
X99791132Y-88448230D01*
X99835447Y-88514552D01*
X99901769Y-88558867D01*
X99901770Y-88558868D01*
X99960247Y-88570499D01*
X99960250Y-88570500D01*
X99960252Y-88570500D01*
X101439523Y-88570500D01*
X101506562Y-88590185D01*
X101527204Y-88606819D01*
X101846443Y-88926058D01*
X101923942Y-89003557D01*
X102025200Y-89045500D01*
X102025201Y-89045500D01*
X135394799Y-89045500D01*
X135394800Y-89045500D01*
X135496058Y-89003557D01*
X135573557Y-88926058D01*
X135573556Y-88926058D01*
X135632125Y-88867489D01*
X135632124Y-88867489D01*
X138013557Y-86486059D01*
X138034944Y-86434425D01*
X138037642Y-86427913D01*
X138046766Y-86405885D01*
X138055500Y-86384800D01*
X138055500Y-86097610D01*
X138075185Y-86030571D01*
X138091819Y-86009929D01*
X138101819Y-85999929D01*
X138120485Y-85981263D01*
X138176503Y-85884237D01*
X138205500Y-85776018D01*
X138205500Y-85663982D01*
X138176503Y-85555763D01*
X138133626Y-85481499D01*
X138117154Y-85413600D01*
X138140006Y-85347573D01*
X138194928Y-85304382D01*
X138241014Y-85295500D01*
X139684799Y-85295500D01*
X139684800Y-85295500D01*
X139786058Y-85253557D01*
X139863557Y-85176058D01*
X139863556Y-85176058D01*
X140147798Y-84891818D01*
X140209122Y-84858334D01*
X140235479Y-84855500D01*
X140246016Y-84855500D01*
X140246018Y-84855500D01*
X140354237Y-84826503D01*
X140451263Y-84770485D01*
X140530485Y-84691263D01*
X140586503Y-84594237D01*
X140615500Y-84486018D01*
X140615500Y-84373982D01*
X140598783Y-84311592D01*
X140600446Y-84241743D01*
X140639609Y-84183881D01*
X140703838Y-84156377D01*
X140718558Y-84155500D01*
X168174799Y-84155500D01*
X168174800Y-84155500D01*
X168276058Y-84113557D01*
X168353557Y-84036058D01*
X174527796Y-77861819D01*
X174554723Y-77847115D01*
X174580542Y-77830523D01*
X174586742Y-77829631D01*
X174589119Y-77828334D01*
X174615477Y-77825500D01*
X174862390Y-77825500D01*
X174929429Y-77845185D01*
X174950071Y-77861819D01*
X174968737Y-77880485D01*
X175065763Y-77936503D01*
X175173982Y-77965500D01*
X175173984Y-77965500D01*
X175286016Y-77965500D01*
X175286018Y-77965500D01*
X175394237Y-77936503D01*
X175491263Y-77880485D01*
X175570485Y-77801263D01*
X175626503Y-77704237D01*
X175655500Y-77596018D01*
X175655500Y-77493982D01*
X180264500Y-77493982D01*
X180264500Y-77606018D01*
X180293497Y-77714237D01*
X180349515Y-77811263D01*
X180428737Y-77890485D01*
X180525763Y-77946503D01*
X180633982Y-77975500D01*
X180633984Y-77975500D01*
X180746016Y-77975500D01*
X180746018Y-77975500D01*
X180854237Y-77946503D01*
X180951263Y-77890485D01*
X181030485Y-77811263D01*
X181086503Y-77714237D01*
X181115500Y-77606018D01*
X181115500Y-77493982D01*
X181086503Y-77385763D01*
X181030485Y-77288737D01*
X180951263Y-77209515D01*
X180854237Y-77153497D01*
X180746018Y-77124500D01*
X180633982Y-77124500D01*
X180525763Y-77153497D01*
X180525760Y-77153498D01*
X180428740Y-77209513D01*
X180428734Y-77209517D01*
X180349517Y-77288734D01*
X180349513Y-77288740D01*
X180293498Y-77385760D01*
X180293497Y-77385763D01*
X180264500Y-77493982D01*
X175655500Y-77493982D01*
X175655500Y-77483982D01*
X175626503Y-77375763D01*
X175570485Y-77278737D01*
X175491263Y-77199515D01*
X175394237Y-77143497D01*
X175286018Y-77114500D01*
X175173982Y-77114500D01*
X175065763Y-77143497D01*
X175065760Y-77143498D01*
X174968740Y-77199513D01*
X174968734Y-77199517D01*
X174930071Y-77238181D01*
X174868748Y-77271666D01*
X174842390Y-77274500D01*
X174584476Y-77274500D01*
X174517437Y-77254815D01*
X174471682Y-77202011D01*
X174461738Y-77132853D01*
X174490763Y-77069297D01*
X174496795Y-77062819D01*
X174663854Y-76895760D01*
X174890008Y-76669605D01*
X174951329Y-76636122D01*
X175021020Y-76641106D01*
X175039686Y-76649900D01*
X175085763Y-76676503D01*
X175193982Y-76705500D01*
X175193984Y-76705500D01*
X175306016Y-76705500D01*
X175306018Y-76705500D01*
X175414237Y-76676503D01*
X175511263Y-76620485D01*
X175590485Y-76541263D01*
X175646503Y-76444237D01*
X175675500Y-76336018D01*
X175675500Y-76223982D01*
X175646503Y-76115763D01*
X175590485Y-76018737D01*
X175511263Y-75939515D01*
X175446579Y-75902169D01*
X175414239Y-75883498D01*
X175414238Y-75883497D01*
X175414237Y-75883497D01*
X175306018Y-75854500D01*
X175193982Y-75854500D01*
X175085763Y-75883497D01*
X175085760Y-75883498D01*
X174988740Y-75939513D01*
X174988734Y-75939517D01*
X174960071Y-75968181D01*
X174900940Y-76001169D01*
X174886861Y-76004500D01*
X174835200Y-76004500D01*
X174775594Y-76029190D01*
X174766387Y-76033003D01*
X174766385Y-76033004D01*
X174733941Y-76046442D01*
X167792204Y-82988181D01*
X167730881Y-83021666D01*
X167704523Y-83024500D01*
X141293656Y-83024500D01*
X141226617Y-83004815D01*
X141180862Y-82952011D01*
X141170918Y-82882853D01*
X141189049Y-82839819D01*
X141186421Y-82838302D01*
X141224186Y-82772891D01*
X141246503Y-82734237D01*
X141275500Y-82626018D01*
X141275500Y-82513982D01*
X141246503Y-82405763D01*
X141190485Y-82308737D01*
X141111263Y-82229515D01*
X141014237Y-82173497D01*
X140906018Y-82144500D01*
X140793982Y-82144500D01*
X140685763Y-82173497D01*
X140685760Y-82173498D01*
X140588740Y-82229513D01*
X140588734Y-82229517D01*
X140509517Y-82308734D01*
X140509513Y-82308740D01*
X140453498Y-82405760D01*
X140453497Y-82405763D01*
X140424500Y-82513982D01*
X140424500Y-82626018D01*
X140446753Y-82709066D01*
X140453497Y-82734236D01*
X140453498Y-82734239D01*
X140513579Y-82838302D01*
X140510532Y-82840060D01*
X140529912Y-82890156D01*
X140515888Y-82958603D01*
X140467086Y-83008604D01*
X140406344Y-83024500D01*
X139115477Y-83024500D01*
X139048438Y-83004815D01*
X139027796Y-82988181D01*
X137318597Y-81278982D01*
X155319500Y-81278982D01*
X155319500Y-81391018D01*
X155348497Y-81499237D01*
X155404515Y-81596263D01*
X155483737Y-81675485D01*
X155580763Y-81731503D01*
X155688982Y-81760500D01*
X155688984Y-81760500D01*
X155801016Y-81760500D01*
X155801018Y-81760500D01*
X155909237Y-81731503D01*
X156006263Y-81675485D01*
X156085485Y-81596263D01*
X156141503Y-81499237D01*
X156170500Y-81391018D01*
X156170500Y-81278982D01*
X156141503Y-81170763D01*
X156085485Y-81073737D01*
X156006263Y-80994515D01*
X155909237Y-80938497D01*
X155801018Y-80909500D01*
X155688982Y-80909500D01*
X155580763Y-80938497D01*
X155580760Y-80938498D01*
X155483740Y-80994513D01*
X155483734Y-80994517D01*
X155404517Y-81073734D01*
X155404513Y-81073740D01*
X155348498Y-81170760D01*
X155348497Y-81170763D01*
X155319500Y-81278982D01*
X137318597Y-81278982D01*
X135573597Y-79533982D01*
X142364500Y-79533982D01*
X142364500Y-79646018D01*
X142393497Y-79754237D01*
X142449515Y-79851263D01*
X142528737Y-79930485D01*
X142625763Y-79986503D01*
X142733982Y-80015500D01*
X142733984Y-80015500D01*
X142846016Y-80015500D01*
X142846018Y-80015500D01*
X142954237Y-79986503D01*
X143051263Y-79930485D01*
X143130485Y-79851263D01*
X143186503Y-79754237D01*
X143215500Y-79646018D01*
X143215500Y-79533982D01*
X143186503Y-79425763D01*
X143130485Y-79328737D01*
X143051263Y-79249515D01*
X142954237Y-79193497D01*
X142846018Y-79164500D01*
X142733982Y-79164500D01*
X142625763Y-79193497D01*
X142625760Y-79193498D01*
X142528740Y-79249513D01*
X142528734Y-79249517D01*
X142449517Y-79328734D01*
X142449513Y-79328740D01*
X142393498Y-79425760D01*
X142393497Y-79425763D01*
X142364500Y-79533982D01*
X135573597Y-79533982D01*
X134818597Y-78778982D01*
X158634500Y-78778982D01*
X158634500Y-78891018D01*
X158663497Y-78999237D01*
X158719515Y-79096263D01*
X158798737Y-79175485D01*
X158895763Y-79231503D01*
X159003982Y-79260500D01*
X159003984Y-79260500D01*
X159116016Y-79260500D01*
X159116018Y-79260500D01*
X159224237Y-79231503D01*
X159321263Y-79175485D01*
X159400485Y-79096263D01*
X159456503Y-78999237D01*
X159485500Y-78891018D01*
X159485500Y-78778982D01*
X159456503Y-78670763D01*
X159400485Y-78573737D01*
X159321263Y-78494515D01*
X159224237Y-78438497D01*
X159116018Y-78409500D01*
X159003982Y-78409500D01*
X158895763Y-78438497D01*
X158895760Y-78438498D01*
X158798740Y-78494513D01*
X158798734Y-78494517D01*
X158719517Y-78573734D01*
X158719513Y-78573740D01*
X158663498Y-78670760D01*
X158663497Y-78670763D01*
X158634500Y-78778982D01*
X134818597Y-78778982D01*
X134251819Y-78212204D01*
X134218334Y-78150881D01*
X134215500Y-78124523D01*
X134215500Y-78043984D01*
X134215500Y-78043982D01*
X134186503Y-77935763D01*
X134130485Y-77838737D01*
X134051263Y-77759515D01*
X133972839Y-77714237D01*
X133954239Y-77703498D01*
X133954238Y-77703497D01*
X133954237Y-77703497D01*
X133851047Y-77675847D01*
X133791387Y-77639483D01*
X133760858Y-77576636D01*
X133763367Y-77523978D01*
X133765500Y-77516018D01*
X133765500Y-77403982D01*
X133736503Y-77295763D01*
X133680485Y-77198737D01*
X133601263Y-77119515D01*
X133504237Y-77063497D01*
X133396018Y-77034500D01*
X133396017Y-77034500D01*
X133355478Y-77034500D01*
X133288439Y-77014815D01*
X133267797Y-76998181D01*
X132519647Y-76250031D01*
X131673597Y-75403982D01*
X143464500Y-75403982D01*
X143464500Y-75516018D01*
X143493497Y-75624237D01*
X143549515Y-75721263D01*
X143628737Y-75800485D01*
X143725763Y-75856503D01*
X143833982Y-75885500D01*
X143833984Y-75885500D01*
X143946016Y-75885500D01*
X143946018Y-75885500D01*
X144054237Y-75856503D01*
X144105142Y-75827112D01*
X144167142Y-75810500D01*
X157482390Y-75810500D01*
X157549429Y-75830185D01*
X157570071Y-75846819D01*
X157598737Y-75875485D01*
X157695763Y-75931503D01*
X157803982Y-75960500D01*
X157803984Y-75960500D01*
X157916016Y-75960500D01*
X157916018Y-75960500D01*
X158024237Y-75931503D01*
X158121263Y-75875485D01*
X158200485Y-75796263D01*
X158256503Y-75699237D01*
X158285500Y-75591018D01*
X158285500Y-75478982D01*
X158275481Y-75441590D01*
X158277144Y-75371744D01*
X158316306Y-75313882D01*
X158380534Y-75286377D01*
X158395256Y-75285500D01*
X159883974Y-75285500D01*
X159951013Y-75305185D01*
X159991361Y-75347499D01*
X160019515Y-75396263D01*
X160098737Y-75475485D01*
X160195763Y-75531503D01*
X160303982Y-75560500D01*
X160303984Y-75560500D01*
X160416016Y-75560500D01*
X160416018Y-75560500D01*
X160524237Y-75531503D01*
X160621263Y-75475485D01*
X160700485Y-75396263D01*
X160756503Y-75299237D01*
X160785500Y-75191018D01*
X160785500Y-75078982D01*
X160756503Y-74970763D01*
X160713626Y-74896499D01*
X160697154Y-74828600D01*
X160720006Y-74762573D01*
X160774928Y-74719382D01*
X160821014Y-74710500D01*
X161232390Y-74710500D01*
X161299429Y-74730185D01*
X161320071Y-74746819D01*
X161348737Y-74775485D01*
X161445763Y-74831503D01*
X161553982Y-74860500D01*
X161553984Y-74860500D01*
X161666016Y-74860500D01*
X161666018Y-74860500D01*
X161774237Y-74831503D01*
X161871263Y-74775485D01*
X161950485Y-74696263D01*
X162006503Y-74599237D01*
X162035500Y-74491018D01*
X162035500Y-74378982D01*
X162006503Y-74270763D01*
X161950485Y-74173737D01*
X161871263Y-74094515D01*
X161774237Y-74038497D01*
X161666018Y-74009500D01*
X161553982Y-74009500D01*
X161445763Y-74038497D01*
X161445760Y-74038498D01*
X161348740Y-74094513D01*
X161348734Y-74094517D01*
X161320071Y-74123181D01*
X161258748Y-74156666D01*
X161232390Y-74159500D01*
X145442610Y-74159500D01*
X145375571Y-74139815D01*
X145354929Y-74123181D01*
X145351265Y-74119517D01*
X145351263Y-74119515D01*
X145272839Y-74074237D01*
X145254239Y-74063498D01*
X145254238Y-74063497D01*
X145254237Y-74063497D01*
X145146018Y-74034500D01*
X145033982Y-74034500D01*
X144925763Y-74063497D01*
X144925760Y-74063498D01*
X144828740Y-74119513D01*
X144828734Y-74119517D01*
X144749517Y-74198734D01*
X144749513Y-74198740D01*
X144693498Y-74295760D01*
X144693497Y-74295763D01*
X144664500Y-74403982D01*
X144664500Y-74460500D01*
X144644815Y-74527539D01*
X144592011Y-74573294D01*
X144540500Y-74584500D01*
X144433982Y-74584500D01*
X144325763Y-74613497D01*
X144325760Y-74613498D01*
X144228740Y-74669513D01*
X144228734Y-74669517D01*
X144149517Y-74748734D01*
X144149513Y-74748740D01*
X144093498Y-74845760D01*
X144093497Y-74845763D01*
X144086002Y-74873737D01*
X144067552Y-74942593D01*
X144031187Y-75002254D01*
X143968340Y-75032783D01*
X143947777Y-75034500D01*
X143833982Y-75034500D01*
X143725763Y-75063497D01*
X143725760Y-75063498D01*
X143628740Y-75119513D01*
X143628734Y-75119517D01*
X143549517Y-75198734D01*
X143549513Y-75198740D01*
X143493498Y-75295760D01*
X143493497Y-75295763D01*
X143464500Y-75403982D01*
X131673597Y-75403982D01*
X131596058Y-75326443D01*
X131494800Y-75284500D01*
X123881255Y-75284500D01*
X123814216Y-75264815D01*
X123768461Y-75212011D01*
X123758517Y-75142853D01*
X123787542Y-75079297D01*
X123793574Y-75072819D01*
X124071878Y-74794515D01*
X125525703Y-73340687D01*
X125525708Y-73340684D01*
X125535911Y-73330480D01*
X125535913Y-73330480D01*
X125610480Y-73255913D01*
X125663207Y-73164587D01*
X125673885Y-73124736D01*
X125690501Y-73062727D01*
X125690501Y-72957273D01*
X125690500Y-72957269D01*
X125690500Y-72195644D01*
X125694725Y-72163551D01*
X125715500Y-72086018D01*
X125715500Y-72073982D01*
X129354500Y-72073982D01*
X129354500Y-72186018D01*
X129363945Y-72221265D01*
X129383497Y-72294236D01*
X129383498Y-72294239D01*
X129387104Y-72300485D01*
X129439515Y-72391263D01*
X129439517Y-72391265D01*
X129478181Y-72429929D01*
X129511666Y-72491252D01*
X129514500Y-72517610D01*
X129514500Y-73564800D01*
X129545848Y-73640479D01*
X129545848Y-73640480D01*
X129556443Y-73666059D01*
X129728181Y-73837796D01*
X129761666Y-73899119D01*
X129764500Y-73925477D01*
X129764500Y-73966018D01*
X129790620Y-74063497D01*
X129793497Y-74074236D01*
X129793498Y-74074239D01*
X129805206Y-74094517D01*
X129849515Y-74171263D01*
X129928737Y-74250485D01*
X130025763Y-74306503D01*
X130133982Y-74335500D01*
X130133984Y-74335500D01*
X130246016Y-74335500D01*
X130246018Y-74335500D01*
X130354237Y-74306503D01*
X130451263Y-74250485D01*
X130530485Y-74171263D01*
X130586503Y-74074237D01*
X130615500Y-73966018D01*
X130615500Y-73853982D01*
X130586503Y-73745763D01*
X130530485Y-73648737D01*
X130451263Y-73569515D01*
X130354237Y-73513497D01*
X130246018Y-73484500D01*
X130246017Y-73484500D01*
X130205478Y-73484500D01*
X130176032Y-73475853D01*
X130146048Y-73469330D01*
X130141035Y-73465577D01*
X130138439Y-73464815D01*
X130117794Y-73448178D01*
X130101816Y-73432199D01*
X130068333Y-73370875D01*
X130065500Y-73344521D01*
X130065500Y-72497610D01*
X130085185Y-72430571D01*
X130101819Y-72409929D01*
X130120485Y-72391263D01*
X130176503Y-72294237D01*
X130205500Y-72186018D01*
X130205500Y-72073982D01*
X130176503Y-71965763D01*
X130120485Y-71868737D01*
X130041263Y-71789515D01*
X129944237Y-71733497D01*
X129836018Y-71704500D01*
X129723982Y-71704500D01*
X129615763Y-71733497D01*
X129615760Y-71733498D01*
X129518740Y-71789513D01*
X129518734Y-71789517D01*
X129439517Y-71868734D01*
X129439513Y-71868740D01*
X129383498Y-71965760D01*
X129383497Y-71965763D01*
X129354500Y-72073982D01*
X125715500Y-72073982D01*
X125715500Y-71973982D01*
X125686503Y-71865763D01*
X125630485Y-71768737D01*
X125551263Y-71689515D01*
X125454237Y-71633497D01*
X125346018Y-71604500D01*
X125233982Y-71604500D01*
X125125763Y-71633497D01*
X125125760Y-71633498D01*
X125028740Y-71689513D01*
X125028734Y-71689517D01*
X124949517Y-71768734D01*
X124949513Y-71768740D01*
X124893498Y-71865760D01*
X124893497Y-71865763D01*
X124864500Y-71973982D01*
X124864500Y-72086018D01*
X124874741Y-72124236D01*
X124885275Y-72163551D01*
X124889500Y-72195644D01*
X124889500Y-72792745D01*
X124869815Y-72859784D01*
X124853181Y-72880426D01*
X123410426Y-74323181D01*
X123349103Y-74356666D01*
X123322745Y-74359500D01*
X121219062Y-74359500D01*
X121152023Y-74339815D01*
X121106268Y-74287011D01*
X121095128Y-74239547D01*
X121093795Y-74198737D01*
X121065500Y-73332170D01*
X121065500Y-73263982D01*
X121062964Y-73254519D01*
X121050725Y-72879685D01*
X117209075Y-72869521D01*
X117209074Y-72869521D01*
X117218659Y-75159981D01*
X117199255Y-75227102D01*
X117146643Y-75273078D01*
X117094660Y-75284500D01*
X114475478Y-75284500D01*
X114408439Y-75264815D01*
X114387797Y-75248181D01*
X110821819Y-71682203D01*
X110788334Y-71620880D01*
X110785500Y-71594522D01*
X110785500Y-71553984D01*
X110785500Y-71553982D01*
X110756503Y-71445763D01*
X110700485Y-71348737D01*
X110621263Y-71269515D01*
X110524237Y-71213497D01*
X110416018Y-71184500D01*
X110303982Y-71184500D01*
X110195763Y-71213497D01*
X110195760Y-71213498D01*
X110098740Y-71269513D01*
X110098734Y-71269517D01*
X110019517Y-71348734D01*
X110019513Y-71348740D01*
X109963498Y-71445760D01*
X109963497Y-71445763D01*
X109934500Y-71553982D01*
X109934500Y-71666018D01*
X109963497Y-71774237D01*
X110019515Y-71871263D01*
X110098737Y-71950485D01*
X110195763Y-72006503D01*
X110303982Y-72035500D01*
X110344523Y-72035500D01*
X110411562Y-72055185D01*
X110432204Y-72071819D01*
X113783203Y-75422819D01*
X113816688Y-75484142D01*
X113811704Y-75553834D01*
X113769832Y-75609767D01*
X113704368Y-75634184D01*
X113695522Y-75634500D01*
X109794800Y-75634500D01*
X109685200Y-75634500D01*
X109685198Y-75634500D01*
X109685196Y-75634501D01*
X109583944Y-75676439D01*
X109583942Y-75676441D01*
X109162204Y-76098181D01*
X109100881Y-76131666D01*
X109074523Y-76134500D01*
X109033982Y-76134500D01*
X108925763Y-76163497D01*
X108925760Y-76163498D01*
X108828740Y-76219513D01*
X108828734Y-76219517D01*
X108749517Y-76298734D01*
X108749513Y-76298740D01*
X108693498Y-76395760D01*
X108693497Y-76395763D01*
X108664500Y-76503982D01*
X108664500Y-76616018D01*
X108667819Y-76628406D01*
X108667820Y-76628407D01*
X108666157Y-76698256D01*
X108626994Y-76756119D01*
X108562766Y-76783623D01*
X108548045Y-76784500D01*
X107215478Y-76784500D01*
X107186037Y-76775855D01*
X107156051Y-76769332D01*
X107151035Y-76765577D01*
X107148439Y-76764815D01*
X107127797Y-76748181D01*
X107011819Y-76632203D01*
X106978334Y-76570880D01*
X106975500Y-76544522D01*
X106975500Y-76503984D01*
X106975500Y-76503982D01*
X106946503Y-76395763D01*
X106890485Y-76298737D01*
X106811263Y-76219515D01*
X106714237Y-76163497D01*
X106606018Y-76134500D01*
X106493982Y-76134500D01*
X106385763Y-76163497D01*
X106385760Y-76163498D01*
X106288740Y-76219513D01*
X106288734Y-76219517D01*
X106209517Y-76298734D01*
X106209513Y-76298740D01*
X106153498Y-76395760D01*
X106153497Y-76395763D01*
X106124500Y-76503982D01*
X106124500Y-76616018D01*
X106153497Y-76724237D01*
X106209515Y-76821263D01*
X106288737Y-76900485D01*
X106385763Y-76956503D01*
X106493982Y-76985500D01*
X106534523Y-76985500D01*
X106601562Y-77005185D01*
X106622203Y-77021818D01*
X106799118Y-77198734D01*
X106893942Y-77293558D01*
X106893944Y-77293560D01*
X106960828Y-77321263D01*
X106995200Y-77335500D01*
X107104800Y-77335500D01*
X116167302Y-77335500D01*
X116234341Y-77355185D01*
X116280096Y-77407989D01*
X116291295Y-77458247D01*
X116296930Y-78016017D01*
X116298230Y-78144748D01*
X116279223Y-78211982D01*
X116226884Y-78258268D01*
X116174236Y-78270000D01*
X115440000Y-78270000D01*
X115440000Y-79150000D01*
X120329308Y-79160081D01*
X120328206Y-78953982D01*
X129434500Y-78953982D01*
X129434500Y-79066018D01*
X129457003Y-79149999D01*
X129463497Y-79174236D01*
X129463498Y-79174239D01*
X129464218Y-79175486D01*
X129519515Y-79271263D01*
X129598737Y-79350485D01*
X129695763Y-79406503D01*
X129803982Y-79435500D01*
X129803984Y-79435500D01*
X129916016Y-79435500D01*
X129916018Y-79435500D01*
X130024237Y-79406503D01*
X130121263Y-79350485D01*
X130200485Y-79271263D01*
X130256503Y-79174237D01*
X130285500Y-79066018D01*
X130285500Y-78953982D01*
X130256503Y-78845763D01*
X130200485Y-78748737D01*
X130121263Y-78669515D01*
X130024237Y-78613497D01*
X129916018Y-78584500D01*
X129803982Y-78584500D01*
X129695763Y-78613497D01*
X129695760Y-78613498D01*
X129598740Y-78669513D01*
X129598734Y-78669517D01*
X129519517Y-78748734D01*
X129519513Y-78748740D01*
X129463498Y-78845760D01*
X129463497Y-78845763D01*
X129434500Y-78953982D01*
X120328206Y-78953982D01*
X120326685Y-78669513D01*
X120320218Y-77460163D01*
X120339544Y-77393019D01*
X120392102Y-77346983D01*
X120444216Y-77335500D01*
X129512390Y-77335500D01*
X129579429Y-77355185D01*
X129600071Y-77371819D01*
X129628737Y-77400485D01*
X129725763Y-77456503D01*
X129833982Y-77485500D01*
X129833984Y-77485500D01*
X129946016Y-77485500D01*
X129946018Y-77485500D01*
X130054237Y-77456503D01*
X130151263Y-77400485D01*
X130230485Y-77321263D01*
X130286503Y-77224237D01*
X130315500Y-77116018D01*
X130315500Y-77003982D01*
X130286503Y-76895763D01*
X130230485Y-76798737D01*
X130230376Y-76798628D01*
X130230315Y-76798516D01*
X130225538Y-76792291D01*
X130226508Y-76791545D01*
X130196891Y-76737305D01*
X130201875Y-76667613D01*
X130219687Y-76635453D01*
X130223145Y-76630945D01*
X130223153Y-76630938D01*
X130279171Y-76533912D01*
X130308168Y-76425693D01*
X130308168Y-76313657D01*
X130279171Y-76205438D01*
X130223153Y-76108412D01*
X130161922Y-76047181D01*
X130128437Y-75985858D01*
X130133421Y-75916166D01*
X130175293Y-75860233D01*
X130240757Y-75835816D01*
X130249603Y-75835500D01*
X131274523Y-75835500D01*
X131341562Y-75855185D01*
X131362204Y-75871819D01*
X132813204Y-77322819D01*
X132846689Y-77384142D01*
X132841705Y-77453834D01*
X132799833Y-77509767D01*
X132734369Y-77534184D01*
X132725523Y-77534500D01*
X132693982Y-77534500D01*
X132585763Y-77563497D01*
X132585760Y-77563498D01*
X132488740Y-77619513D01*
X132488734Y-77619517D01*
X132409517Y-77698734D01*
X132409513Y-77698740D01*
X132353498Y-77795760D01*
X132353497Y-77795763D01*
X132324500Y-77903982D01*
X132324500Y-78016018D01*
X132353497Y-78124237D01*
X132409515Y-78221263D01*
X132488737Y-78300485D01*
X132585763Y-78356503D01*
X132693982Y-78385500D01*
X132693984Y-78385500D01*
X132806016Y-78385500D01*
X132806018Y-78385500D01*
X132806019Y-78385499D01*
X132814074Y-78384439D01*
X132814478Y-78387508D01*
X132869641Y-78388793D01*
X132919629Y-78419244D01*
X138443202Y-83942819D01*
X138476687Y-84004142D01*
X138471703Y-84073834D01*
X138429831Y-84129767D01*
X138364367Y-84154184D01*
X138355521Y-84154500D01*
X127925477Y-84154500D01*
X127858438Y-84134815D01*
X127837796Y-84118181D01*
X126701819Y-82982204D01*
X126668334Y-82920881D01*
X126665500Y-82894523D01*
X126665500Y-82195730D01*
X126662646Y-82165300D01*
X126662646Y-82165298D01*
X126629006Y-82069163D01*
X126617793Y-82037118D01*
X126537150Y-81927850D01*
X126427882Y-81847207D01*
X126427880Y-81847206D01*
X126299700Y-81802353D01*
X126269270Y-81799500D01*
X126269266Y-81799500D01*
X124910734Y-81799500D01*
X124910730Y-81799500D01*
X124880300Y-81802353D01*
X124880298Y-81802353D01*
X124752119Y-81847206D01*
X124752117Y-81847207D01*
X124642850Y-81927850D01*
X124562207Y-82037117D01*
X124562206Y-82037119D01*
X124517353Y-82165298D01*
X124517353Y-82165300D01*
X124514500Y-82195730D01*
X124514500Y-83004269D01*
X124517353Y-83034699D01*
X124517353Y-83034701D01*
X124562206Y-83162880D01*
X124562207Y-83162882D01*
X124642850Y-83272150D01*
X124752118Y-83352793D01*
X124806958Y-83371982D01*
X124863731Y-83412702D01*
X124889478Y-83477655D01*
X124890000Y-83489022D01*
X124890000Y-83854942D01*
X124870315Y-83921981D01*
X124834893Y-83958043D01*
X124804709Y-83978211D01*
X124693213Y-84089707D01*
X124693210Y-84089711D01*
X124605609Y-84220814D01*
X124605602Y-84220827D01*
X124545264Y-84366498D01*
X124545261Y-84366510D01*
X124514500Y-84521153D01*
X124514500Y-84678846D01*
X124545261Y-84833489D01*
X124545264Y-84833501D01*
X124605602Y-84979172D01*
X124605609Y-84979185D01*
X124693210Y-85110288D01*
X124693213Y-85110292D01*
X124804707Y-85221786D01*
X124804711Y-85221789D01*
X124935814Y-85309390D01*
X124935823Y-85309395D01*
X124973265Y-85324904D01*
X125027668Y-85368745D01*
X125049733Y-85435039D01*
X125032454Y-85502738D01*
X124981317Y-85550349D01*
X124964131Y-85557396D01*
X124892742Y-85580591D01*
X124738475Y-85659195D01*
X124598397Y-85760967D01*
X124475967Y-85883397D01*
X124374195Y-86023475D01*
X124295591Y-86177744D01*
X124242085Y-86342415D01*
X124240884Y-86349999D01*
X124240885Y-86350000D01*
X125309670Y-86350000D01*
X125289925Y-86369745D01*
X125240556Y-86455255D01*
X125215000Y-86550630D01*
X125215000Y-86649370D01*
X125240556Y-86744745D01*
X125289925Y-86830255D01*
X125309670Y-86850000D01*
X124240885Y-86850000D01*
X124242085Y-86857584D01*
X124295591Y-87022255D01*
X124374195Y-87176524D01*
X124475967Y-87316602D01*
X124598397Y-87439032D01*
X124738475Y-87540804D01*
X124892742Y-87619408D01*
X125057415Y-87672914D01*
X125228429Y-87700000D01*
X125340000Y-87700000D01*
X125340000Y-86880330D01*
X125359745Y-86900075D01*
X125445255Y-86949444D01*
X125540630Y-86975000D01*
X125639370Y-86975000D01*
X125734745Y-86949444D01*
X125820255Y-86900075D01*
X125840000Y-86880330D01*
X125840000Y-87700000D01*
X125951571Y-87700000D01*
X126122584Y-87672914D01*
X126287257Y-87619408D01*
X126441524Y-87540804D01*
X126581602Y-87439032D01*
X126704032Y-87316602D01*
X126805804Y-87176524D01*
X126884408Y-87022255D01*
X126937914Y-86857584D01*
X126939115Y-86850000D01*
X125870330Y-86850000D01*
X125890075Y-86830255D01*
X125939444Y-86744745D01*
X125965000Y-86649370D01*
X125965000Y-86550630D01*
X125939444Y-86455255D01*
X125890075Y-86369745D01*
X125870330Y-86350000D01*
X126939115Y-86350000D01*
X126939115Y-86349999D01*
X126937914Y-86342415D01*
X126884408Y-86177744D01*
X126805804Y-86023475D01*
X126704032Y-85883397D01*
X126581602Y-85760967D01*
X126441524Y-85659195D01*
X126287256Y-85580591D01*
X126215867Y-85557395D01*
X126194127Y-85542528D01*
X126170475Y-85530943D01*
X126165740Y-85523117D01*
X126158192Y-85517956D01*
X126147941Y-85493699D01*
X126134306Y-85471164D01*
X126134553Y-85462021D01*
X126130994Y-85453598D01*
X126135485Y-85427645D01*
X126136199Y-85401320D01*
X126141349Y-85393764D01*
X126142909Y-85384751D01*
X126160718Y-85365346D01*
X126175551Y-85343586D01*
X126186971Y-85336743D01*
X126190154Y-85333276D01*
X126205748Y-85325316D01*
X126206091Y-85325170D01*
X126244179Y-85309394D01*
X126245761Y-85308336D01*
X126252795Y-85305352D01*
X126269782Y-85303377D01*
X126301233Y-85295500D01*
X136123212Y-85295500D01*
X136190251Y-85315185D01*
X136236006Y-85367989D01*
X136245950Y-85437147D01*
X136230599Y-85481500D01*
X136193498Y-85545760D01*
X136193497Y-85545763D01*
X136164500Y-85653982D01*
X136164500Y-85766018D01*
X136172528Y-85795977D01*
X136193497Y-85874236D01*
X136193498Y-85874239D01*
X136199272Y-85884239D01*
X136249515Y-85971263D01*
X136249517Y-85971265D01*
X136278181Y-85999929D01*
X136311666Y-86061252D01*
X136314500Y-86087610D01*
X136314500Y-86354523D01*
X136294815Y-86421562D01*
X136278181Y-86442204D01*
X134682204Y-88038181D01*
X134620881Y-88071666D01*
X134594523Y-88074500D01*
X104365478Y-88074500D01*
X104298439Y-88054815D01*
X104277797Y-88038181D01*
X102589615Y-86349999D01*
X117590884Y-86349999D01*
X117590885Y-86350000D01*
X118659670Y-86350000D01*
X118639925Y-86369745D01*
X118590556Y-86455255D01*
X118565000Y-86550630D01*
X118565000Y-86649370D01*
X118590556Y-86744745D01*
X118639925Y-86830255D01*
X118659670Y-86850000D01*
X117590885Y-86850000D01*
X117592085Y-86857584D01*
X117645591Y-87022255D01*
X117724195Y-87176524D01*
X117825967Y-87316602D01*
X117948397Y-87439032D01*
X118088475Y-87540804D01*
X118242742Y-87619408D01*
X118407415Y-87672914D01*
X118578429Y-87700000D01*
X118690000Y-87700000D01*
X118690000Y-86880330D01*
X118709745Y-86900075D01*
X118795255Y-86949444D01*
X118890630Y-86975000D01*
X118989370Y-86975000D01*
X119084745Y-86949444D01*
X119170255Y-86900075D01*
X119190000Y-86880330D01*
X119190000Y-87700000D01*
X119301571Y-87700000D01*
X119472584Y-87672914D01*
X119637257Y-87619408D01*
X119791524Y-87540804D01*
X119931602Y-87439032D01*
X120054032Y-87316602D01*
X120155804Y-87176524D01*
X120234408Y-87022255D01*
X120287914Y-86857584D01*
X120289115Y-86850000D01*
X119220330Y-86850000D01*
X119240075Y-86830255D01*
X119289444Y-86744745D01*
X119315000Y-86649370D01*
X119315000Y-86550630D01*
X119289444Y-86455255D01*
X119240075Y-86369745D01*
X119220330Y-86350000D01*
X120289115Y-86350000D01*
X120289115Y-86349999D01*
X120287914Y-86342415D01*
X120234408Y-86177744D01*
X120155804Y-86023475D01*
X120054032Y-85883397D01*
X119931602Y-85760967D01*
X119791524Y-85659195D01*
X119637255Y-85580591D01*
X119565869Y-85557396D01*
X119508193Y-85517958D01*
X119480995Y-85453600D01*
X119492910Y-85384753D01*
X119540154Y-85333278D01*
X119556735Y-85324904D01*
X119594173Y-85309397D01*
X119594176Y-85309395D01*
X119594179Y-85309394D01*
X119725289Y-85221789D01*
X119836789Y-85110289D01*
X119924394Y-84979179D01*
X119984737Y-84833497D01*
X120015500Y-84678842D01*
X120015500Y-84521158D01*
X120015500Y-84521155D01*
X120015499Y-84521153D01*
X119986225Y-84373984D01*
X119984737Y-84366503D01*
X119945775Y-84272439D01*
X119924397Y-84220827D01*
X119924390Y-84220814D01*
X119836789Y-84089711D01*
X119836786Y-84089707D01*
X119725292Y-83978213D01*
X119725288Y-83978210D01*
X119594185Y-83890609D01*
X119594172Y-83890602D01*
X119448501Y-83830264D01*
X119448489Y-83830261D01*
X119293845Y-83799500D01*
X119293842Y-83799500D01*
X118586158Y-83799500D01*
X118586155Y-83799500D01*
X118431510Y-83830261D01*
X118431498Y-83830264D01*
X118285827Y-83890602D01*
X118285814Y-83890609D01*
X118154711Y-83978210D01*
X118154707Y-83978213D01*
X118043213Y-84089707D01*
X118043210Y-84089711D01*
X117955609Y-84220814D01*
X117955602Y-84220827D01*
X117895264Y-84366498D01*
X117895261Y-84366510D01*
X117864500Y-84521153D01*
X117864500Y-84678846D01*
X117895261Y-84833489D01*
X117895264Y-84833501D01*
X117955602Y-84979172D01*
X117955609Y-84979185D01*
X118043210Y-85110288D01*
X118043213Y-85110292D01*
X118154707Y-85221786D01*
X118154711Y-85221789D01*
X118285814Y-85309390D01*
X118285823Y-85309395D01*
X118323265Y-85324904D01*
X118377668Y-85368745D01*
X118399733Y-85435039D01*
X118382454Y-85502738D01*
X118331317Y-85550349D01*
X118314131Y-85557396D01*
X118242742Y-85580591D01*
X118088475Y-85659195D01*
X117948397Y-85760967D01*
X117825967Y-85883397D01*
X117724195Y-86023475D01*
X117645591Y-86177744D01*
X117592085Y-86342415D01*
X117590884Y-86349999D01*
X102589615Y-86349999D01*
X101806720Y-85567104D01*
X101773235Y-85505781D01*
X101778219Y-85436089D01*
X101779823Y-85432011D01*
X101840130Y-85286420D01*
X101880500Y-85083465D01*
X101880500Y-84876535D01*
X101840130Y-84673580D01*
X101760941Y-84482402D01*
X101645977Y-84310345D01*
X101645975Y-84310342D01*
X101499657Y-84164024D01*
X101388432Y-84089707D01*
X101327598Y-84049059D01*
X101219159Y-84004142D01*
X101136420Y-83969870D01*
X101136412Y-83969868D01*
X100933469Y-83929500D01*
X100933465Y-83929500D01*
X100726535Y-83929500D01*
X100726530Y-83929500D01*
X100523587Y-83969868D01*
X100523579Y-83969870D01*
X100332403Y-84049058D01*
X100160342Y-84164024D01*
X100014024Y-84310342D01*
X99899058Y-84482403D01*
X99819870Y-84673579D01*
X99819868Y-84673587D01*
X99779500Y-84876530D01*
X99340499Y-84876530D01*
X99300130Y-84673580D01*
X99220941Y-84482402D01*
X99105977Y-84310345D01*
X99105975Y-84310342D01*
X98959657Y-84164024D01*
X98848432Y-84089707D01*
X98787598Y-84049059D01*
X98679159Y-84004142D01*
X98596420Y-83969870D01*
X98596412Y-83969868D01*
X98393469Y-83929500D01*
X98393465Y-83929500D01*
X98186535Y-83929500D01*
X98186530Y-83929500D01*
X97983587Y-83969868D01*
X97983579Y-83969870D01*
X97792403Y-84049058D01*
X97620342Y-84164024D01*
X97474024Y-84310342D01*
X97359057Y-84482403D01*
X97290835Y-84647108D01*
X97246994Y-84701511D01*
X97180700Y-84723576D01*
X97113000Y-84706297D01*
X97065390Y-84655159D01*
X97058343Y-84637973D01*
X97001095Y-84461782D01*
X96904624Y-84272449D01*
X96865270Y-84218282D01*
X96232962Y-84850590D01*
X96215925Y-84787007D01*
X96150099Y-84672993D01*
X96057007Y-84579901D01*
X95942993Y-84514075D01*
X95879409Y-84497037D01*
X96511716Y-83864728D01*
X96457550Y-83825375D01*
X96447954Y-83820486D01*
X96397157Y-83772512D01*
X96380361Y-83704692D01*
X96402897Y-83638556D01*
X96447954Y-83599514D01*
X96457554Y-83594622D01*
X96511716Y-83555270D01*
X96511717Y-83555270D01*
X95879408Y-82922962D01*
X95942993Y-82905925D01*
X96057007Y-82840099D01*
X96150099Y-82747007D01*
X96215925Y-82632993D01*
X96232962Y-82569408D01*
X96865270Y-83201717D01*
X96865270Y-83201716D01*
X96904622Y-83147554D01*
X97001095Y-82958217D01*
X97058343Y-82782026D01*
X97097780Y-82724351D01*
X97162139Y-82697152D01*
X97230985Y-82709066D01*
X97282461Y-82756310D01*
X97290835Y-82772891D01*
X97352134Y-82920881D01*
X97359059Y-82937598D01*
X97372836Y-82958217D01*
X97474024Y-83109657D01*
X97620342Y-83255975D01*
X97620345Y-83255977D01*
X97792402Y-83370941D01*
X97983580Y-83450130D01*
X98179105Y-83489022D01*
X98186530Y-83490499D01*
X98186534Y-83490500D01*
X98186535Y-83490500D01*
X98393466Y-83490500D01*
X98393467Y-83490499D01*
X98596420Y-83450130D01*
X98787598Y-83370941D01*
X98959655Y-83255977D01*
X99105977Y-83109655D01*
X99220941Y-82937598D01*
X99300130Y-82746420D01*
X99340500Y-82543465D01*
X99340500Y-82336535D01*
X99340499Y-82336530D01*
X99779500Y-82336530D01*
X99779500Y-82543469D01*
X99819868Y-82746412D01*
X99819870Y-82746420D01*
X99892134Y-82920881D01*
X99899059Y-82937598D01*
X99912836Y-82958217D01*
X100014024Y-83109657D01*
X100160342Y-83255975D01*
X100160345Y-83255977D01*
X100332402Y-83370941D01*
X100523580Y-83450130D01*
X100719105Y-83489022D01*
X100726530Y-83490499D01*
X100726534Y-83490500D01*
X100726535Y-83490500D01*
X100933466Y-83490500D01*
X100933467Y-83490499D01*
X101136420Y-83450130D01*
X101327598Y-83370941D01*
X101499655Y-83255977D01*
X101645977Y-83109655D01*
X101760941Y-82937598D01*
X101840130Y-82746420D01*
X101880500Y-82543465D01*
X101880500Y-82336535D01*
X101840130Y-82133580D01*
X101800174Y-82037118D01*
X101765459Y-81953308D01*
X101765458Y-81953307D01*
X101760942Y-81942405D01*
X101760941Y-81942403D01*
X101760941Y-81942402D01*
X101741951Y-81913982D01*
X105754500Y-81913982D01*
X105754500Y-82026018D01*
X105783497Y-82134237D01*
X105839515Y-82231263D01*
X105918737Y-82310485D01*
X106015763Y-82366503D01*
X106123982Y-82395500D01*
X106123984Y-82395500D01*
X106236016Y-82395500D01*
X106236018Y-82395500D01*
X106344237Y-82366503D01*
X106441263Y-82310485D01*
X106520485Y-82231263D01*
X106541000Y-82195730D01*
X117864500Y-82195730D01*
X117864500Y-83004269D01*
X117867353Y-83034699D01*
X117867353Y-83034701D01*
X117912206Y-83162880D01*
X117912207Y-83162882D01*
X117992850Y-83272150D01*
X118102118Y-83352793D01*
X118144845Y-83367744D01*
X118230299Y-83397646D01*
X118260730Y-83400500D01*
X118260734Y-83400500D01*
X119619270Y-83400500D01*
X119649699Y-83397646D01*
X119649701Y-83397646D01*
X119723048Y-83371980D01*
X119777882Y-83352793D01*
X119887150Y-83272150D01*
X119967793Y-83162882D01*
X119990219Y-83098790D01*
X120012646Y-83034701D01*
X120012646Y-83034699D01*
X120015500Y-83004269D01*
X120015500Y-82195730D01*
X120012646Y-82165300D01*
X120012646Y-82165298D01*
X119979006Y-82069163D01*
X119967793Y-82037118D01*
X119887150Y-81927850D01*
X119777882Y-81847207D01*
X119777880Y-81847206D01*
X119649700Y-81802353D01*
X119619270Y-81799500D01*
X119619266Y-81799500D01*
X118260734Y-81799500D01*
X118260730Y-81799500D01*
X118230300Y-81802353D01*
X118230298Y-81802353D01*
X118102119Y-81847206D01*
X118102117Y-81847207D01*
X117992850Y-81927850D01*
X117912207Y-82037117D01*
X117912206Y-82037119D01*
X117867353Y-82165298D01*
X117867353Y-82165300D01*
X117864500Y-82195730D01*
X106541000Y-82195730D01*
X106576503Y-82134237D01*
X106605500Y-82026018D01*
X106605500Y-81913982D01*
X106576503Y-81805763D01*
X106520485Y-81708737D01*
X106441263Y-81629515D01*
X106344237Y-81573497D01*
X106236018Y-81544500D01*
X106123982Y-81544500D01*
X106015763Y-81573497D01*
X106015760Y-81573498D01*
X105918740Y-81629513D01*
X105918734Y-81629517D01*
X105839517Y-81708734D01*
X105839513Y-81708740D01*
X105783498Y-81805760D01*
X105783497Y-81805763D01*
X105754500Y-81913982D01*
X101741951Y-81913982D01*
X101645977Y-81770345D01*
X101645975Y-81770342D01*
X101499657Y-81624024D01*
X101413626Y-81566541D01*
X101327598Y-81509059D01*
X101303883Y-81499236D01*
X101136420Y-81429870D01*
X101136412Y-81429868D01*
X100933469Y-81389500D01*
X100933465Y-81389500D01*
X100726535Y-81389500D01*
X100726530Y-81389500D01*
X100523587Y-81429868D01*
X100523579Y-81429870D01*
X100332403Y-81509058D01*
X100160342Y-81624024D01*
X100014024Y-81770342D01*
X99899058Y-81942403D01*
X99819870Y-82133579D01*
X99819868Y-82133587D01*
X99779500Y-82336530D01*
X99340499Y-82336530D01*
X99300130Y-82133580D01*
X99220941Y-81942402D01*
X99105977Y-81770345D01*
X99105975Y-81770342D01*
X98959657Y-81624024D01*
X98873626Y-81566541D01*
X98787598Y-81509059D01*
X98763883Y-81499236D01*
X98596420Y-81429870D01*
X98596412Y-81429868D01*
X98393469Y-81389500D01*
X98393465Y-81389500D01*
X98186535Y-81389500D01*
X98186530Y-81389500D01*
X97983587Y-81429868D01*
X97983579Y-81429870D01*
X97792403Y-81509058D01*
X97620342Y-81624024D01*
X97474024Y-81770342D01*
X97359057Y-81942403D01*
X97290835Y-82107108D01*
X97246994Y-82161511D01*
X97180700Y-82183576D01*
X97113000Y-82166297D01*
X97065390Y-82115159D01*
X97058343Y-82097973D01*
X97001095Y-81921782D01*
X96904624Y-81732449D01*
X96865270Y-81678282D01*
X96865269Y-81678282D01*
X96232962Y-82310590D01*
X96215925Y-82247007D01*
X96150099Y-82132993D01*
X96057007Y-82039901D01*
X95942993Y-81974075D01*
X95879409Y-81957037D01*
X96511716Y-81324728D01*
X96457550Y-81285375D01*
X96447954Y-81280486D01*
X96397157Y-81232512D01*
X96380361Y-81164692D01*
X96402897Y-81098556D01*
X96447954Y-81059514D01*
X96457554Y-81054622D01*
X96511716Y-81015270D01*
X96511717Y-81015270D01*
X95879408Y-80382962D01*
X95942993Y-80365925D01*
X96057007Y-80300099D01*
X96150099Y-80207007D01*
X96215925Y-80092993D01*
X96232962Y-80029408D01*
X96865270Y-80661717D01*
X96865270Y-80661716D01*
X96904622Y-80607554D01*
X97001095Y-80418217D01*
X97058343Y-80242026D01*
X97097780Y-80184351D01*
X97162139Y-80157152D01*
X97230985Y-80169066D01*
X97282461Y-80216310D01*
X97290835Y-80232891D01*
X97359058Y-80397596D01*
X97474024Y-80569657D01*
X97620342Y-80715975D01*
X97620345Y-80715977D01*
X97792402Y-80830941D01*
X97983580Y-80910130D01*
X98186530Y-80950499D01*
X98186534Y-80950500D01*
X98186535Y-80950500D01*
X98393466Y-80950500D01*
X98393467Y-80950499D01*
X98596420Y-80910130D01*
X98787598Y-80830941D01*
X98959655Y-80715977D01*
X99105977Y-80569655D01*
X99220941Y-80397598D01*
X99300130Y-80206420D01*
X99340500Y-80003465D01*
X99340500Y-79796535D01*
X99340499Y-79796530D01*
X99779500Y-79796530D01*
X99779500Y-80003469D01*
X99819868Y-80206412D01*
X99819870Y-80206420D01*
X99899058Y-80397596D01*
X100014024Y-80569657D01*
X100160342Y-80715975D01*
X100160345Y-80715977D01*
X100332402Y-80830941D01*
X100523580Y-80910130D01*
X100726530Y-80950499D01*
X100726534Y-80950500D01*
X100726535Y-80950500D01*
X100933466Y-80950500D01*
X100933467Y-80950499D01*
X101136420Y-80910130D01*
X101327598Y-80830941D01*
X101499655Y-80715977D01*
X101645977Y-80569655D01*
X101760941Y-80397598D01*
X101840130Y-80206420D01*
X101880500Y-80003465D01*
X101880500Y-79796535D01*
X101840130Y-79593580D01*
X101760941Y-79402402D01*
X101645977Y-79230345D01*
X101645975Y-79230342D01*
X101499657Y-79084024D01*
X101372761Y-78999236D01*
X101327598Y-78969059D01*
X101136420Y-78889870D01*
X101136412Y-78889868D01*
X100933469Y-78849500D01*
X100933465Y-78849500D01*
X100726535Y-78849500D01*
X100726530Y-78849500D01*
X100523587Y-78889868D01*
X100523579Y-78889870D01*
X100332403Y-78969058D01*
X100160342Y-79084024D01*
X100014024Y-79230342D01*
X99899058Y-79402403D01*
X99819870Y-79593579D01*
X99819868Y-79593587D01*
X99779500Y-79796530D01*
X99340499Y-79796530D01*
X99300130Y-79593580D01*
X99220941Y-79402402D01*
X99105977Y-79230345D01*
X99105975Y-79230342D01*
X98959657Y-79084024D01*
X98832761Y-78999236D01*
X98787598Y-78969059D01*
X98596420Y-78889870D01*
X98596412Y-78889868D01*
X98393469Y-78849500D01*
X98393465Y-78849500D01*
X98186535Y-78849500D01*
X98186530Y-78849500D01*
X97983587Y-78889868D01*
X97983579Y-78889870D01*
X97792403Y-78969058D01*
X97620342Y-79084024D01*
X97474024Y-79230342D01*
X97359057Y-79402403D01*
X97290835Y-79567108D01*
X97246994Y-79621511D01*
X97180700Y-79643576D01*
X97113000Y-79626297D01*
X97065390Y-79575159D01*
X97058343Y-79557973D01*
X97001095Y-79381782D01*
X96904624Y-79192449D01*
X96865270Y-79138282D01*
X96865269Y-79138282D01*
X96232962Y-79770590D01*
X96215925Y-79707007D01*
X96150099Y-79592993D01*
X96057007Y-79499901D01*
X95942993Y-79434075D01*
X95879409Y-79417037D01*
X96511716Y-78784728D01*
X96457550Y-78745375D01*
X96268217Y-78648904D01*
X96066129Y-78583242D01*
X95856246Y-78550000D01*
X95643754Y-78550000D01*
X95433872Y-78583242D01*
X95433869Y-78583242D01*
X95231782Y-78648904D01*
X95042439Y-78745380D01*
X94988282Y-78784727D01*
X94988282Y-78784728D01*
X95620591Y-79417037D01*
X95557007Y-79434075D01*
X95442993Y-79499901D01*
X95349901Y-79592993D01*
X95284075Y-79707007D01*
X95267037Y-79770591D01*
X94634728Y-79138282D01*
X94634727Y-79138282D01*
X94595380Y-79192439D01*
X94498904Y-79381782D01*
X94433242Y-79583869D01*
X94433242Y-79583872D01*
X94400000Y-79793753D01*
X84040500Y-79793753D01*
X84040500Y-73275022D01*
X89282000Y-73275022D01*
X89282000Y-73524977D01*
X89321102Y-73771857D01*
X89398344Y-74009584D01*
X89494722Y-74198734D01*
X89511821Y-74232293D01*
X89658742Y-74434512D01*
X89835488Y-74611258D01*
X90037707Y-74758179D01*
X90142929Y-74811792D01*
X90260415Y-74871655D01*
X90260417Y-74871655D01*
X90260420Y-74871657D01*
X90498143Y-74948898D01*
X90745022Y-74988000D01*
X90745023Y-74988000D01*
X90994977Y-74988000D01*
X90994978Y-74988000D01*
X91241857Y-74948898D01*
X91479580Y-74871657D01*
X91702293Y-74758179D01*
X91904512Y-74611258D01*
X92081258Y-74434512D01*
X92228179Y-74232293D01*
X92341657Y-74009580D01*
X92418898Y-73771857D01*
X92458000Y-73524978D01*
X92458000Y-73275022D01*
X92418898Y-73028143D01*
X92341657Y-72790420D01*
X92341655Y-72790417D01*
X92341655Y-72790415D01*
X92228178Y-72567706D01*
X92191781Y-72517610D01*
X92081258Y-72365488D01*
X91904512Y-72188742D01*
X91702293Y-72041821D01*
X91632974Y-72006501D01*
X91479584Y-71928344D01*
X91241857Y-71851102D01*
X91162361Y-71838511D01*
X90994978Y-71812000D01*
X90745022Y-71812000D01*
X90621582Y-71831551D01*
X90498142Y-71851102D01*
X90260415Y-71928344D01*
X90037706Y-72041821D01*
X89976875Y-72086018D01*
X89835488Y-72188742D01*
X89835486Y-72188744D01*
X89835485Y-72188744D01*
X89658744Y-72365485D01*
X89658744Y-72365486D01*
X89658742Y-72365488D01*
X89640014Y-72391265D01*
X89511821Y-72567706D01*
X89398344Y-72790415D01*
X89321102Y-73028142D01*
X89282000Y-73275022D01*
X84040500Y-73275022D01*
X84040500Y-68061918D01*
X84060185Y-67994879D01*
X84112989Y-67949124D01*
X84165181Y-67937920D01*
X101863077Y-68035161D01*
X101863078Y-68035160D01*
X101863091Y-68035161D01*
X101950428Y-68026135D01*
X102002620Y-68014931D01*
X102075360Y-67991979D01*
X102075365Y-67991975D01*
X102082446Y-67988718D01*
X102083444Y-67990888D01*
X102137276Y-67975500D01*
X103465522Y-67975500D01*
X103532561Y-67995185D01*
X103578316Y-68047989D01*
X103588260Y-68117147D01*
X103559235Y-68180703D01*
X103553203Y-68187181D01*
X101442204Y-70298181D01*
X101380881Y-70331666D01*
X101354523Y-70334500D01*
X98305199Y-70334500D01*
X98203940Y-70376444D01*
X96555908Y-72024475D01*
X96494585Y-72057960D01*
X96424893Y-72052976D01*
X96403446Y-72042527D01*
X96402298Y-72041823D01*
X96179584Y-71928344D01*
X95941857Y-71851102D01*
X95862361Y-71838511D01*
X95694978Y-71812000D01*
X95445022Y-71812000D01*
X95321582Y-71831551D01*
X95198142Y-71851102D01*
X94960415Y-71928344D01*
X94737706Y-72041821D01*
X94676875Y-72086018D01*
X94535488Y-72188742D01*
X94535486Y-72188744D01*
X94535485Y-72188744D01*
X94358744Y-72365485D01*
X94358744Y-72365486D01*
X94358742Y-72365488D01*
X94340014Y-72391265D01*
X94211821Y-72567706D01*
X94098344Y-72790415D01*
X94021102Y-73028142D01*
X93982000Y-73275022D01*
X93982000Y-73524977D01*
X94021102Y-73771857D01*
X94098344Y-74009584D01*
X94194722Y-74198734D01*
X94211821Y-74232293D01*
X94358742Y-74434512D01*
X94535488Y-74611258D01*
X94737707Y-74758179D01*
X94842929Y-74811792D01*
X94960415Y-74871655D01*
X94960417Y-74871655D01*
X94960420Y-74871657D01*
X95198143Y-74948898D01*
X95445022Y-74988000D01*
X95445023Y-74988000D01*
X95694977Y-74988000D01*
X95694978Y-74988000D01*
X95941857Y-74948898D01*
X96179580Y-74871657D01*
X96402293Y-74758179D01*
X96604512Y-74611258D01*
X96781258Y-74434512D01*
X96928179Y-74232293D01*
X97041657Y-74009580D01*
X97118898Y-73771857D01*
X97158000Y-73524978D01*
X97158000Y-73275022D01*
X98682000Y-73275022D01*
X98682000Y-73524977D01*
X98721102Y-73771857D01*
X98798344Y-74009584D01*
X98894722Y-74198734D01*
X98911821Y-74232293D01*
X99058742Y-74434512D01*
X99235488Y-74611258D01*
X99437707Y-74758179D01*
X99542929Y-74811792D01*
X99660415Y-74871655D01*
X99660417Y-74871655D01*
X99660420Y-74871657D01*
X99898143Y-74948898D01*
X100145022Y-74988000D01*
X100145023Y-74988000D01*
X100394977Y-74988000D01*
X100394978Y-74988000D01*
X100641857Y-74948898D01*
X100879580Y-74871657D01*
X101102293Y-74758179D01*
X101304512Y-74611258D01*
X101481258Y-74434512D01*
X101628179Y-74232293D01*
X101741657Y-74009580D01*
X101818898Y-73771857D01*
X101858000Y-73524978D01*
X101858000Y-73275022D01*
X101818898Y-73028143D01*
X101741657Y-72790420D01*
X101741655Y-72790417D01*
X101741655Y-72790415D01*
X101628178Y-72567706D01*
X101591781Y-72517610D01*
X101481258Y-72365488D01*
X101304512Y-72188742D01*
X101102293Y-72041821D01*
X101032974Y-72006501D01*
X100879584Y-71928344D01*
X100641857Y-71851102D01*
X100562361Y-71838511D01*
X100394978Y-71812000D01*
X100145022Y-71812000D01*
X100021582Y-71831551D01*
X99898142Y-71851102D01*
X99660415Y-71928344D01*
X99437706Y-72041821D01*
X99376875Y-72086018D01*
X99235488Y-72188742D01*
X99235486Y-72188744D01*
X99235485Y-72188744D01*
X99058744Y-72365485D01*
X99058744Y-72365486D01*
X99058742Y-72365488D01*
X99040014Y-72391265D01*
X98911821Y-72567706D01*
X98798344Y-72790415D01*
X98721102Y-73028142D01*
X98682000Y-73275022D01*
X97158000Y-73275022D01*
X97118898Y-73028143D01*
X97041657Y-72790420D01*
X97041655Y-72790417D01*
X97041655Y-72790415D01*
X96928177Y-72567704D01*
X96927478Y-72566563D01*
X96927344Y-72566069D01*
X96925967Y-72563366D01*
X96926534Y-72563076D01*
X96909232Y-72499118D01*
X96930347Y-72432515D01*
X96945518Y-72414095D01*
X97805632Y-71553982D01*
X108664500Y-71553982D01*
X108664500Y-71666018D01*
X108693497Y-71774237D01*
X108749515Y-71871263D01*
X108828737Y-71950485D01*
X108925763Y-72006503D01*
X109033982Y-72035500D01*
X109033984Y-72035500D01*
X109146016Y-72035500D01*
X109146018Y-72035500D01*
X109254237Y-72006503D01*
X109351263Y-71950485D01*
X109430485Y-71871263D01*
X109486503Y-71774237D01*
X109515500Y-71666018D01*
X109515500Y-71553982D01*
X109486503Y-71445763D01*
X109430485Y-71348737D01*
X109351263Y-71269515D01*
X109254237Y-71213497D01*
X109146018Y-71184500D01*
X109033982Y-71184500D01*
X108925763Y-71213497D01*
X108925760Y-71213498D01*
X108828740Y-71269513D01*
X108828734Y-71269517D01*
X108749517Y-71348734D01*
X108749513Y-71348740D01*
X108693498Y-71445760D01*
X108693497Y-71445763D01*
X108664500Y-71553982D01*
X97805632Y-71553982D01*
X98437796Y-70921819D01*
X98499119Y-70888334D01*
X98525477Y-70885500D01*
X101735200Y-70885500D01*
X132174523Y-70885500D01*
X132241562Y-70905185D01*
X132262203Y-70921818D01*
X133244366Y-71903982D01*
X134183941Y-72843557D01*
X134183940Y-72843557D01*
X134192764Y-72847211D01*
X134212559Y-72855410D01*
X134212562Y-72855413D01*
X134212562Y-72855412D01*
X134285200Y-72885500D01*
X134285201Y-72885500D01*
X147553799Y-72885500D01*
X147553800Y-72885500D01*
X147655058Y-72843557D01*
X147732557Y-72766058D01*
X147732556Y-72766058D01*
X147791125Y-72707489D01*
X148594634Y-71903982D01*
X154834500Y-71903982D01*
X154834500Y-72016018D01*
X154863497Y-72124237D01*
X154919515Y-72221263D01*
X154998737Y-72300485D01*
X155095763Y-72356503D01*
X155203982Y-72385500D01*
X155203984Y-72385500D01*
X155316016Y-72385500D01*
X155316018Y-72385500D01*
X155424237Y-72356503D01*
X155521263Y-72300485D01*
X155600485Y-72221263D01*
X155656503Y-72124237D01*
X155685500Y-72016018D01*
X155685500Y-71903982D01*
X155656503Y-71795763D01*
X155600485Y-71698737D01*
X155521263Y-71619515D01*
X155441107Y-71573237D01*
X155424239Y-71563498D01*
X155424238Y-71563497D01*
X155424237Y-71563497D01*
X155316018Y-71534500D01*
X155203982Y-71534500D01*
X155095763Y-71563497D01*
X155095760Y-71563498D01*
X154998740Y-71619513D01*
X154998734Y-71619517D01*
X154919517Y-71698734D01*
X154919513Y-71698740D01*
X154863498Y-71795760D01*
X154863497Y-71795763D01*
X154834500Y-71903982D01*
X148594634Y-71903982D01*
X148627797Y-71870819D01*
X148684193Y-71838511D01*
X148699576Y-71834500D01*
X148756018Y-71834500D01*
X148864237Y-71805503D01*
X148961263Y-71749485D01*
X149040485Y-71670263D01*
X149096503Y-71573237D01*
X149125500Y-71465018D01*
X149125500Y-71352982D01*
X149096503Y-71244763D01*
X149040485Y-71147737D01*
X148961263Y-71068515D01*
X148864237Y-71012497D01*
X148756018Y-70983500D01*
X148643982Y-70983500D01*
X148535763Y-71012497D01*
X148535760Y-71012498D01*
X148438740Y-71068513D01*
X148438734Y-71068517D01*
X148359517Y-71147734D01*
X148359513Y-71147740D01*
X148303498Y-71244760D01*
X148303497Y-71244763D01*
X148274500Y-71352982D01*
X148274500Y-71393522D01*
X148254815Y-71460561D01*
X148238181Y-71481203D01*
X147421204Y-72298181D01*
X147359881Y-72331666D01*
X147333523Y-72334500D01*
X134505478Y-72334500D01*
X134438439Y-72314815D01*
X134417797Y-72298181D01*
X133925119Y-71805503D01*
X133333598Y-71213982D01*
X134754500Y-71213982D01*
X134754500Y-71326018D01*
X134772321Y-71392525D01*
X134783497Y-71434236D01*
X134783498Y-71434239D01*
X134797317Y-71458174D01*
X134839515Y-71531263D01*
X134918737Y-71610485D01*
X135015763Y-71666503D01*
X135123982Y-71695500D01*
X135123984Y-71695500D01*
X135236016Y-71695500D01*
X135236018Y-71695500D01*
X135344237Y-71666503D01*
X135441263Y-71610485D01*
X135507319Y-71544429D01*
X135568642Y-71510944D01*
X135638334Y-71515928D01*
X135682681Y-71544429D01*
X135728737Y-71590485D01*
X135825763Y-71646503D01*
X135933982Y-71675500D01*
X135933984Y-71675500D01*
X136046016Y-71675500D01*
X136046018Y-71675500D01*
X136154237Y-71646503D01*
X136251263Y-71590485D01*
X136330485Y-71511263D01*
X136386503Y-71414237D01*
X136415500Y-71306018D01*
X136415500Y-71193982D01*
X136386503Y-71085763D01*
X136330485Y-70988737D01*
X136301819Y-70960071D01*
X136268334Y-70898748D01*
X136265500Y-70872390D01*
X136265500Y-65943841D01*
X136282114Y-65881839D01*
X136286502Y-65874238D01*
X136286503Y-65874237D01*
X136315500Y-65766018D01*
X136315500Y-65653982D01*
X136286503Y-65545763D01*
X136230485Y-65448737D01*
X136151263Y-65369515D01*
X136085972Y-65331819D01*
X136054239Y-65313498D01*
X136054238Y-65313497D01*
X136054237Y-65313497D01*
X135946018Y-65284500D01*
X135833982Y-65284500D01*
X135811284Y-65290582D01*
X135741434Y-65288917D01*
X135683572Y-65249753D01*
X135656070Y-65185524D01*
X135659419Y-65138711D01*
X135664562Y-65119517D01*
X135665500Y-65116018D01*
X135665500Y-65003982D01*
X135636503Y-64895763D01*
X135580485Y-64798737D01*
X135501263Y-64719515D01*
X135425763Y-64675925D01*
X135404239Y-64663498D01*
X135404238Y-64663497D01*
X135404237Y-64663497D01*
X135296018Y-64634500D01*
X135183982Y-64634500D01*
X135075763Y-64663497D01*
X135075760Y-64663498D01*
X134978740Y-64719513D01*
X134978734Y-64719517D01*
X134899517Y-64798734D01*
X134899513Y-64798740D01*
X134843498Y-64895760D01*
X134843497Y-64895763D01*
X134814500Y-65003982D01*
X134814500Y-65116018D01*
X134836665Y-65198737D01*
X134843497Y-65224236D01*
X134843498Y-65224239D01*
X134897887Y-65318443D01*
X134914500Y-65380443D01*
X134914500Y-70882390D01*
X134894815Y-70949429D01*
X134878181Y-70970071D01*
X134839517Y-71008734D01*
X134839513Y-71008740D01*
X134783498Y-71105760D01*
X134783497Y-71105763D01*
X134754500Y-71213982D01*
X133333598Y-71213982D01*
X132496058Y-70376443D01*
X132394800Y-70334500D01*
X102484477Y-70334500D01*
X102417438Y-70314815D01*
X102371683Y-70262011D01*
X102361739Y-70192853D01*
X102390764Y-70129297D01*
X102396796Y-70122819D01*
X103043113Y-69476503D01*
X103495634Y-69023982D01*
X130464500Y-69023982D01*
X130464500Y-69136018D01*
X130493497Y-69244237D01*
X130549515Y-69341263D01*
X130628737Y-69420485D01*
X130725763Y-69476503D01*
X130833982Y-69505500D01*
X130833984Y-69505500D01*
X130946016Y-69505500D01*
X130946018Y-69505500D01*
X130989004Y-69493982D01*
X132414500Y-69493982D01*
X132414500Y-69606018D01*
X132443497Y-69714237D01*
X132499515Y-69811263D01*
X132578737Y-69890485D01*
X132675763Y-69946503D01*
X132783982Y-69975500D01*
X132783984Y-69975500D01*
X132896016Y-69975500D01*
X132896018Y-69975500D01*
X133004237Y-69946503D01*
X133101263Y-69890485D01*
X133180485Y-69811263D01*
X133236503Y-69714237D01*
X133265500Y-69606018D01*
X133265500Y-69493982D01*
X133236503Y-69385763D01*
X133180485Y-69288737D01*
X133101263Y-69209515D01*
X133012615Y-69158334D01*
X133004239Y-69153498D01*
X133004238Y-69153497D01*
X133004237Y-69153497D01*
X132896018Y-69124500D01*
X132783982Y-69124500D01*
X132675763Y-69153497D01*
X132675760Y-69153498D01*
X132578740Y-69209513D01*
X132578734Y-69209517D01*
X132499517Y-69288734D01*
X132499513Y-69288740D01*
X132443498Y-69385760D01*
X132443497Y-69385763D01*
X132414500Y-69493982D01*
X130989004Y-69493982D01*
X131054237Y-69476503D01*
X131151263Y-69420485D01*
X131230485Y-69341263D01*
X131286503Y-69244237D01*
X131315500Y-69136018D01*
X131315500Y-69023982D01*
X131286503Y-68915763D01*
X131230485Y-68818737D01*
X131151263Y-68739515D01*
X131071575Y-68693507D01*
X131054239Y-68683498D01*
X131054238Y-68683497D01*
X131054237Y-68683497D01*
X130946018Y-68654500D01*
X130833982Y-68654500D01*
X130725763Y-68683497D01*
X130725760Y-68683498D01*
X130628740Y-68739513D01*
X130628734Y-68739517D01*
X130549517Y-68818734D01*
X130549513Y-68818740D01*
X130493498Y-68915760D01*
X130493497Y-68915763D01*
X130464500Y-69023982D01*
X103495634Y-69023982D01*
X103857797Y-68661819D01*
X103919120Y-68628334D01*
X103945478Y-68625500D01*
X109402390Y-68625500D01*
X109469429Y-68645185D01*
X109490071Y-68661819D01*
X109513737Y-68685485D01*
X109610763Y-68741503D01*
X109718982Y-68770500D01*
X109718984Y-68770500D01*
X109831016Y-68770500D01*
X109831018Y-68770500D01*
X109939237Y-68741503D01*
X110036263Y-68685485D01*
X110115485Y-68606263D01*
X110171503Y-68509237D01*
X110200500Y-68401018D01*
X110200500Y-68288982D01*
X110171503Y-68180763D01*
X110152988Y-68148695D01*
X110136516Y-68080796D01*
X110159368Y-68014769D01*
X110212922Y-67972135D01*
X110306058Y-67933557D01*
X110383557Y-67856058D01*
X110832819Y-67406796D01*
X110894142Y-67373311D01*
X110963834Y-67378295D01*
X111019767Y-67420167D01*
X111044184Y-67485631D01*
X111044500Y-67494477D01*
X111044500Y-67536018D01*
X111069834Y-67630564D01*
X111073497Y-67644236D01*
X111073498Y-67644239D01*
X111077104Y-67650485D01*
X111129515Y-67741263D01*
X111208737Y-67820485D01*
X111305763Y-67876503D01*
X111413982Y-67905500D01*
X111474522Y-67905500D01*
X111503962Y-67914144D01*
X111533949Y-67920668D01*
X111538964Y-67924422D01*
X111541561Y-67925185D01*
X111562203Y-67941819D01*
X111646636Y-68026252D01*
X111680121Y-68087575D01*
X111675137Y-68157267D01*
X111646640Y-68201610D01*
X111629519Y-68218732D01*
X111629513Y-68218740D01*
X111573498Y-68315760D01*
X111573497Y-68315763D01*
X111544500Y-68423982D01*
X111544500Y-68536018D01*
X111570636Y-68633557D01*
X111573497Y-68644236D01*
X111573498Y-68644239D01*
X111574772Y-68646445D01*
X111629515Y-68741263D01*
X111708737Y-68820485D01*
X111805763Y-68876503D01*
X111913982Y-68905500D01*
X111913984Y-68905500D01*
X112026016Y-68905500D01*
X112026018Y-68905500D01*
X112134237Y-68876503D01*
X112231263Y-68820485D01*
X112310485Y-68741263D01*
X112312658Y-68737500D01*
X112315320Y-68734961D01*
X112315435Y-68734812D01*
X112315458Y-68734829D01*
X112363225Y-68689284D01*
X112420045Y-68675500D01*
X128674799Y-68675500D01*
X128674800Y-68675500D01*
X128776058Y-68633557D01*
X128853557Y-68556058D01*
X130495633Y-66913982D01*
X133464500Y-66913982D01*
X133464500Y-67026018D01*
X133493497Y-67134237D01*
X133549515Y-67231263D01*
X133628737Y-67310485D01*
X133725763Y-67366503D01*
X133833982Y-67395500D01*
X133833984Y-67395500D01*
X133946016Y-67395500D01*
X133946018Y-67395500D01*
X134054237Y-67366503D01*
X134151263Y-67310485D01*
X134230485Y-67231263D01*
X134286503Y-67134237D01*
X134315500Y-67026018D01*
X134315500Y-66913982D01*
X134286503Y-66805763D01*
X134230485Y-66708737D01*
X134151263Y-66629515D01*
X134086579Y-66592169D01*
X134054239Y-66573498D01*
X134054238Y-66573497D01*
X134054237Y-66573497D01*
X133946018Y-66544500D01*
X133833982Y-66544500D01*
X133725763Y-66573497D01*
X133725760Y-66573498D01*
X133628740Y-66629513D01*
X133628734Y-66629517D01*
X133549517Y-66708734D01*
X133549513Y-66708740D01*
X133493498Y-66805760D01*
X133493497Y-66805763D01*
X133464500Y-66913982D01*
X130495633Y-66913982D01*
X132077796Y-65331819D01*
X132139119Y-65298334D01*
X132165477Y-65295500D01*
X133512390Y-65295500D01*
X133579429Y-65315185D01*
X133600071Y-65331819D01*
X133628737Y-65360485D01*
X133725763Y-65416503D01*
X133833982Y-65445500D01*
X133833984Y-65445500D01*
X133946016Y-65445500D01*
X133946018Y-65445500D01*
X134054237Y-65416503D01*
X134151263Y-65360485D01*
X134230485Y-65281263D01*
X134286503Y-65184237D01*
X134315500Y-65076018D01*
X134315500Y-64963982D01*
X134286503Y-64855763D01*
X134230485Y-64758737D01*
X134151263Y-64679515D01*
X134054237Y-64623497D01*
X133946018Y-64594500D01*
X133833982Y-64594500D01*
X133725763Y-64623497D01*
X133725760Y-64623498D01*
X133628740Y-64679513D01*
X133628734Y-64679517D01*
X133600071Y-64708181D01*
X133538748Y-64741666D01*
X133512390Y-64744500D01*
X131945199Y-64744500D01*
X131843940Y-64786444D01*
X128542204Y-68088181D01*
X128480881Y-68121666D01*
X128454523Y-68124500D01*
X125664476Y-68124500D01*
X125597437Y-68104815D01*
X125551682Y-68052011D01*
X125541738Y-67982853D01*
X125570763Y-67919297D01*
X125576795Y-67912819D01*
X126618542Y-66871073D01*
X130127797Y-63361819D01*
X130189120Y-63328334D01*
X130215478Y-63325500D01*
X133492389Y-63325500D01*
X133559428Y-63345185D01*
X133580069Y-63361818D01*
X133609323Y-63391071D01*
X133628737Y-63410485D01*
X133725763Y-63466503D01*
X133833982Y-63495500D01*
X133833984Y-63495500D01*
X133946016Y-63495500D01*
X133946018Y-63495500D01*
X134054237Y-63466503D01*
X134151263Y-63410485D01*
X134230485Y-63331263D01*
X134286503Y-63234237D01*
X134315500Y-63126018D01*
X134315500Y-63013982D01*
X134286503Y-62905763D01*
X134230485Y-62808737D01*
X134151263Y-62729515D01*
X134054237Y-62673497D01*
X133946018Y-62644500D01*
X133833982Y-62644500D01*
X133725763Y-62673497D01*
X133725760Y-62673498D01*
X133628740Y-62729513D01*
X133628734Y-62729517D01*
X133620071Y-62738181D01*
X133558748Y-62771666D01*
X133532390Y-62774500D01*
X130104800Y-62774500D01*
X129995200Y-62774500D01*
X129995198Y-62774500D01*
X129995196Y-62774501D01*
X129893944Y-62816439D01*
X129893942Y-62816441D01*
X125122204Y-67588181D01*
X125060881Y-67621666D01*
X125034523Y-67624500D01*
X113913051Y-67624500D01*
X113846012Y-67604815D01*
X113800257Y-67552011D01*
X113790313Y-67482853D01*
X113819338Y-67419297D01*
X113857781Y-67391576D01*
X113857198Y-67390567D01*
X113864237Y-67386503D01*
X113961263Y-67330485D01*
X114040485Y-67251263D01*
X114096503Y-67154237D01*
X114125500Y-67046018D01*
X114125500Y-66933982D01*
X114096503Y-66825763D01*
X114040485Y-66728737D01*
X113961263Y-66649515D01*
X113870109Y-66596887D01*
X113821893Y-66546320D01*
X113808671Y-66477713D01*
X113834639Y-66412848D01*
X113891553Y-66372320D01*
X113912988Y-66368715D01*
X113912823Y-66367882D01*
X113924795Y-66365500D01*
X113924800Y-66365500D01*
X114026058Y-66323557D01*
X114103557Y-66246058D01*
X114103556Y-66246058D01*
X114162125Y-66187489D01*
X114595633Y-65753982D01*
X116364500Y-65753982D01*
X116364500Y-65866018D01*
X116393497Y-65974237D01*
X116449515Y-66071263D01*
X116528737Y-66150485D01*
X116625763Y-66206503D01*
X116733982Y-66235500D01*
X116733984Y-66235500D01*
X116846016Y-66235500D01*
X116846018Y-66235500D01*
X116954237Y-66206503D01*
X117051263Y-66150485D01*
X117130485Y-66071263D01*
X117186503Y-65974237D01*
X117215500Y-65866018D01*
X117215500Y-65753982D01*
X117186503Y-65645763D01*
X117130485Y-65548737D01*
X117051263Y-65469515D01*
X116954237Y-65413497D01*
X116846018Y-65384500D01*
X116733982Y-65384500D01*
X116625763Y-65413497D01*
X116625760Y-65413498D01*
X116528740Y-65469513D01*
X116528734Y-65469517D01*
X116449517Y-65548734D01*
X116449513Y-65548740D01*
X116393498Y-65645760D01*
X116393497Y-65645763D01*
X116364500Y-65753982D01*
X114595633Y-65753982D01*
X115323558Y-65026058D01*
X115323558Y-65026056D01*
X115323560Y-65026055D01*
X115344529Y-64975429D01*
X115365500Y-64924800D01*
X115365500Y-64815200D01*
X115365500Y-64553982D01*
X116384500Y-64553982D01*
X116384500Y-64666018D01*
X116413497Y-64774237D01*
X116469515Y-64871263D01*
X116548737Y-64950485D01*
X116645763Y-65006503D01*
X116753982Y-65035500D01*
X116753984Y-65035500D01*
X116866016Y-65035500D01*
X116866018Y-65035500D01*
X116974237Y-65006503D01*
X117071263Y-64950485D01*
X117150485Y-64871263D01*
X117206503Y-64774237D01*
X117235500Y-64666018D01*
X117235500Y-64553982D01*
X117206503Y-64445763D01*
X117150485Y-64348737D01*
X117110291Y-64308543D01*
X120089499Y-64308543D01*
X120127947Y-64501829D01*
X120127950Y-64501839D01*
X120203364Y-64683907D01*
X120203371Y-64683920D01*
X120312860Y-64847781D01*
X120312863Y-64847785D01*
X120452214Y-64987136D01*
X120452218Y-64987139D01*
X120616079Y-65096628D01*
X120616092Y-65096635D01*
X120690980Y-65127654D01*
X120798165Y-65172051D01*
X120798169Y-65172051D01*
X120798170Y-65172052D01*
X120991456Y-65210500D01*
X120991459Y-65210500D01*
X121188543Y-65210500D01*
X121320578Y-65184236D01*
X121381835Y-65172051D01*
X121462326Y-65138711D01*
X121489021Y-65127654D01*
X121563907Y-65096635D01*
X121563907Y-65096634D01*
X121563914Y-65096632D01*
X121727782Y-64987139D01*
X121867139Y-64847782D01*
X121976632Y-64683914D01*
X122052051Y-64501835D01*
X122088034Y-64320937D01*
X122120419Y-64259027D01*
X122181134Y-64224453D01*
X122250904Y-64228192D01*
X122307576Y-64269059D01*
X122332124Y-64325731D01*
X122362009Y-64514417D01*
X122425244Y-64709031D01*
X122518141Y-64891350D01*
X122518147Y-64891359D01*
X122550523Y-64935921D01*
X122550524Y-64935922D01*
X123147037Y-64339409D01*
X123164075Y-64402993D01*
X123229901Y-64517007D01*
X123322993Y-64610099D01*
X123437007Y-64675925D01*
X123500590Y-64692962D01*
X122904076Y-65289474D01*
X122948650Y-65321859D01*
X123130968Y-65414755D01*
X123325582Y-65477990D01*
X123527683Y-65510000D01*
X123732317Y-65510000D01*
X123934417Y-65477990D01*
X124129031Y-65414755D01*
X124311349Y-65321859D01*
X124355921Y-65289474D01*
X123759409Y-64692962D01*
X123822993Y-64675925D01*
X123937007Y-64610099D01*
X124030099Y-64517007D01*
X124095925Y-64402993D01*
X124112962Y-64339409D01*
X124709474Y-64935921D01*
X124741859Y-64891349D01*
X124834755Y-64709031D01*
X124897990Y-64514417D01*
X124927875Y-64325731D01*
X124957804Y-64262596D01*
X125017116Y-64225665D01*
X125086978Y-64226663D01*
X125145211Y-64265273D01*
X125171965Y-64320937D01*
X125207947Y-64501829D01*
X125207950Y-64501839D01*
X125283364Y-64683907D01*
X125283371Y-64683920D01*
X125392860Y-64847781D01*
X125392863Y-64847785D01*
X125532214Y-64987136D01*
X125532218Y-64987139D01*
X125696079Y-65096628D01*
X125696092Y-65096635D01*
X125770980Y-65127654D01*
X125878165Y-65172051D01*
X125878169Y-65172051D01*
X125878170Y-65172052D01*
X126071456Y-65210500D01*
X126071459Y-65210500D01*
X126268543Y-65210500D01*
X126400578Y-65184236D01*
X126461835Y-65172051D01*
X126643914Y-65096632D01*
X126807782Y-64987139D01*
X126947139Y-64847782D01*
X127056632Y-64683914D01*
X127132051Y-64501835D01*
X127154772Y-64387610D01*
X127170500Y-64308543D01*
X127170500Y-64111456D01*
X127132052Y-63918170D01*
X127132051Y-63918169D01*
X127132051Y-63918165D01*
X127120806Y-63891016D01*
X127056635Y-63736092D01*
X127056628Y-63736079D01*
X126947139Y-63572218D01*
X126947136Y-63572214D01*
X126807785Y-63432863D01*
X126807781Y-63432860D01*
X126643920Y-63323371D01*
X126643907Y-63323364D01*
X126461839Y-63247950D01*
X126461829Y-63247947D01*
X126268543Y-63209500D01*
X126268541Y-63209500D01*
X126071459Y-63209500D01*
X126071457Y-63209500D01*
X125878170Y-63247947D01*
X125878160Y-63247950D01*
X125696092Y-63323364D01*
X125696079Y-63323371D01*
X125532218Y-63432860D01*
X125532214Y-63432863D01*
X125392863Y-63572214D01*
X125392860Y-63572218D01*
X125283371Y-63736079D01*
X125283364Y-63736092D01*
X125207950Y-63918160D01*
X125207947Y-63918170D01*
X125171965Y-64099062D01*
X125139580Y-64160973D01*
X125078864Y-64195547D01*
X125009094Y-64191806D01*
X124952423Y-64150940D01*
X124927875Y-64094268D01*
X124897990Y-63905582D01*
X124834755Y-63710968D01*
X124741859Y-63528650D01*
X124709474Y-63484077D01*
X124709474Y-63484076D01*
X124112962Y-64080589D01*
X124095925Y-64017007D01*
X124030099Y-63902993D01*
X123937007Y-63809901D01*
X123822993Y-63744075D01*
X123759408Y-63727037D01*
X124355922Y-63130524D01*
X124355921Y-63130523D01*
X124311359Y-63098147D01*
X124311350Y-63098141D01*
X124129031Y-63005244D01*
X123934417Y-62942009D01*
X123732317Y-62910000D01*
X123527683Y-62910000D01*
X123325582Y-62942009D01*
X123130968Y-63005244D01*
X122948644Y-63098143D01*
X122904077Y-63130523D01*
X122904077Y-63130524D01*
X123500591Y-63727037D01*
X123437007Y-63744075D01*
X123322993Y-63809901D01*
X123229901Y-63902993D01*
X123164075Y-64017007D01*
X123147037Y-64080590D01*
X122550524Y-63484077D01*
X122550523Y-63484077D01*
X122518143Y-63528644D01*
X122425244Y-63710968D01*
X122362010Y-63905581D01*
X122332124Y-64094269D01*
X122302194Y-64157403D01*
X122242883Y-64194334D01*
X122173020Y-64193336D01*
X122114788Y-64154726D01*
X122088034Y-64099061D01*
X122067110Y-63993872D01*
X122052051Y-63918165D01*
X122040806Y-63891016D01*
X121976635Y-63736092D01*
X121976628Y-63736079D01*
X121867139Y-63572218D01*
X121867136Y-63572214D01*
X121727785Y-63432863D01*
X121727781Y-63432860D01*
X121563920Y-63323371D01*
X121563907Y-63323364D01*
X121489016Y-63292344D01*
X121381839Y-63247950D01*
X121381829Y-63247947D01*
X121188543Y-63209500D01*
X121188541Y-63209500D01*
X120991459Y-63209500D01*
X120991457Y-63209500D01*
X120798170Y-63247947D01*
X120798160Y-63247950D01*
X120616092Y-63323364D01*
X120616079Y-63323371D01*
X120452218Y-63432860D01*
X120452214Y-63432863D01*
X120312863Y-63572214D01*
X120312860Y-63572218D01*
X120203371Y-63736079D01*
X120203364Y-63736092D01*
X120127950Y-63918160D01*
X120127947Y-63918170D01*
X120089500Y-64111456D01*
X120089500Y-64111459D01*
X120089500Y-64308541D01*
X120089500Y-64308543D01*
X120089499Y-64308543D01*
X117110291Y-64308543D01*
X117071263Y-64269515D01*
X117006579Y-64232169D01*
X116974239Y-64213498D01*
X116974238Y-64213497D01*
X116974237Y-64213497D01*
X116866018Y-64184500D01*
X116753982Y-64184500D01*
X116645763Y-64213497D01*
X116645760Y-64213498D01*
X116548740Y-64269513D01*
X116548734Y-64269517D01*
X116469517Y-64348734D01*
X116469513Y-64348740D01*
X116413498Y-64445760D01*
X116413497Y-64445763D01*
X116384500Y-64553982D01*
X115365500Y-64553982D01*
X115365500Y-64387610D01*
X115385185Y-64320571D01*
X115401819Y-64299929D01*
X115410139Y-64291609D01*
X115430485Y-64271263D01*
X115486503Y-64174237D01*
X115515500Y-64066018D01*
X115515500Y-63953982D01*
X115515500Y-63945855D01*
X115518510Y-63945855D01*
X115527052Y-63891016D01*
X115573422Y-63838751D01*
X115640688Y-63819854D01*
X115671318Y-63824068D01*
X115713982Y-63835500D01*
X115713986Y-63835500D01*
X115826016Y-63835500D01*
X115826018Y-63835500D01*
X115934237Y-63806503D01*
X116031263Y-63750485D01*
X116110485Y-63671263D01*
X116162613Y-63580973D01*
X116213180Y-63532759D01*
X116281787Y-63519535D01*
X116346651Y-63545503D01*
X116377385Y-63580972D01*
X116429515Y-63671263D01*
X116508737Y-63750485D01*
X116605763Y-63806503D01*
X116713982Y-63835500D01*
X116713984Y-63835500D01*
X116826016Y-63835500D01*
X116826018Y-63835500D01*
X116934237Y-63806503D01*
X117031263Y-63750485D01*
X117110485Y-63671263D01*
X117166503Y-63574237D01*
X117195500Y-63466018D01*
X117195500Y-63353982D01*
X117166503Y-63245763D01*
X117110485Y-63148737D01*
X117031263Y-63069515D01*
X116934237Y-63013497D01*
X116826018Y-62984500D01*
X116713982Y-62984500D01*
X116605763Y-63013497D01*
X116605760Y-63013498D01*
X116508740Y-63069513D01*
X116508734Y-63069517D01*
X116429517Y-63148734D01*
X116429513Y-63148740D01*
X116377387Y-63239025D01*
X116326820Y-63287241D01*
X116258213Y-63300463D01*
X116193348Y-63274495D01*
X116162613Y-63239025D01*
X116152006Y-63220654D01*
X116110485Y-63148737D01*
X116031263Y-63069515D01*
X115934237Y-63013497D01*
X115826018Y-62984500D01*
X115713982Y-62984500D01*
X115605763Y-63013497D01*
X115605760Y-63013498D01*
X115508740Y-63069513D01*
X115508734Y-63069517D01*
X115429517Y-63148734D01*
X115429513Y-63148740D01*
X115373498Y-63245760D01*
X115373497Y-63245763D01*
X115344500Y-63353982D01*
X115344500Y-63474145D01*
X115341497Y-63474145D01*
X115332925Y-63529031D01*
X115286532Y-63581276D01*
X115219259Y-63600145D01*
X115188672Y-63595929D01*
X115146018Y-63584500D01*
X115033982Y-63584500D01*
X114925763Y-63613497D01*
X114925760Y-63613498D01*
X114828740Y-63669513D01*
X114828734Y-63669517D01*
X114749517Y-63748734D01*
X114749513Y-63748740D01*
X114693498Y-63845760D01*
X114693497Y-63845763D01*
X114664500Y-63953982D01*
X114664500Y-64066018D01*
X114688987Y-64157403D01*
X114693497Y-64174236D01*
X114693498Y-64174239D01*
X114712169Y-64206579D01*
X114749515Y-64271263D01*
X114749517Y-64271265D01*
X114778181Y-64299929D01*
X114811666Y-64361252D01*
X114814500Y-64387610D01*
X114814500Y-64704522D01*
X114794815Y-64771561D01*
X114778181Y-64792203D01*
X113792204Y-65778181D01*
X113730881Y-65811666D01*
X113704523Y-65814500D01*
X111065198Y-65814500D01*
X110993599Y-65844158D01*
X110963939Y-65856443D01*
X109852204Y-66968181D01*
X109790881Y-67001666D01*
X109764523Y-67004500D01*
X109283129Y-67004500D01*
X109216090Y-66984815D01*
X109170335Y-66932011D01*
X109160391Y-66862853D01*
X109164152Y-66845564D01*
X109168188Y-66831819D01*
X109179074Y-66794746D01*
X109195500Y-66680500D01*
X109195500Y-64116610D01*
X109215185Y-64049571D01*
X109267989Y-64003816D01*
X109337147Y-63993872D01*
X109400703Y-64022897D01*
X109407181Y-64028929D01*
X109428737Y-64050485D01*
X109525763Y-64106503D01*
X109633982Y-64135500D01*
X109633984Y-64135500D01*
X109746016Y-64135500D01*
X109746018Y-64135500D01*
X109854237Y-64106503D01*
X109951263Y-64050485D01*
X110030485Y-63971263D01*
X110086503Y-63874237D01*
X110115500Y-63766018D01*
X110115500Y-63653982D01*
X110086503Y-63545763D01*
X110030485Y-63448737D01*
X109951263Y-63369515D01*
X109871327Y-63323364D01*
X109854239Y-63313498D01*
X109854238Y-63313497D01*
X109854237Y-63313497D01*
X109746018Y-63284500D01*
X109633982Y-63284500D01*
X109525763Y-63313497D01*
X109525760Y-63313498D01*
X109428740Y-63369513D01*
X109428734Y-63369517D01*
X109407181Y-63391071D01*
X109345858Y-63424556D01*
X109276166Y-63419572D01*
X109220233Y-63377700D01*
X109195816Y-63312236D01*
X109195500Y-63303390D01*
X109195500Y-62053982D01*
X110364500Y-62053982D01*
X110364500Y-62166018D01*
X110393497Y-62274237D01*
X110449515Y-62371263D01*
X110528737Y-62450485D01*
X110625763Y-62506503D01*
X110733982Y-62535500D01*
X110733984Y-62535500D01*
X110846016Y-62535500D01*
X110846018Y-62535500D01*
X110954237Y-62506503D01*
X111051263Y-62450485D01*
X111130485Y-62371263D01*
X111186503Y-62274237D01*
X111215500Y-62166018D01*
X111215500Y-62053982D01*
X111186503Y-61945763D01*
X111130485Y-61848737D01*
X111051263Y-61769515D01*
X110954237Y-61713497D01*
X110846018Y-61684500D01*
X110733982Y-61684500D01*
X110625763Y-61713497D01*
X110625760Y-61713498D01*
X110528740Y-61769513D01*
X110528734Y-61769517D01*
X110449517Y-61848734D01*
X110449513Y-61848740D01*
X110393498Y-61945760D01*
X110393497Y-61945763D01*
X110364500Y-62053982D01*
X109195500Y-62053982D01*
X109195500Y-61141384D01*
X109215185Y-61074345D01*
X109267989Y-61028590D01*
X109319687Y-61017384D01*
X111682119Y-61021007D01*
G37*
G04 #@! TD.AperFunction*
G04 #@! TA.AperFunction,Conductor*
G36*
X178792702Y-50060618D02*
G01*
X178805967Y-50061197D01*
X179198558Y-50078337D01*
X179209293Y-50079277D01*
X179609386Y-50131950D01*
X179620010Y-50133823D01*
X180013993Y-50221167D01*
X180024405Y-50223956D01*
X180409279Y-50345307D01*
X180419414Y-50348996D01*
X180792232Y-50503423D01*
X180802024Y-50507989D01*
X180850519Y-50533234D01*
X181159942Y-50694309D01*
X181169310Y-50699717D01*
X181509638Y-50916530D01*
X181518499Y-50922735D01*
X181838627Y-51168378D01*
X181846914Y-51175332D01*
X182144412Y-51447938D01*
X182152061Y-51455587D01*
X182424667Y-51753085D01*
X182431621Y-51761372D01*
X182677264Y-52081500D01*
X182683469Y-52090361D01*
X182900282Y-52430689D01*
X182905690Y-52440057D01*
X183092007Y-52797969D01*
X183096579Y-52807773D01*
X183250997Y-53180570D01*
X183254697Y-53190735D01*
X183376037Y-53575575D01*
X183378837Y-53586025D01*
X183466173Y-53979977D01*
X183468051Y-53990629D01*
X183518626Y-54374782D01*
X183520720Y-54390683D01*
X183521663Y-54401460D01*
X183529244Y-54575092D01*
X183537324Y-54760172D01*
X183539382Y-54807297D01*
X183539500Y-54812706D01*
X183539500Y-54930265D01*
X183519815Y-54997304D01*
X183467011Y-55043059D01*
X183415862Y-55054264D01*
X166312465Y-55104140D01*
X166312446Y-55104141D01*
X166226856Y-55113533D01*
X166175707Y-55124738D01*
X166104641Y-55147327D01*
X166104638Y-55147329D01*
X166089303Y-55156877D01*
X166021989Y-55175599D01*
X165955238Y-55154957D01*
X165910244Y-55101503D01*
X165903989Y-55083703D01*
X165900415Y-55070363D01*
X165896503Y-55055763D01*
X165840485Y-54958737D01*
X165761263Y-54879515D01*
X165664237Y-54823497D01*
X165556018Y-54794500D01*
X165443982Y-54794500D01*
X165335763Y-54823497D01*
X165335760Y-54823498D01*
X165238740Y-54879513D01*
X165238734Y-54879517D01*
X165159517Y-54958734D01*
X165159512Y-54958740D01*
X165147941Y-54978782D01*
X165097372Y-55026996D01*
X165028764Y-55040216D01*
X164963901Y-55014246D01*
X164923374Y-54957330D01*
X164916558Y-54917296D01*
X164897050Y-50185010D01*
X164916458Y-50117891D01*
X164969073Y-50071919D01*
X165021049Y-50060500D01*
X178745830Y-50060500D01*
X178787294Y-50060500D01*
X178792702Y-50060618D01*
G37*
G04 #@! TD.AperFunction*
G04 #@! TA.AperFunction,Conductor*
G36*
X102927539Y-50080185D02*
G01*
X102973294Y-50132989D01*
X102984500Y-50184500D01*
X102984500Y-54462350D01*
X102964815Y-54529389D01*
X102912011Y-54575144D01*
X102842853Y-54585088D01*
X102813047Y-54576911D01*
X102734802Y-54544500D01*
X102734800Y-54544500D01*
X95034902Y-54544500D01*
X94967863Y-54524815D01*
X94922108Y-54472011D01*
X94915130Y-54452601D01*
X94886503Y-54345763D01*
X94830485Y-54248737D01*
X94751263Y-54169515D01*
X94686579Y-54132169D01*
X94654239Y-54113498D01*
X94654238Y-54113497D01*
X94654237Y-54113497D01*
X94546018Y-54084500D01*
X94433982Y-54084500D01*
X94325763Y-54113497D01*
X94325760Y-54113498D01*
X94228740Y-54169513D01*
X94228734Y-54169517D01*
X94149517Y-54248734D01*
X94149513Y-54248740D01*
X94093498Y-54345760D01*
X94093497Y-54345763D01*
X94064500Y-54453982D01*
X94064500Y-54574145D01*
X94062742Y-54574145D01*
X94053513Y-54633344D01*
X94007136Y-54685602D01*
X93941337Y-54704500D01*
X84174638Y-54704500D01*
X84163355Y-54701186D01*
X84151655Y-54702351D01*
X84130446Y-54691523D01*
X84107599Y-54684815D01*
X84099899Y-54675929D01*
X84089425Y-54670582D01*
X84077435Y-54650004D01*
X84061844Y-54632011D01*
X84059278Y-54618842D01*
X84054250Y-54610212D01*
X84050756Y-54575092D01*
X84054180Y-54496658D01*
X84058337Y-54401439D01*
X84059276Y-54390708D01*
X84111951Y-53990609D01*
X84113823Y-53979993D01*
X84201168Y-53586000D01*
X84203955Y-53575600D01*
X84325309Y-53190713D01*
X84328993Y-53180592D01*
X84483426Y-52807758D01*
X84487984Y-52797984D01*
X84674315Y-52440045D01*
X84679710Y-52430700D01*
X84896537Y-52090350D01*
X84902727Y-52081511D01*
X85148385Y-51761363D01*
X85155323Y-51753094D01*
X85427949Y-51455575D01*
X85435575Y-51447949D01*
X85733094Y-51175323D01*
X85741363Y-51168385D01*
X86061511Y-50922727D01*
X86070350Y-50916537D01*
X86410700Y-50699710D01*
X86420045Y-50694315D01*
X86777984Y-50507984D01*
X86787758Y-50503426D01*
X87160592Y-50348993D01*
X87170713Y-50345309D01*
X87555600Y-50223955D01*
X87566000Y-50221168D01*
X87959993Y-50133823D01*
X87970609Y-50131951D01*
X88370708Y-50079276D01*
X88381439Y-50078337D01*
X88774636Y-50061170D01*
X88787298Y-50060618D01*
X88792706Y-50060500D01*
X88834170Y-50060500D01*
X102860500Y-50060500D01*
X102927539Y-50080185D01*
G37*
G04 #@! TD.AperFunction*
M02*
