G04 #@! TF.GenerationSoftware,KiCad,Pcbnew,9.0.4-9.0.4-0~ubuntu24.04.1*
G04 #@! TF.CreationDate,2025-10-02T15:10:47+02:00*
G04 #@! TF.ProjectId,DRV8701_2Motors,44525638-3730-4315-9f32-4d6f746f7273,rev?*
G04 #@! TF.SameCoordinates,Original*
G04 #@! TF.FileFunction,Soldermask,Top*
G04 #@! TF.FilePolarity,Negative*
%FSLAX46Y46*%
G04 Gerber Fmt 4.6, Leading zero omitted, Abs format (unit mm)*
G04 Created by KiCad (PCBNEW 9.0.4-9.0.4-0~ubuntu24.04.1) date 2025-10-02 15:10:47*
%MOMM*%
%LPD*%
G01*
G04 APERTURE LIST*
G04 Aperture macros list*
%AMRoundRect*
0 Rectangle with rounded corners*
0 $1 Rounding radius*
0 $2 $3 $4 $5 $6 $7 $8 $9 X,Y pos of 4 corners*
0 Add a 4 corners polygon primitive as box body*
4,1,4,$2,$3,$4,$5,$6,$7,$8,$9,$2,$3,0*
0 Add four circle primitives for the rounded corners*
1,1,$1+$1,$2,$3*
1,1,$1+$1,$4,$5*
1,1,$1+$1,$6,$7*
1,1,$1+$1,$8,$9*
0 Add four rect primitives between the rounded corners*
20,1,$1+$1,$2,$3,$4,$5,0*
20,1,$1+$1,$4,$5,$6,$7,0*
20,1,$1+$1,$6,$7,$8,$9,0*
20,1,$1+$1,$8,$9,$2,$3,0*%
G04 Aperture macros list end*
%ADD10R,0.600000X0.400000*%
%ADD11R,0.880000X0.400000*%
%ADD12R,0.820000X0.400000*%
%ADD13R,0.840000X0.400000*%
%ADD14R,0.830000X0.400000*%
%ADD15R,3.500000X4.210000*%
%ADD16RoundRect,0.135000X-0.185000X0.135000X-0.185000X-0.135000X0.185000X-0.135000X0.185000X0.135000X0*%
%ADD17RoundRect,0.140000X-0.140000X-0.170000X0.140000X-0.170000X0.140000X0.170000X-0.140000X0.170000X0*%
%ADD18RoundRect,0.250000X-0.475000X0.250000X-0.475000X-0.250000X0.475000X-0.250000X0.475000X0.250000X0*%
%ADD19RoundRect,0.225000X-0.250000X0.225000X-0.250000X-0.225000X0.250000X-0.225000X0.250000X0.225000X0*%
%ADD20RoundRect,0.140000X0.140000X0.170000X-0.140000X0.170000X-0.140000X-0.170000X0.140000X-0.170000X0*%
%ADD21RoundRect,0.250000X1.425000X-0.362500X1.425000X0.362500X-1.425000X0.362500X-1.425000X-0.362500X0*%
%ADD22RoundRect,0.057500X-0.447500X-0.172500X0.447500X-0.172500X0.447500X0.172500X-0.447500X0.172500X0*%
%ADD23RoundRect,0.057500X-0.172500X-0.447500X0.172500X-0.447500X0.172500X0.447500X-0.172500X0.447500X0*%
%ADD24RoundRect,0.050000X-1.350000X-1.350000X1.350000X-1.350000X1.350000X1.350000X-1.350000X1.350000X0*%
%ADD25RoundRect,0.250000X0.650000X-0.325000X0.650000X0.325000X-0.650000X0.325000X-0.650000X-0.325000X0*%
%ADD26RoundRect,0.225000X0.335876X0.017678X0.017678X0.335876X-0.335876X-0.017678X-0.017678X-0.335876X0*%
%ADD27RoundRect,0.135000X0.185000X-0.135000X0.185000X0.135000X-0.185000X0.135000X-0.185000X-0.135000X0*%
%ADD28RoundRect,0.225000X0.250000X-0.225000X0.250000X0.225000X-0.250000X0.225000X-0.250000X-0.225000X0*%
%ADD29C,5.000000*%
%ADD30C,2.200000*%
%ADD31RoundRect,0.140000X0.170000X-0.140000X0.170000X0.140000X-0.170000X0.140000X-0.170000X-0.140000X0*%
%ADD32RoundRect,0.135000X0.135000X0.185000X-0.135000X0.185000X-0.135000X-0.185000X0.135000X-0.185000X0*%
%ADD33R,0.400000X0.600000*%
%ADD34R,0.400000X0.880000*%
%ADD35R,0.400000X0.820000*%
%ADD36R,0.400000X0.840000*%
%ADD37R,0.400000X0.830000*%
%ADD38R,4.210000X3.500000*%
%ADD39RoundRect,0.140000X-0.170000X0.140000X-0.170000X-0.140000X0.170000X-0.140000X0.170000X0.140000X0*%
%ADD40R,2.400000X0.740000*%
%ADD41RoundRect,0.090000X-0.360000X0.660000X-0.360000X-0.660000X0.360000X-0.660000X0.360000X0.660000X0*%
%ADD42RoundRect,0.057500X-0.172500X0.447500X-0.172500X-0.447500X0.172500X-0.447500X0.172500X0.447500X0*%
%ADD43RoundRect,0.057500X-0.447500X0.172500X-0.447500X-0.172500X0.447500X-0.172500X0.447500X0.172500X0*%
%ADD44RoundRect,0.050000X-1.350000X1.350000X-1.350000X-1.350000X1.350000X-1.350000X1.350000X1.350000X0*%
%ADD45RoundRect,0.225000X0.225000X0.250000X-0.225000X0.250000X-0.225000X-0.250000X0.225000X-0.250000X0*%
%ADD46C,1.600000*%
%ADD47RoundRect,0.102000X-0.600000X0.600000X-0.600000X-0.600000X0.600000X-0.600000X0.600000X0.600000X0*%
%ADD48C,1.404000*%
%ADD49RoundRect,0.135000X-0.135000X-0.185000X0.135000X-0.185000X0.135000X0.185000X-0.135000X0.185000X0*%
%ADD50RoundRect,0.218750X-0.218750X-0.256250X0.218750X-0.256250X0.218750X0.256250X-0.218750X0.256250X0*%
%ADD51R,1.350000X0.600000*%
%ADD52R,0.740000X2.400000*%
%ADD53RoundRect,0.225000X-0.225000X-0.250000X0.225000X-0.250000X0.225000X0.250000X-0.225000X0.250000X0*%
%ADD54RoundRect,0.210000X-0.763675X0.070711X0.070711X-0.763675X0.763675X-0.070711X-0.070711X0.763675X0*%
%ADD55RoundRect,0.250000X-0.650000X0.325000X-0.650000X-0.325000X0.650000X-0.325000X0.650000X0.325000X0*%
%ADD56RoundRect,0.076750X-0.810250X-0.230250X0.810250X-0.230250X0.810250X0.230250X-0.810250X0.230250X0*%
%ADD57RoundRect,0.237500X0.237500X-0.287500X0.237500X0.287500X-0.237500X0.287500X-0.237500X-0.287500X0*%
%ADD58RoundRect,0.150000X0.825000X0.150000X-0.825000X0.150000X-0.825000X-0.150000X0.825000X-0.150000X0*%
%ADD59R,1.700000X1.700000*%
%ADD60C,1.700000*%
%ADD61RoundRect,0.150000X-0.825000X-0.150000X0.825000X-0.150000X0.825000X0.150000X-0.825000X0.150000X0*%
%ADD62RoundRect,0.250000X-0.725000X0.600000X-0.725000X-0.600000X0.725000X-0.600000X0.725000X0.600000X0*%
%ADD63O,1.950000X1.700000*%
%ADD64RoundRect,0.102000X-0.450000X-0.300000X0.450000X-0.300000X0.450000X0.300000X-0.450000X0.300000X0*%
%ADD65RoundRect,0.075000X0.700000X0.075000X-0.700000X0.075000X-0.700000X-0.075000X0.700000X-0.075000X0*%
%ADD66RoundRect,0.075000X0.075000X0.700000X-0.075000X0.700000X-0.075000X-0.700000X0.075000X-0.700000X0*%
G04 APERTURE END LIST*
D10*
X89020000Y-76110000D03*
X89020000Y-77380000D03*
X89020000Y-78650000D03*
X89020000Y-79920000D03*
D11*
X93980000Y-79920000D03*
D12*
X94010000Y-78650000D03*
D13*
X94000000Y-77380000D03*
D14*
X94005000Y-76110000D03*
D15*
X91870000Y-78015000D03*
D16*
X86500000Y-98070000D03*
X86500000Y-99090000D03*
D17*
X134488500Y-77480000D03*
X135448500Y-77480000D03*
D18*
X146480000Y-73110000D03*
X146480000Y-75010000D03*
X96100000Y-76350000D03*
X96100000Y-78250000D03*
D19*
X96500000Y-80965000D03*
X96500000Y-82515000D03*
D20*
X124370000Y-85530000D03*
X123410000Y-85530000D03*
D17*
X157740000Y-101145000D03*
X158700000Y-101145000D03*
D21*
X85000000Y-72362500D03*
X85000000Y-66437500D03*
D16*
X131150000Y-83290000D03*
X131150000Y-84310000D03*
D22*
X99495000Y-77090000D03*
X99495000Y-77590000D03*
X99495000Y-78090000D03*
X99495000Y-78590000D03*
X99495000Y-79090000D03*
X99495000Y-79590000D03*
D23*
X100200000Y-80295000D03*
X100700000Y-80295000D03*
X101200000Y-80295000D03*
X101700000Y-80295000D03*
X102200000Y-80295000D03*
X102700000Y-80295000D03*
D22*
X103405000Y-79590000D03*
X103405000Y-79090000D03*
X103405000Y-78590000D03*
X103405000Y-78090000D03*
X103405000Y-77590000D03*
X103405000Y-77090000D03*
D23*
X102700000Y-76385000D03*
X102200000Y-76385000D03*
X101700000Y-76385000D03*
X101200000Y-76385000D03*
X100700000Y-76385000D03*
X100200000Y-76385000D03*
D24*
X101450000Y-78340000D03*
D17*
X135220000Y-96900000D03*
X136180000Y-96900000D03*
D25*
X96200000Y-74475000D03*
X96200000Y-71525000D03*
D16*
X126450000Y-99580000D03*
X126450000Y-100600000D03*
D26*
X141556016Y-92876016D03*
X140460000Y-91780000D03*
D27*
X163170000Y-91700000D03*
X163170000Y-90680000D03*
X86520000Y-92740000D03*
X86520000Y-91720000D03*
D28*
X98300000Y-74475000D03*
X98300000Y-72925000D03*
D29*
X170000000Y-69000000D03*
D10*
X158230000Y-79895000D03*
X158230000Y-78625000D03*
X158230000Y-77355000D03*
X158230000Y-76085000D03*
D11*
X153270000Y-76085000D03*
D12*
X153240000Y-77355000D03*
D13*
X153250000Y-78625000D03*
D14*
X153245000Y-79895000D03*
D15*
X155380000Y-77990000D03*
D30*
X169670000Y-83000000D03*
X169670000Y-78000000D03*
D31*
X119800000Y-99570000D03*
X119800000Y-98610000D03*
D32*
X99115000Y-81590000D03*
X98095000Y-81590000D03*
D16*
X128250000Y-99580000D03*
X128250000Y-100600000D03*
D30*
X78400000Y-83000000D03*
X78400000Y-78000000D03*
D33*
X87525000Y-74840000D03*
X86255000Y-74840000D03*
X84985000Y-74840000D03*
X83715000Y-74840000D03*
D34*
X83715000Y-79800000D03*
D35*
X84985000Y-79830000D03*
D36*
X86255000Y-79820000D03*
D37*
X87525000Y-79825000D03*
D38*
X85620000Y-77690000D03*
D16*
X163180000Y-98560000D03*
X163180000Y-99580000D03*
D39*
X129900000Y-83320000D03*
X129900000Y-84280000D03*
D40*
X170550000Y-97940000D03*
X166650000Y-97940000D03*
X170550000Y-96670000D03*
X166650000Y-96670000D03*
X170550000Y-95400000D03*
X166650000Y-95400000D03*
X170550000Y-94130000D03*
X166650000Y-94130000D03*
X170550000Y-92860000D03*
X166650000Y-92860000D03*
D20*
X91570000Y-89980000D03*
X90610000Y-89980000D03*
D39*
X132400000Y-83320000D03*
X132400000Y-84280000D03*
D41*
X117705000Y-90140000D03*
X114405000Y-90140000D03*
X114405000Y-95040000D03*
X117705000Y-95040000D03*
D26*
X139136016Y-90546016D03*
X138040000Y-89450000D03*
D32*
X125008500Y-79680000D03*
X123988500Y-79680000D03*
D42*
X148295000Y-78585000D03*
X147795000Y-78585000D03*
X147295000Y-78585000D03*
X146795000Y-78585000D03*
X146295000Y-78585000D03*
X145795000Y-78585000D03*
D43*
X145090000Y-79290000D03*
X145090000Y-79790000D03*
X145090000Y-80290000D03*
X145090000Y-80790000D03*
X145090000Y-81290000D03*
X145090000Y-81790000D03*
D42*
X145795000Y-82495000D03*
X146295000Y-82495000D03*
X146795000Y-82495000D03*
X147295000Y-82495000D03*
X147795000Y-82495000D03*
X148295000Y-82495000D03*
D43*
X149000000Y-81790000D03*
X149000000Y-81290000D03*
X149000000Y-80790000D03*
X149000000Y-80290000D03*
X149000000Y-79790000D03*
X149000000Y-79290000D03*
D44*
X147045000Y-80540000D03*
D45*
X144425000Y-76140000D03*
X142875000Y-76140000D03*
D46*
X103405000Y-91350000D03*
X103405000Y-93890000D03*
X103405000Y-96430000D03*
D28*
X111555000Y-95975000D03*
X111555000Y-94425000D03*
D47*
X108940000Y-69400000D03*
D48*
X108940000Y-74400000D03*
D16*
X118800000Y-81990000D03*
X118800000Y-83010000D03*
D49*
X90490000Y-101970000D03*
X91510000Y-101970000D03*
D21*
X162770000Y-72332500D03*
X162770000Y-66407500D03*
D16*
X142300000Y-82190000D03*
X142300000Y-83210000D03*
D20*
X124370000Y-84480000D03*
X123410000Y-84480000D03*
D16*
X130050000Y-99580000D03*
X130050000Y-100600000D03*
D10*
X157950000Y-85905000D03*
X157950000Y-84635000D03*
X157950000Y-83365000D03*
X157950000Y-82095000D03*
D11*
X152990000Y-82095000D03*
D12*
X152960000Y-83365000D03*
D13*
X152970000Y-84635000D03*
D14*
X152965000Y-85905000D03*
D15*
X155100000Y-84000000D03*
D49*
X98095000Y-82740000D03*
X99115000Y-82740000D03*
D33*
X83705000Y-87120000D03*
X84975000Y-87120000D03*
X86245000Y-87120000D03*
X87515000Y-87120000D03*
D34*
X87515000Y-82160000D03*
D35*
X86245000Y-82130000D03*
D36*
X84975000Y-82140000D03*
D37*
X83705000Y-82135000D03*
D38*
X85610000Y-84270000D03*
D16*
X143800000Y-82190000D03*
X143800000Y-83210000D03*
D50*
X134112500Y-83200000D03*
X135687500Y-83200000D03*
D32*
X125008500Y-77680000D03*
X123988500Y-77680000D03*
D51*
X115850000Y-103750000D03*
X120900000Y-103750000D03*
X120900000Y-102050000D03*
X115850000Y-102050000D03*
D52*
X138010000Y-101390000D03*
X138010000Y-97490000D03*
X139280000Y-101390000D03*
X139280000Y-97490000D03*
X140550000Y-101390000D03*
X140550000Y-97490000D03*
X141820000Y-101390000D03*
X141820000Y-97490000D03*
X143090000Y-101390000D03*
X143090000Y-97490000D03*
X144360000Y-101390000D03*
X144360000Y-97490000D03*
X145630000Y-101390000D03*
X145630000Y-97490000D03*
D53*
X103530000Y-85290000D03*
X105080000Y-85290000D03*
D47*
X137340000Y-69200000D03*
D48*
X137340000Y-74200000D03*
D16*
X131850000Y-99580000D03*
X131850000Y-100600000D03*
D54*
X141196051Y-85723949D03*
X145297270Y-89825168D03*
X143480006Y-91642432D03*
X139400000Y-87520000D03*
D32*
X135478500Y-78880000D03*
X134458500Y-78880000D03*
D33*
X164255000Y-75000000D03*
X162985000Y-75000000D03*
X161715000Y-75000000D03*
X160445000Y-75000000D03*
D34*
X160445000Y-79960000D03*
D35*
X161715000Y-79990000D03*
D36*
X162985000Y-79980000D03*
D37*
X164255000Y-79985000D03*
D38*
X162350000Y-77850000D03*
D30*
X121560000Y-69970000D03*
X126560000Y-69970000D03*
D27*
X128580000Y-84310000D03*
X128580000Y-83290000D03*
X143750000Y-78700000D03*
X143750000Y-77680000D03*
D55*
X111555000Y-89015000D03*
X111555000Y-91965000D03*
D45*
X99380000Y-84140000D03*
X97830000Y-84140000D03*
D28*
X148430000Y-75075000D03*
X148430000Y-73525000D03*
D56*
X126910000Y-77030000D03*
X126910000Y-77680000D03*
X126910000Y-78330000D03*
X126910000Y-78980000D03*
X126910000Y-79630000D03*
X126910000Y-80280000D03*
X126910000Y-80930000D03*
X132650000Y-80930000D03*
X132650000Y-80280000D03*
X132650000Y-79630000D03*
X132650000Y-78980000D03*
X132650000Y-78330000D03*
X132650000Y-77680000D03*
X132650000Y-77030000D03*
D57*
X116880000Y-83275000D03*
X116880000Y-81525000D03*
D58*
X160975000Y-99545000D03*
X160975000Y-98275000D03*
X160975000Y-97005000D03*
X160975000Y-95735000D03*
X160975000Y-94465000D03*
X160975000Y-93195000D03*
X160975000Y-91925000D03*
X160975000Y-90655000D03*
X156025000Y-90655000D03*
X156025000Y-91925000D03*
X156025000Y-93195000D03*
X156025000Y-94465000D03*
X156025000Y-95735000D03*
X156025000Y-97005000D03*
X156025000Y-98275000D03*
X156025000Y-99545000D03*
D17*
X135220000Y-98000000D03*
X136180000Y-98000000D03*
D32*
X135488500Y-80280000D03*
X134468500Y-80280000D03*
D20*
X123290000Y-96470000D03*
X122330000Y-96470000D03*
D49*
X103795000Y-81590000D03*
X104815000Y-81590000D03*
D19*
X141200000Y-76900000D03*
X141200000Y-78450000D03*
D59*
X133230000Y-103090000D03*
D60*
X130690000Y-103090000D03*
X128150000Y-103090000D03*
X125610000Y-103090000D03*
D61*
X88450000Y-91550000D03*
X88450000Y-92820000D03*
X88450000Y-94090000D03*
X88450000Y-95360000D03*
X88450000Y-96630000D03*
X88450000Y-97900000D03*
X88450000Y-99170000D03*
X88450000Y-100440000D03*
X93400000Y-100440000D03*
X93400000Y-99170000D03*
X93400000Y-97900000D03*
X93400000Y-96630000D03*
X93400000Y-95360000D03*
X93400000Y-94090000D03*
X93400000Y-92820000D03*
X93400000Y-91550000D03*
D16*
X119655000Y-93090000D03*
X119655000Y-94110000D03*
X142600000Y-77680000D03*
X142600000Y-78700000D03*
D33*
X160455000Y-87190000D03*
X161725000Y-87190000D03*
X162995000Y-87190000D03*
X164265000Y-87190000D03*
D34*
X164265000Y-82230000D03*
D35*
X162995000Y-82200000D03*
D36*
X161725000Y-82210000D03*
D37*
X160455000Y-82205000D03*
D38*
X162360000Y-84340000D03*
D32*
X160980000Y-101165000D03*
X159960000Y-101165000D03*
D17*
X134320000Y-85600000D03*
X135280000Y-85600000D03*
D19*
X118205000Y-97725000D03*
X118205000Y-99275000D03*
D29*
X78000000Y-69000000D03*
D16*
X141000000Y-82190000D03*
X141000000Y-83210000D03*
D62*
X150560000Y-92410000D03*
D63*
X150560000Y-94910000D03*
X150560000Y-97410000D03*
X150560000Y-99910000D03*
D10*
X89050000Y-82100000D03*
X89050000Y-83370000D03*
X89050000Y-84640000D03*
X89050000Y-85910000D03*
D11*
X94010000Y-85910000D03*
D12*
X94040000Y-84640000D03*
D13*
X94030000Y-83370000D03*
D14*
X94035000Y-82100000D03*
D15*
X91900000Y-84005000D03*
D64*
X113505000Y-97500000D03*
X113505000Y-98450000D03*
X113505000Y-99400000D03*
X116305000Y-99400000D03*
X116305000Y-97500000D03*
D31*
X119655000Y-91690000D03*
X119655000Y-90730000D03*
D40*
X81350000Y-97940000D03*
X77450000Y-97940000D03*
X81350000Y-96670000D03*
X77450000Y-96670000D03*
X81350000Y-95400000D03*
X77450000Y-95400000D03*
X81350000Y-94130000D03*
X77450000Y-94130000D03*
X81350000Y-92860000D03*
X77450000Y-92860000D03*
D19*
X139400000Y-81525000D03*
X139400000Y-83075000D03*
D25*
X150560000Y-75115000D03*
X150560000Y-72165000D03*
D65*
X134875000Y-95440000D03*
X134875000Y-94940000D03*
X134875000Y-94440000D03*
X134875000Y-93940000D03*
X134875000Y-93440000D03*
X134875000Y-92940000D03*
X134875000Y-92440000D03*
X134875000Y-91940000D03*
X134875000Y-91440000D03*
X134875000Y-90940000D03*
X134875000Y-90440000D03*
X134875000Y-89940000D03*
X134875000Y-89440000D03*
X134875000Y-88940000D03*
X134875000Y-88440000D03*
X134875000Y-87940000D03*
D66*
X132950000Y-86015000D03*
X132450000Y-86015000D03*
X131950000Y-86015000D03*
X131450000Y-86015000D03*
X130950000Y-86015000D03*
X130450000Y-86015000D03*
X129950000Y-86015000D03*
X129450000Y-86015000D03*
X128950000Y-86015000D03*
X128450000Y-86015000D03*
X127950000Y-86015000D03*
X127450000Y-86015000D03*
X126950000Y-86015000D03*
X126450000Y-86015000D03*
X125950000Y-86015000D03*
X125450000Y-86015000D03*
D65*
X123525000Y-87940000D03*
X123525000Y-88440000D03*
X123525000Y-88940000D03*
X123525000Y-89440000D03*
X123525000Y-89940000D03*
X123525000Y-90440000D03*
X123525000Y-90940000D03*
X123525000Y-91440000D03*
X123525000Y-91940000D03*
X123525000Y-92440000D03*
X123525000Y-92940000D03*
X123525000Y-93440000D03*
X123525000Y-93940000D03*
X123525000Y-94440000D03*
X123525000Y-94940000D03*
X123525000Y-95440000D03*
D66*
X125450000Y-97365000D03*
X125950000Y-97365000D03*
X126450000Y-97365000D03*
X126950000Y-97365000D03*
X127450000Y-97365000D03*
X127950000Y-97365000D03*
X128450000Y-97365000D03*
X128950000Y-97365000D03*
X129450000Y-97365000D03*
X129950000Y-97365000D03*
X130450000Y-97365000D03*
X130950000Y-97365000D03*
X131450000Y-97365000D03*
X131950000Y-97365000D03*
X132450000Y-97365000D03*
X132950000Y-97365000D03*
D19*
X111505000Y-97725000D03*
X111505000Y-99275000D03*
D62*
X97770000Y-92290000D03*
D63*
X97770000Y-94790000D03*
X97770000Y-97290000D03*
X97770000Y-99790000D03*
D49*
X103795000Y-82740000D03*
X104815000Y-82740000D03*
X103795000Y-83890000D03*
X104815000Y-83890000D03*
D17*
X134320000Y-84500000D03*
X135280000Y-84500000D03*
M02*
